<?xml version="1.0" encoding="utf-8"?>
<!-- Generator: Adobe Illustrator 16.0.0, SVG Export Plug-In . SVG Version: 6.00 Build 0)  -->
<!DOCTYPE svg PUBLIC "-//W3C//DTD SVG 1.1//EN" "http://www.w3.org/Graphics/SVG/1.1/DTD/svg11.dtd">
<svg version="1.1" id="Ebene_2" xmlns="http://www.w3.org/2000/svg" xmlns:xlink="http://www.w3.org/1999/xlink" x="0px" y="0px"
	 width="300px" height="155px" viewBox="0 0 300 155" enable-background="new 0 0 300 155" xml:space="preserve">
<polygon fill="#FFFFFF" points="163.347,102.043 186.031,102.043 183.956,97.682 178.775,97.682 151.604,40.543 142.861,40.543 
	140.788,44.903 148.847,44.903 173.946,97.682 166.103,97.682 145.642,54.654 125.181,97.682 117.776,97.682 115.703,102.043 
	127.937,102.043 136.026,85.031 148.137,85.031 146.063,80.668 138.101,80.668 145.642,64.811 "/>
<g>
	<path fill="#FFFFFF" d="M91.489,46.077c1.202,0.172,2.421,0.256,3.662,0.256c7.367,0,15.401-3.016,23.939-8.992l31.67-22.18
		c0.141-0.101,0.274-0.183,0.415-0.277c0.141,0.095,0.275,0.179,0.416,0.279L183.26,37.34c8.539,5.977,16.573,8.992,23.94,8.992
		c1.239,0,2.462-0.084,3.662-0.256c8.726-1.241,13.06-6.562,14.182-8.166l-3.575-2.5c-1.787,2.552-5.671,5.558-11.219,6.347
		c-7.117,1.012-15.576-1.751-24.487-7.991L155.138,12.32c5.473-3.299,10.2-5.05,14.061-5.16c4.008-0.15,7.131,1.521,9.568,5
		l3.572-2.503c-3.301-4.709-7.781-7.019-13.266-6.857c-5.104,0.148-10.981,2.39-17.898,6.832
		c-6.917-4.442-12.796-6.684-17.897-6.832c-5.467-0.157-9.966,2.148-13.266,6.857l3.573,2.503c2.439-3.479,5.548-5.13,9.567-5
		c3.861,0.11,8.585,1.861,14.062,5.16l-30.626,21.446c-8.911,6.24-17.381,9.003-24.486,7.991c-5.55-0.789-9.434-3.795-11.219-6.347
		l-3.574,2.5C78.429,39.514,82.765,44.835,91.489,46.077"/>
	<path fill="#FFFFFF" d="M210.346,109.789c-8.34-1.188-17.626,1.75-27.601,8.736l-31.671,22.178c-0.142,0.1-0.275,0.184-0.416,0.279
		c-0.141-0.096-0.274-0.18-0.415-0.279l-31.67-22.178c-9.974-6.986-19.261-9.924-27.601-8.736c-8.724,1.24-13.059,6.562-14.18,8.166
		l3.574,2.5c1.785-2.553,5.67-5.557,11.219-6.348c7.116-1.012,15.575,1.752,24.487,7.992l30.624,21.447
		c-5.475,3.299-10.2,5.049-14.061,5.158c-3.986,0.102-7.129-1.52-9.567-4.998l-3.572,2.5c3.192,4.561,7.476,6.865,12.737,6.865
		c0.175,0,0.35-0.002,0.529-0.006c5.101-0.148,10.98-2.391,17.896-6.832c6.916,4.441,12.797,6.684,17.899,6.832
		c0.178,0.004,0.354,0.006,0.528,0.006c5.261,0,9.544-2.307,12.737-6.865l-3.576-2.5c-2.434,3.479-5.54,5.146-9.562,4.998
		c-3.861-0.109-8.586-1.859-14.064-5.158l30.626-21.447c8.909-6.24,17.374-9.004,24.485-7.992c5.552,0.791,9.435,3.795,11.221,6.348
		l3.574-2.5C223.405,116.352,219.07,111.029,210.346,109.789"/>
</g>
<g>
	<path fill="#FFFFFF" d="M20.575,85.979l0.22-1.539l3.08-0.303l1.485-9.157c-0.962,0.275-3.245-0.027-3.959-0.22l0.33-1.43
		c2.777,0.22,4.509-0.66,5.747-2.172h1.87l-2.117,13.005l2.64,0.221l-0.248,1.594H20.575z"/>
	<path fill="#FFFFFF" d="M36.689,89.967c-1.815,0.137-3.354-0.963-3.354-2.531c0-1.264,0.467-2.529,3.52-6.736h-3.217l0.33-1.348
		h3.822c1.678-2.363,2.915-3.793,4.015-5.114h-5.912c-1.54,0-1.787,0.357-2.475,2.117l-1.237-0.082l1.375-5.417l0.77-0.192
		c0.44,0.275,1.155,0.495,2.695,0.495h7.891l0.248,0.907c-1.32,1.319-3.492,4.234-5.307,7.286h3.08l-0.357,1.348h-3.492
		c-1.677,3.189-2.172,4.703-2.172,6.078c0,0.879,0.193,1.539,0.578,2.199L36.689,89.967z"/>
</g>
<g>
	<path fill="#FFFFFF" d="M43.344,84.746c0-1.275,0.968-2.09,2.09-2.09c0.902,0,1.519,0.463,1.519,1.408
		c0,1.277-0.99,2.135-2.112,2.135C43.697,86.199,43.344,85.451,43.344,84.746z"/>
</g>
<g>
	<path fill="#FFFFFF" d="M52.81,79.381l0.31-1.623h15.814l-0.31,1.623H52.81z"/>
</g>
<g>
	<path fill="#FFFFFF" d="M74.493,85.979l0.22-1.539l3.08-0.303l1.485-9.157c-0.962,0.275-3.245-0.027-3.959-0.22l0.33-1.43
		c2.777,0.22,4.509-0.66,5.747-2.172h1.87l-2.117,13.005l2.64,0.221l-0.248,1.594H74.493z"/>
	<path fill="#FFFFFF" d="M94.677,76.768c2.64,0.248,4.345,1.539,4.345,3.877c0,3.74-3.217,5.637-7.287,5.637
		c-3.575,0-5.719-1.43-5.719-4.316s2.365-4.949,5.912-5.225l0.027-0.082c-2.447-0.193-3.849-1.458-3.849-3.63
		c0-2.969,2.722-5.279,6.682-5.279c3.272,0,5.169,1.348,5.169,3.987c0,2.558-2.145,4.592-5.251,4.922L94.677,76.768z M95.556,80.26
		c0-1.924-0.907-2.723-2.392-2.723c-2.035,0-3.657,1.596-3.657,4.592c0,1.787,0.852,2.75,2.475,2.75
		C94.017,84.879,95.556,83.312,95.556,80.26z M96.547,71.543c0-1.622-0.688-2.337-2.007-2.337c-2.117,0-3.107,2.282-3.107,4.289
		c0,1.567,0.77,2.337,2.007,2.337C95.337,75.833,96.547,73.963,96.547,71.543z"/>
</g>
<g>
	<path fill="#FFFFFF" d="M100.453,84.746c0-1.275,0.968-2.09,2.09-2.09c0.902,0,1.519,0.463,1.519,1.408
		c0,1.277-0.99,2.135-2.112,2.135C100.805,86.199,100.453,85.451,100.453,84.746z"/>
</g>
<g>
	<path fill="#FFFFFF" d="M200.18,79.051c0-6.105,3.492-12.622,10.559-12.622c4.399,0,6.765,2.585,6.765,7.479
		c0,5.5-3.217,12.374-10.394,12.374C202.573,86.281,200.18,83.725,200.18,79.051z M213.819,72.946c0-2.997-0.853-4.84-3.492-4.84
		c-4.784,0-6.462,6.682-6.462,11.109c0,3.326,0.963,5.361,3.492,5.361C212.389,84.576,213.819,77.125,213.819,72.946z"/>
	<path fill="#FFFFFF" d="M232.271,84.301c-0.633,0.936-1.897,1.98-3.547,1.98c-1.897,0-2.832-0.906-2.832-2.309
		c0-0.357,0.055-0.744,0.165-1.129l0.439-1.566c0.056-0.221,0.083-0.412,0.083-0.578c0-0.715-0.495-1.154-1.375-1.154
		c-0.66,0-1.622,0.303-2.255,0.633l-0.962,5.691c-0.798,0-2.475,0.137-3.327,0.357l1.374-6.104l2.035-12.952l-2.09-0.22l0.22-1.375
		l5.252-0.22l0.083,0.22L223.169,78.5l2.393-1.375c2.062-1.182,3.024-1.732,2.942-2.584l-1.045-0.385
		c-0.138-1.21,0.604-2.393,2.117-2.393c1.265,0,1.925,0.936,1.925,1.87c0,0.989-0.495,1.787-1.815,2.529
		c-1.292,0.714-2.805,1.568-4.207,2.255l0.083,0.137c0.55-0.082,1.045-0.137,1.484-0.137c1.897,0,2.64,0.852,2.64,2.062
		c0,0.33-0.055,0.66-0.165,1.045l-0.385,1.43c-0.055,0.246-0.109,0.439-0.109,0.631c0,0.523,0.274,0.854,0.935,0.854
		c0.632,0,1.127-0.439,1.512-0.908L232.271,84.301z"/>
	<path fill="#FFFFFF" d="M241.869,83.943c-1.072,1.514-2.53,2.338-4.152,2.338c-2.42,0-3.409-1.264-3.409-2.914
		c0-1.045,0.247-2.172,0.55-3.959l0.962-5.445h-1.979l0.303-1.705h1.952l0.604-3.492l2.393-0.55h0.935l-0.688,4.042h2.888
		l-0.303,1.705h-2.859l-1.21,6.929c-0.11,0.633-0.275,1.375-0.275,2.172c0,0.879,0.357,1.236,1.21,1.236
		c0.771,0,1.43-0.467,2.173-1.264L241.869,83.943z"/>
	<path fill="#FFFFFF" d="M242.943,81.002c0-4.455,2.75-9.046,7.864-9.046c3.656,0,5.224,2.062,5.224,5.279
		c0,4.318-2.749,9.047-7.836,9.047C244.51,86.281,242.943,84.219,242.943,81.002z M252.649,76.465c0-1.787-0.577-3.052-2.228-3.052
		c-3.079,0-4.124,5.086-4.124,8.303c0,2.008,0.633,3.08,2.145,3.08C251.851,84.797,252.649,79.078,252.649,76.465z"/>
	<path fill="#FFFFFF" d="M262.054,75.888c1.072-2.255,2.859-3.933,5.361-3.933c2.447,0,3.74,1.87,3.74,4.949
		c0,4.564-2.75,9.377-7.837,9.377c-3.63,0-4.949-1.98-4.949-4.756c0-1.678,0.357-3.41,0.66-5.17l1.567-9.156l-2.035-0.247
		l0.247-1.375l5.252-0.247l0.138,0.247l-2.31,10.284L262.054,75.888z M267.773,76.438c0-1.54-0.33-2.612-1.649-2.612
		c-2.447,0-4.646,4.729-4.646,8.303c0,1.348,0.357,2.641,2.117,2.641C266.591,84.77,267.773,79.957,267.773,76.438z"/>
	<path fill="#FFFFFF" d="M284.108,81.553c-0.936,2.969-3.245,4.729-6.297,4.729c-3.245,0-5.005-1.951-5.005-5.279
		c0-4.62,3.053-9.046,7.754-9.046c2.42,0,3.905,1.128,3.905,3.3c0,2.997-2.723,4.153-5.032,4.647
		c-0.962,0.193-2.393,0.357-3.217,0.385v0.551c0,2.363,0.715,3.52,2.584,3.52c1.595,0,2.777-0.908,3.85-3.328L284.108,81.553z
		 M277.811,78.609c2.034-0.439,3.602-1.291,3.602-3.492c0-1.182-0.439-1.732-1.347-1.732c-1.623,0-3.19,2.035-3.657,5.417
		C276.848,78.775,277.316,78.721,277.811,78.609z"/>
	<path fill="#FFFFFF" d="M287.354,80.369l0.935-6.296l-2.117-0.302l0.248-1.402l4.977-0.221l0.138,0.303l-1.32,5.471l0.165,0.084
		c1.237-2.916,2.888-6.05,5.664-6.05c1.293,0,2.447,0.688,2.447,2.31c0,1.513-1.018,2.2-2.337,2.2c-0.303,0-0.604-0.027-0.935-0.11
		l-0.11-1.649c-0.138-0.11-0.303-0.138-0.468-0.138c-1.622,0.192-3.162,3.053-4.151,6.159c-0.495,1.568-0.688,2.971-0.936,5.115
		c-1.044,0.027-2.557,0.164-3.52,0.357L287.354,80.369z"/>
</g>
</svg>
