<?xml version="1.0" encoding="utf-8"?>
<!-- Generator: Adobe Illustrator 16.0.0, SVG Export Plug-In . SVG Version: 6.00 Build 0)  -->
<!DOCTYPE svg PUBLIC "-//W3C//DTD SVG 1.1//EN" "http://www.w3.org/Graphics/SVG/1.1/DTD/svg11.dtd">
<svg version="1.1" id="Ebene_2" xmlns="http://www.w3.org/2000/svg" xmlns:xlink="http://www.w3.org/1999/xlink" x="0px" y="0px"
	 width="220px" height="66.621px" viewBox="0 0 220 66.621" enable-background="new 0 0 220 66.621" xml:space="preserve">
<path d="M3.938,15.962c1.379-1.971,6.731-8.517,17.74-10.084c11.135-1.586,23.778,2.51,37.578,12.173l47.239,33.072
	c0.102,0.071,0.2,0.136,0.301,0.206c-9.229,5.844-17.165,8.903-23.637,9.09c-6.51,0.189-11.581-2.459-15.526-8.088l-2.906,2.035
	c4.617,6.592,10.86,9.818,18.535,9.6C90.793,63.75,99.572,60.308,110,53.49c10.43,6.817,19.208,10.259,26.738,10.477
	c7.688,0.227,13.918-3.007,18.535-9.6l-2.907-2.035c-3.943,5.631-9.027,8.258-15.524,8.088c-6.471-0.188-14.408-3.247-23.638-9.09
	c0.101-0.07,0.198-0.135,0.3-0.205l47.24-33.073c13.799-9.663,26.443-13.763,37.578-12.173c11.009,1.567,16.361,8.113,17.74,10.084
	l2.906-2.036c-1.585-2.265-7.723-9.794-20.146-11.56c-1.723-0.246-3.474-0.369-5.254-0.369c-10.68,0-22.381,4.408-34.86,13.147
	l-47.241,33.071c-0.493,0.347-0.979,0.676-1.467,1.008c-0.488-0.332-0.975-0.662-1.469-1.008l-47.24-33.071
	c-12.48-8.741-24.18-13.147-34.86-13.147c-1.78,0-3.531,0.123-5.254,0.369C8.755,4.132,2.616,11.662,1.031,13.926L3.938,15.962z"/>
</svg>
