<?xml version="1.0" encoding="utf-8"?>
<!-- Generator: Adobe Illustrator 16.0.0, SVG Export Plug-In . SVG Version: 6.00 Build 0)  -->
<!DOCTYPE svg PUBLIC "-//W3C//DTD SVG 1.1//EN" "http://www.w3.org/Graphics/SVG/1.1/DTD/svg11.dtd">
<svg version="1.1" id="Ebene_1" xmlns="http://www.w3.org/2000/svg" xmlns:xlink="http://www.w3.org/1999/xlink" x="0px" y="0px"
	 width="45px" height="45px" viewBox="0 0 45 45" enable-background="new 0 0 45 45" xml:space="preserve">
<polygon fill="#FFFFFF" points="3.852,15.765 3.925,15.783 4.006,15.792 4.081,15.802 4.167,15.802 4.238,15.783 4.315,15.773 
	4.387,15.746 4.461,15.708 4.523,15.671 4.591,15.625 4.647,15.579 4.702,15.523 4.758,15.458 4.795,15.396 4.832,15.321 
	4.86,15.247 4.888,15.162 4.897,15.08 4.906,15.006 4.897,14.923 4.888,14.848 4.869,14.774 4.841,14.702 4.813,14.625 
	4.776,14.561 4.73,14.496 4.684,14.438 4.619,14.387 4.563,14.34 4.489,14.292 4.424,14.257 4.343,14.227 4.269,14.21 4.183,14.19 
	4.102,14.19 4.027,14.19 3.951,14.201 3.87,14.22 3.795,14.245 3.73,14.275 3.666,14.31 3.601,14.356 3.536,14.412 3.489,14.468 
	3.434,14.533 3.397,14.598 3.359,14.672 3.332,14.744 3.304,14.83 3.296,14.904 3.285,14.987 3.296,15.062 3.304,15.145 
	3.322,15.219 3.341,15.291 3.378,15.356 3.415,15.43 3.464,15.486 3.508,15.554 3.563,15.606 3.626,15.653 3.693,15.702 
	3.768,15.736 "/>
<polygon fill="#FFFFFF" points="3.443,25.726 3.517,25.705 3.601,25.68 3.675,25.651 3.74,25.615 3.805,25.568 3.86,25.513 
	3.916,25.457 3.962,25.401 4.006,25.337 4.046,25.263 4.074,25.197 4.102,25.123 4.108,25.041 4.12,24.967 4.12,24.885 
	4.108,24.801 4.093,24.717 4.064,24.641 4.037,24.568 3.997,24.504 3.954,24.438 3.907,24.374 3.852,24.318 3.786,24.271 
	3.724,24.234 3.654,24.198 3.582,24.172 3.508,24.142 3.432,24.132 3.35,24.126 3.269,24.126 3.183,24.132 3.111,24.142 
	3.025,24.172 2.954,24.206 2.889,24.244 2.824,24.29 2.768,24.337 2.712,24.393 2.664,24.448 2.617,24.513 2.583,24.585 
	2.552,24.661 2.526,24.736 2.518,24.811 2.508,24.891 2.508,24.967 2.518,25.051 2.536,25.133 2.563,25.209 2.592,25.283 
	2.626,25.357 2.673,25.422 2.722,25.478 2.777,25.533 2.84,25.575 2.905,25.624 2.97,25.664 3.044,25.689 3.119,25.705 
	3.192,25.726 3.276,25.735 3.359,25.735 "/>
<polygon fill="#FFFFFF" points="7.602,34.778 7.664,34.734 7.72,34.676 7.778,34.611 7.812,34.546 7.85,34.484 7.889,34.407 
	7.905,34.336 7.924,34.262 7.934,34.176 7.934,34.102 7.924,34.02 7.915,33.948 7.889,33.871 7.859,33.798 7.824,33.724 
	7.778,33.66 7.729,33.596 7.673,33.54 7.611,33.483 7.546,33.438 7.481,33.401 7.407,33.373 7.333,33.353 7.258,33.336 
	7.175,33.329 7.101,33.329 7.017,33.336 6.943,33.345 6.869,33.373 6.797,33.401 6.722,33.438 6.655,33.483 6.59,33.528 
	6.525,33.584 6.481,33.651 6.435,33.716 6.398,33.779 6.368,33.854 6.349,33.925 6.33,34.002 6.324,34.085 6.324,34.157 
	6.33,34.233 6.342,34.316 6.368,34.392 6.398,34.466 6.435,34.54 6.481,34.602 6.525,34.668 6.581,34.723 6.646,34.778 
	6.711,34.827 6.776,34.862 6.853,34.89 6.924,34.908 6.999,34.927 7.082,34.938 7.156,34.938 7.23,34.927 7.314,34.918 7.388,34.89 
	7.462,34.862 7.537,34.827 "/>
<polygon fill="#FFFFFF" points="15.425,40.964 15.462,40.888 15.48,40.815 15.499,40.741 15.508,40.66 15.508,40.584 15.508,40.503 
	15.487,40.429 15.471,40.353 15.443,40.278 15.416,40.215 15.369,40.141 15.323,40.082 15.267,40.018 15.214,39.975 15.146,39.928 
	15.075,39.878 15,39.855 14.915,39.826 14.84,39.807 14.769,39.801 14.683,39.801 14.61,39.801 14.527,39.813 14.453,39.835 
	14.388,39.862 14.316,39.9 14.251,39.935 14.184,39.982 14.128,40.039 14.073,40.104 14.026,40.169 13.989,40.233 13.954,40.308 
	13.924,40.392 13.908,40.463 13.899,40.547 13.899,40.621 13.908,40.695 13.917,40.776 13.945,40.853 13.961,40.927 14,40.991 
	14.044,41.058 14.091,41.119 14.149,41.175 14.205,41.233 14.267,41.277 14.342,41.317 14.414,41.352 14.49,41.379 14.573,41.397 
	14.647,41.405 14.731,41.405 14.803,41.397 14.88,41.389 14.951,41.372 15.025,41.343 15.102,41.308 15.165,41.268 15.223,41.213 
	15.288,41.168 15.334,41.101 15.378,41.039 "/>
<polygon fill="#FFFFFF" points="25.202,42.927 25.202,42.845 25.186,42.759 25.163,42.685 25.141,42.61 25.101,42.539 
	25.066,42.472 25.018,42.416 24.971,42.352 24.906,42.307 24.851,42.261 24.786,42.212 24.711,42.187 24.64,42.158 24.564,42.14 
	24.479,42.122 24.398,42.122 24.312,42.122 24.231,42.14 24.156,42.158 24.083,42.187 24.008,42.212 23.944,42.261 23.878,42.307 
	23.823,42.352 23.778,42.416 23.729,42.472 23.684,42.539 23.658,42.61 23.628,42.685 23.603,42.759 23.594,42.845 23.594,42.927 
	23.594,43.008 23.603,43.093 23.628,43.167 23.658,43.241 23.684,43.314 23.729,43.381 23.778,43.437 23.823,43.499 23.878,43.545 
	23.944,43.594 24.008,43.641 24.083,43.667 24.156,43.693 24.231,43.713 24.312,43.731 24.398,43.731 24.479,43.731 24.564,43.713 
	24.64,43.693 24.711,43.667 24.779,43.641 24.851,43.594 24.906,43.545 24.971,43.499 25.018,43.437 25.066,43.381 25.101,43.314 
	25.141,43.241 25.163,43.167 25.186,43.093 25.202,43.008 "/>
<polygon fill="#FFFFFF" points="12.342,4.183 11.992,4.489 13.516,6.285 13.602,6.378 13.667,6.479 13.731,6.573 13.778,6.665 
	13.822,6.757 13.869,6.849 13.899,6.941 13.917,7.035 13.936,7.127 13.942,7.229 13.942,7.321 13.936,7.415 13.926,7.516 
	13.905,7.618 13.877,7.71 13.84,7.812 13.797,7.914 13.741,8.017 13.685,8.11 13.627,8.199 13.555,8.294 13.481,8.376 13.405,8.461 
	13.323,8.535 13.184,8.635 13.054,8.729 12.915,8.802 12.776,8.857 12.639,8.906 12.488,8.932 12.352,8.951 12.21,8.962 
	12.073,8.94 11.934,8.923 11.804,8.876 11.674,8.833 11.547,8.767 11.433,8.682 11.321,8.583 11.222,8.479 9.573,6.543 9.223,6.849 
	9.072,6.674 10.195,5.721 10.343,5.896 9.988,6.192 11.507,7.979 11.602,8.081 11.693,8.165 11.795,8.248 11.897,8.312 
	11.999,8.367 12.11,8.415 12.222,8.441 12.324,8.461 12.435,8.471 12.544,8.471 12.646,8.451 12.757,8.423 12.871,8.386 
	12.971,8.33 13.073,8.266 13.175,8.19 13.268,8.1 13.351,8.005 13.425,7.905 13.481,7.803 13.525,7.701 13.562,7.59 13.592,7.48 
	13.602,7.368 13.602,7.256 13.592,7.146 13.562,7.026 13.525,6.914 13.481,6.804 13.425,6.691 13.351,6.581 13.268,6.469 
	11.749,4.693 11.396,4.998 11.248,4.822 12.193,4.016 "/>
<polygon fill="#FFFFFF" points="17.842,5.591 16.603,6.248 16.499,6.044 16.909,5.832 16.056,4.221 16,4.127 15.926,4.044 
	15.889,4.008 15.852,3.979 15.814,3.952 15.766,3.934 15.731,3.916 15.684,3.905 15.647,3.905 15.601,3.905 15.555,3.905 
	15.508,3.924 15.462,3.934 15.416,3.961 15.341,4.008 15.267,4.073 15.202,4.148 15.149,4.258 15.093,4.397 15.037,4.562 
	14.982,4.786 14.915,5.062 15.666,6.488 16.081,6.267 16.192,6.469 14.951,7.127 14.843,6.924 15.258,6.7 14.212,4.73 13.741,4.979 
	13.658,4.832 14.332,4.203 14.434,4.148 14.759,4.769 14.814,4.526 14.877,4.312 14.942,4.148 15.017,3.997 15.062,3.934 
	15.102,3.877 15.149,3.822 15.193,3.775 15.246,3.729 15.304,3.684 15.36,3.647 15.425,3.61 15.501,3.573 15.573,3.545 
	15.647,3.525 15.721,3.517 15.795,3.508 15.87,3.508 15.935,3.525 16.007,3.545 16.074,3.562 16.13,3.601 16.192,3.638 
	16.248,3.684 16.306,3.74 16.352,3.803 16.396,3.877 16.443,3.952 17.322,5.608 17.73,5.388 "/>
<path fill="#FFFFFF" d="M18.029,2.555l-0.77,0.52l0.053,0.157l0.51-0.176l0.724,2.11l-0.445,0.156l0.072,0.215l1.334-0.455
	L19.433,4.86l-0.44,0.157l-0.865-2.501L18.029,2.555z M17.499,1.269l-0.065,0.018L17.38,1.313L17.322,1.35l-0.037,0.047
	l-0.037,0.055l-0.017,0.056l-0.009,0.056V1.63l0.019,0.063l0.028,0.065l0.037,0.056l0.046,0.036l0.044,0.037l0.058,0.019
	l0.065,0.007h0.062l0.067-0.007l0.065-0.027l0.044-0.048l0.047-0.046l0.037-0.046l0.018-0.065l0.009-0.057V1.554L17.851,1.48
	l-0.028-0.058L17.786,1.38L17.74,1.333l-0.056-0.04l-0.058-0.018l-0.062-0.008H17.499z"/>
<polygon fill="#FFFFFF" points="20.806,1.896 20.85,2.128 21.258,2.046 20.945,3.969 19.85,2.322 20.277,2.239 20.23,2.017 
	19.055,2.258 19.101,2.48 19.36,2.434 20.945,4.822 21.065,4.796 21.527,1.989 21.787,1.934 21.738,1.71 "/>
<path fill="#FFFFFF" d="M22.898,2.518l0.018-0.082l0.019-0.085l0.027-0.074l0.035-0.073l0.039-0.065l0.038-0.064l0.055-0.056
	l0.056-0.047l0.053-0.047l0.067-0.043l0.062-0.03l0.074-0.028l0.077-0.02l0.074-0.018h0.081h0.074h0.056l0.064,0.018l0.057,0.02
	l0.055,0.019l0.056,0.026l0.047,0.037l0.047,0.039l0.036,0.045l0.038,0.046l0.036,0.048l0.019,0.055l0.027,0.065l0.018,0.056
	l0.011,0.063l0.01,0.073v0.148L22.888,2.6L22.898,2.518z M23.658,1.518L23.52,1.535l-0.132,0.028l-0.13,0.036l-0.119,0.058
	l-0.121,0.064l-0.102,0.074l-0.102,0.094l-0.093,0.1l-0.074,0.102l-0.074,0.122L22.52,2.341L22.461,2.47l-0.037,0.138l-0.019,0.149
	l-0.019,0.157v0.159l0.019,0.156l0.028,0.151l0.037,0.147l0.049,0.13l0.053,0.127l0.074,0.122l0.074,0.113l0.093,0.092l0.093,0.091
	l0.111,0.076l0.111,0.065l0.119,0.054l0.13,0.038l0.127,0.027l0.145,0.019h0.146l0.13-0.008l0.12-0.021l0.11-0.017l0.121-0.047
	l0.121-0.045l0.12-0.065l0.148-0.083l0.155-0.093l-0.13-0.221l-0.12,0.072l-0.1,0.073L24.38,4.073l-0.094,0.045l-0.082,0.027
	L24.12,4.175l-0.084,0.007l-0.092,0.012h-0.109l-0.105-0.019l-0.102-0.029l-0.09-0.036l-0.096-0.046l-0.081-0.066l-0.074-0.063
	l-0.074-0.082l-0.065-0.084l-0.065-0.102l-0.047-0.102l-0.049-0.121l-0.035-0.121l-0.028-0.127l-0.018-0.131l-0.009-0.15
	l-0.01-0.063l1.953-0.083L24.832,2.6l-0.01-0.121L24.804,2.36l-0.024-0.112l-0.047-0.101l-0.049-0.095l-0.053-0.091l-0.068-0.081
	l-0.071-0.078l-0.083-0.074l-0.084-0.056l-0.102-0.045L24.12,1.584l-0.103-0.03l-0.111-0.019l-0.12-0.018H23.658z"/>
<polygon fill="#FFFFFF" points="25.405,1.759 25.397,1.933 25.936,1.979 25.704,4.203 25.229,4.157 25.212,4.387 26.731,4.545 
	26.759,4.312 26.165,4.247 26.332,2.609 26.573,2.378 26.738,2.239 26.803,2.195 26.86,2.165 26.908,2.157 26.941,2.146 
	26.996,2.165 27.055,2.203 27.118,2.27 27.205,2.351 27.602,1.953 27.425,1.768 27.396,1.74 27.359,1.72 27.315,1.705 27.26,1.694 
	27.185,1.694 27.1,1.711 27.01,1.751 26.915,1.802 26.815,1.888 26.683,2 26.537,2.137 26.36,2.314 26.432,1.63 26.323,1.608 "/>
<polygon fill="#FFFFFF" points="28.713,2.037 28.621,2.045 28.536,2.063 28.455,2.092 28.38,2.119 28.303,2.166 28.239,2.211 
	28.177,2.267 28.121,2.323 28.073,2.387 28.038,2.462 28,2.546 27.981,2.627 27.963,2.703 27.953,2.768 27.953,2.831 27.953,2.896 
	27.963,2.963 27.981,3.018 28.01,3.082 28.038,3.146 28.073,3.202 28.121,3.268 28.177,3.322 28.239,3.388 28.38,3.508 
	28.566,3.646 28.758,3.785 28.916,3.904 29.036,4.017 29.121,4.11 29.157,4.156 29.186,4.203 29.204,4.249 29.211,4.284 
	29.223,4.332 29.223,4.369 29.223,4.414 29.211,4.462 29.194,4.508 29.176,4.547 29.157,4.582 29.131,4.62 29.091,4.646 
	29.056,4.674 29.018,4.701 28.973,4.72 28.879,4.749 28.768,4.757 28.656,4.757 28.536,4.739 28.461,4.72 28.399,4.694 
	28.331,4.667 28.276,4.628 28.211,4.59 28.168,4.555 28.121,4.516 28.073,4.471 28.038,4.426 28,4.369 27.971,4.323 27.953,4.275 
	27.935,4.219 27.935,4.175 27.935,4.119 27.944,4.073 27.981,3.916 27.703,3.84 27.498,4.701 27.731,4.757 27.786,4.547 
	27.843,4.62 27.908,4.684 27.981,4.749 28.062,4.806 28.158,4.851 28.26,4.896 28.369,4.933 28.499,4.969 28.591,4.991 28.694,5 
	28.786,5 28.879,5 28.963,4.98 29.046,4.961 29.131,4.933 29.204,4.896 29.275,4.86 29.341,4.806 29.396,4.749 29.454,4.684 
	29.501,4.62 29.548,4.534 29.572,4.462 29.603,4.369 29.619,4.305 29.629,4.229 29.629,4.166 29.629,4.099 29.619,4.044 
	29.603,3.979 29.582,3.924 29.548,3.859 29.509,3.805 29.471,3.749 29.42,3.686 29.354,3.627 29.204,3.5 29.025,3.36 28.806,3.202 
	28.638,3.082 28.518,2.98 28.446,2.896 28.418,2.859 28.399,2.824 28.38,2.787 28.38,2.756 28.38,2.674 28.399,2.592 28.406,2.546 
	28.426,2.498 28.455,2.462 28.471,2.425 28.51,2.387 28.536,2.361 28.574,2.332 28.609,2.313 28.704,2.287 28.796,2.267 
	28.907,2.267 29.018,2.287 29.136,2.323 29.241,2.377 29.332,2.443 29.403,2.518 29.436,2.555 29.462,2.601 29.491,2.637 
	29.501,2.682 29.518,2.731 29.518,2.768 29.518,2.814 29.509,2.859 29.482,2.953 29.426,3.053 29.688,3.11 30.037,2.277 
	29.777,2.223 29.696,2.425 29.639,2.361 29.582,2.304 29.518,2.248 29.442,2.202 29.371,2.166 29.285,2.128 29.204,2.092 
	29.101,2.063 28.999,2.045 28.897,2.037 28.806,2.027 "/>
<path fill="#FFFFFF" d="M30.648,2.934L31.15,3.12L30.36,5.21l-0.443-0.166l-0.075,0.212l1.315,0.5l0.074-0.212l-0.435-0.166
	l0.935-2.473L31.62,2.868l-0.918-0.089L30.648,2.934z M31.788,1.498l-0.057,0.02l-0.055,0.036l-0.049,0.037l-0.036,0.046
	l-0.039,0.064l-0.017,0.064v0.067l0.011,0.065l0.019,0.055l0.026,0.056l0.047,0.047l0.046,0.037l0.063,0.027l0.065,0.019
	l0.066,0.009l0.055-0.009L32,2.119l0.055-0.036l0.047-0.038l0.036-0.057l0.028-0.056l0.019-0.063l0.009-0.064l-0.009-0.064
	l-0.028-0.057l-0.024-0.055l-0.047-0.046l-0.049-0.038L31.97,1.518l-0.062-0.02L31.854,1.49L31.788,1.498z"/>
<polygon fill="#FFFFFF" points="33.008,6.377 32.871,6.406 32.75,6.423 32.648,6.433 32.555,6.433 32.481,6.433 32.406,6.416 
	32.333,6.387 32.262,6.359 32.205,6.321 32.148,6.285 32.102,6.248 32.064,6.208 32.026,6.166 31.998,6.118 31.97,6.072 
	31.955,6.024 31.943,5.971 31.935,5.915 31.935,5.86 31.935,5.804 31.943,5.749 31.965,5.685 31.979,5.619 32.019,5.562 
	32.871,3.85 32.388,3.609 32.463,3.451 33.008,3.572 33.388,2.812 33.786,3.007 33.397,3.786 34.084,4.138 33.956,4.387 
	33.27,4.044 32.435,5.71 32.406,5.786 32.388,5.85 32.38,5.905 32.388,5.961 32.406,6.007 32.444,6.054 32.491,6.09 32.546,6.127 
	32.63,6.166 32.723,6.185 32.833,6.185 32.991,6.185 "/>
<path fill="#FFFFFF" d="M34.751,7.09l-0.13,0.018l-0.11,0.01h-0.104l-0.085-0.01l-0.081-0.009l-0.077-0.025l-0.063-0.03
	l-0.065-0.035l-0.062-0.056l-0.067-0.073l-0.038-0.066l-0.017-0.077l-0.008-0.081l0.008-0.083l0.03-0.074l0.045-0.084l0.175-0.259
	l1.02,0.399L34.751,7.09z M35.898,4.21l0.035-0.057l0.02-0.063l0.009-0.056l-0.009-0.063l-0.02-0.057l-0.019-0.055l-0.043-0.046
	l-0.047-0.038l-0.057-0.036l-0.057-0.02H35.65l-0.057,0.009l-0.059,0.011L35.48,3.768l-0.045,0.045l-0.047,0.046l-0.026,0.055
	l-0.019,0.057l-0.01,0.056l0.01,0.064l0.019,0.055l0.026,0.057l0.038,0.046l0.047,0.035l0.055,0.038l0.056,0.019h0.066h0.055
	l0.056-0.019l0.055-0.025l0.045-0.039L35.898,4.21z M35.344,7.895l-0.398-0.277l1.083-1.565l0.039-0.064l0.034-0.075L36.12,5.85
	l0.019-0.064V5.711V5.647L36.12,5.572l-0.019-0.073l-0.024-0.065l-0.03-0.076l-0.045-0.065l-0.057-0.064l-0.055-0.073L35.825,5.1
	L35.75,5.035L35.665,4.97l-0.081-0.056l-0.092-0.045l-0.087-0.047l-0.08-0.028l-0.097-0.027l-0.08-0.018L35.074,4.73L34.99,4.719
	L34.917,4.73h-0.071l-0.07,0.019l-0.063,0.026l-0.064,0.03l-0.056,0.033l-0.044,0.048l-0.037,0.046L34.482,4.97l-0.021,0.037
	l-0.01,0.047v0.055l0.547,0.176l0.168-0.241l0.132,0.019l0.09,0.029l0.073,0.038l0.073,0.045l0.077,0.055l0.053,0.064l0.04,0.075
	l0.026,0.083v0.075l-0.01,0.083l-0.017,0.082l-0.049,0.076L35.259,6.35l-1.008-0.409l-0.059-0.019L34.14,5.914l-0.056-0.009h-0.049
	h-0.109l-0.102,0.029L33.723,5.97l-0.094,0.056l-0.046,0.038L33.546,6.1l-0.038,0.046l-0.037,0.046l-0.043,0.064l-0.03,0.067
	l-0.028,0.072l-0.019,0.066l-0.01,0.073v0.063v0.065l0.01,0.073l0.019,0.066l0.028,0.066l0.03,0.065l0.035,0.053l0.045,0.065
	l0.048,0.056l0.063,0.047l0.057,0.047l0.102,0.064l0.11,0.048l0.105,0.035l0.107,0.021h0.111l0.13-0.012l0.129-0.027l0.15-0.037
	l-0.029,0.028l-0.01,0.026l-0.043,0.065l-0.028,0.076l-0.019,0.063v0.065l0.019,0.054l0.017,0.056l0.045,0.047l0.049,0.046
	l0.091,0.046l0.112,0.036l0.42,0.13L35.344,7.895z M36.807,4.831l0.036-0.056l0.017-0.063V4.655V4.59l-0.017-0.056l-0.028-0.053
	l-0.038-0.047l-0.047-0.038L36.677,4.36L36.62,4.347L36.557,4.34L36.5,4.347L36.437,4.36l-0.048,0.028l-0.056,0.046l-0.04,0.047
	l-0.024,0.053L36.25,4.59l-0.01,0.056l0.01,0.066l0.01,0.055l0.027,0.055l0.04,0.047l0.055,0.036l0.055,0.037l0.054,0.019h0.055
	h0.066l0.056-0.019l0.053-0.028l0.048-0.037L36.807,4.831z"/>
<polygon fill="#FFFFFF" points="36.705,9.184 36.557,9.172 36.437,9.154 36.333,9.145 36.25,9.116 36.177,9.089 36.11,9.062 
	36.043,9.017 35.981,8.959 35.934,8.914 35.9,8.868 35.862,8.821 35.833,8.774 35.805,8.719 35.785,8.665 35.776,8.618 
	35.776,8.563 35.776,8.507 35.785,8.451 35.795,8.395 35.815,8.349 35.844,8.294 35.87,8.238 35.908,8.183 35.955,8.126 
	37.231,6.702 36.833,6.34 36.945,6.22 37.438,6.479 38.01,5.841 38.334,6.136 37.76,6.785 38.334,7.292 38.14,7.509 37.564,6.999 
	36.325,8.387 36.278,8.451 36.24,8.507 36.212,8.563 36.212,8.618 36.212,8.665 36.24,8.719 36.278,8.766 36.325,8.812 
	36.398,8.868 36.479,8.914 36.585,8.951 36.742,8.988 "/>
<polygon fill="#FFFFFF" points="7.537,25.002 7.239,23.502 7.472,23.458 7.553,23.912 11.12,23.216 11.037,22.755 11.259,22.718 
	11.602,24.448 11.619,24.587 11.628,24.706 11.628,24.838 11.612,24.956 11.593,25.067 11.556,25.179 11.507,25.281 11.452,25.373 
	11.387,25.467 11.303,25.55 11.222,25.624 11.127,25.696 11.027,25.751 10.925,25.8 10.804,25.847 10.687,25.874 10.554,25.894 
	10.424,25.894 10.304,25.881 10.183,25.865 10.065,25.825 9.954,25.781 9.852,25.726 9.74,25.664 9.647,25.575 9.554,25.494 
	9.48,25.39 9.408,25.293 9.343,25.172 9.286,25.049 9.239,24.921 9.213,24.782 9.192,24.698 9.184,24.624 9.174,24.541 9.174,24.43 
	9.385,24.393 9.385,24.484 9.408,24.56 9.425,24.652 9.462,24.745 9.508,24.826 9.554,24.91 9.61,24.986 9.675,25.061 9.75,25.116 
	9.821,25.172 9.907,25.228 9.988,25.263 10.083,25.293 10.176,25.318 10.269,25.337 10.369,25.337 10.473,25.337 10.573,25.318 
	10.656,25.302 10.749,25.271 10.823,25.234 10.904,25.197 10.972,25.15 11.037,25.098 11.102,25.041 11.147,24.986 11.192,24.921 
	11.241,24.856 11.266,24.791 11.296,24.717 11.303,24.641 11.315,24.568 11.315,24.494 11.303,24.42 11.176,23.764 7.664,24.448 
	7.769,24.965 "/>
<path fill="#FFFFFF" d="M8.61,28.604l0.056,0.121l0.083,0.12l0.083,0.102l0.093,0.093l0.109,0.081l0.114,0.077l0.118,0.054
	l0.13,0.056l0.13,0.039l0.139,0.016l0.139,0.021h0.139l0.137-0.021l0.151-0.025l0.137-0.039l0.148-0.054l0.13-0.076l0.13-0.072
	l0.109-0.092L11,28.91l0.093-0.103l0.081-0.122l0.077-0.106l0.056-0.13l0.055-0.123l0.028-0.127l0.025-0.143l0.011-0.13
	l-0.011-0.136l-0.019-0.131l-0.035-0.127l-0.046-0.13l-0.065-0.133l-0.077-0.108l-0.081-0.102l-0.102-0.094l-0.104-0.083
	l-0.109-0.076l-0.121-0.063l-0.13-0.046l-0.129-0.038l-0.139-0.027l-0.137-0.007H9.979l-0.146,0.017L9.693,26.66l-0.148,0.048
	l-0.139,0.055l-0.139,0.065l-0.118,0.083l-0.123,0.081l-0.1,0.103l-0.093,0.104L8.75,27.308l-0.074,0.121l-0.065,0.12l-0.048,0.13
	l-0.035,0.13l-0.021,0.128l-0.007,0.141v0.131l0.028,0.137l0.027,0.13L8.61,28.604z M11.074,27.503l0.028,0.083l0.018,0.083
	l0.01,0.084l-0.01,0.086l-0.009,0.088l-0.028,0.086l-0.037,0.093l-0.055,0.081l-0.056,0.087l-0.065,0.08l-0.074,0.074l-0.083,0.075
	l-0.093,0.076l-0.102,0.064l-0.103,0.062l-0.108,0.056l-0.121,0.046l-0.12,0.038l-0.111,0.025l-0.121,0.03L9.721,28.91H9.61H9.508
	l-0.102-0.019l-0.09-0.021l-0.095-0.025l-0.082-0.038l-0.077-0.046l-0.065-0.056l-0.064-0.062l-0.044-0.064l-0.046-0.076
	l-0.031-0.084l-0.016-0.081v-0.084v-0.093l0.016-0.084l0.031-0.085l0.035-0.091l0.056-0.083l0.055-0.084l0.065-0.083l0.077-0.074
	l0.081-0.074l0.093-0.074l0.102-0.064l0.102-0.065l0.121-0.057l0.112-0.043l0.12-0.037l0.109-0.028l0.121-0.021l0.111-0.019h0.111
	h0.102l0.103,0.019l0.093,0.021l0.092,0.028l0.084,0.037l0.074,0.043l0.065,0.057l0.055,0.056l0.056,0.074L11.074,27.503z"/>
<polygon fill="#FFFFFF" points="10.972,31.938 10.833,31.891 10.712,31.854 10.619,31.818 10.545,31.771 10.48,31.733 
	10.417,31.678 10.369,31.624 10.322,31.56 10.287,31.504 10.257,31.448 10.232,31.392 10.213,31.334 10.202,31.279 10.202,31.226 
	10.202,31.17 10.213,31.123 10.22,31.067 10.239,31.021 10.267,30.966 10.304,30.917 10.343,30.873 10.378,30.828 10.436,30.779 
	10.489,30.745 12.064,29.65 11.758,29.205 11.897,29.114 12.314,29.483 13.02,28.994 13.277,29.364 12.553,29.864 12.99,30.495 
	12.757,30.65 12.324,30.021 10.786,31.077 10.721,31.132 10.672,31.18 10.638,31.226 10.619,31.271 10.61,31.327 10.619,31.384 
	10.647,31.438 10.687,31.494 10.74,31.568 10.814,31.634 10.906,31.688 11.045,31.752 "/>
<polygon fill="#FFFFFF" points="11.479,33.039 11.312,32.862 11.943,32.253 12.138,32.457 12.027,32.577 11.99,32.614 
	11.962,32.651 11.943,32.698 11.925,32.753 11.916,32.798 11.916,32.854 11.916,32.919 11.925,32.975 11.934,33.039 11.953,33.095 
	11.98,33.159 12.011,33.225 12.045,33.28 12.083,33.338 12.12,33.392 12.166,33.449 12.259,33.531 12.361,33.593 12.451,33.642 
	12.556,33.667 12.602,33.68 12.646,33.68 12.695,33.68 12.739,33.667 12.776,33.651 12.825,33.633 12.862,33.603 12.888,33.577 
	12.926,33.547 12.952,33.512 12.971,33.476 12.99,33.438 12.999,33.392 13.008,33.345 13.008,33.289 12.999,33.233 12.982,33.102 
	12.936,32.958 12.871,32.761 12.776,32.541 12.695,32.336 12.639,32.15 12.621,32.066 12.611,31.983 12.602,31.912 12.602,31.838 
	12.611,31.771 12.621,31.705 12.639,31.64 12.667,31.585 12.695,31.529 12.732,31.474 12.776,31.42 12.825,31.374 12.896,31.318 
	12.962,31.262 13.038,31.226 13.112,31.19 13.193,31.17 13.268,31.157 13.354,31.151 13.435,31.157 13.516,31.17 13.604,31.19 
	13.685,31.214 13.766,31.262 13.85,31.309 13.926,31.364 14.01,31.427 14.082,31.504 14.147,31.575 14.203,31.649 14.258,31.724 
	14.295,31.798 14.332,31.875 14.36,31.956 14.379,32.03 14.388,32.114 14.573,31.983 14.759,32.179 14.01,32.698 13.822,32.503 
	13.926,32.447 14,32.393 14.026,32.354 14.056,32.318 14.075,32.28 14.091,32.234 14.101,32.188 14.101,32.142 14.101,32.095 
	14.101,32.04 14.075,31.938 14.026,31.838 13.971,31.733 13.889,31.64 13.803,31.56 13.71,31.504 13.621,31.464 13.534,31.448 
	13.49,31.438 13.444,31.448 13.397,31.448 13.36,31.464 13.314,31.483 13.277,31.504 13.24,31.529 13.203,31.56 13.138,31.624 
	13.103,31.688 13.08,31.724 13.073,31.764 13.073,31.798 13.073,31.844 13.103,31.956 13.147,32.104 13.221,32.296 13.323,32.547 
	13.407,32.761 13.462,32.946 13.481,33.029 13.49,33.113 13.5,33.188 13.5,33.253 13.49,33.317 13.481,33.382 13.462,33.449 
	13.435,33.503 13.407,33.557 13.368,33.603 13.323,33.66 13.268,33.716 13.203,33.77 13.129,33.825 13.054,33.862 12.982,33.899 
	12.896,33.93 12.815,33.938 12.739,33.948 12.655,33.948 12.574,33.938 12.491,33.918 12.407,33.89 12.324,33.854 12.24,33.807 
	12.166,33.763 12.092,33.697 12.018,33.621 11.925,33.531 11.853,33.438 11.797,33.345 11.741,33.253 11.702,33.159 11.667,33.069 
	11.656,32.983 11.646,32.893 "/>
<path fill="#FFFFFF" d="M16.276,36.428l-0.443-0.307l2.359-3.49l-0.091-0.062l-0.879-0.307l-0.093,0.14l0.443,0.304l-0.795,1.185
	l-0.093-0.157l-0.083-0.111l-0.037-0.044l-0.056-0.049l-0.044-0.037l-0.067-0.044l-0.13-0.076l-0.128-0.063l-0.141-0.049
	l-0.137-0.034l-0.148-0.021h-0.139l-0.148,0.011l-0.137,0.019l-0.142,0.038l-0.137,0.058l-0.13,0.062l-0.133,0.074l-0.118,0.093
	l-0.111,0.102l-0.114,0.111l-0.088,0.131l-0.077,0.127l-0.065,0.12l-0.056,0.131l-0.043,0.13l-0.031,0.127l-0.019,0.131
	l-0.007,0.129l0.007,0.121l0.019,0.13l0.031,0.11l0.035,0.112l0.046,0.11l0.065,0.094l0.074,0.093l0.084,0.083l0.092,0.074
	l0.102,0.054l0.093,0.049l0.111,0.036l0.103,0.02l0.118,0.009l0.139-0.009l0.151-0.02l0.165-0.027l-0.239,0.359l0.09,0.065
	l0.87,0.304L16.276,36.428z M15.388,35.613h-0.093h-0.081h-0.067l-0.065-0.011l-0.056-0.018l-0.053-0.018l-0.058-0.038l-0.056-0.036
	l-0.072-0.056l-0.065-0.057l-0.055-0.064l-0.046-0.074l-0.038-0.074l-0.027-0.083l-0.019-0.082l-0.009-0.085v-0.091l0.018-0.093
	l0.019-0.093l0.028-0.104l0.037-0.1l0.053-0.102l0.058-0.103l0.062-0.109l0.085-0.104l0.084-0.102l0.081-0.083l0.083-0.072
	l0.095-0.065l0.103-0.056l0.09-0.046l0.095-0.028l0.1-0.027l0.102-0.012h0.102l0.093,0.012l0.102,0.027l0.102,0.028l0.09,0.046
	l0.093,0.056l0.104,0.082l0.072,0.074l0.028,0.036l0.028,0.035l0.019,0.039l0.009,0.05v0.034v0.046l-0.009,0.047l-0.019,0.049
	l-0.046,0.1L16.424,34.4l-0.805,1.194l-0.139,0.008L15.388,35.613z"/>
<path fill="#FFFFFF" d="M19.333,37.761l-0.434-0.176l0.7-1.777l0.019-0.075l0.021-0.063l0.01-0.074v-0.065l-0.019-0.074
	l-0.018-0.064l-0.028-0.064l-0.028-0.067l-0.046-0.064l-0.047-0.063l-0.055-0.054l-0.065-0.055l-0.074-0.047l-0.074-0.049
	l-0.093-0.047l-0.091-0.034l-0.095-0.037l-0.102-0.028l-0.091-0.027l-0.095-0.009l-0.081-0.01h-0.093h-0.085l-0.072,0.01
	l-0.075,0.016l-0.074,0.03l-0.055,0.025l-0.065,0.037l-0.046,0.046l-0.047,0.048l-0.037,0.057l-0.028,0.056l-0.019,0.044v0.038
	l-0.009,0.046l0.009,0.056l0.573,0.049l0.111-0.269l0.129-0.012l0.104,0.012l0.082,0.006l0.074,0.03l0.085,0.044l0.072,0.048
	l0.049,0.064l0.043,0.076l0.019,0.072l0.009,0.083v0.083l-0.028,0.091l-0.259,0.649l-1.074-0.167l-0.056-0.012H17.73h-0.056
	l-0.056,0.012l-0.102,0.028l-0.1,0.046l-0.086,0.064l-0.081,0.074l-0.03,0.045l-0.035,0.049l-0.028,0.056l-0.019,0.047l-0.03,0.071
	l-0.019,0.074l-0.007,0.076v0.062v0.076l0.016,0.066L17.12,37l0.019,0.065l0.037,0.067l0.037,0.056l0.046,0.056l0.046,0.055
	l0.056,0.043l0.065,0.039l0.062,0.037l0.075,0.037l0.111,0.037l0.111,0.019l0.111,0.007h0.111l0.112-0.025l0.12-0.037l0.128-0.049
	l0.13-0.072l-0.017,0.038l-0.009,0.025l-0.028,0.076l-0.011,0.074v0.064l0.011,0.065l0.028,0.056l0.037,0.046l0.043,0.037
	l0.065,0.026l0.096,0.03l0.129,0.016l0.425,0.027L19.333,37.761z M18.583,37.112l-0.121,0.036l-0.111,0.04l-0.102,0.016
	l-0.083,0.019h-0.083h-0.075l-0.064-0.019l-0.075-0.027l-0.083-0.037l-0.062-0.056l-0.056-0.056l-0.037-0.072l-0.03-0.074
	l-0.01-0.086l0.01-0.083l0.03-0.091l0.121-0.287l1.074,0.167L18.583,37.112z"/>
<polygon fill="#FFFFFF" points="25.296,38.935 23.897,38.808 23.916,38.575 24.389,38.621 24.564,36.806 24.572,36.696 
	24.556,36.586 24.547,36.539 24.528,36.492 24.51,36.458 24.491,36.409 24.463,36.381 24.426,36.346 24.398,36.315 24.361,36.298 
	24.312,36.279 24.277,36.261 24.231,36.251 24.176,36.241 24.102,36.241 24.027,36.251 23.953,36.27 23.878,36.298 23.796,36.346 
	23.714,36.402 23.619,36.474 23.508,36.555 23.148,36.882 22.99,38.482 23.464,38.531 23.433,38.759 22.035,38.621 22.065,38.39 
	22.526,38.437 22.705,36.632 22.705,36.512 22.694,36.409 22.684,36.354 22.666,36.315 22.649,36.27 22.62,36.233 22.601,36.195 
	22.563,36.159 22.538,36.131 22.499,36.111 22.455,36.096 22.416,36.072 22.369,36.065 22.313,36.057 22.22,36.057 22.127,36.065 
	22.028,36.103 21.926,36.159 21.805,36.241 21.666,36.354 21.49,36.512 21.286,36.696 21.128,38.297 21.601,38.343 21.573,38.575 
	20.175,38.437 20.203,38.213 20.667,38.258 20.889,36.037 20.354,35.982 20.37,35.815 21.276,35.659 21.39,35.677 21.325,36.363 
	21.499,36.195 21.666,36.057 21.824,35.945 21.963,35.871 22.028,35.836 22.102,35.815 22.167,35.787 22.232,35.781 22.297,35.771 
	22.369,35.759 22.443,35.759 22.508,35.771 22.594,35.781 22.666,35.799 22.74,35.815 22.796,35.846 22.86,35.871 22.916,35.91 
	22.965,35.945 23.007,35.991 23.046,36.047 23.085,36.103 23.111,36.159 23.137,36.233 23.157,36.298 23.167,36.381 23.174,36.458 
	23.183,36.548 23.371,36.381 23.538,36.241 23.684,36.131 23.826,36.047 23.888,36.021 23.962,35.991 24.027,35.976 24.093,35.957 
	24.156,35.945 24.231,35.945 24.296,35.945 24.371,35.957 24.454,35.966 24.528,35.982 24.603,36.001 24.677,36.037 24.741,36.072 
	24.797,36.111 24.841,36.159 24.889,36.214 24.934,36.27 24.964,36.328 24.989,36.402 25.018,36.465 25.029,36.539 25.037,36.62 
	25.045,36.706 25.037,36.787 24.853,38.668 25.315,38.715 "/>
<path fill="#FFFFFF" d="M30.74,25.902l-0.222,0.053l-0.222,0.059l-0.215,0.062l-0.203,0.075l-0.191,0.073l-0.187,0.074l-0.169,0.086
	l-0.146,0.088l-0.14,0.096l-0.118,0.09l-0.104,0.104l-0.04,0.047l-0.041,0.055l-0.03,0.057l-0.026,0.043l-0.021,0.059l-0.019,0.054
	l-0.01,0.066v0.054v0.059l0.01,0.046l0.009,0.054l0.021,0.046l0.053,0.103l0.075,0.102l0.09,0.103l0.112,0.092l0.123,0.094
	l0.145,0.08l0.16,0.087l0.184,0.081l0.185,0.074l0.215,0.074l0.222,0.076l0.229,0.064l0.252,0.063l0.258,0.059v-2.707L30.74,25.902z
	 M36.609,28.552l0.25-0.059l0.252-0.063l0.231-0.064l0.222-0.076l0.215-0.074l0.186-0.074l0.183-0.081l0.16-0.087l0.146-0.08
	l0.12-0.094l0.111-0.092l0.09-0.103l0.077-0.102l0.059-0.103l0.015-0.046l0.01-0.054l0.007-0.046v-0.059v-0.054l-0.007-0.066
	l-0.02-0.054l-0.017-0.059l-0.028-0.043l-0.028-0.057l-0.037-0.055l-0.049-0.047l-0.1-0.104l-0.119-0.09l-0.141-0.096l-0.148-0.088
	l-0.164-0.086l-0.186-0.074l-0.196-0.073l-0.202-0.075l-0.215-0.062l-0.222-0.059l-0.221-0.053l-0.234-0.058V28.552z M31.472,28.552
	h4.646v-2.724h-4.646V28.552z M31.583,25.15H32.4v-5.082h-0.817V25.15z M33.02,25.15h1.544v-5.082H33.02V25.15z M35.184,25.15
	L36,25.153v-5.084h-0.816V25.15z M26.001,20.069h0.814v5.082h-0.814V20.069z M27.666,20.069h0.813v5.082h-0.813V20.069z
	 M29.332,20.069h0.805v5.082h-0.805V20.069z M25.146,18.903V29.01h1.67l0.036,0.086l0.037,0.074l0.053,0.084L27,29.328l0.063,0.074
	l0.064,0.074l0.085,0.071l0.082,0.077l0.083,0.074l0.1,0.062l0.105,0.074l0.11,0.064l0.231,0.13l0.262,0.131l0.274,0.111l0.307,0.12
	l0.325,0.103l0.343,0.1l0.36,0.093l0.378,0.083l0.392,0.072l0.414,0.066v-1.704l-0.379-0.056l-0.379-0.063l-0.371-0.076l-0.37-0.093
	l-0.35-0.09l-0.347-0.111l-0.323-0.111l-0.305-0.121l-0.137-0.064l-0.138-0.074l-0.136-0.065l-0.116-0.074l-0.122-0.071
	l-0.111-0.074l-0.09-0.087l-0.094-0.071l-0.085-0.081l-0.071-0.083l-0.068-0.086l-0.047-0.093l-0.045-0.093l-0.026-0.084
	l-0.019-0.092l-0.01-0.101l0.01-0.083l0.009-0.084l0.028-0.084l0.026-0.083l0.046-0.076l0.049-0.081l0.065-0.084l0.062-0.074
	l0.082-0.074l0.087-0.074l0.09-0.074l0.102-0.071l0.115-0.074l0.118-0.077l0.13-0.065l0.13-0.064l0.287-0.127l0.312-0.131
	l0.344-0.11l0.371-0.111l0.382-0.093l0.413-0.091l0.427-0.084l0.444-0.067v-6.248H25.146z M37.444,20.069h0.805v5.084h-0.805V20.069
	z M39.103,20.069h0.814v5.084h-0.814V20.069z M40.769,20.069h0.814v5.084h-0.814V20.069z M36.609,18.903v6.25l0.445,0.064
	l0.427,0.084l0.418,0.091l0.378,0.093l0.37,0.111l0.345,0.11l0.315,0.131l0.288,0.127l0.126,0.064l0.131,0.065l0.111,0.077
	l0.111,0.074l0.11,0.071l0.093,0.074l0.082,0.074l0.085,0.074l0.063,0.074l0.064,0.084l0.047,0.081l0.045,0.076l0.028,0.083
	l0.028,0.084l0.012,0.084l0.007,0.083l-0.007,0.101l-0.021,0.092l-0.024,0.084l-0.049,0.095l-0.047,0.091l-0.062,0.086l-0.075,0.083
	l-0.083,0.081l-0.094,0.071l-0.093,0.087l-0.11,0.074l-0.121,0.071l-0.124,0.074l-0.126,0.065l-0.143,0.074l-0.134,0.064
	l-0.309,0.12L38.8,28.716l-0.346,0.111l-0.354,0.09l-0.369,0.093l-0.37,0.076l-0.378,0.063l-0.374,0.059v1.701l0.408-0.066
	l0.391-0.072l0.38-0.083l0.359-0.093l0.344-0.1l0.324-0.103l0.297-0.12l0.287-0.111l0.26-0.131l0.229-0.13L40,29.836l0.1-0.074
	l0.096-0.062l0.09-0.074l0.087-0.077l0.083-0.071l0.062-0.074l0.066-0.074l0.056-0.074l0.049-0.084l0.046-0.074l0.035-0.086h1.668
	V18.903H36.609z M33.759,12.172L33.732,12.2l-0.026,0.048l-0.03,0.054l-0.021,0.074l-0.018,0.074l-0.005,0.09v0.104v0.092
	l0.005,0.084l0.018,0.081l0.021,0.065l-0.148,0.011l-0.13,0.019l-0.13,0.018l-0.128,0.026l-0.12,0.03l-0.12,0.037l-0.111,0.035
	l-0.104,0.049l-0.102,0.056l-0.102,0.044l-0.09,0.064l-0.097,0.065l-0.08,0.065l-0.077,0.077l-0.073,0.072l-0.075,0.083L31.925,13.8
	l-0.055,0.084l-0.057,0.095l-0.054,0.09l-0.049,0.096l-0.046,0.102l-0.037,0.1l-0.026,0.104l-0.026,0.112l-0.03,0.108l-0.017,0.111
	l-0.021,0.111l-0.018,0.232v0.242v0.09l-0.009,0.092l-0.01,0.084l-0.019,0.072l-0.036,0.142l-0.037,0.111h-0.408v1.786h-1.185
	l0.017-0.074l0.019-0.084l0.014-0.09l0.006-0.104l-0.006-0.102l-0.014-0.081l-0.009-0.083l-0.018-0.077l-0.026-0.053l-0.029-0.046
	l-0.026-0.028l-0.036-0.009l-0.028,0.009l-0.039,0.028l-0.028,0.046l-0.018,0.053l-0.021,0.077l-0.015,0.083l-0.012,0.081v0.102
	v0.104l0.012,0.09l0.015,0.084l0.021,0.074h-1.252l0.03-0.074l0.019-0.084l0.01-0.09v-0.104v-0.102l-0.01-0.081l-0.019-0.083
	l-0.021-0.077l-0.026-0.053l-0.028-0.046l-0.028-0.028l-0.028-0.009l-0.034,0.009l-0.028,0.028l-0.027,0.046l-0.028,0.053
	l-0.02,0.077l-0.005,0.083l-0.012,0.081l-0.013,0.102l0.013,0.104l0.012,0.09l0.005,0.084l0.026,0.074h-1.248l0.019-0.074
	l0.019-0.084l0.008-0.09v-0.104v-0.102l-0.008-0.081l-0.019-0.083l-0.019-0.077l-0.021-0.053l-0.024-0.046l-0.038-0.028
	l-0.026-0.009l-0.039,0.009l-0.026,0.028l-0.03,0.046l-0.026,0.053l-0.019,0.077l-0.02,0.083l-0.009,0.081v0.102v0.104l0.019,0.09
	l0.01,0.084l0.028,0.074h-1.262l0.022-0.074l0.015-0.084l0.012-0.09v-0.104v-0.102l-0.012-0.081l-0.015-0.083l-0.022-0.077
	l-0.018-0.053l-0.026-0.046l-0.037-0.028l-0.028-0.009l-0.038,0.009l-0.026,0.028l-0.026,0.046l-0.029,0.053l-0.018,0.077
	l-0.011,0.083l-0.007,0.081l-0.013,0.102l0.013,0.104l0.007,0.09l0.019,0.084l0.017,0.074v0.666h5.826l2.824-1.507l2.813,1.507
	h-5.638v0.464h5.638v-0.464h5.827v-0.666l0.018-0.074l0.017-0.084l0.011-0.09l0.01-0.104l-0.01-0.102l-0.011-0.081l-0.01-0.083
	l-0.017-0.077l-0.026-0.053l-0.028-0.046l-0.028-0.028l-0.037-0.009l-0.026,0.009l-0.036,0.028l-0.03,0.046l-0.017,0.053
	l-0.021,0.077l-0.019,0.083l-0.01,0.081v0.102v0.104l0.01,0.09l0.019,0.084l0.021,0.074h-1.262l0.021-0.074l0.017-0.084l0.02-0.09
	v-0.104v-0.102L41,17.228l-0.017-0.083l-0.021-0.077l-0.026-0.053l-0.026-0.046l-0.03-0.028l-0.038-0.009l-0.028,0.009l-0.035,0.028
	l-0.028,0.046l-0.017,0.053l-0.021,0.077l-0.019,0.083l-0.006,0.081v0.102v0.104l0.006,0.09l0.019,0.084l0.021,0.074H39.48
	l0.028-0.074l0.01-0.084l0.019-0.09v-0.104v-0.102l-0.01-0.081l-0.019-0.083l-0.019-0.077l-0.028-0.053l-0.026-0.046l-0.028-0.028
	l-0.028-0.009l-0.035,0.009l-0.026,0.028l-0.03,0.046l-0.028,0.053l-0.019,0.077l-0.018,0.083l-0.009,0.081v0.102v0.104l0.009,0.09
	l0.018,0.084l0.019,0.074H38.02l0.019-0.074l0.019-0.084l0.008-0.09v-0.104v-0.102l-0.008-0.081l-0.019-0.083l-0.019-0.077
	l-0.019-0.053l-0.028-0.046l-0.038-0.028l-0.028-0.009l-0.037,0.009l-0.026,0.028l-0.026,0.046l-0.028,0.053l-0.019,0.077
	l-0.012,0.083l-0.007,0.081l-0.01,0.102l0.01,0.104l0.007,0.09l0.021,0.084l0.015,0.074h-1.185v-1.786h-0.406l-0.036-0.111
	l-0.037-0.142l-0.021-0.072l-0.008-0.084l-0.01-0.092v-0.09v-0.242l-0.015-0.232l-0.022-0.111l-0.018-0.111l-0.027-0.108
	l-0.028-0.112l-0.028-0.104l-0.038-0.1l-0.045-0.102l-0.045-0.096l-0.057-0.09l-0.057-0.095L35.656,13.8l-0.062-0.081l-0.073-0.083
	l-0.075-0.072l-0.073-0.077l-0.085-0.065l-0.094-0.065l-0.091-0.064l-0.104-0.044l-0.101-0.056l-0.101-0.049l-0.111-0.035
	l-0.122-0.037l-0.121-0.03l-0.129-0.026l-0.13-0.018l-0.128-0.019l-0.145-0.011l0.015-0.065l0.019-0.081l0.008-0.084v-0.092v-0.104
	l-0.008-0.09l-0.019-0.074l-0.015-0.074l-0.03-0.054L33.853,12.2l-0.028-0.028l-0.028-0.009L33.759,12.172z"/>
</svg>
