<?xml version="1.0" encoding="utf-8"?>
<!-- Generator: Adobe Illustrator 16.0.0, SVG Export Plug-In . SVG Version: 6.00 Build 0)  -->
<!DOCTYPE svg PUBLIC "-//W3C//DTD SVG 1.1//EN" "http://www.w3.org/Graphics/SVG/1.1/DTD/svg11.dtd">
<svg version="1.1" id="Ebene_1" xmlns="http://www.w3.org/2000/svg" xmlns:xlink="http://www.w3.org/1999/xlink" x="0px" y="0px"
	 width="91.317px" height="40px" viewBox="31.841 0 91.317 40" enable-background="new 31.841 0 91.317 40" xml:space="preserve">
<g>
	<g>
		<g>
			<rect x="31.841" y="13.239" width="1.367" height="1.202"/>
			<rect x="34.329" y="13.239" width="1.366" height="1.203"/>
			<rect x="36.814" y="13.239" width="1.367" height="1.203"/>
			<rect x="39.301" y="13.239" width="1.366" height="1.203"/>
			<rect x="41.789" y="13.239" width="1.367" height="1.203"/>
			<rect x="44.275" y="13.239" width="1.366" height="1.203"/>
			<rect x="46.761" y="13.239" width="1.367" height="1.203"/>
		</g>
		<rect x="49.659" y="13.231" width="1.375" height="1.242"/>
		<rect x="52.162" y="13.231" width="1.375" height="1.242"/>
		<path d="M48.059,13.231h0.472v1.243h-0.757C47.847,14.053,47.941,13.639,48.059,13.231"/>
		<g>
			<path d="M64.729,10.636l3.473-0.323l-1.338,0.97l0.036-0.003c1.229-0.604,2.643-1.286,4.406-1.451
				c0.301-0.029,0.533-0.019,0.719,0.015c-1.827-2.683-4.727-4.669-8.146-5.416l-3.017,3.79l-3.153-3.766
				c-5.797,1.312-10.102,6.182-10.102,11.987c0,2.011,0.528,3.904,1.444,5.583L64.729,10.636z"/>
			<path d="M72.476,10.549c-0.278,0.83-1.79,2.235-3.66,3.593c-2.863,2.08-7.191,4.681-10.354,4.977
				c-1.072,0.102-1.426-0.252-0.938-0.949l-0.036,0.002l-5.28,3.835l-3.016,0.283c2.236,3.86,6.617,6.485,11.656,6.485
				c7.311,0,13.238-5.523,13.238-12.336C74.084,14.305,73.499,12.301,72.476,10.549"/>
			<path d="M62.1,14.742c1.455-1.058,3.318-2.226,4.607-2.347c1.291-0.122,0.011,0.993-1.444,2.05
				c-1.433,1.04-3.295,2.209-4.586,2.328C59.386,16.896,60.667,15.781,62.1,14.742"/>
		</g>
	</g>
	<g>
		<g>
			<g>
				<polygon points="81.537,9.245 82.361,9.245 83.346,12.065 83.355,12.065 84.328,9.245 85.092,9.245 83.801,12.837 
					82.855,12.837 				"/>
				<path d="M85.65,12.838h0.736v-2.649H85.65V12.838z M85.65,9.704h0.736V9.045H85.65V9.704z"/>
				<path d="M87.986,10.908h0.27c0.385,0,0.73-0.118,0.73-0.535s-0.336-0.561-0.73-0.561h-0.27V10.908z M87.217,9.245h0.973
					c0.834,0,1.602,0.228,1.602,1.087c0,0.838-0.654,1.143-1.48,1.143h-0.324v1.362h-0.77V9.245z"/>
			</g>
			<g>
				<polygon points="81.537,15.035 82.361,15.035 83.346,17.854 83.355,17.854 84.328,15.035 85.092,15.035 83.801,18.627 
					82.855,18.627 				"/>
				<path d="M87.031,17.041c-0.021-0.333-0.188-0.622-0.6-0.622c-0.41,0-0.621,0.268-0.652,0.622H87.031z M87.527,18.478
					c-0.27,0.14-0.578,0.211-0.975,0.211c-0.934,0-1.477-0.505-1.477-1.373c0-0.767,0.434-1.4,1.311-1.4
					c1.051,0,1.348,0.675,1.348,1.601h-1.957c0.031,0.427,0.354,0.668,0.809,0.668c0.355,0,0.666-0.123,0.939-0.268v0.561H87.527z"
					/>
				<path d="M88.361,15.977h0.654v0.602h0.012c0.031-0.247,0.334-0.664,0.773-0.664c0.072,0,0.148,0,0.227,0.021v0.694
					c-0.066-0.035-0.199-0.056-0.33-0.056c-0.6,0-0.6,0.699-0.6,1.079v0.974h-0.736V15.977z"/>
				<polygon points="90.531,14.768 91.268,14.768 91.268,17.037 91.279,17.037 92.158,15.976 93.025,15.976 91.971,17.16 
					93.158,18.626 92.225,18.626 91.279,17.34 91.268,17.34 91.268,18.626 90.531,18.626 				"/>
				<path d="M95.377,17.041c-0.021-0.333-0.188-0.622-0.598-0.622c-0.412,0-0.621,0.268-0.654,0.622H95.377z M95.871,18.478
					c-0.27,0.14-0.576,0.211-0.973,0.211c-0.934,0-1.477-0.505-1.477-1.373c0-0.767,0.434-1.4,1.311-1.4
					c1.051,0,1.348,0.675,1.348,1.601h-1.955c0.033,0.427,0.35,0.668,0.807,0.668c0.357,0,0.664-0.123,0.939-0.268V18.478
					L95.871,18.478z"/>
				<path d="M96.691,14.768h0.734v1.569h0.012c0.188-0.258,0.506-0.422,0.891-0.422c0.67,0,0.961,0.443,0.961,1.039v1.672h-0.736
					v-1.414c0-0.324-0.006-0.762-0.477-0.762c-0.533,0-0.65,0.541-0.65,0.88v1.296h-0.734V14.768L96.691,14.768z"/>
				<path d="M100.098,15.977h0.652v0.602h0.012c0.033-0.247,0.336-0.664,0.773-0.664c0.072,0,0.15,0,0.227,0.021v0.694
					c-0.066-0.035-0.199-0.056-0.33-0.056c-0.6,0-0.6,0.699-0.6,1.079v0.974h-0.734V15.977z"/>
				<path d="M103.932,16.533c-0.227-0.072-0.391-0.114-0.66-0.114c-0.195,0-0.434,0.067-0.434,0.294
					c0,0.421,1.279,0.154,1.279,1.111c0,0.616-0.588,0.863-1.186,0.863c-0.281,0-0.566-0.046-0.836-0.111l0.045-0.567
					c0.229,0.109,0.471,0.175,0.725,0.175c0.188,0,0.484-0.065,0.484-0.323c0-0.521-1.281-0.166-1.281-1.121
					c0-0.572,0.533-0.824,1.109-0.824c0.346,0,0.57,0.052,0.803,0.098L103.932,16.533z"/>
				<path d="M106.111,18.153c0.484,0,0.621-0.493,0.621-0.859c0-0.354-0.131-0.844-0.609-0.844c-0.473,0-0.66,0.473-0.66,0.844
					C105.463,17.67,105.623,18.153,106.111,18.153 M104.721,14.768h0.738v1.549h0.01c0.203-0.252,0.461-0.401,0.848-0.401
					c0.865,0,1.188,0.649,1.188,1.379c0,0.725-0.32,1.395-1.188,1.395c-0.312,0-0.652-0.103-0.867-0.387h-0.014v0.324h-0.715V14.768
					z"/>
				<path d="M109.887,17.041c-0.02-0.333-0.188-0.622-0.6-0.622s-0.619,0.268-0.652,0.622H109.887z M110.381,18.478
					c-0.27,0.14-0.576,0.211-0.973,0.211c-0.934,0-1.477-0.505-1.477-1.373c0-0.767,0.434-1.4,1.312-1.4
					c1.049,0,1.346,0.675,1.346,1.601h-1.955c0.033,0.427,0.352,0.668,0.807,0.668c0.357,0,0.664-0.123,0.939-0.268V18.478
					L110.381,18.478z"/>
				<path d="M111.441,16.48h-0.545v-0.504h0.545v-0.529l0.736-0.222v0.751h0.652v0.504h-0.652v1.236
					c0,0.226,0.066,0.436,0.346,0.436c0.133,0,0.258-0.023,0.336-0.071l0.021,0.546c-0.154,0.041-0.324,0.061-0.545,0.061
					c-0.576,0-0.896-0.333-0.896-0.858v-1.35H111.441z"/>
				<path d="M113.387,15.977h0.652v0.602h0.012c0.033-0.247,0.336-0.664,0.773-0.664c0.072,0,0.15,0,0.227,0.021v0.694
					c-0.066-0.035-0.197-0.056-0.33-0.056c-0.6,0-0.6,0.699-0.6,1.079v0.974h-0.734V15.977z"/>
				<path d="M115.557,18.627h0.734v-2.65h-0.734V18.627z M115.557,15.494h0.734v-0.66h-0.734V15.494z"/>
				<path d="M118.875,17.041c-0.023-0.333-0.188-0.622-0.6-0.622s-0.621,0.268-0.652,0.622H118.875z M119.369,18.478
					c-0.27,0.14-0.576,0.211-0.973,0.211c-0.934,0-1.479-0.505-1.479-1.373c0-0.767,0.436-1.4,1.312-1.4
					c1.051,0,1.348,0.675,1.348,1.601h-1.955c0.029,0.427,0.352,0.668,0.807,0.668c0.357,0,0.664-0.123,0.939-0.268V18.478
					L119.369,18.478z"/>
				<path d="M121.578,18.153c0.482,0,0.619-0.493,0.619-0.859c0-0.354-0.131-0.844-0.609-0.844c-0.473,0-0.658,0.473-0.658,0.844
					C120.93,17.67,121.088,18.153,121.578,18.153 M120.188,14.768h0.736v1.549h0.012c0.203-0.252,0.461-0.401,0.848-0.401
					c0.865,0,1.186,0.649,1.186,1.379c0,0.725-0.318,1.395-1.186,1.395c-0.312,0-0.654-0.103-0.869-0.387H120.9v0.324h-0.713V14.768
					L120.188,14.768z"/>
			</g>
			<g>
				<path d="M82.631,22.165h0.27c0.387,0,0.73-0.117,0.73-0.535c0-0.417-0.336-0.562-0.73-0.562h-0.27V22.165z M81.861,20.503h0.973
					c0.836,0,1.598,0.226,1.598,1.087c0,0.837-0.654,1.143-1.477,1.143h-0.324v1.363h-0.77V20.503L81.861,20.503z"/>
				<path d="M86.229,23.621c0.566,0,0.715-0.473,0.715-0.916c0-0.407-0.229-0.786-0.715-0.786c-0.477,0-0.707,0.392-0.707,0.786
					C85.521,23.145,85.67,23.621,86.229,23.621 M86.229,21.384c0.84,0,1.484,0.528,1.484,1.404c0,0.762-0.543,1.368-1.484,1.368
					c-0.934,0-1.477-0.606-1.477-1.368C84.752,21.912,85.395,21.384,86.229,21.384"/>
				<path d="M88.547,21.949h-0.543v-0.506h0.543v-0.528l0.738-0.224v0.752h0.652v0.506h-0.652v1.234
					c0,0.228,0.064,0.438,0.346,0.438c0.131,0,0.258-0.025,0.334-0.072l0.023,0.547c-0.154,0.04-0.324,0.062-0.545,0.062
					c-0.576,0-0.896-0.334-0.896-0.859V21.949z"/>
				<path d="M92.141,22c-0.227-0.072-0.391-0.114-0.658-0.114c-0.197,0-0.436,0.068-0.436,0.296c0,0.422,1.279,0.153,1.279,1.109
					c0,0.618-0.586,0.863-1.186,0.863c-0.279,0-0.566-0.045-0.834-0.111l0.043-0.564c0.23,0.106,0.473,0.174,0.725,0.174
					c0.188,0,0.484-0.066,0.484-0.323c0-0.521-1.279-0.165-1.279-1.122c0-0.571,0.531-0.824,1.109-0.824
					c0.346,0,0.57,0.053,0.801,0.098L92.141,22z"/>
				<path d="M94.123,23.622c0.49,0,0.65-0.483,0.65-0.858c0-0.371-0.188-0.845-0.66-0.845c-0.479,0-0.609,0.488-0.609,0.845
					C93.504,23.126,93.641,23.622,94.123,23.622 M94.799,23.796h-0.01c-0.221,0.259-0.521,0.361-0.869,0.361
					c-0.867,0-1.186-0.671-1.186-1.396c0-0.732,0.318-1.379,1.186-1.379c0.369,0,0.627,0.117,0.848,0.369h0.01v-1.518h0.736v3.859
					h-0.715V23.796z"/>
				<path d="M97.277,23.652c0.227,0,0.402-0.092,0.518-0.237c0.121-0.147,0.152-0.34,0.152-0.545h-0.318
					c-0.328,0-0.818,0.051-0.818,0.458C96.811,23.555,97.014,23.652,97.277,23.652 M96.416,21.583
					c0.285-0.123,0.67-0.201,0.982-0.201c0.863,0,1.221,0.336,1.221,1.117v0.34c0,0.269,0.006,0.47,0.01,0.664
					c0.006,0.2,0.016,0.388,0.033,0.593h-0.648c-0.027-0.14-0.027-0.314-0.033-0.396h-0.01c-0.172,0.294-0.539,0.458-0.875,0.458
					c-0.5,0-0.988-0.282-0.988-0.787c0-0.396,0.203-0.627,0.484-0.759c0.279-0.127,0.641-0.152,0.949-0.152h0.406
					c0-0.428-0.201-0.57-0.637-0.57c-0.312,0-0.627,0.113-0.873,0.287L96.416,21.583z"/>
				<path d="M99.35,21.443h0.688v0.371h0.012c0.229-0.323,0.566-0.434,0.84-0.434c0.396,0,0.676,0.141,0.836,0.469
					c0.17-0.317,0.539-0.469,0.885-0.469c0.697,0,0.895,0.449,0.895,1.041v1.672h-0.736v-1.58c0-0.246,0-0.597-0.422-0.597
					c-0.49,0-0.549,0.546-0.549,0.89v1.287h-0.736v-1.58c0-0.246,0-0.597-0.424-0.597c-0.488,0-0.549,0.546-0.549,0.89v1.287H99.35
					V21.443z"/>
			</g>
			<g>
				<path d="M108.811,21.141c-0.27-0.164-0.561-0.246-1.057-0.246c-0.883,0-1.473,0.602-1.473,1.404c0,0.846,0.65,1.405,1.447,1.405
					c0.377,0,0.477-0.037,0.615-0.062v-1.091h-0.809v-0.424h1.355v1.869c-0.209,0.065-0.572,0.16-1.17,0.16
					c-1.215,0-2.021-0.732-2.021-1.873c0-1.106,0.855-1.843,2.027-1.843c0.561,0,0.809,0.077,1.125,0.179L108.811,21.141z"/>
				<path d="M109.738,21.471h0.482v0.381h0.012c0.197-0.305,0.479-0.443,0.891-0.443c0.324,0,0.648,0.156,0.795,0.512
					c0.193-0.377,0.617-0.512,0.869-0.512c0.713,0,0.973,0.433,0.973,1.004v1.684h-0.518v-1.566c0-0.323-0.082-0.729-0.5-0.729
					c-0.527,0-0.734,0.484-0.734,0.974v1.322h-0.518v-1.566c0-0.323-0.082-0.729-0.5-0.729c-0.527,0-0.736,0.484-0.736,0.974v1.322
					h-0.516V21.471z"/>
				<path d="M115.902,21.8c-0.561,0-0.83,0.498-0.83,0.988c0,0.438,0.242,0.979,0.824,0.979c0.555,0,0.785-0.584,0.775-0.996
					C116.682,22.298,116.463,21.8,115.902,21.8 M114.557,20.235h0.518v1.595h0.012c0.158-0.241,0.438-0.422,0.928-0.422
					c0.812,0,1.209,0.621,1.209,1.328c0,0.721-0.357,1.42-1.203,1.42c-0.5,0-0.818-0.237-0.957-0.434h-0.01v0.371h-0.494v-3.859
					H114.557z"/>
				<polygon points="117.918,20.503 118.467,20.503 118.467,22.005 120.303,22.005 120.303,20.503 120.852,20.503 120.852,24.096 
					120.303,24.096 120.303,22.458 118.467,22.458 118.467,24.096 117.918,24.096 				"/>
			</g>
		</g>
		<g>
			<polygon points="81.596,29.161 81.596,31.021 82.557,31.021 82.557,30.816 81.846,30.816 81.846,30.156 82.488,30.156 
				82.488,29.955 81.846,29.955 81.846,29.364 82.52,29.364 82.52,29.161 			"/>
			<path d="M82.945,31.021h0.238v-1.358h-0.238V31.021z M82.934,29.37h0.262v-0.267h-0.262V29.37z"/>
			<path d="M83.609,29.955c0-0.1-0.008-0.196-0.01-0.292h0.23l0.008,0.202h0.006c0.076-0.155,0.197-0.221,0.365-0.221
				c0.254,0,0.424,0.135,0.424,0.434v0.941h-0.238v-0.877c0-0.215-0.086-0.309-0.24-0.309c-0.186,0-0.305,0.124-0.305,0.369v0.814
				h-0.24V29.955z"/>
			<path d="M87.064,30.336c0,0.184-0.012,0.284-0.078,0.415c-0.084,0.153-0.258,0.287-0.543,0.287c-0.287,0-0.461-0.134-0.545-0.287
				c-0.066-0.131-0.078-0.231-0.078-0.415v-1.174h0.25v1.208c0,0.29,0.137,0.478,0.373,0.478c0.234,0,0.371-0.188,0.371-0.478
				v-1.208h0.25V30.336z"/>
			<path d="M87.514,29.955c0-0.1-0.008-0.196-0.012-0.292h0.23l0.008,0.202h0.006c0.076-0.155,0.199-0.221,0.365-0.221
				c0.254,0,0.424,0.135,0.424,0.434v0.941h-0.236v-0.877c0-0.215-0.088-0.309-0.24-0.309c-0.188,0-0.307,0.124-0.307,0.369v0.814
				h-0.238V29.955z"/>
			<path d="M89.578,31.004c-0.057,0.02-0.137,0.033-0.201,0.033c-0.219,0-0.336-0.081-0.336-0.319v-0.874h-0.23v-0.182h0.23v-0.276
				l0.24-0.065v0.343h0.297v0.183h-0.297v0.801c0,0.153,0.041,0.211,0.148,0.211c0.061,0,0.104-0.015,0.148-0.033V31.004
				L89.578,31.004z"/>
			<path d="M90.594,30.238c0-0.283-0.092-0.424-0.281-0.424c-0.152,0-0.291,0.104-0.297,0.424H90.594z M90.016,30.408
				c0,0.312,0.131,0.46,0.396,0.46c0.117,0,0.25-0.056,0.332-0.112l0.012,0.202c-0.113,0.051-0.26,0.08-0.406,0.08
				c-0.383,0-0.582-0.271-0.582-0.697c0-0.425,0.199-0.694,0.561-0.694c0.326,0,0.508,0.242,0.508,0.642v0.121L90.016,30.408
				L90.016,30.408z"/>
			<path d="M91.154,29.955c0-0.1-0.008-0.196-0.01-0.292h0.229l0.01,0.213h0.006c0.076-0.166,0.197-0.231,0.412-0.231v0.222
				c-0.029-0.007-0.061-0.009-0.092-0.009c-0.186,0-0.314,0.148-0.314,0.444v0.718h-0.24V29.955L91.154,29.955z"/>
			<path d="M92.053,29.955c0-0.1-0.008-0.196-0.012-0.292h0.23l0.008,0.202h0.006c0.078-0.155,0.199-0.221,0.367-0.221
				c0.252,0,0.424,0.135,0.424,0.434v0.941h-0.24v-0.877c0-0.215-0.084-0.309-0.238-0.309c-0.188,0-0.307,0.124-0.307,0.369v0.814
				h-0.238V29.955z"/>
			<path d="M94.236,30.238c0-0.283-0.094-0.424-0.283-0.424c-0.154,0-0.289,0.104-0.295,0.424H94.236z M93.658,30.408
				c0,0.312,0.131,0.46,0.395,0.46c0.119,0,0.25-0.056,0.332-0.112l0.012,0.202c-0.111,0.051-0.262,0.08-0.404,0.08
				c-0.387,0-0.582-0.271-0.582-0.697c0-0.425,0.195-0.694,0.559-0.694c0.326,0,0.508,0.242,0.508,0.642v0.121L93.658,30.408
				L93.658,30.408z"/>
			<path d="M94.797,29.023h0.238v0.824h0.006c0.062-0.113,0.188-0.203,0.355-0.203c0.252,0,0.424,0.135,0.424,0.433v0.942h-0.24
				v-0.875c0-0.217-0.084-0.311-0.238-0.311c-0.188,0-0.307,0.123-0.307,0.368v0.817h-0.238V29.023z"/>
			<path d="M96.223,29.955c0-0.1-0.008-0.196-0.012-0.292h0.23l0.008,0.202h0.006c0.078-0.155,0.199-0.221,0.359-0.221
				c0.152,0,0.266,0.072,0.34,0.211c0.076-0.133,0.188-0.211,0.354-0.211c0.248,0,0.42,0.135,0.42,0.434v0.941h-0.238v-0.932
				c0-0.173-0.08-0.254-0.223-0.254c-0.176,0-0.273,0.102-0.273,0.348v0.838h-0.236v-0.932c0-0.173-0.08-0.254-0.223-0.254
				c-0.176,0-0.271,0.102-0.271,0.348v0.838h-0.238v-1.064H96.223z"/>
			<path d="M99.088,30.238c0-0.283-0.092-0.424-0.283-0.424c-0.152,0-0.291,0.104-0.295,0.424H99.088z M98.51,30.408
				c0,0.312,0.131,0.46,0.395,0.46c0.119,0,0.25-0.056,0.332-0.112l0.014,0.202c-0.113,0.051-0.264,0.08-0.406,0.08
				c-0.383,0-0.582-0.271-0.582-0.697c0-0.425,0.199-0.694,0.561-0.694c0.326,0,0.508,0.242,0.508,0.642v0.121L98.51,30.408
				L98.51,30.408z"/>
			<path d="M99.648,29.955c0-0.1-0.008-0.196-0.012-0.292h0.23l0.008,0.202h0.006c0.076-0.155,0.199-0.221,0.367-0.221
				c0.252,0,0.424,0.135,0.424,0.434v0.941h-0.238v-0.877c0-0.215-0.086-0.309-0.24-0.309c-0.188,0-0.305,0.124-0.305,0.369v0.814
				h-0.24V29.955z"/>
			<path d="M102.299,29.825c-0.219,0-0.318,0.176-0.318,0.516c0,0.341,0.102,0.517,0.318,0.517c0.219,0,0.318-0.176,0.318-0.517
				C102.617,30.001,102.518,29.825,102.299,29.825 M102.855,30.77c0,0.084,0.01,0.168,0.012,0.252h-0.229l-0.01-0.201h-0.006
				c-0.062,0.105-0.172,0.219-0.381,0.219c-0.301,0-0.5-0.229-0.5-0.697c0-0.468,0.199-0.695,0.5-0.695
				c0.164,0,0.271,0.061,0.367,0.203h0.008v-0.824h0.236v1.744H102.855z"/>
			<path d="M103.994,30.238c0-0.283-0.092-0.424-0.283-0.424c-0.154,0-0.291,0.104-0.295,0.424H103.994z M103.416,30.408
				c0,0.312,0.131,0.46,0.395,0.46c0.119,0,0.248-0.056,0.332-0.112l0.012,0.202c-0.111,0.051-0.262,0.08-0.404,0.08
				c-0.383,0-0.582-0.271-0.582-0.697c0-0.425,0.199-0.694,0.559-0.694c0.328,0,0.51,0.242,0.51,0.642v0.121L103.416,30.408
				L103.416,30.408z"/>
			<path d="M104.555,29.955c0-0.1-0.008-0.196-0.012-0.292h0.23l0.008,0.213h0.006c0.076-0.166,0.199-0.231,0.412-0.231v0.222
				c-0.027-0.007-0.059-0.009-0.09-0.009c-0.186,0-0.316,0.148-0.316,0.444v0.718h-0.238V29.955z"/>
		</g>
		<g>
			<path d="M81.59,35.13c0.08,0.05,0.262,0.134,0.482,0.134c0.184,0,0.348-0.097,0.348-0.312c0-0.151-0.096-0.221-0.297-0.323
				l-0.213-0.11c-0.225-0.115-0.373-0.283-0.373-0.561c0-0.382,0.336-0.581,0.719-0.581c0.242,0,0.412,0.06,0.477,0.077l-0.02,0.326
				c-0.102-0.036-0.234-0.09-0.428-0.09c-0.209,0-0.316,0.104-0.316,0.25c0,0.158,0.113,0.221,0.242,0.287l0.244,0.129
				c0.27,0.141,0.396,0.275,0.396,0.574c0,0.437-0.33,0.644-0.766,0.644c-0.23,0-0.404-0.03-0.521-0.095L81.59,35.13z"/>
			<polygon points="83.08,33.407 83.08,33.721 83.588,33.721 83.588,35.544 84.008,35.544 84.008,33.721 84.514,33.721 
				84.514,33.407 			"/>
			<path d="M85.34,33.732h0.006l0.289,0.996h-0.607L85.34,33.732z M85.121,33.407l-0.766,2.137h0.42l0.162-0.515h0.785l0.16,0.515
				h0.43l-0.734-2.137H85.121z"/>
			<path d="M86.973,35.243h0.145c0.469,0,0.682-0.3,0.682-0.769c0-0.468-0.213-0.77-0.682-0.77h-0.145V35.243z M86.555,33.407h0.596
				c0.715,0,1.092,0.36,1.092,1.067c0,0.719-0.457,1.067-1.092,1.067h-0.596V33.407z"/>
			<polygon points="88.459,33.407 88.459,33.721 88.969,33.721 88.969,35.544 89.389,35.544 89.389,33.721 89.895,33.721 
				89.895,33.407 			"/>
			<polygon points="92.26,33.407 91.926,35.055 91.92,35.055 91.58,33.407 91.07,33.407 90.727,35.055 90.721,35.055 90.4,33.407 
				90.008,33.407 90.469,35.544 90.963,35.544 91.32,33.793 91.328,33.793 91.668,35.544 92.168,35.544 92.639,33.407 			"/>
			<polygon points="92.926,33.407 92.926,35.544 94.156,35.544 94.156,35.23 93.344,35.23 93.344,34.6 94.082,34.6 94.082,34.289 
				93.344,34.289 93.344,33.721 94.125,33.721 94.125,33.407 			"/>
			<path d="M95.127,34.337c0.223,0,0.373-0.106,0.373-0.323c0-0.244-0.137-0.308-0.373-0.308h-0.17v0.631H95.127z M94.539,33.407
				h0.713c0.404,0,0.68,0.171,0.68,0.563c0,0.277-0.188,0.465-0.439,0.502v0.008c0.086,0.014,0.18,0.049,0.252,0.248l0.297,0.813
				h-0.443l-0.227-0.692c-0.057-0.17-0.164-0.226-0.316-0.226h-0.096v0.918h-0.418v-2.135H94.539z"/>
			<polygon points="97.453,33.407 96.803,34.312 96.793,34.312 96.793,33.407 96.377,33.407 96.377,35.544 96.793,35.544 
				96.793,34.539 96.803,34.539 97.488,35.544 97.996,35.544 97.16,34.413 97.934,33.407 			"/>
			<polygon points="98.252,33.407 98.252,35.544 99.482,35.544 99.482,35.23 98.67,35.23 98.67,34.6 99.408,34.6 99.408,34.289 
				98.67,34.289 98.67,33.721 99.451,33.721 99.451,33.407 			"/>
			<path d="M101.289,34.407c0.262,0,0.375-0.118,0.375-0.351c0-0.233-0.113-0.352-0.375-0.352h-0.156v0.701L101.289,34.407
				L101.289,34.407z M100.715,33.407h0.652c0.471,0,0.717,0.245,0.717,0.649c0,0.401-0.246,0.65-0.717,0.65h-0.234v0.835h-0.418
				V33.407z"/>
			<path d="M103.246,35.273c0.264,0,0.477-0.211,0.477-0.799s-0.213-0.799-0.477-0.799s-0.477,0.211-0.477,0.799
				S102.982,35.273,103.246,35.273 M103.246,33.377c0.473,0,0.908,0.329,0.908,1.098c0,0.77-0.436,1.1-0.908,1.1
				c-0.475,0-0.908-0.33-0.908-1.1C102.338,33.706,102.771,33.377,103.246,33.377"/>
			<polygon points="104.227,33.407 104.227,33.721 104.736,33.721 104.736,35.544 105.154,35.544 105.154,33.721 105.66,33.721 
				105.66,33.407 			"/>
			<path d="M105.941,35.13c0.082,0.05,0.262,0.134,0.482,0.134c0.184,0,0.348-0.097,0.348-0.312c0-0.151-0.096-0.221-0.297-0.323
				l-0.213-0.11c-0.227-0.115-0.373-0.283-0.373-0.561c0-0.382,0.336-0.581,0.719-0.581c0.242,0,0.412,0.06,0.477,0.077l-0.02,0.326
				c-0.1-0.036-0.234-0.09-0.428-0.09c-0.209,0-0.316,0.104-0.316,0.25c0,0.158,0.113,0.221,0.24,0.287l0.246,0.129
				c0.268,0.141,0.395,0.275,0.395,0.574c0,0.437-0.328,0.644-0.764,0.644c-0.229,0-0.404-0.03-0.52-0.095L105.941,35.13z"/>
			<path d="M108.002,35.243h0.141c0.473,0,0.686-0.3,0.686-0.769c0-0.468-0.213-0.77-0.686-0.77h-0.141V35.243z M107.584,33.407
				h0.594c0.713,0,1.094,0.36,1.094,1.067c0,0.719-0.459,1.067-1.094,1.067h-0.594V33.407z"/>
			<path d="M110.303,33.732h0.008l0.287,0.996h-0.605L110.303,33.732z M110.084,33.407l-0.764,2.137h0.418l0.162-0.515h0.785
				l0.158,0.515h0.434l-0.736-2.137H110.084z"/>
			<polygon points="113.115,33.407 112.635,35.002 112.629,35.002 112.158,33.407 111.535,33.407 111.535,35.544 111.914,35.544 
				111.914,33.762 111.92,33.762 112.465,35.544 112.764,35.544 113.334,33.762 113.34,33.762 113.34,35.544 113.721,35.544 
				113.721,33.407 			"/>
			<path d="M115.957,34.348h0.738v1.115c-0.117,0.059-0.32,0.11-0.617,0.11c-0.73,0-1.121-0.466-1.121-1.099
				c0-0.634,0.391-1.1,1.121-1.1c0.262,0,0.469,0.057,0.557,0.093l-0.023,0.353c-0.135-0.077-0.316-0.131-0.525-0.131
				c-0.443,0-0.684,0.342-0.684,0.785c0,0.479,0.232,0.786,0.66,0.786c0.1,0,0.188-0.019,0.242-0.04v-0.574h-0.348V34.348z"/>
			<polygon points="118.744,33.407 118.264,35.002 118.258,35.002 117.787,33.407 117.164,33.407 117.164,35.544 117.543,35.544 
				117.543,33.762 117.549,33.762 118.094,35.544 118.391,35.544 118.965,33.762 118.971,33.762 118.971,35.544 119.35,35.544 
				119.35,33.407 			"/>
			<path d="M120.234,35.243h0.232c0.225,0,0.35-0.128,0.35-0.328c0-0.187-0.105-0.327-0.363-0.327h-0.219V35.243z M120.234,34.302
				h0.215c0.207,0,0.328-0.146,0.328-0.319c0-0.18-0.139-0.287-0.338-0.287h-0.205V34.302z M119.83,33.407h0.666
				c0.471,0,0.686,0.165,0.686,0.526c0,0.34-0.229,0.439-0.379,0.492v0.006c0.178,0.037,0.432,0.152,0.432,0.512
				c0,0.389-0.305,0.6-0.709,0.6h-0.693v-2.136H119.83z"/>
			<polygon points="122.74,33.407 122.74,34.275 122.064,34.275 122.064,33.407 121.646,33.407 121.646,35.544 122.064,35.544 
				122.064,34.6 122.74,34.6 122.74,35.544 123.158,35.544 123.158,33.407 			"/>
		</g>
	</g>
</g>
</svg>
