<?xml version="1.0" encoding="utf-8"?>
<!-- Generator: Adobe Illustrator 16.0.0, SVG Export Plug-In . SVG Version: 6.00 Build 0)  -->
<!DOCTYPE svg PUBLIC "-//W3C//DTD SVG 1.1//EN" "http://www.w3.org/Graphics/SVG/1.1/DTD/svg11.dtd">
<svg version="1.1" id="Ebene_1" xmlns="http://www.w3.org/2000/svg" xmlns:xlink="http://www.w3.org/1999/xlink" x="0px" y="0px"
	 width="67.773px" height="40px" viewBox="43.613 0 67.773 40" enable-background="new 43.613 0 67.773 40" xml:space="preserve">
<g>
	<path d="M60.574,17.499c2.112-1.26,3.435-1.341,5.331-1.222c-1.571-0.919-12.123-7.492-18.67-2.445
		c-1.656,1.412-3.394,0.853-3.561,0.067c-0.112-0.504-0.105-1.024,0.339-1.409c8.924-6.627,17.509-1.541,23.057,1.823
		c11.339,6.887,28.622,7.837,44.317-8.45c-9.936,13.212-28.016,18.656-43.302,11.413C66.087,16.227,62.617,16.5,60.574,17.499"/>
	<path d="M60.868,30.615c0,0.049,0.041,0.09,0.096,0.09h0.351c0.053,0,0.096-0.041,0.096-0.09v-1.139l1.04,1.201
		c0.009,0.012,0.032,0.025,0.073,0.025h0.433c0.08,0,0.112-0.08,0.073-0.129l-1.117-1.25l1.04-1.1
		c0.052-0.057,0.013-0.133-0.064-0.133h-0.396c-0.037,0-0.061,0.017-0.077,0.035l-1.004,1.061v-1.007
		c0-0.049-0.043-0.089-0.096-0.089h-0.351c-0.055,0-0.096,0.04-0.096,0.089L60.868,30.615L60.868,30.615z M63.76,30.703h0.348
		c0.063,0,0.099-0.037,0.115-0.073l0.195-0.404h1.192l0.193,0.404c0.029,0.052,0.057,0.073,0.116,0.073h0.347
		c0.061,0,0.092-0.047,0.068-0.098l-1.228-2.511c-0.014-0.021-0.028-0.042-0.067-0.042h-0.041c-0.036,0-0.055,0.021-0.068,0.042
		l-1.237,2.512C63.668,30.656,63.7,30.703,63.76,30.703 M64.613,29.812l0.39-0.82h0.013l0.398,0.82H64.613z M67.322,30.634
		c0,0.037,0.036,0.069,0.077,0.069h0.368c0.04,0,0.076-0.032,0.076-0.069v-2.095h0.61c0.043,0,0.075-0.033,0.075-0.07v-0.307
		c0-0.037-0.032-0.069-0.075-0.069h-1.741c-0.044,0-0.076,0.032-0.076,0.069v0.307c0,0.037,0.032,0.07,0.076,0.07h0.609
		L67.322,30.634L67.322,30.634z M69.346,30.634c0,0.037,0.037,0.069,0.077,0.069h0.371c0.043,0,0.075-0.032,0.075-0.069v-1.031h1.3
		v1.031c0,0.037,0.032,0.069,0.075,0.069h0.366c0.041,0,0.075-0.032,0.075-0.069v-2.472c0-0.037-0.034-0.069-0.075-0.069h-0.366
		c-0.043,0-0.075,0.032-0.075,0.069v0.988h-1.3v-0.988c0-0.037-0.032-0.069-0.075-0.069h-0.371c-0.04,0-0.077,0.032-0.077,0.069
		V30.634z M72.827,30.634c0,0.037,0.033,0.069,0.076,0.069h1.459c0.043,0,0.075-0.032,0.075-0.069v-0.306
		c0-0.037-0.032-0.071-0.075-0.071h-1.017v-2.095c0-0.037-0.037-0.069-0.077-0.069h-0.365c-0.043,0-0.076,0.032-0.076,0.069V30.634z
		 M75.249,30.634c0,0.037,0.031,0.069,0.076,0.069h1.62c0.045,0,0.075-0.032,0.075-0.069v-0.306c0-0.037-0.03-0.071-0.075-0.071
		h-1.18v-0.654h0.984c0.041,0,0.076-0.028,0.076-0.069v-0.311c0-0.037-0.035-0.07-0.076-0.07h-0.984v-0.611h1.18
		c0.045,0,0.075-0.034,0.075-0.071v-0.306c0-0.037-0.03-0.07-0.075-0.07h-1.62c-0.045,0-0.076,0.033-0.076,0.07V30.634z
		 M78.025,30.634c0,0.037,0.031,0.069,0.074,0.069h1.623c0.043,0,0.075-0.032,0.075-0.069v-0.306c0-0.037-0.032-0.071-0.075-0.071
		h-1.181v-0.654h0.985c0.039,0,0.074-0.028,0.074-0.069v-0.311c0-0.037-0.035-0.07-0.074-0.07h-0.985v-0.611h1.181
		c0.043,0,0.075-0.034,0.075-0.071v-0.306c0-0.037-0.032-0.07-0.075-0.07H78.1c-0.043,0-0.074,0.033-0.074,0.07V30.634z
		 M80.803,30.634c0,0.037,0.036,0.069,0.076,0.069h0.362c0.044,0,0.077-0.032,0.077-0.069v-1.604h0.004l1.664,1.713h0.096
		c0.041,0,0.076-0.029,0.076-0.066v-2.512c0-0.037-0.035-0.07-0.076-0.07h-0.366c-0.043,0-0.075,0.033-0.075,0.07v1.541h-0.004
		l-1.658-1.65h-0.1c-0.04,0-0.076,0.031-0.076,0.068V30.634z M85.839,30.634c0,0.037,0.031,0.069,0.075,0.069h0.367
		c0.039,0,0.074-0.032,0.074-0.069v-0.944h0.983c0.039,0,0.076-0.033,0.076-0.07v-0.308c0-0.037-0.037-0.069-0.076-0.069h-0.983
		v-0.701h1.18c0.044,0,0.074-0.034,0.074-0.071v-0.306c0-0.037-0.03-0.07-0.074-0.07h-1.621c-0.044,0-0.075,0.033-0.075,0.07V30.634
		z M88.471,30.634c0,0.037,0.032,0.069,0.076,0.069h0.366c0.039,0,0.076-0.032,0.076-0.069v-0.952h0.44l0.529,0.989
		c0.009,0.015,0.03,0.032,0.064,0.032h0.418c0.067,0,0.097-0.061,0.067-0.107l-0.546-0.947c0.348-0.132,0.589-0.41,0.589-0.755
		c0-0.442-0.39-0.801-0.868-0.801h-1.139c-0.044,0-0.077,0.032-0.077,0.069v2.472H88.471z M88.993,29.283v-0.742h0.649
		c0.209,0,0.395,0.164,0.395,0.361c0,0.209-0.186,0.381-0.395,0.381H88.993z M91.547,30.634c0,0.037,0.036,0.069,0.075,0.069h0.371
		c0.04,0,0.075-0.032,0.075-0.069v-2.472c0-0.037-0.035-0.069-0.075-0.069h-0.371c-0.039,0-0.075,0.032-0.075,0.069V30.634z
		 M93.205,30.634c0,0.037,0.031,0.069,0.074,0.069h1.623c0.043,0,0.074-0.032,0.074-0.069v-0.306c0-0.037-0.031-0.071-0.074-0.071
		h-1.18v-0.654h0.983c0.039,0,0.076-0.028,0.076-0.069v-0.311c0-0.037-0.037-0.07-0.076-0.07h-0.983v-0.611h1.18
		c0.043,0,0.074-0.034,0.074-0.071v-0.306c0-0.037-0.031-0.07-0.074-0.07h-1.623c-0.043,0-0.074,0.033-0.074,0.07V30.634z
		 M95.982,30.634c0,0.037,0.031,0.069,0.07,0.069h0.944c0.771,0,1.397-0.584,1.397-1.311c0-0.716-0.629-1.301-1.397-1.301h-0.944
		c-0.039,0-0.07,0.033-0.07,0.07V30.634z M96.496,30.248v-1.705h0.454c0.521,0,0.896,0.367,0.896,0.851
		c0,0.489-0.377,0.854-0.896,0.854H96.496z M99.352,30.634c0,0.037,0.031,0.069,0.075,0.069h0.366c0.04,0,0.075-0.032,0.075-0.069
		v-0.952h0.442l0.53,0.989c0.009,0.015,0.027,0.032,0.063,0.032h0.419c0.065,0,0.095-0.061,0.065-0.107l-0.545-0.947
		c0.348-0.132,0.59-0.41,0.59-0.755c0-0.442-0.391-0.801-0.869-0.801h-1.14c-0.044,0-0.075,0.032-0.075,0.069v2.472H99.352z
		 M99.872,29.283v-0.742h0.649c0.213,0,0.396,0.164,0.396,0.361c0,0.209-0.183,0.381-0.396,0.381H99.872z M102.428,30.634
		c0,0.037,0.035,0.069,0.075,0.069h0.371c0.039,0,0.075-0.032,0.075-0.069v-2.472c0-0.037-0.036-0.069-0.075-0.069h-0.371
		c-0.04,0-0.075,0.032-0.075,0.069V30.634z M103.895,29.4c0,0.747,0.644,1.342,1.439,1.342c0.354,0,0.697-0.115,0.968-0.361
		c0.027-0.026,0.036-0.075,0.005-0.1l-0.248-0.24c-0.023-0.022-0.066-0.025-0.1,0c-0.168,0.127-0.371,0.213-0.609,0.213
		c-0.511,0-0.893-0.396-0.893-0.862c0-0.47,0.378-0.87,0.889-0.87c0.223,0,0.445,0.083,0.613,0.221c0.032,0.029,0.072,0.029,0.1,0
		l0.243-0.234c0.032-0.03,0.032-0.074-0.004-0.105c-0.271-0.227-0.562-0.347-0.964-0.347
		C104.537,28.054,103.895,28.656,103.895,29.4 M107.227,30.634c0,0.037,0.035,0.069,0.076,0.069h0.369
		c0.043,0,0.075-0.032,0.075-0.069v-1.031h1.3v1.031c0,0.037,0.032,0.069,0.076,0.069h0.367c0.039,0,0.074-0.032,0.074-0.069v-2.472
		c0-0.037-0.035-0.069-0.074-0.069h-0.367c-0.044,0-0.076,0.032-0.076,0.069v0.988h-1.3v-0.988c0-0.037-0.032-0.069-0.075-0.069
		h-0.369c-0.041,0-0.076,0.032-0.076,0.069V30.634z"/>
	<path d="M60.899,26.492c0,0.057,0.05,0.106,0.115,0.106h0.388c0.06,0,0.113-0.051,0.113-0.106v-1.315h0.866
		c0.731,0,1.334-0.565,1.334-1.259c0-0.68-0.603-1.237-1.339-1.237h-1.362c-0.065,0-0.115,0.05-0.115,0.106V26.492z M61.516,24.629
		v-1.391h0.824c0.413,0,0.76,0.293,0.76,0.674c0,0.401-0.347,0.717-0.76,0.717H61.516z M64.716,26.492
		c0,0.057,0.055,0.106,0.114,0.106h0.393c0.067,0,0.115-0.051,0.115-0.106v-1.617h2.188v1.617c0,0.057,0.049,0.106,0.114,0.106
		h0.395c0.06,0,0.112-0.051,0.112-0.106v-3.705c0-0.058-0.053-0.106-0.112-0.106H67.64c-0.065,0-0.114,0.05-0.114,0.106v1.562
		h-2.188v-1.562c0-0.058-0.048-0.106-0.115-0.106H64.83c-0.06,0-0.114,0.05-0.114,0.106V26.492z M69.311,24.645
		c0,1.121,0.949,2.01,2.146,2.01c1.194,0,2.15-0.889,2.15-2.01c0-1.12-0.956-2.02-2.15-2.02
		C70.26,22.625,69.311,23.524,69.311,24.645 M69.907,24.645c0-0.795,0.699-1.462,1.549-1.462c0.854,0,1.555,0.667,1.555,1.462
		c0,0.801-0.7,1.451-1.555,1.451C70.606,26.096,69.907,25.445,69.907,24.645 M75.188,26.492c0,0.057,0.056,0.106,0.113,0.106h0.395
		c0.06,0,0.114-0.051,0.114-0.106v-3.287h0.975c0.065,0,0.112-0.051,0.112-0.105v-0.312c0-0.058-0.047-0.106-0.112-0.106h-2.57
		c-0.066,0-0.113,0.05-0.113,0.106v0.312c0,0.056,0.047,0.106,0.113,0.106h0.974L75.188,26.492L75.188,26.492z M77.382,24.645
		c0,1.121,0.95,2.01,2.146,2.01c1.197,0,2.152-0.889,2.152-2.01c0-1.12-0.955-2.02-2.152-2.02
		C78.332,22.625,77.382,23.524,77.382,24.645 M77.979,24.645c0-0.795,0.699-1.462,1.548-1.462c0.854,0,1.556,0.667,1.556,1.462
		c0,0.801-0.7,1.451-1.556,1.451C78.678,26.096,77.979,25.445,77.979,24.645 M82.575,24.645c0,1.121,0.961,2.01,2.149,2.01
		c0.867,0,1.481-0.369,1.481-0.369c0.022-0.017,0.048-0.062,0.048-0.09c0-0.447-0.006-0.906-0.006-1.354
		c0-0.059-0.047-0.105-0.107-0.105h-1.086c-0.066,0-0.115,0.043-0.115,0.105v0.322c0,0.057,0.049,0.102,0.115,0.102h0.584v0.628
		c-0.059,0.022-0.398,0.19-0.896,0.19c-0.851,0-1.502-0.672-1.502-1.449c0-0.785,0.651-1.457,1.502-1.457
		c0.362,0,0.733,0.152,1.016,0.381c0.06,0.05,0.107,0.057,0.155,0.006c0.089-0.09,0.18-0.174,0.27-0.263
		c0.047-0.046,0.041-0.112-0.007-0.157c-0.405-0.324-0.878-0.52-1.452-0.52C83.536,22.625,82.575,23.524,82.575,24.645
		 M87.543,26.492c0,0.057,0.047,0.106,0.113,0.106h0.387c0.061,0,0.114-0.051,0.114-0.106v-1.428h0.903l0.795,1.483
		c0.012,0.022,0.047,0.051,0.096,0.051h0.466c0.103,0,0.144-0.089,0.103-0.163L89.7,25.015c0.521-0.196,0.885-0.621,0.885-1.138
		c0-0.666-0.585-1.196-1.303-1.196h-1.625c-0.066,0-0.113,0.05-0.113,0.106L87.543,26.492L87.543,26.492z M88.17,24.584v-1.361
		h1.062c0.391,0,0.729,0.302,0.729,0.666c0,0.387-0.34,0.695-0.729,0.695H88.17z M91.467,26.599h0.377
		c0.071,0,0.119-0.045,0.137-0.084c0.119-0.258,0.246-0.51,0.365-0.767H94.3l0.371,0.767c0.024,0.051,0.065,0.084,0.138,0.084h0.377
		c0.09,0,0.138-0.073,0.103-0.146l-1.823-3.769c-0.02-0.032-0.072-0.062-0.102-0.062h-0.062c-0.03,0-0.084,0.027-0.102,0.062
		l-1.835,3.769C91.329,26.525,91.378,26.599,91.467,26.599 M92.578,25.267l0.73-1.534h0.028l0.735,1.534H92.578z M96.208,26.492
		c0,0.057,0.047,0.106,0.112,0.106h0.389c0.061,0,0.115-0.051,0.115-0.106v-1.315h0.865c0.729,0,1.332-0.565,1.332-1.259
		c0-0.68-0.604-1.237-1.338-1.237H96.32c-0.065,0-0.112,0.05-0.112,0.106V26.492z M96.824,24.629v-1.391h0.822
		c0.414,0,0.762,0.293,0.762,0.674c0,0.401-0.348,0.717-0.762,0.717H96.824z M100.023,26.492c0,0.057,0.054,0.106,0.112,0.106h0.396
		c0.064,0,0.113-0.051,0.113-0.106v-1.617h2.188v1.617c0,0.057,0.047,0.106,0.113,0.106h0.394c0.06,0,0.114-0.051,0.114-0.106
		v-3.705c0-0.058-0.055-0.106-0.114-0.106h-0.394c-0.066,0-0.113,0.05-0.113,0.106v1.562h-2.188v-1.562
		c0-0.058-0.049-0.106-0.113-0.106h-0.396c-0.06,0-0.112,0.05-0.112,0.106V26.492z M104.9,26.492c0,0.057,0.055,0.106,0.113,0.106
		h0.396c0.06,0,0.112-0.051,0.112-0.106v-3.705c0-0.058-0.054-0.106-0.112-0.106h-0.396c-0.06,0-0.113,0.05-0.113,0.106V26.492z
		 M106.961,26.492c0,0.057,0.048,0.106,0.113,0.106h2.392c0.065,0,0.113-0.051,0.113-0.106v-0.308c0-0.056-0.048-0.106-0.113-0.106
		h-1.889v-1.203h1.595c0.061,0,0.114-0.045,0.114-0.106v-0.312c0-0.058-0.056-0.105-0.114-0.105h-1.595v-1.145h1.889
		c0.065,0,0.113-0.051,0.113-0.106v-0.313c0-0.058-0.048-0.106-0.113-0.106h-2.392c-0.065,0-0.113,0.05-0.113,0.106V26.492z"/>
</g>
</svg>
