<?xml version="1.0" encoding="utf-8"?>
<!-- Generator: Adobe Illustrator 16.0.0, SVG Export Plug-In . SVG Version: 6.00 Build 0)  -->
<!DOCTYPE svg PUBLIC "-//W3C//DTD SVG 1.1//EN" "http://www.w3.org/Graphics/SVG/1.1/DTD/svg11.dtd">
<svg version="1.1" id="Ebene_1" xmlns="http://www.w3.org/2000/svg" xmlns:xlink="http://www.w3.org/1999/xlink" x="0px" y="0px"
	 width="121.43px" height="40px" viewBox="16.785 0 121.43 40" enable-background="new 16.785 0 121.43 40" xml:space="preserve">
<g>
	<polygon points="18.09,13.189 18.03,13.189 17.969,13.199 17.899,13.213 17.839,13.235 17.786,13.259 17.733,13.288 17.68,13.327 
		17.627,13.372 17.589,13.418 17.543,13.471 17.512,13.524 17.483,13.584 17.458,13.644 17.437,13.715 17.429,13.774 17.422,13.842 
		17.429,13.904 17.437,13.972 17.451,14.032 17.468,14.093 17.497,14.146 17.528,14.207 17.567,14.253 17.603,14.306 17.649,14.35 
		17.702,14.389 17.755,14.427 17.816,14.457 17.885,14.481 17.945,14.495 18.014,14.502 18.074,14.51 18.143,14.51 18.203,14.495 
		18.265,14.488 18.325,14.465 18.385,14.435 18.438,14.403 18.492,14.366 18.536,14.328 18.582,14.283 18.628,14.23 18.658,14.177 
		18.689,14.117 18.713,14.055 18.734,13.986 18.742,13.919 18.75,13.858 18.742,13.789 18.734,13.729 18.72,13.669 18.697,13.608 
		18.674,13.545 18.643,13.492 18.606,13.439 18.568,13.393 18.515,13.35 18.469,13.311 18.408,13.274 18.355,13.243 18.287,13.221 
		18.226,13.206 18.158,13.189 	"/>
	<polygon points="17.407,21.333 17.338,21.339 17.277,21.346 17.209,21.371 17.149,21.4 17.096,21.43 17.042,21.468 16.997,21.505 
		16.952,21.551 16.913,21.598 16.874,21.65 16.845,21.71 16.821,21.773 16.8,21.833 16.792,21.895 16.785,21.96 16.785,22.023 
		16.792,22.091 16.807,22.158 16.83,22.219 16.853,22.281 16.882,22.341 16.92,22.395 16.959,22.441 17.005,22.486 17.058,22.523 
		17.11,22.562 17.163,22.592 17.223,22.615 17.285,22.628 17.345,22.646 17.414,22.652 17.483,22.652 17.55,22.646 17.611,22.628 
		17.681,22.607 17.741,22.583 17.793,22.553 17.846,22.516 17.892,22.469 17.938,22.425 17.977,22.379 18.013,22.326 18.044,22.264 
		18.067,22.211 18.09,22.152 18.097,22.084 18.104,22.023 18.104,21.953 18.097,21.885 18.083,21.818 18.059,21.756 18.037,21.697 
		18.005,21.645 17.969,21.589 17.931,21.537 17.885,21.49 17.832,21.453 17.779,21.423 17.725,21.391 17.664,21.371 17.604,21.346 
		17.543,21.339 17.475,21.333 	"/>
	<polygon points="20.958,30.064 21.011,30.027 21.057,29.98 21.104,29.928 21.131,29.875 21.164,29.822 21.194,29.761 
		21.209,29.701 21.223,29.641 21.23,29.572 21.23,29.511 21.223,29.443 21.216,29.382 21.194,29.322 21.17,29.26 21.141,29.201 
		21.104,29.146 21.064,29.094 21.019,29.048 20.965,29.001 20.913,28.964 20.859,28.936 20.799,28.912 20.739,28.896 20.677,28.882 
		20.609,28.875 20.548,28.875 20.48,28.882 20.42,28.889 20.358,28.912 20.298,28.936 20.238,28.964 20.184,29.001 20.13,29.041 
		20.077,29.087 20.041,29.141 20.001,29.193 19.971,29.246 19.948,29.307 19.934,29.367 19.918,29.428 19.911,29.496 19.911,29.557 
		19.918,29.617 19.926,29.688 19.948,29.748 19.971,29.807 20.001,29.867 20.041,29.919 20.077,29.973 20.124,30.02 20.176,30.064 
		20.229,30.104 20.282,30.134 20.344,30.158 20.404,30.171 20.464,30.188 20.533,30.195 20.594,30.195 20.654,30.188 20.722,30.178 
		20.783,30.158 20.845,30.134 20.905,30.104 	"/>
	<polygon points="27.371,35.133 27.402,35.074 27.417,35.014 27.431,34.952 27.44,34.884 27.44,34.823 27.44,34.755 27.424,34.693 
		27.41,34.633 27.387,34.573 27.364,34.52 27.325,34.458 27.288,34.414 27.242,34.361 27.198,34.323 27.143,34.285 27.083,34.246 
		27.022,34.223 26.954,34.202 26.893,34.186 26.833,34.178 26.764,34.178 26.704,34.178 26.635,34.191 26.575,34.208 26.522,34.23 
		26.461,34.261 26.409,34.292 26.354,34.33 26.31,34.375 26.264,34.428 26.225,34.48 26.194,34.535 26.165,34.596 26.141,34.664 
		26.127,34.723 26.119,34.792 26.119,34.852 26.127,34.915 26.134,34.98 26.158,35.043 26.172,35.104 26.204,35.158 26.24,35.21 
		26.278,35.264 26.324,35.309 26.37,35.354 26.423,35.391 26.483,35.422 26.543,35.453 26.605,35.475 26.673,35.491 26.734,35.498 
		26.802,35.498 26.863,35.491 26.924,35.482 26.984,35.468 27.045,35.445 27.106,35.416 27.159,35.384 27.205,35.338 27.258,35.301 
		27.296,35.248 27.334,35.195 	"/>
	<polygon points="34.726,36.083 34.658,36.083 34.589,36.096 34.528,36.114 34.469,36.135 34.407,36.158 34.354,36.195 
		34.301,36.234 34.255,36.271 34.218,36.325 34.18,36.371 34.142,36.423 34.119,36.484 34.096,36.545 34.074,36.605 34.065,36.673 
		34.065,36.744 34.065,36.811 34.074,36.878 34.096,36.939 34.119,37 34.142,37.061 34.18,37.114 34.218,37.16 34.255,37.212 
		34.301,37.25 34.354,37.289 34.407,37.328 34.469,37.348 34.528,37.374 34.589,37.387 34.658,37.402 34.726,37.402 34.794,37.402 
		34.863,37.387 34.924,37.374 34.983,37.348 35.037,37.328 35.098,37.289 35.143,37.25 35.195,37.212 35.233,37.16 35.272,37.114 
		35.302,37.061 35.333,37 35.354,36.939 35.37,36.878 35.387,36.811 35.387,36.744 35.387,36.673 35.37,36.605 35.354,36.545 
		35.333,36.484 35.302,36.423 35.272,36.371 35.233,36.325 35.195,36.271 35.143,36.234 35.098,36.195 35.045,36.158 34.983,36.135 
		34.924,36.114 34.863,36.096 34.794,36.083 	"/>
	<polygon points="24.844,4.987 24.556,5.238 25.808,6.71 25.877,6.786 25.931,6.869 25.983,6.946 26.021,7.021 26.058,7.097 
		26.097,7.172 26.12,7.249 26.136,7.324 26.149,7.4 26.157,7.484 26.157,7.56 26.149,7.636 26.143,7.719 26.126,7.802 26.104,7.878 
		26.074,7.961 26.037,8.046 25.991,8.129 25.944,8.206 25.898,8.279 25.838,8.357 25.778,8.424 25.715,8.494 25.648,8.554 
		25.536,8.636 25.429,8.713 25.314,8.773 25.201,8.819 25.086,8.858 24.965,8.88 24.852,8.896 24.738,8.904 24.625,8.887 
		24.51,8.873 24.403,8.834 24.297,8.798 24.191,8.745 24.101,8.675 24.009,8.593 23.927,8.508 22.575,6.922 22.288,7.172 
		22.165,7.029 23.083,6.248 23.206,6.393 22.916,6.634 24.161,8.099 24.238,8.182 24.312,8.251 24.396,8.318 24.479,8.372 
		24.562,8.417 24.655,8.456 24.746,8.478 24.83,8.494 24.92,8.501 25.011,8.501 25.095,8.484 25.186,8.463 25.277,8.431 
		25.36,8.387 25.443,8.334 25.527,8.272 25.603,8.198 25.672,8.12 25.732,8.04 25.778,7.955 25.814,7.872 25.846,7.78 25.869,7.689 
		25.877,7.598 25.877,7.506 25.869,7.417 25.846,7.317 25.814,7.226 25.778,7.135 25.732,7.043 25.672,6.953 25.603,6.862 
		24.358,5.405 24.068,5.654 23.949,5.511 24.724,4.852 	"/>
	<polygon points="29.352,6.142 28.336,6.681 28.252,6.513 28.587,6.339 27.888,5.019 27.843,4.941 27.782,4.875 27.751,4.844 
		27.721,4.821 27.691,4.798 27.652,4.782 27.622,4.769 27.585,4.76 27.555,4.76 27.516,4.76 27.477,4.76 27.44,4.775 27.403,4.782 
		27.364,4.807 27.304,4.844 27.242,4.896 27.19,4.958 27.145,5.048 27.099,5.164 27.053,5.298 27.008,5.481 26.955,5.708 
		27.569,6.877 27.91,6.695 28.002,6.861 26.985,7.4 26.894,7.234 27.235,7.051 26.378,5.436 25.991,5.641 25.922,5.52 26.476,5.003 
		26.559,4.958 26.825,5.466 26.87,5.27 26.923,5.093 26.976,4.958 27.038,4.835 27.075,4.782 27.106,4.736 27.145,4.692 
		27.182,4.653 27.227,4.617 27.273,4.578 27.318,4.547 27.371,4.518 27.433,4.487 27.493,4.464 27.555,4.448 27.615,4.441 
		27.675,4.435 27.736,4.435 27.789,4.448 27.85,4.464 27.903,4.479 27.948,4.51 28.002,4.541 28.047,4.578 28.093,4.624 
		28.132,4.676 28.168,4.736 28.206,4.798 28.927,6.156 29.262,5.976 	"/>
	<path d="M29.505,3.653l-0.63,0.425l0.044,0.128l0.418-0.144l0.592,1.73l-0.364,0.129l0.06,0.174l1.093-0.37l-0.06-0.183
		l-0.364,0.129l-0.707-2.049L29.505,3.653z M29.071,2.598l-0.053,0.014l-0.046,0.024l-0.044,0.029l-0.031,0.039L28.866,2.75
		l-0.015,0.046l-0.007,0.046v0.053l0.015,0.053L28.882,3l0.03,0.046l0.038,0.03l0.038,0.03l0.045,0.015l0.053,0.007h0.053
		l0.055-0.007l0.052-0.022l0.037-0.038l0.038-0.038l0.032-0.039l0.014-0.053l0.007-0.046V2.832l-0.014-0.06l-0.023-0.046
		l-0.03-0.036l-0.039-0.039L29.223,2.62l-0.046-0.015l-0.053-0.007H29.071z"/>
	<polygon points="31.782,3.113 31.819,3.304 32.153,3.236 31.895,4.813 30.999,3.462 31.348,3.395 31.309,3.212 30.346,3.409 
		30.384,3.593 30.598,3.554 31.895,5.512 31.994,5.49 32.373,3.19 32.586,3.145 32.547,2.961 	"/>
	<path d="M33.496,3.622l0.016-0.068l0.015-0.069l0.021-0.06l0.031-0.06l0.032-0.054l0.029-0.053l0.045-0.045l0.046-0.039
		l0.045-0.039l0.053-0.036l0.053-0.023l0.062-0.023l0.062-0.016l0.061-0.014h0.066h0.062h0.045l0.053,0.014l0.046,0.016l0.046,0.015
		l0.046,0.023l0.038,0.03l0.037,0.031l0.031,0.036l0.031,0.039l0.028,0.039l0.016,0.045l0.023,0.054L34.65,3.41l0.008,0.053
		l0.007,0.061v0.12L33.49,3.689L33.496,3.622z M34.119,2.803l-0.113,0.014l-0.107,0.024L33.791,2.87l-0.098,0.046l-0.1,0.053
		L33.512,3.03l-0.085,0.076l-0.074,0.082l-0.062,0.085l-0.06,0.099l-0.046,0.106l-0.047,0.105l-0.029,0.114L33.094,3.82
		l-0.015,0.128v0.129l0.015,0.128l0.022,0.123l0.03,0.121l0.039,0.105l0.046,0.107l0.06,0.099l0.062,0.091l0.074,0.076l0.077,0.076
		l0.09,0.062l0.092,0.052l0.099,0.045l0.106,0.03l0.105,0.023l0.116,0.015h0.12l0.105-0.007l0.1-0.015l0.092-0.016l0.098-0.037
		l0.1-0.038l0.099-0.052l0.12-0.07l0.129-0.075l-0.106-0.182l-0.098,0.06l-0.084,0.061L34.71,4.896l-0.075,0.038l-0.067,0.023
		l-0.07,0.023L34.43,4.987l-0.075,0.008h-0.092L34.179,4.98l-0.084-0.023l-0.074-0.03l-0.077-0.038l-0.068-0.054l-0.06-0.053
		l-0.062-0.067l-0.052-0.069l-0.055-0.083L33.611,4.48l-0.039-0.098l-0.031-0.099L33.52,4.176L33.504,4.07l-0.008-0.122
		l-0.007-0.053l1.601-0.068l-0.007-0.138l-0.009-0.098L35.06,3.492l-0.023-0.089l-0.038-0.084l-0.038-0.078l-0.046-0.074
		l-0.053-0.068l-0.061-0.062l-0.068-0.06l-0.069-0.046l-0.082-0.038l-0.084-0.037l-0.083-0.024l-0.092-0.015l-0.099-0.014H34.119z"
		/>
	<polygon points="35.553,3 35.546,3.143 35.986,3.181 35.796,5.003 35.408,4.966 35.394,5.155 36.638,5.283 36.661,5.093 
		36.176,5.04 36.312,3.697 36.509,3.508 36.646,3.393 36.699,3.357 36.744,3.333 36.782,3.326 36.812,3.319 36.856,3.333 
		36.903,3.365 36.956,3.418 37.025,3.485 37.351,3.159 37.206,3.008 37.185,2.984 37.154,2.969 37.117,2.955 37.072,2.948 
		37.009,2.948 36.941,2.962 36.867,2.993 36.79,3.037 36.707,3.106 36.6,3.198 36.479,3.311 36.334,3.455 36.395,2.895 
		36.304,2.878 	"/>
	<polygon points="38.262,3.229 38.187,3.236 38.117,3.251 38.05,3.273 37.99,3.296 37.928,3.334 37.875,3.372 37.822,3.418 
		37.777,3.462 37.739,3.515 37.709,3.576 37.678,3.646 37.664,3.713 37.646,3.774 37.64,3.828 37.64,3.881 37.64,3.934 
		37.646,3.987 37.664,4.032 37.686,4.085 37.709,4.138 37.739,4.184 37.777,4.237 37.822,4.283 37.875,4.336 37.99,4.434 
		38.141,4.547 38.301,4.661 38.429,4.76 38.528,4.852 38.597,4.927 38.626,4.964 38.649,5.003 38.664,5.042 38.672,5.07 
		38.679,5.109 38.679,5.141 38.679,5.177 38.672,5.215 38.657,5.254 38.643,5.285 38.626,5.314 38.604,5.345 38.573,5.367 
		38.544,5.391 38.513,5.412 38.474,5.427 38.399,5.451 38.308,5.458 38.216,5.458 38.117,5.444 38.057,5.427 38.005,5.405 
		37.951,5.384 37.906,5.352 37.852,5.321 37.814,5.293 37.777,5.261 37.739,5.222 37.709,5.187 37.678,5.141 37.655,5.102 
		37.64,5.063 37.625,5.017 37.625,4.981 37.625,4.935 37.633,4.897 37.664,4.768 37.434,4.707 37.268,5.412 37.458,5.458 
		37.504,5.285 37.549,5.345 37.602,5.398 37.664,5.451 37.73,5.497 37.807,5.535 37.891,5.572 37.98,5.603 38.087,5.632 
		38.163,5.649 38.248,5.656 38.322,5.656 38.399,5.656 38.467,5.642 38.536,5.625 38.604,5.603 38.664,5.572 38.725,5.543 
		38.778,5.497 38.824,5.451 38.869,5.398 38.908,5.345 38.946,5.276 38.968,5.215 38.992,5.141 39.006,5.088 39.013,5.026 
		39.013,4.973 39.013,4.919 39.006,4.874 38.992,4.821 38.976,4.775 38.946,4.722 38.915,4.678 38.884,4.632 38.841,4.579 
		38.788,4.533 38.664,4.427 38.52,4.313 38.339,4.184 38.202,4.085 38.103,4.002 38.042,3.934 38.02,3.903 38.005,3.873 
		37.99,3.843 37.99,3.819 37.99,3.751 38.005,3.683 38.012,3.646 38.027,3.607 38.05,3.576 38.064,3.547 38.095,3.515 38.117,3.494 
		38.148,3.471 38.179,3.455 38.255,3.433 38.33,3.418 38.421,3.418 38.513,3.433 38.611,3.462 38.696,3.508 38.77,3.561 
		38.831,3.622 38.854,3.653 38.877,3.692 38.899,3.721 38.908,3.758 38.923,3.797 38.923,3.828 38.923,3.864 38.915,3.903 
		38.894,3.979 38.848,4.062 39.059,4.108 39.347,3.425 39.136,3.38 39.066,3.547 39.021,3.494 38.976,3.448 38.923,3.402 
		38.862,3.363 38.802,3.334 38.731,3.304 38.664,3.273 38.581,3.251 38.498,3.236 38.414,3.229 38.339,3.22 	"/>
	<path d="M39.849,3.963l0.41,0.152L39.614,5.83l-0.366-0.137l-0.061,0.175l1.079,0.409l0.061-0.173L39.97,5.967l0.768-2.025
		L40.645,3.91l-0.75-0.074L39.849,3.963z M40.782,2.788l-0.045,0.015l-0.047,0.03l-0.038,0.031l-0.028,0.037l-0.032,0.053
		l-0.014,0.053v0.054l0.007,0.053l0.014,0.045l0.025,0.046l0.038,0.038l0.036,0.03l0.053,0.023l0.054,0.015l0.053,0.008l0.046-0.008
		l0.054-0.015l0.045-0.03l0.038-0.03l0.03-0.046l0.022-0.046l0.015-0.053l0.009-0.053l-0.009-0.053l-0.021-0.046l-0.023-0.046
		l-0.037-0.037l-0.038-0.031l-0.054-0.022l-0.053-0.015l-0.046-0.007L40.782,2.788z"/>
	<polygon points="41.783,6.786 41.671,6.809 41.571,6.824 41.488,6.832 41.412,6.832 41.351,6.832 41.29,6.817 41.23,6.793 
		41.171,6.772 41.124,6.74 41.078,6.711 41.04,6.68 41.009,6.649 40.979,6.613 40.955,6.574 40.935,6.535 40.92,6.497 40.909,6.452 
		40.902,6.407 40.902,6.362 40.902,6.316 40.909,6.27 40.927,6.217 40.941,6.164 40.973,6.119 41.671,4.715 41.276,4.517 
		41.337,4.387 41.783,4.486 42.096,3.864 42.422,4.023 42.103,4.662 42.665,4.95 42.56,5.155 41.996,4.874 41.313,6.239 41.29,6.3 
		41.276,6.354 41.268,6.399 41.276,6.444 41.29,6.482 41.32,6.521 41.358,6.551 41.403,6.581 41.473,6.613 41.549,6.627 
		41.641,6.627 41.769,6.627 	"/>
	<path d="M43.211,7.371l-0.105,0.014l-0.092,0.008H42.93l-0.068-0.008l-0.067-0.007l-0.062-0.022L42.68,7.332l-0.054-0.029
		l-0.053-0.046l-0.053-0.06l-0.03-0.053l-0.016-0.062l-0.007-0.068l0.007-0.067l0.023-0.062l0.039-0.069l0.143-0.212l0.836,0.327
		L43.211,7.371z M44.152,5.01l0.03-0.045l0.015-0.053l0.007-0.046l-0.007-0.053l-0.015-0.046l-0.017-0.044l-0.037-0.038
		l-0.037-0.031l-0.047-0.03L44,4.607h-0.053l-0.046,0.007l-0.046,0.009L43.81,4.646l-0.037,0.038l-0.037,0.038l-0.023,0.044
		l-0.016,0.046L43.69,4.858l0.007,0.053l0.016,0.046l0.023,0.045l0.03,0.039l0.037,0.029l0.046,0.031l0.046,0.015h0.053h0.045
		l0.046-0.015l0.046-0.022l0.037-0.031L44.152,5.01z M43.696,8.031L43.37,7.803l0.888-1.282l0.031-0.053l0.029-0.061l0.015-0.053
		l0.017-0.053v-0.06V6.187l-0.017-0.061l-0.015-0.06l-0.022-0.053l-0.023-0.062l-0.036-0.053L44.19,5.845l-0.046-0.06l-0.053-0.046
		L44.03,5.686l-0.069-0.053l-0.066-0.045L43.818,5.55l-0.069-0.038l-0.068-0.023l-0.075-0.023l-0.068-0.015l-0.061-0.015
		l-0.068-0.009l-0.061,0.009h-0.062l-0.054,0.015L43.18,5.473l-0.054,0.024L43.08,5.526l-0.036,0.039l-0.03,0.038l-0.022,0.03
		l-0.017,0.03l-0.007,0.039v0.045l0.447,0.144l0.137-0.197l0.107,0.015l0.076,0.023l0.06,0.03l0.061,0.039l0.062,0.044l0.044,0.053
		l0.031,0.062l0.022,0.067v0.062l-0.007,0.067l-0.016,0.069l-0.038,0.061l-0.327,0.477L42.802,6.43l-0.047-0.016l-0.046-0.007
		L42.664,6.4h-0.039h-0.089l-0.084,0.023l-0.085,0.03l-0.074,0.045l-0.039,0.03l-0.029,0.031l-0.03,0.038l-0.032,0.038l-0.037,0.052
		l-0.022,0.055l-0.023,0.06l-0.015,0.053l-0.008,0.06v0.053v0.053l0.008,0.061l0.015,0.052l0.023,0.055l0.022,0.053l0.03,0.044
		l0.039,0.053l0.037,0.046l0.053,0.039l0.046,0.038l0.083,0.053l0.092,0.039l0.085,0.029L42.679,7.6h0.092l0.105-0.01l0.106-0.022
		l0.123-0.031L43.08,7.561l-0.007,0.022l-0.037,0.053l-0.022,0.061L42.999,7.75v0.053l0.015,0.045l0.014,0.045l0.039,0.039
		l0.039,0.039l0.074,0.037l0.092,0.03l0.342,0.106L43.696,8.031z M44.896,5.519l0.029-0.046l0.016-0.053V5.374V5.321l-0.016-0.045
		L44.903,5.23l-0.031-0.037l-0.039-0.032L44.79,5.133l-0.046-0.009l-0.053-0.007l-0.046,0.007l-0.053,0.009l-0.038,0.022
		l-0.046,0.039l-0.03,0.036l-0.022,0.045L44.442,5.32l-0.008,0.046l0.008,0.053l0.007,0.046l0.022,0.046l0.03,0.038l0.046,0.029
		l0.046,0.032l0.046,0.014h0.044h0.054l0.044-0.014l0.046-0.023l0.039-0.031L44.896,5.519z"/>
	<polygon points="44.812,9.086 44.692,9.077 44.593,9.063 44.508,9.055 44.441,9.032 44.38,9.009 44.327,8.987 44.272,8.949 
		44.219,8.903 44.182,8.865 44.152,8.828 44.122,8.79 44.099,8.751 44.076,8.705 44.06,8.661 44.053,8.623 44.053,8.577 
		44.053,8.532 44.06,8.486 44.068,8.44 44.084,8.402 44.106,8.357 44.129,8.311 44.159,8.267 44.198,8.221 45.244,7.052 
		44.918,6.756 45.01,6.657 45.412,6.869 45.882,6.346 46.148,6.588 45.677,7.12 46.148,7.537 45.989,7.713 45.518,7.294 
		44.501,8.433 44.463,8.486 44.433,8.532 44.41,8.577 44.41,8.623 44.41,8.661 44.433,8.705 44.463,8.744 44.501,8.782 
		44.562,8.828 44.629,8.865 44.713,8.896 44.843,8.926 	"/>
	<polygon points="20.905,22.052 20.662,20.822 20.852,20.787 20.919,21.158 23.842,20.588 23.773,20.208 23.955,20.179 
		24.237,21.598 24.252,21.711 24.259,21.811 24.259,21.917 24.245,22.014 24.23,22.105 24.199,22.197 24.16,22.281 24.114,22.357 
		24.061,22.434 23.994,22.5 23.926,22.561 23.849,22.622 23.766,22.667 23.683,22.706 23.584,22.744 23.486,22.766 23.38,22.781 
		23.272,22.781 23.174,22.773 23.075,22.758 22.977,22.729 22.887,22.691 22.802,22.646 22.711,22.592 22.636,22.523 22.559,22.455 
		22.499,22.371 22.439,22.289 22.386,22.189 22.34,22.09 22.301,21.986 22.28,21.871 22.263,21.801 22.256,21.742 22.248,21.673 
		22.248,21.583 22.422,21.551 22.422,21.628 22.439,21.689 22.453,21.764 22.484,21.84 22.521,21.908 22.559,21.977 22.605,22.039 
		22.658,22.098 22.718,22.145 22.78,22.189 22.848,22.236 22.916,22.264 22.993,22.289 23.068,22.311 23.145,22.326 23.228,22.326 
		23.311,22.326 23.394,22.311 23.463,22.295 23.539,22.271 23.599,22.242 23.668,22.211 23.721,22.174 23.773,22.129 23.828,22.083 
		23.865,22.039 23.902,21.986 23.941,21.932 23.963,21.879 23.987,21.818 23.994,21.756 24.001,21.695 24.001,21.635 23.994,21.576 
		23.888,21.035 21.011,21.598 21.095,22.023 	"/>
	<path d="M21.786,25.003l0.046,0.101l0.067,0.099l0.069,0.084l0.076,0.075l0.09,0.065l0.092,0.063l0.099,0.045l0.106,0.046
		l0.106,0.028l0.114,0.016l0.115,0.018h0.113l0.113-0.018l0.123-0.021l0.113-0.03l0.121-0.046l0.106-0.062l0.107-0.06l0.09-0.076
		l0.092-0.076l0.076-0.084l0.068-0.1l0.061-0.09l0.045-0.104l0.046-0.101l0.023-0.105l0.022-0.113l0.008-0.106l-0.008-0.113
		L24.07,24.23l-0.03-0.105l-0.038-0.105l-0.053-0.106l-0.061-0.091l-0.068-0.086l-0.083-0.074l-0.085-0.066l-0.09-0.062
		l-0.099-0.055l-0.107-0.037l-0.106-0.029l-0.113-0.021l-0.114-0.008h-0.114l-0.122,0.016l-0.113,0.015l-0.122,0.038l-0.114,0.046
		l-0.113,0.053l-0.099,0.069l-0.099,0.066l-0.083,0.084l-0.076,0.084l-0.069,0.09l-0.06,0.1l-0.053,0.098l-0.038,0.106l-0.031,0.106
		l-0.015,0.104l-0.007,0.116v0.105l0.022,0.112l0.023,0.106L21.786,25.003z M23.804,24.102l0.023,0.066l0.016,0.068l0.007,0.068
		l-0.007,0.068l-0.008,0.075l-0.022,0.069l-0.032,0.075l-0.044,0.066l-0.046,0.069l-0.053,0.067l-0.061,0.06l-0.068,0.062
		l-0.076,0.062l-0.084,0.055l-0.083,0.053l-0.091,0.046l-0.099,0.036l-0.098,0.031l-0.092,0.021l-0.099,0.023l-0.091,0.007h-0.091
		h-0.083l-0.084-0.015l-0.075-0.016l-0.077-0.022l-0.067-0.031l-0.062-0.036l-0.053-0.046l-0.053-0.053l-0.037-0.054l-0.039-0.062
		l-0.023-0.066l-0.014-0.067v-0.069v-0.072l0.014-0.067l0.023-0.07l0.03-0.073l0.046-0.07l0.046-0.067l0.053-0.067l0.061-0.062
		l0.068-0.062l0.076-0.061l0.083-0.053l0.084-0.053l0.099-0.047l0.092-0.037l0.098-0.031l0.089-0.022l0.099-0.015l0.092-0.016h0.091
		h0.084l0.083,0.016l0.077,0.015L23.5,23.82l0.069,0.031l0.062,0.037l0.053,0.047l0.044,0.045l0.046,0.061L23.804,24.102z"/>
	<polygon points="23.721,27.736 23.608,27.699 23.509,27.667 23.433,27.637 23.371,27.6 23.319,27.57 23.266,27.523 23.228,27.479 
		23.19,27.425 23.16,27.379 23.137,27.334 23.114,27.289 23.099,27.242 23.091,27.197 23.091,27.152 23.091,27.107 23.099,27.07 
		23.106,27.023 23.121,26.984 23.144,26.939 23.174,26.9 23.205,26.865 23.235,26.826 23.281,26.787 23.326,26.758 24.617,25.861 
		24.367,25.496 24.48,25.422 24.822,25.725 25.399,25.324 25.611,25.627 25.018,26.035 25.375,26.553 25.186,26.682 24.829,26.166 
		23.569,27.031 23.516,27.076 23.478,27.113 23.449,27.152 23.433,27.189 23.425,27.236 23.433,27.281 23.456,27.326 23.486,27.371 
		23.531,27.432 23.592,27.486 23.668,27.531 23.781,27.584 	"/>
	<polygon points="24.139,28.639 24.002,28.494 24.518,27.994 24.678,28.162 24.586,28.259 24.556,28.29 24.533,28.32 24.518,28.357 
		24.503,28.404 24.496,28.441 24.496,28.486 24.496,28.54 24.503,28.585 24.51,28.639 24.526,28.686 24.549,28.738 24.572,28.791 
		24.602,28.835 24.632,28.882 24.662,28.927 24.7,28.975 24.776,29.041 24.859,29.093 24.935,29.132 25.02,29.154 25.057,29.162 
		25.094,29.162 25.133,29.162 25.171,29.154 25.2,29.141 25.239,29.125 25.27,29.102 25.292,29.08 25.323,29.057 25.345,29.027 
		25.361,28.996 25.376,28.964 25.384,28.927 25.391,28.891 25.391,28.843 25.384,28.798 25.369,28.691 25.33,28.572 25.278,28.413 
		25.2,28.229 25.133,28.062 25.087,27.911 25.073,27.843 25.065,27.773 25.057,27.714 25.057,27.652 25.065,27.6 25.073,27.546 
		25.087,27.493 25.111,27.447 25.133,27.402 25.164,27.355 25.2,27.311 25.239,27.273 25.299,27.229 25.352,27.182 25.415,27.152 
		25.475,27.122 25.543,27.107 25.603,27.098 25.673,27.091 25.74,27.098 25.808,27.107 25.877,27.122 25.945,27.145 26.014,27.182 
		26.081,27.221 26.142,27.266 26.211,27.318 26.271,27.38 26.324,27.439 26.37,27.5 26.416,27.562 26.446,27.622 26.476,27.684 
		26.499,27.75 26.515,27.812 26.522,27.88 26.674,27.773 26.826,27.934 26.211,28.357 26.058,28.199 26.142,28.152 26.203,28.107 
		26.226,28.078 26.249,28.046 26.264,28.018 26.279,27.979 26.286,27.941 26.286,27.902 26.286,27.866 26.286,27.82 26.264,27.736 
		26.226,27.652 26.18,27.568 26.112,27.493 26.044,27.425 25.968,27.38 25.892,27.35 25.823,27.333 25.786,27.327 25.747,27.333 
		25.709,27.333 25.68,27.35 25.641,27.364 25.611,27.38 25.581,27.402 25.55,27.425 25.497,27.479 25.468,27.532 25.451,27.562 
		25.444,27.591 25.444,27.622 25.444,27.661 25.468,27.75 25.504,27.873 25.565,28.032 25.649,28.236 25.717,28.413 25.763,28.562 
		25.779,28.632 25.786,28.699 25.793,28.759 25.793,28.814 25.786,28.868 25.779,28.921 25.763,28.975 25.74,29.02 25.717,29.062 
		25.687,29.102 25.649,29.146 25.603,29.193 25.55,29.239 25.49,29.285 25.429,29.314 25.369,29.346 25.299,29.368 25.232,29.375 
		25.171,29.382 25.102,29.382 25.034,29.375 24.967,29.359 24.897,29.337 24.829,29.307 24.761,29.268 24.7,29.232 24.639,29.18 
		24.579,29.116 24.503,29.041 24.443,28.964 24.397,28.891 24.351,28.814 24.321,28.738 24.291,28.663 24.282,28.593 24.275,28.518 
			"/>
	<path d="M28.07,31.416l-0.364-0.25l1.934-2.859l-0.075-0.055l-0.72-0.25l-0.078,0.115l0.366,0.248l-0.653,0.973l-0.076-0.131
		l-0.069-0.09l-0.03-0.037l-0.045-0.039l-0.038-0.03l-0.053-0.038l-0.106-0.061l-0.106-0.053l-0.116-0.039l-0.113-0.029
		l-0.121-0.016h-0.114l-0.122,0.008l-0.113,0.016l-0.114,0.029l-0.114,0.047l-0.106,0.055l-0.107,0.059l-0.098,0.076l-0.091,0.084
		l-0.092,0.093l-0.074,0.104L26.4,29.451l-0.053,0.098l-0.046,0.107l-0.037,0.104l-0.024,0.105l-0.015,0.106l-0.007,0.107
		l0.007,0.097l0.015,0.106l0.024,0.092l0.029,0.091l0.039,0.093l0.052,0.074l0.062,0.076l0.069,0.066l0.074,0.062l0.085,0.045
		l0.075,0.039l0.091,0.029l0.084,0.016l0.098,0.008l0.114-0.008l0.122-0.016l0.136-0.021l-0.196,0.295l0.074,0.053l0.714,0.25
		L28.07,31.416z M27.341,30.748h-0.076h-0.067h-0.054L27.09,30.74l-0.045-0.016L27,30.71l-0.046-0.03l-0.045-0.031l-0.061-0.045
		l-0.054-0.045l-0.045-0.054l-0.038-0.062l-0.03-0.062l-0.023-0.066l-0.016-0.067l-0.007-0.069v-0.074l0.016-0.076l0.015-0.074
		l0.022-0.086l0.031-0.082l0.045-0.084l0.046-0.084l0.053-0.09l0.068-0.084L27,29.359l0.068-0.066l0.068-0.062l0.076-0.053
		l0.084-0.046l0.075-0.038l0.077-0.021l0.082-0.023l0.085-0.008h0.084l0.075,0.008l0.084,0.023l0.082,0.021l0.077,0.038l0.075,0.046
		l0.084,0.067l0.06,0.062l0.024,0.03l0.022,0.029l0.016,0.03l0.007,0.039v0.027v0.039l-0.007,0.039l-0.016,0.039l-0.037,0.082
		l-0.055,0.09l-0.66,0.979l-0.113,0.009L27.341,30.748z"/>
	<path d="M30.574,32.508l-0.356-0.145l0.576-1.456l0.016-0.062l0.016-0.053l0.007-0.062v-0.053l-0.015-0.061l-0.016-0.053
		l-0.022-0.054l-0.023-0.055l-0.037-0.054l-0.039-0.053l-0.045-0.045l-0.053-0.045l-0.061-0.037l-0.061-0.039l-0.077-0.039
		l-0.074-0.028l-0.077-0.03l-0.083-0.021l-0.076-0.023l-0.076-0.008l-0.068-0.008h-0.074h-0.07l-0.06,0.008l-0.06,0.015
		l-0.062,0.024l-0.044,0.021l-0.053,0.031l-0.039,0.037l-0.039,0.037l-0.03,0.047l-0.023,0.045l-0.014,0.039v0.028l-0.008,0.039
		l0.008,0.045l0.47,0.039l0.091-0.221l0.106-0.008l0.085,0.008l0.066,0.008l0.061,0.021l0.07,0.039l0.061,0.037l0.038,0.054
		l0.036,0.062l0.017,0.06l0.007,0.069v0.066l-0.023,0.076l-0.212,0.531l-0.88-0.137l-0.045-0.008h-0.046h-0.045L29.17,31.15
		l-0.083,0.022l-0.084,0.037l-0.068,0.056l-0.068,0.061l-0.024,0.037L28.814,31.4l-0.024,0.045l-0.014,0.039l-0.024,0.061
		l-0.015,0.061l-0.007,0.062v0.053v0.062l0.014,0.054l0.017,0.053l0.015,0.053l0.03,0.054l0.03,0.047l0.039,0.046l0.037,0.046
		l0.046,0.036l0.053,0.03l0.053,0.03l0.061,0.03l0.091,0.031l0.091,0.015l0.09,0.006h0.092l0.09-0.021l0.099-0.031l0.106-0.038
		l0.106-0.062l-0.015,0.03l-0.008,0.022l-0.022,0.062l-0.009,0.062v0.054l0.009,0.053l0.022,0.045l0.031,0.037l0.037,0.031
		l0.053,0.022l0.077,0.022l0.105,0.014l0.35,0.023L30.574,32.508z M29.96,31.979l-0.099,0.028l-0.091,0.031l-0.083,0.015
		l-0.069,0.014h-0.069h-0.06l-0.053-0.014l-0.062-0.021L29.307,32l-0.053-0.046l-0.046-0.047l-0.03-0.06l-0.023-0.061l-0.008-0.069
		l0.008-0.069l0.023-0.073l0.099-0.236l0.881,0.138L29.96,31.979z"/>
	<polygon points="35.462,33.473 34.316,33.366 34.331,33.176 34.717,33.214 34.862,31.727 34.869,31.636 34.855,31.546 
		34.848,31.507 34.832,31.469 34.816,31.439 34.802,31.4 34.779,31.376 34.749,31.348 34.726,31.324 34.696,31.311 34.657,31.294 
		34.627,31.277 34.589,31.271 34.544,31.264 34.483,31.264 34.422,31.271 34.361,31.287 34.301,31.311 34.232,31.348 34.165,31.395 
		34.087,31.454 33.997,31.521 33.702,31.787 33.572,33.102 33.96,33.139 33.937,33.327 32.79,33.214 32.813,33.023 33.192,33.062 
		33.337,31.583 33.337,31.484 33.328,31.4 33.321,31.355 33.307,31.324 33.292,31.287 33.268,31.257 33.254,31.225 33.222,31.195 
		33.201,31.171 33.169,31.158 33.132,31.143 33.103,31.126 33.063,31.119 33.018,31.111 32.942,31.111 32.866,31.119 32.783,31.15 
		32.7,31.195 32.601,31.264 32.486,31.355 32.342,31.484 32.176,31.636 32.045,32.949 32.433,32.986 32.412,33.176 31.265,33.062 
		31.288,32.88 31.667,32.917 31.85,31.098 31.409,31.052 31.424,30.914 32.168,30.787 32.26,30.8 32.207,31.363 32.35,31.225 
		32.486,31.111 32.616,31.02 32.73,30.96 32.783,30.932 32.844,30.914 32.897,30.893 32.95,30.886 33.003,30.878 33.063,30.869 
		33.124,30.869 33.177,30.878 33.246,30.886 33.307,30.9 33.367,30.914 33.413,30.938 33.466,30.96 33.512,30.991 33.55,31.02 
		33.586,31.059 33.618,31.105 33.649,31.15 33.671,31.195 33.692,31.257 33.709,31.311 33.716,31.376 33.724,31.439 33.731,31.514 
		33.883,31.376 34.021,31.264 34.14,31.171 34.255,31.105 34.308,31.083 34.369,31.059 34.422,31.044 34.475,31.029 34.528,31.02 
		34.589,31.02 34.643,31.02 34.703,31.029 34.771,31.037 34.832,31.052 34.893,31.066 34.954,31.098 35.007,31.126 35.052,31.158 
		35.09,31.195 35.127,31.242 35.166,31.287 35.19,31.332 35.211,31.395 35.233,31.447 35.243,31.507 35.25,31.575 35.257,31.645 
		35.25,31.712 35.098,33.253 35.476,33.29 	"/>
	<path d="M41.283,18.008h-0.667v4.166h0.667V18.008z M43.059,18.008h-1.267v4.166h1.267V18.008z M40.524,24.958h3.809v-2.229h-3.809
		V24.958z M38.201,23.852v0.045l0.007,0.039l0.009,0.043l0.017,0.039l0.044,0.084l0.062,0.084l0.073,0.082l0.093,0.078l0.099,0.073
		l0.12,0.067l0.13,0.07l0.152,0.066l0.151,0.061l0.174,0.062l0.183,0.062l0.189,0.053l0.204,0.054l0.212,0.045v-2.215l-0.195,0.045
		l-0.183,0.045L39.56,22.88l-0.174,0.054l-0.167,0.061l-0.159,0.059l-0.152,0.062l-0.137,0.068l-0.121,0.073l-0.114,0.078
		l-0.098,0.074l-0.084,0.084l-0.031,0.039l-0.036,0.047l-0.023,0.043l-0.022,0.039l-0.017,0.045l-0.016,0.045l-0.007,0.054
		L38.201,23.852L38.201,23.852z M36.706,18.008h-0.667v4.166h0.667V18.008z M37.404,22.173h0.668v-4.166h-0.668V22.173z
		 M38.771,22.173h0.66v-4.166h-0.66V22.173z M40.12,25.498v1.396l-0.339-0.055l-0.32-0.061l-0.312-0.066l-0.295-0.078l-0.281-0.082
		l-0.266-0.084l-0.25-0.098l-0.228-0.092l-0.213-0.107l-0.189-0.104l-0.091-0.055l-0.084-0.061L37.17,25.9l-0.068-0.062
		l-0.068-0.062l-0.068-0.062l-0.054-0.06l-0.053-0.061l-0.046-0.062l-0.046-0.068l-0.03-0.062l-0.03-0.067h-1.365v-8.285h4.772
		v5.121l-0.364,0.054l-0.35,0.069l-0.341,0.076l-0.312,0.075l-0.303,0.091l-0.282,0.09l-0.258,0.106L37.67,22.84l-0.106,0.053
		l-0.107,0.053l-0.098,0.062l-0.091,0.061l-0.084,0.062l-0.075,0.062l-0.069,0.061l-0.068,0.062l-0.054,0.06l-0.053,0.067
		l-0.038,0.068l-0.038,0.061l-0.022,0.07l-0.021,0.066l-0.009,0.068l-0.007,0.067l0.007,0.082l0.017,0.078l0.021,0.065l0.038,0.078
		l0.039,0.074l0.053,0.07l0.061,0.066l0.068,0.067l0.076,0.06l0.075,0.07l0.091,0.061l0.099,0.061l0.099,0.061l0.107,0.056
		l0.113,0.06l0.113,0.055l0.251,0.098l0.265,0.094l0.282,0.09l0.288,0.074l0.303,0.076L39.5,25.4l0.312,0.054L40.12,25.498z
		 M44.235,18.008h-0.669v4.166h0.669V18.008z M46.648,23.852v-0.047l-0.008-0.054l-0.015-0.045l-0.015-0.045l-0.023-0.039
		l-0.021-0.043l-0.032-0.047l-0.038-0.039l-0.083-0.084l-0.098-0.074l-0.114-0.078l-0.122-0.073l-0.136-0.068l-0.152-0.062
		l-0.158-0.059l-0.167-0.061L45.29,22.88l-0.183-0.047l-0.181-0.045l-0.19-0.045v2.215l0.204-0.045l0.205-0.054l0.191-0.053
		l0.182-0.062l0.174-0.062l0.152-0.061l0.151-0.066l0.129-0.07l0.12-0.067l0.1-0.073l0.092-0.078l0.076-0.082l0.061-0.084
		l0.046-0.084l0.015-0.039l0.007-0.043l0.008-0.039L46.648,23.852L46.648,23.852z M45.42,22.173h0.659v-4.166H45.42V22.173z
		 M46.778,22.173h0.667v-4.166h-0.667V22.173z M48.144,22.173h0.667v-4.166h-0.667V22.173z M44.736,17.053h4.774v8.285h-1.367
		l-0.029,0.068l-0.039,0.061l-0.038,0.068l-0.046,0.062l-0.053,0.06l-0.053,0.06l-0.068,0.061l-0.068,0.062L47.674,25.9
		l-0.076,0.053l-0.083,0.061l-0.092,0.055l-0.189,0.104l-0.212,0.107l-0.236,0.092l-0.243,0.098l-0.265,0.084l-0.281,0.082
		L45.7,26.712l-0.31,0.067l-0.318,0.061l-0.335,0.055v-1.396l0.303-0.045l0.312-0.055l0.304-0.062l0.303-0.076l0.288-0.075
		l0.282-0.09l0.265-0.093l0.251-0.099l0.113-0.053l0.114-0.061l0.105-0.055l0.1-0.062l0.099-0.062l0.092-0.059l0.075-0.07
		l0.076-0.061l0.068-0.068l0.061-0.065l0.053-0.069l0.038-0.076l0.038-0.076l0.022-0.066l0.017-0.078l0.007-0.082l-0.007-0.068
		l-0.009-0.067l-0.023-0.067l-0.021-0.068l-0.039-0.062l-0.038-0.067l-0.053-0.068l-0.053-0.061l-0.068-0.062l-0.069-0.062
		l-0.075-0.061l-0.092-0.061l-0.09-0.062l-0.092-0.062l-0.106-0.053l-0.105-0.054l-0.236-0.106l-0.258-0.105l-0.281-0.09
		l-0.303-0.092l-0.312-0.074l-0.342-0.076l-0.35-0.068l-0.363-0.055v-5.119H44.736z M35.341,16.119l-0.017-0.061L35.31,15.99
		l-0.007-0.076l-0.009-0.083l0.009-0.084l0.007-0.068l0.007-0.068l0.016-0.062l0.023-0.044l0.021-0.039l0.023-0.023l0.031-0.007
		l0.021,0.007l0.031,0.023l0.022,0.039l0.015,0.044l0.016,0.062l0.015,0.068l0.008,0.068v0.084v0.083l-0.008,0.076l-0.015,0.068
		l-0.016,0.061h1.032l-0.023-0.061l-0.008-0.068l-0.014-0.076v-0.083v-0.084l0.007-0.068l0.015-0.068l0.017-0.062l0.021-0.044
		l0.024-0.039l0.021-0.023l0.031-0.007l0.021,0.007l0.031,0.023l0.022,0.039l0.015,0.044l0.017,0.062l0.014,0.068l0.008,0.068v0.084
		v0.083l-0.008,0.076l-0.014,0.068l-0.017,0.061h1.024l-0.021-0.061l-0.008-0.068l-0.008-0.076l-0.008-0.083l0.008-0.084
		l0.008-0.068l0.008-0.068l0.015-0.062l0.022-0.044l0.023-0.039l0.022-0.023l0.03-0.007l0.022,0.007l0.023,0.023l0.021,0.039
		l0.023,0.044l0.015,0.062l0.017,0.068l0.008,0.068v0.084v0.083l-0.008,0.076l-0.017,0.068l-0.021,0.061h1.024l-0.016-0.061
		l-0.015-0.068l-0.007-0.076v-0.083v-0.084l0.007-0.068l0.015-0.068l0.016-0.062l0.016-0.044l0.021-0.039l0.031-0.023l0.023-0.007
		l0.029,0.007l0.023,0.023l0.023,0.039l0.021,0.044l0.016,0.062l0.008,0.068l0.009,0.068l0.007,0.084l-0.007,0.083l-0.009,0.076
		l-0.015,0.068l-0.016,0.061h0.971v-1.465h0.335l0.03-0.09l0.03-0.115l0.016-0.06l0.007-0.067l0.007-0.078V14.17v-0.198l0.017-0.19
		l0.015-0.092l0.015-0.09l0.023-0.09l0.023-0.092l0.022-0.084l0.03-0.083l0.037-0.083l0.039-0.076l0.046-0.076l0.044-0.076
		l0.046-0.069l0.053-0.067l0.062-0.069l0.061-0.06l0.062-0.062l0.067-0.053l0.077-0.053l0.074-0.053l0.085-0.037l0.082-0.046
		l0.084-0.038l0.092-0.031l0.098-0.03l0.1-0.023l0.105-0.022l0.106-0.015l0.105-0.016l0.122-0.008l-0.016-0.053l-0.014-0.068
		l-0.009-0.068v-0.076v-0.084l0.009-0.075l0.014-0.06l0.016-0.062l0.023-0.044l0.022-0.039l0.023-0.024l0.03-0.007l0.021,0.007
		l0.023,0.024l0.022,0.039l0.023,0.044l0.015,0.062l0.016,0.06l0.008,0.075v0.084v0.076l-0.008,0.068l-0.016,0.068l-0.015,0.053
		l0.121,0.008l0.105,0.016l0.106,0.015l0.107,0.022l0.098,0.023l0.098,0.03l0.092,0.031l0.084,0.038l0.082,0.046l0.084,0.037
		l0.076,0.053l0.076,0.053l0.069,0.053l0.06,0.062l0.062,0.06l0.06,0.069l0.053,0.067L44,12.94l0.046,0.076l0.046,0.076l0.037,0.076
		l0.038,0.083l0.03,0.083l0.023,0.084l0.021,0.092l0.024,0.09l0.014,0.09l0.017,0.092l0.014,0.19v0.198v0.074l0.009,0.078
		l0.007,0.067l0.016,0.06l0.03,0.115l0.03,0.09h0.334v1.465h0.971l-0.015-0.061l-0.015-0.068l-0.008-0.076l-0.008-0.083l0.008-0.084
		l0.008-0.068l0.008-0.068l0.015-0.062l0.022-0.044l0.022-0.039l0.023-0.023l0.03-0.007l0.022,0.007l0.03,0.023l0.022,0.039
		l0.017,0.044l0.014,0.062l0.017,0.068l0.007,0.068v0.084v0.083l-0.007,0.076l-0.017,0.068l-0.014,0.061h1.015l-0.014-0.061
		l-0.014-0.068l-0.009-0.076v-0.083v-0.084l0.009-0.068l0.014-0.068l0.014-0.062l0.024-0.044l0.021-0.039l0.024-0.023l0.029-0.007
		l0.023,0.007l0.022,0.023l0.023,0.039l0.022,0.044l0.015,0.062l0.017,0.068l0.007,0.068v0.084v0.083l-0.016,0.076l-0.008,0.068
		l-0.021,0.061h1.024l-0.017-0.061l-0.016-0.068l-0.007-0.076v-0.083v-0.084l0.007-0.068l0.016-0.068l0.017-0.062l0.015-0.044
		l0.022-0.039l0.03-0.023l0.022-0.007l0.03,0.007l0.023,0.023l0.022,0.039l0.022,0.044l0.017,0.062l0.014,0.068l0.008,0.068v0.084
		v0.083l-0.015,0.076l-0.015,0.068l-0.016,0.061h1.031l-0.014-0.061l-0.016-0.068l-0.008-0.076v-0.083v-0.084l0.008-0.068
		l0.016-0.068l0.014-0.062l0.017-0.044l0.021-0.039l0.031-0.023l0.021-0.007l0.031,0.007l0.023,0.023l0.021,0.039l0.023,0.044
		l0.015,0.062l0.008,0.068l0.008,0.068l0.008,0.084l-0.008,0.083l0.002,0.076l-0.016,0.068l-0.014,0.061v0.546h-4.774v0.38h-4.623
		v-0.38h4.623l-2.307-1.236l-2.316,1.236h-4.772V16.119z"/>
	<polygon points="60.689,21.604 60.689,21.355 59.314,21.355 59.314,21.613 59.801,21.613 59.801,23.812 59.801,23.951 
		59.785,24.07 59.763,24.193 59.726,24.299 59.688,24.406 59.635,24.496 59.574,24.58 59.505,24.664 59.43,24.73 59.346,24.791 
		59.254,24.835 59.155,24.882 59.049,24.914 58.929,24.943 58.807,24.958 58.678,24.958 58.548,24.951 58.419,24.928 58.299,24.898 
		58.185,24.846 58.131,24.814 58.078,24.783 58.033,24.748 57.995,24.701 57.957,24.656 57.918,24.611 57.897,24.557 57.865,24.496 
		57.844,24.436 57.828,24.367 57.812,24.292 57.798,24.207 57.783,24.027 57.775,23.812 57.775,21.604 58.224,21.604 58.224,21.355 
		56.561,21.355 56.561,21.604 57.007,21.604 57.007,24.003 57.017,24.146 57.039,24.292 57.053,24.359 57.077,24.427 57.1,24.496 
		57.123,24.557 57.152,24.617 57.184,24.677 57.222,24.73 57.258,24.783 57.342,24.889 57.441,24.98 57.554,25.064 57.668,25.133 
		57.798,25.201 57.942,25.256 58.094,25.292 58.253,25.324 58.419,25.337 58.594,25.346 58.709,25.346 58.823,25.337 58.937,25.324 
		59.042,25.3 59.148,25.27 59.254,25.24 59.354,25.201 59.452,25.164 59.543,25.119 59.635,25.064 59.71,25.012 59.785,24.951 
		59.847,24.882 59.907,24.814 59.96,24.738 60.013,24.664 60.052,24.572 60.089,24.488 60.12,24.389 60.143,24.292 60.165,24.186 
		60.182,24.07 60.188,23.957 60.188,23.835 60.188,21.604 	"/>
	<polygon points="64.218,25.27 64.218,25.02 63.87,25.02 63.87,23.251 63.87,23.167 63.854,23.085 63.839,23.009 63.815,22.934 
		63.794,22.865 63.755,22.805 63.718,22.751 63.672,22.699 63.619,22.66 63.565,22.621 63.498,22.583 63.429,22.561 63.353,22.539 
		63.277,22.521 63.186,22.516 63.095,22.508 62.966,22.516 62.846,22.531 62.783,22.546 62.729,22.568 62.677,22.583 62.624,22.615 
		62.511,22.682 62.397,22.766 62.274,22.873 62.139,23.009 62.139,22.521 61.874,22.521 61.022,22.751 61.022,22.939 61.433,22.939 
		61.433,25.02 61.083,25.02 61.083,25.27 62.479,25.27 62.479,25.02 62.139,25.02 62.139,23.32 62.267,23.199 62.382,23.1 
		62.472,23.023 62.557,22.971 62.624,22.934 62.701,22.91 62.775,22.904 62.853,22.895 62.935,22.904 63.005,22.917 63.034,22.934 
		63.064,22.949 63.087,22.971 63.104,22.994 63.125,23.023 63.141,23.062 63.148,23.1 63.157,23.145 63.171,23.244 63.171,23.365 
		63.171,25.02 62.822,25.02 62.822,25.27 	"/>
	<path d="M65.903,25.271V25.02h-0.35v-2.496h-0.236l-0.849,0.229v0.189h0.386v2.078h-0.348v0.252H65.903z M65.6,21.505V21.46
		l-0.007-0.044l-0.007-0.039l-0.018-0.038L65.547,21.3l-0.015-0.028l-0.031-0.037l-0.023-0.031l-0.03-0.021l-0.03-0.022
		l-0.036-0.023l-0.039-0.022l-0.038-0.006l-0.039-0.018l-0.044-0.007h-0.038h-0.046L65.1,21.09l-0.046,0.018l-0.037,0.006
		l-0.039,0.022l-0.03,0.023l-0.038,0.022l-0.021,0.021l-0.032,0.031l-0.021,0.037L64.811,21.3l-0.016,0.039l-0.015,0.038
		l-0.016,0.039l-0.007,0.044v0.045v0.039l0.007,0.045l0.016,0.039l0.015,0.037l0.016,0.037l0.023,0.039l0.021,0.03l0.032,0.028
		l0.021,0.032l0.038,0.021l0.03,0.017l0.039,0.022l0.037,0.014l0.046,0.009l0.038,0.008h0.046h0.038l0.044-0.008l0.039-0.009
		l0.038-0.014l0.039-0.022l0.036-0.017l0.03-0.021l0.03-0.032l0.023-0.028l0.031-0.03l0.015-0.039l0.021-0.037l0.018-0.037
		l0.007-0.039l0.007-0.045v-0.039H65.6z"/>
	<polygon points="68.636,22.834 68.636,22.583 67.718,22.583 67.718,22.834 68.075,22.834 67.505,24.307 66.904,22.834 
		67.162,22.834 67.162,22.583 66.01,22.583 66.01,22.834 66.17,22.834 67.187,25.346 67.413,25.346 68.371,22.834 	"/>
	<path d="M70.524,23.509h-1.032l0.017-0.075l0.015-0.084l0.022-0.076l0.023-0.066l0.029-0.068l0.031-0.062l0.039-0.054l0.038-0.053
		l0.035-0.045l0.047-0.039l0.046-0.035l0.053-0.031l0.053-0.022l0.054-0.016l0.061-0.015h0.053h0.045l0.046,0.006l0.038,0.017
		l0.039,0.022l0.037,0.021l0.039,0.03l0.03,0.032l0.03,0.035l0.022,0.047l0.023,0.045l0.022,0.045l0.015,0.055l0.016,0.061
		l0.007,0.062l0.007,0.062v0.067V23.509L70.524,23.509z M71.283,24.951l-0.136-0.266l-0.16,0.09l-0.128,0.078l-0.105,0.053
		l-0.092,0.045l-0.083,0.029l-0.076,0.016l-0.068,0.008h-0.083h-0.099l-0.092-0.016l-0.083-0.029l-0.084-0.031l-0.075-0.045
		l-0.077-0.061l-0.061-0.062l-0.061-0.075l-0.052-0.076l-0.046-0.092l-0.047-0.099l-0.03-0.104l-0.022-0.113l-0.022-0.121
		l-0.009-0.129l-0.008-0.139h1.777v-0.22l-0.007-0.12l-0.018-0.115l-0.021-0.105l-0.039-0.105l-0.046-0.09l-0.053-0.094
		l-0.061-0.084l-0.076-0.074l-0.076-0.07l-0.084-0.053l-0.098-0.053l-0.099-0.037l-0.105-0.037l-0.115-0.025l-0.121-0.014
		l-0.128-0.008l-0.151,0.008l-0.146,0.023l-0.137,0.029l-0.121,0.045l-0.122,0.055l-0.114,0.066l-0.105,0.076l-0.091,0.092
		l-0.083,0.1l-0.076,0.105l-0.062,0.121l-0.052,0.129l-0.046,0.129l-0.03,0.145l-0.016,0.151l-0.008,0.159l0.008,0.151l0.016,0.152
		l0.03,0.137l0.046,0.136l0.046,0.123l0.069,0.114l0.068,0.104l0.084,0.099l0.091,0.092l0.099,0.076l0.113,0.067l0.113,0.054
		l0.123,0.045l0.135,0.03l0.138,0.015l0.145,0.009h0.151l0.129-0.017l0.129-0.021l0.129-0.039l0.145-0.055l0.152-0.068l0.166-0.09
		L71.283,24.951z"/>
	<polygon points="73.652,22.729 73.469,22.57 73.434,22.545 73.387,22.523 73.327,22.516 73.264,22.509 73.204,22.516 
		73.145,22.531 73.083,22.553 73.022,22.583 72.96,22.629 72.9,22.682 72.824,22.75 72.748,22.834 72.612,22.98 72.612,22.523 
		72.354,22.523 71.497,22.75 71.497,22.941 71.914,22.941 71.914,25.018 71.564,25.018 71.564,25.27 73.03,25.27 73.03,25.018 
		72.612,25.018 72.612,23.373 72.673,23.305 72.727,23.244 72.771,23.199 72.817,23.152 72.854,23.13 72.9,23.107 72.939,23.092 
		72.985,23.092 73.006,23.092 73.038,23.1 73.068,23.115 73.099,23.13 73.174,23.176 73.28,23.244 	"/>
	<polygon points="75.868,24.52 75.86,24.443 75.853,24.367 75.846,24.299 75.822,24.238 75.801,24.177 75.77,24.117 75.738,24.055 
		75.693,24.002 75.648,23.958 75.587,23.904 75.526,23.859 75.451,23.814 75.375,23.768 75.284,23.723 75.192,23.684 75.086,23.637 
		74.874,23.555 74.708,23.479 74.585,23.418 74.486,23.359 74.457,23.328 74.426,23.298 74.403,23.266 74.389,23.236 74.373,23.207 
		74.366,23.175 74.366,23.137 74.366,23.102 74.366,23.062 74.373,23.023 74.38,22.994 74.396,22.963 74.411,22.932 74.433,22.904 
		74.457,22.878 74.479,22.857 74.54,22.818 74.616,22.789 74.701,22.773 74.79,22.766 74.843,22.766 74.904,22.773 74.958,22.781 
		75.011,22.796 75.109,22.833 75.192,22.889 75.237,22.917 75.269,22.949 75.299,22.979 75.329,23.009 75.352,23.047 75.368,23.084 
		75.375,23.123 75.375,23.16 75.375,23.199 75.368,23.252 75.36,23.305 75.345,23.352 75.648,23.352 75.792,22.5 75.48,22.5 
		75.451,22.712 75.382,22.66 75.314,22.622 75.237,22.584 75.163,22.561 75.079,22.54 74.986,22.523 74.889,22.516 74.783,22.507 
		74.676,22.516 74.578,22.523 74.486,22.546 74.396,22.568 74.312,22.6 74.236,22.637 74.161,22.682 74.099,22.736 74.039,22.789 
		73.985,22.857 73.939,22.917 73.902,22.994 73.873,23.07 73.85,23.154 73.842,23.236 73.834,23.328 73.834,23.404 73.85,23.479 
		73.856,23.547 73.88,23.609 73.902,23.669 73.933,23.73 73.971,23.783 74.016,23.835 74.062,23.889 74.122,23.941 74.184,23.988 
		74.26,24.033 74.336,24.078 74.426,24.117 74.517,24.162 74.623,24.201 74.82,24.277 74.979,24.354 75.109,24.419 75.209,24.482 
		75.246,24.511 75.275,24.549 75.299,24.578 75.321,24.617 75.337,24.656 75.345,24.693 75.352,24.73 75.352,24.777 75.352,24.814 
		75.345,24.846 75.337,24.875 75.321,24.906 75.308,24.936 75.284,24.959 75.262,24.982 75.23,25.004 75.163,25.042 75.086,25.066 
		74.995,25.087 74.889,25.087 74.82,25.087 74.754,25.08 74.691,25.072 74.623,25.057 74.562,25.035 74.51,25.012 74.457,24.982 
		74.403,24.951 74.357,24.92 74.312,24.891 74.283,24.854 74.252,24.807 74.221,24.77 74.207,24.73 74.199,24.688 74.19,24.641 
		74.19,24.482 73.863,24.482 73.863,25.324 74.153,25.324 74.153,25.111 74.229,25.165 74.305,25.217 74.389,25.255 74.479,25.285 
		74.578,25.316 74.684,25.331 74.799,25.344 74.92,25.344 75.033,25.344 75.132,25.331 75.23,25.316 75.321,25.292 75.404,25.264 
		75.48,25.225 75.557,25.178 75.619,25.133 75.672,25.072 75.725,25.012 75.77,24.943 75.801,24.867 75.831,24.792 75.846,24.708 
		75.86,24.617 	"/>
	<path d="M77.667,25.271V25.02h-0.35v-2.496h-0.229l-0.856,0.229v0.189h0.395v2.078H76.27v0.252H77.667z M77.364,21.505V21.46
		l-0.009-0.044l-0.008-0.039l-0.015-0.038L77.317,21.3l-0.022-0.028l-0.023-0.037l-0.029-0.031l-0.03-0.021l-0.031-0.022
		l-0.037-0.023l-0.039-0.022l-0.037-0.006l-0.038-0.018l-0.047-0.007h-0.036H76.9l-0.037,0.007l-0.047,0.018l-0.037,0.006
		l-0.039,0.022l-0.029,0.023L76.68,21.18l-0.029,0.022l-0.03,0.03l-0.022,0.037l-0.025,0.03l-0.016,0.039l-0.014,0.038l-0.017,0.039
		v0.044l-0.008,0.045l0.008,0.039v0.045l0.017,0.039l0.014,0.037l0.016,0.037l0.023,0.039l0.022,0.03l0.03,0.028l0.029,0.032
		l0.031,0.021l0.029,0.017l0.039,0.022l0.037,0.014l0.047,0.009l0.037,0.008h0.046h0.036l0.047-0.008l0.038-0.009l0.037-0.014
		l0.039-0.022l0.037-0.017l0.031-0.021l0.03-0.032l0.029-0.028l0.023-0.03l0.022-0.039l0.016-0.037l0.015-0.037l0.008-0.039
		l0.009-0.045v-0.039H77.364z"/>
	<polygon points="79.549,25.02 79.428,24.809 79.307,24.875 79.214,24.914 79.178,24.927 79.141,24.936 79.102,24.943 
		79.062,24.943 79.033,24.936 78.995,24.927 78.973,24.914 78.941,24.898 78.928,24.875 78.911,24.852 78.896,24.822 78.896,24.792 
		78.896,24.625 78.896,22.941 79.503,22.941 79.503,22.645 78.896,22.645 78.896,21.802 78.221,21.802 78.221,22.652 77.825,22.75 
		77.825,22.941 78.221,22.941 78.221,24.746 78.221,24.814 78.229,24.875 78.243,24.936 78.268,24.989 78.289,25.042 78.318,25.096 
		78.35,25.143 78.389,25.18 78.434,25.216 78.479,25.248 78.532,25.277 78.585,25.3 78.646,25.324 78.706,25.337 78.768,25.346 
		78.836,25.346 78.918,25.346 79.002,25.331 79.086,25.309 79.168,25.277 79.253,25.232 79.346,25.171 79.443,25.104 	"/>
	<path d="M81.091,24.732l-0.069,0.061l-0.068,0.053l-0.061,0.045l-0.053,0.03l-0.054,0.031l-0.054,0.015l-0.053,0.008l-0.053,0.008
		l-0.062-0.008l-0.062-0.021l-0.054-0.039l-0.047-0.045l-0.027-0.055l-0.031-0.066l-0.014-0.076l-0.01-0.076v-0.341l0.769-0.175
		v0.652H81.091z M82.145,25.156V24.96h-0.356v-1.799l-0.007-0.076l-0.008-0.067l-0.022-0.069l-0.028-0.066l-0.033-0.062
		l-0.045-0.053l-0.053-0.047l-0.062-0.044l-0.059-0.038l-0.076-0.029l-0.076-0.03l-0.092-0.022l-0.091-0.016l-0.106-0.016
		l-0.105-0.006l-0.113-0.011l-0.115,0.011l-0.111,0.006l-0.1,0.016l-0.099,0.016l-0.092,0.022l-0.084,0.03l-0.075,0.029
		l-0.066,0.038l-0.07,0.037l-0.053,0.046l-0.053,0.055l-0.039,0.053l-0.029,0.053l-0.023,0.061l-0.015,0.068l-0.009,0.061
		l0.009,0.048v0.036l0.015,0.037l0.03,0.047l0.676-0.168v-0.295l0.093-0.037l0.076-0.022l0.061-0.016h0.066l0.076,0.007l0.062,0.016
		l0.022,0.018l0.022,0.014l0.021,0.016l0.022,0.023l0.022,0.053l0.022,0.075l0.017,0.084v0.106v0.629l-0.864,0.197l-0.07,0.016
		l-0.061,0.023l-0.062,0.021l-0.054,0.029l-0.053,0.029l-0.046,0.038l-0.045,0.039l-0.039,0.046l-0.036,0.045l-0.031,0.045
		l-0.021,0.053l-0.023,0.055l-0.015,0.062l-0.017,0.061V24.6l-0.006,0.06l0.006,0.084l0.008,0.067l0.018,0.069l0.021,0.067
		l0.029,0.062l0.037,0.052l0.039,0.056l0.045,0.053l0.054,0.038l0.054,0.038l0.062,0.03l0.066,0.029l0.067,0.023l0.077,0.014
		l0.084,0.01h0.082h0.115l0.104-0.017l0.092-0.03l0.091-0.029l0.085-0.055l0.076-0.061l0.075-0.067l0.075-0.092l0.008,0.075
		l0.023,0.07l0.029,0.06l0.045,0.046l0.047,0.029l0.053,0.023l0.067,0.016l0.077,0.008h0.066l0.068-0.008l0.076-0.016l0.066-0.017
		L82.145,25.156z M80.674,21.871l-0.009-0.066l-0.022-0.07l-0.031-0.062l-0.045-0.053l-0.053-0.037l-0.053-0.037l-0.068-0.017
		l-0.068-0.008l-0.077,0.008l-0.06,0.017l-0.061,0.037l-0.054,0.037l-0.046,0.053l-0.031,0.062l-0.021,0.07l-0.007,0.066
		l0.007,0.066l0.021,0.069l0.031,0.062l0.046,0.045l0.054,0.047l0.061,0.029l0.06,0.022l0.077,0.007l0.068-0.007l0.068-0.022
		l0.053-0.029l0.053-0.047l0.045-0.045l0.031-0.062l0.022-0.069L80.674,21.871z M81.704,21.871v-0.066l-0.022-0.07l-0.029-0.062
		l-0.047-0.053l-0.053-0.037l-0.062-0.037l-0.06-0.017l-0.076-0.008l-0.069,0.008l-0.06,0.017l-0.061,0.037l-0.055,0.037
		l-0.045,0.053l-0.03,0.062l-0.022,0.07l-0.009,0.066l0.009,0.066l0.022,0.069l0.03,0.062l0.045,0.045l0.055,0.047l0.061,0.029
		l0.06,0.022l0.069,0.007l0.076-0.007l0.06-0.022l0.062-0.029l0.053-0.047l0.047-0.045l0.029-0.062l0.022-0.069V21.871z"/>
	<polygon points="84.034,25.02 83.904,24.809 83.792,24.875 83.699,24.914 83.662,24.927 83.625,24.936 83.587,24.943 
		83.548,24.943 83.511,24.936 83.48,24.927 83.458,24.914 83.428,24.898 83.412,24.875 83.396,24.852 83.382,24.822 83.382,24.792 
		83.382,24.625 83.382,22.941 83.988,22.941 83.988,22.645 83.382,22.645 83.382,21.802 82.705,21.802 82.705,22.652 82.311,22.75 
		82.311,22.941 82.705,22.941 82.705,24.746 82.705,24.814 82.713,24.875 82.729,24.936 82.752,24.989 82.773,25.042 82.805,25.096 
		82.836,25.143 82.874,25.18 82.919,25.216 82.965,25.248 83.018,25.277 83.07,25.3 83.131,25.324 83.191,25.337 83.253,25.346 
		83.32,25.346 83.404,25.346 83.486,25.331 83.57,25.309 83.646,25.277 83.738,25.232 83.829,25.171 83.93,25.104 	"/>
	<polygon points="86.296,24.52 86.289,24.443 86.282,24.367 86.271,24.299 86.25,24.238 86.229,24.177 86.197,24.117 86.167,24.055 
		86.121,24.002 86.077,23.958 86.016,23.904 85.955,23.859 85.886,23.814 85.803,23.768 85.719,23.723 85.62,23.684 85.514,23.637 
		85.302,23.555 85.136,23.479 85.014,23.418 84.923,23.359 84.885,23.328 84.854,23.298 84.832,23.266 84.814,23.236 84.809,23.207 
		84.801,23.175 84.794,23.137 84.794,23.102 84.794,23.062 84.801,23.023 84.809,22.994 84.824,22.963 84.839,22.932 84.861,22.904 
		84.885,22.878 84.907,22.857 84.977,22.818 85.044,22.789 85.129,22.773 85.218,22.766 85.279,22.766 85.333,22.773 85.386,22.781 
		85.438,22.796 85.538,22.833 85.629,22.889 85.666,22.917 85.697,22.949 85.734,22.979 85.757,23.009 85.779,23.047 85.796,23.084 
		85.803,23.123 85.811,23.16 85.803,23.199 85.796,23.252 85.788,23.305 85.771,23.352 86.077,23.352 86.221,22.5 85.917,22.5 
		85.879,22.712 85.811,22.66 85.743,22.622 85.666,22.584 85.591,22.561 85.507,22.54 85.415,22.523 85.314,22.516 85.21,22.507 
		85.111,22.516 85.014,22.523 84.914,22.546 84.824,22.568 84.741,22.6 84.665,22.637 84.589,22.682 84.525,22.736 84.467,22.789 
		84.414,22.857 84.368,22.917 84.331,22.994 84.3,23.07 84.285,23.154 84.27,23.236 84.262,23.328 84.27,23.404 84.277,23.479 
		84.285,23.547 84.309,23.609 84.331,23.669 84.361,23.73 84.398,23.783 84.443,23.835 84.497,23.889 84.55,23.941 84.619,23.988 
		84.688,24.033 84.771,24.078 84.854,24.117 84.953,24.162 85.051,24.201 85.249,24.277 85.415,24.354 85.538,24.419 85.636,24.482 
		85.673,24.511 85.704,24.549 85.734,24.578 85.75,24.617 85.766,24.656 85.771,24.693 85.779,24.73 85.779,24.777 85.779,24.814 
		85.771,24.846 85.766,24.875 85.75,24.906 85.734,24.936 85.712,24.959 85.689,24.982 85.659,25.004 85.591,25.042 85.514,25.066 
		85.423,25.087 85.324,25.087 85.249,25.087 85.188,25.08 85.119,25.072 85.059,25.057 84.998,25.035 84.938,25.012 84.885,24.982 
		84.832,24.951 84.787,24.92 84.748,24.891 84.709,24.854 84.68,24.807 84.656,24.77 84.635,24.73 84.627,24.688 84.619,24.641 
		84.619,24.482 84.293,24.482 84.293,25.324 84.589,25.324 84.589,25.111 84.656,25.165 84.732,25.217 84.814,25.255 84.907,25.285 
		85.006,25.316 85.111,25.331 85.227,25.344 85.348,25.344 85.461,25.344 85.561,25.331 85.659,25.316 85.75,25.292 85.833,25.264 
		85.909,25.225 85.984,25.178 86.045,25.133 86.105,25.072 86.152,25.012 86.197,24.943 86.229,24.867 86.259,24.792 86.282,24.708 
		86.289,24.617 	"/>
	<path d="M88.884,25.764v0.075l-0.015,0.076l-0.023,0.065l-0.021,0.07l-0.038,0.066L88.74,26.18l-0.045,0.061l-0.055,0.054
		L88.58,26.34l-0.066,0.044l-0.068,0.039l-0.076,0.029l-0.076,0.03L88.216,26.5l-0.083,0.016h-0.091h-0.067l-0.078-0.009
		l-0.06-0.015l-0.067-0.016l-0.062-0.023l-0.053-0.029L87.6,26.395l-0.045-0.039l-0.046-0.037l-0.036-0.047l-0.031-0.045
		l-0.029-0.045l-0.023-0.055l-0.015-0.061l-0.007-0.053l-0.01-0.062l0.01-0.045v-0.054l0.014-0.047l0.016-0.045l0.047-0.113
		l0.084-0.138h1.068h0.076l0.061,0.015l0.047,0.018l0.045,0.021l0.029,0.039l0.017,0.045l0.015,0.045L88.884,25.764L88.884,25.764z
		 M88.475,23.525v0.082l-0.008,0.086l-0.009,0.072l-0.015,0.077l-0.022,0.068l-0.022,0.062l-0.022,0.053l-0.03,0.053l-0.037,0.045
		L88.27,24.17l-0.035,0.031l-0.047,0.029l-0.047,0.022l-0.053,0.015l-0.053,0.016H87.98H87.92l-0.053-0.016l-0.047-0.015
		l-0.053-0.022l-0.045-0.029l-0.039-0.031l-0.039-0.047l-0.027-0.045l-0.032-0.053l-0.03-0.053l-0.021-0.062l-0.016-0.068
		l-0.017-0.077l-0.015-0.072l-0.008-0.086v-0.082v-0.084l0.008-0.084l0.015-0.074l0.017-0.078l0.016-0.066l0.021-0.061l0.03-0.053
		l0.032-0.055l0.027-0.045l0.039-0.046l0.039-0.032l0.045-0.027l0.053-0.024l0.047-0.015l0.053-0.014h0.061h0.054l0.053,0.014
		l0.054,0.015l0.045,0.024l0.047,0.027l0.037,0.032l0.037,0.046l0.039,0.045l0.029,0.055l0.023,0.053l0.021,0.061l0.023,0.066
		l0.014,0.078l0.009,0.074l0.007,0.084v0.084H88.475z M89.516,22.994v-0.402l-0.418,0.098h-0.402l-0.092-0.045l-0.09-0.028
		l-0.093-0.031l-0.099-0.03l-0.098-0.015l-0.1-0.017l-0.105-0.006l-0.115-0.01l-0.127,0.01l-0.123,0.015l-0.114,0.022l-0.106,0.029
		l-0.104,0.039l-0.091,0.053l-0.092,0.053l-0.074,0.067l-0.069,0.069l-0.069,0.076l-0.053,0.09l-0.046,0.092l-0.03,0.1l-0.029,0.105
		l-0.016,0.113v0.113v0.067l0.008,0.062l0.008,0.062l0.017,0.061l0.015,0.062l0.022,0.053l0.022,0.054l0.029,0.053l0.039,0.053
		l0.037,0.054l0.039,0.046l0.044,0.045l0.106,0.092l0.121,0.084l-0.099,0.084l-0.084,0.082l-0.076,0.076l-0.065,0.076l-0.146,0.174
		l-0.175,0.244l0.062,0.062l0.067,0.053l0.062,0.037l0.062,0.037l0.069,0.03l0.074,0.031l0.084,0.021l0.09,0.021l-0.1,0.115
		l-0.083,0.091l-0.12,0.144l-0.092,0.115l-0.076,0.127l-0.091,0.168l0.068,0.076l0.061,0.067l0.068,0.067l0.067,0.062l0.076,0.053
		l0.067,0.055l0.075,0.037l0.085,0.037l0.084,0.039l0.084,0.029l0.082,0.021l0.099,0.023l0.092,0.016l0.1,0.006l0.104,0.011h0.113
		l0.16-0.011l0.161-0.014l0.143-0.031l0.146-0.036l0.136-0.054l0.129-0.062l0.114-0.075l0.113-0.075l0.1-0.091l0.082-0.093
		l0.076-0.105l0.062-0.104l0.054-0.114l0.037-0.121l0.016-0.068l0.008-0.062l0.007-0.062v-0.066v-0.07l-0.007-0.06l-0.016-0.062
		L89.462,25.3l-0.017-0.046l-0.029-0.046l-0.023-0.045l-0.037-0.038l-0.037-0.029l-0.039-0.031l-0.045-0.021l-0.055-0.016
		l-0.053-0.017l-0.061-0.016l-0.062-0.007h-0.067h-1.479h-0.03l-0.031-0.008l-0.021-0.008l-0.022-0.016l-0.022-0.016l-0.007-0.015
		l-0.008-0.022l-0.01-0.022l0.01-0.03l0.008-0.037l0.021-0.039l0.023-0.045l0.082-0.099l0.123-0.131l0.127,0.022l0.099,0.016
		l0.099,0.008h0.113h0.131l0.129-0.014l0.121-0.023l0.113-0.029l0.107-0.039l0.099-0.053l0.083-0.054l0.083-0.062l0.076-0.074
		l0.062-0.078l0.055-0.082l0.046-0.098l0.036-0.101l0.022-0.098l0.015-0.113l0.009-0.123v-0.075l-0.009-0.076l-0.015-0.068
		l-0.015-0.066l-0.031-0.062L89.1,23.105l-0.037-0.061l-0.047-0.053h0.5V22.994z"/>
	<path d="M91.434,23.509h-1.031l0.008-0.075l0.017-0.084l0.021-0.076l0.022-0.066l0.029-0.068l0.039-0.062l0.029-0.054l0.037-0.053
		l0.047-0.045l0.046-0.039l0.046-0.035l0.053-0.031l0.053-0.022l0.055-0.016l0.053-0.015h0.061h0.047l0.037,0.006l0.047,0.017
		l0.035,0.022l0.039,0.021l0.03,0.03l0.03,0.032l0.029,0.035l0.029,0.047l0.024,0.045l0.015,0.045l0.023,0.055l0.007,0.061
		l0.016,0.062v0.062l0.007,0.067V23.509L91.434,23.509z M92.193,24.951l-0.139-0.266l-0.158,0.09l-0.127,0.078l-0.107,0.053
		l-0.092,0.045l-0.084,0.029l-0.075,0.016l-0.076,0.008h-0.076H91.16l-0.09-0.016l-0.092-0.029l-0.084-0.031l-0.074-0.045
		l-0.069-0.061l-0.067-0.062l-0.054-0.075l-0.054-0.076l-0.053-0.092l-0.037-0.099l-0.031-0.104l-0.029-0.113l-0.017-0.121
		l-0.015-0.129v-0.139h1.775v-0.22l-0.009-0.12l-0.015-0.115l-0.03-0.105l-0.03-0.105l-0.046-0.09l-0.054-0.094l-0.066-0.084
		l-0.07-0.074l-0.074-0.07l-0.092-0.053l-0.092-0.053l-0.099-0.037l-0.113-0.037l-0.112-0.025l-0.121-0.014l-0.123-0.008
		l-0.15,0.008l-0.145,0.023l-0.138,0.029l-0.13,0.045l-0.121,0.055l-0.105,0.066l-0.105,0.076l-0.091,0.092l-0.085,0.1l-0.074,0.105
		l-0.068,0.121l-0.054,0.129l-0.039,0.129l-0.028,0.145l-0.016,0.151l-0.009,0.159v0.151l0.022,0.152l0.029,0.137l0.039,0.136
		l0.053,0.123l0.062,0.114l0.074,0.104l0.084,0.099l0.093,0.092l0.099,0.076l0.106,0.067l0.12,0.054l0.121,0.045l0.13,0.03
		l0.144,0.015l0.145,0.009h0.145l0.139-0.017l0.127-0.021l0.131-0.039l0.137-0.055l0.15-0.068l0.176-0.09L92.193,24.951z"/>
	<polygon points="94.529,24.52 94.529,24.443 94.523,24.367 94.518,24.299 94.493,24.238 94.471,24.177 94.439,24.117 
		94.409,24.055 94.364,24.002 94.318,23.958 94.258,23.904 94.195,23.859 94.12,23.814 94.044,23.768 93.954,23.723 93.863,23.684 
		93.755,23.637 93.543,23.555 93.377,23.479 93.247,23.418 93.158,23.359 93.126,23.328 93.096,23.298 93.073,23.266 93.061,23.236 
		93.042,23.207 93.035,23.175 93.035,23.137 93.035,23.102 93.035,23.062 93.042,23.023 93.051,22.994 93.066,22.963 93.081,22.932 
		93.104,22.904 93.126,22.878 93.148,22.857 93.211,22.818 93.286,22.789 93.37,22.773 93.461,22.766 93.514,22.766 93.575,22.773 
		93.628,22.781 93.682,22.796 93.779,22.833 93.863,22.889 93.9,22.917 93.938,22.949 93.969,22.979 93.999,23.009 94.023,23.047 
		94.037,23.084 94.044,23.123 94.044,23.16 94.044,23.199 94.037,23.252 94.029,23.305 94.014,23.352 94.318,23.352 94.463,22.5 
		94.15,22.5 94.12,22.712 94.052,22.66 93.984,22.622 93.908,22.584 93.832,22.561 93.748,22.54 93.658,22.523 93.561,22.516 
		93.453,22.507 93.346,22.516 93.247,22.523 93.158,22.546 93.066,22.568 92.982,22.6 92.907,22.637 92.83,22.682 92.771,22.736 
		92.71,22.789 92.654,22.857 92.609,22.917 92.572,22.994 92.542,23.07 92.52,23.154 92.512,23.236 92.504,23.328 92.504,23.404 
		92.512,23.479 92.527,23.547 92.549,23.609 92.572,23.669 92.604,23.73 92.643,23.783 92.688,23.835 92.73,23.889 92.793,23.941 
		92.854,23.988 92.93,24.033 93.005,24.078 93.096,24.117 93.188,24.162 93.293,24.201 93.49,24.277 93.648,24.354 93.779,24.419 
		93.878,24.482 93.916,24.511 93.945,24.549 93.969,24.578 93.992,24.617 94.007,24.656 94.014,24.693 94.023,24.73 94.023,24.777 
		94.023,24.814 94.014,24.846 94.007,24.875 93.992,24.906 93.979,24.936 93.954,24.959 93.932,24.982 93.9,25.004 93.832,25.042 
		93.755,25.066 93.666,25.087 93.561,25.087 93.49,25.087 93.423,25.08 93.363,25.072 93.293,25.057 93.232,25.035 93.18,25.012 
		93.126,24.982 93.073,24.951 93.027,24.92 92.982,24.891 92.952,24.854 92.922,24.807 92.893,24.77 92.876,24.73 92.869,24.688 
		92.861,24.641 92.861,24.482 92.535,24.482 92.535,25.324 92.823,25.324 92.823,25.111 92.898,25.165 92.977,25.217 93.061,25.255 
		93.148,25.285 93.247,25.316 93.355,25.331 93.469,25.344 93.589,25.344 93.702,25.344 93.801,25.331 93.9,25.316 93.992,25.292 
		94.076,25.264 94.15,25.225 94.219,25.178 94.288,25.133 94.341,25.072 94.395,25.012 94.439,24.943 94.471,24.867 94.5,24.792 
		94.518,24.708 94.529,24.617 	"/>
	<path d="M96.663,23.509h-1.031l0.015-0.075l0.016-0.084l0.023-0.076l0.022-0.066l0.028-0.068l0.031-0.062l0.039-0.054l0.037-0.053
		l0.036-0.045l0.046-0.039l0.053-0.035l0.047-0.031l0.053-0.022l0.054-0.016l0.062-0.015h0.053h0.046l0.046,0.006l0.038,0.017
		l0.038,0.022l0.037,0.021l0.037,0.03l0.031,0.032l0.03,0.035l0.022,0.047l0.023,0.045l0.021,0.045l0.015,0.055l0.017,0.061
		l0.007,0.062l0.008,0.062v0.067V23.509L96.663,23.509z M97.422,24.951l-0.137-0.266l-0.151,0.09l-0.137,0.078l-0.106,0.053
		L96.8,24.951l-0.083,0.029l-0.068,0.016l-0.075,0.008h-0.085h-0.09L96.3,24.988l-0.084-0.029l-0.084-0.031l-0.075-0.045
		l-0.076-0.061l-0.061-0.062l-0.062-0.075l-0.051-0.076l-0.047-0.092l-0.039-0.099l-0.037-0.104l-0.022-0.113l-0.022-0.121
		l-0.007-0.129l-0.01-0.139h1.776v-0.22l-0.008-0.12l-0.016-0.115l-0.021-0.105l-0.039-0.105l-0.045-0.09l-0.054-0.094l-0.062-0.084
		l-0.067-0.074l-0.083-0.07l-0.083-0.053l-0.101-0.053l-0.098-0.037l-0.105-0.037l-0.114-0.025l-0.122-0.014l-0.127-0.008
		l-0.152,0.008l-0.145,0.023l-0.131,0.029l-0.128,0.045l-0.121,0.055l-0.114,0.066l-0.099,0.076l-0.099,0.092l-0.084,0.1
		l-0.076,0.105l-0.061,0.121l-0.055,0.129l-0.045,0.129l-0.028,0.145L94.9,23.782l-0.008,0.159l0.008,0.151l0.017,0.152l0.028,0.137
		l0.045,0.136l0.047,0.123l0.068,0.114l0.067,0.104l0.084,0.099l0.091,0.092l0.1,0.076l0.113,0.067l0.112,0.054l0.123,0.045
		l0.136,0.03l0.137,0.015l0.146,0.009h0.151l0.137-0.017l0.129-0.021l0.13-0.039l0.136-0.055l0.152-0.068l0.176-0.09L97.422,24.951z
		"/>
	<polygon points="98.994,25.27 98.994,25.02 98.645,25.02 98.645,20.898 98.408,20.898 97.552,21.126 97.552,21.318 97.953,21.318 
		97.953,25.02 97.604,25.02 97.604,25.27 	"/>
	<polygon points="100.579,25.27 100.579,25.02 100.23,25.02 100.23,20.898 99.995,20.898 99.137,21.126 99.137,21.318 
		99.532,21.318 99.532,25.02 99.184,25.02 99.184,25.27 	"/>
	<polygon points="102.932,24.52 102.932,24.443 102.925,24.367 102.91,24.299 102.895,24.238 102.872,24.177 102.84,24.117 
		102.803,24.055 102.766,24.002 102.713,23.958 102.66,23.904 102.598,23.859 102.521,23.814 102.447,23.768 102.354,23.723 
		102.266,23.684 102.157,23.637 101.945,23.555 101.779,23.479 101.648,23.418 101.557,23.359 101.527,23.328 101.497,23.298 
		101.477,23.266 101.46,23.236 101.443,23.207 101.438,23.175 101.438,23.137 101.438,23.102 101.438,23.062 101.443,23.023 
		101.451,22.994 101.468,22.963 101.482,22.932 101.497,22.904 101.527,22.878 101.55,22.857 101.611,22.818 101.688,22.789 
		101.771,22.773 101.861,22.766 101.915,22.766 101.968,22.773 102.021,22.781 102.074,22.796 102.173,22.833 102.266,22.889 
		102.302,22.917 102.34,22.949 102.371,22.979 102.4,23.009 102.416,23.047 102.432,23.084 102.447,23.123 102.447,23.16 
		102.447,23.199 102.438,23.252 102.432,23.305 102.416,23.352 102.713,23.352 102.864,22.5 102.553,22.5 102.521,22.712 
		102.454,22.66 102.385,22.622 102.311,22.584 102.234,22.561 102.15,22.54 102.059,22.523 101.961,22.516 101.854,22.507 
		101.748,22.516 101.648,22.523 101.557,22.546 101.468,22.568 101.384,22.6 101.3,22.637 101.232,22.682 101.165,22.736 
		101.111,22.789 101.057,22.857 101.014,22.917 100.975,22.994 100.943,23.07 100.921,23.154 100.914,23.236 100.906,23.328 
		100.906,23.404 100.914,23.479 100.93,23.547 100.952,23.609 100.975,23.669 101.004,23.73 101.042,23.783 101.088,23.835 
		101.133,23.889 101.193,23.941 101.256,23.988 101.331,24.033 101.406,24.078 101.497,24.117 101.589,24.162 101.695,24.201 
		101.893,24.277 102.051,24.354 102.182,24.419 102.279,24.482 102.318,24.511 102.348,24.549 102.371,24.578 102.395,24.617 
		102.409,24.656 102.416,24.693 102.424,24.73 102.424,24.777 102.424,24.814 102.416,24.846 102.409,24.875 102.395,24.906 
		102.371,24.936 102.354,24.959 102.325,24.982 102.302,25.004 102.234,25.042 102.15,25.066 102.066,25.087 101.961,25.087 
		101.893,25.087 101.825,25.08 101.764,25.072 101.695,25.057 101.635,25.035 101.582,25.012 101.521,24.982 101.477,24.951 
		101.43,24.92 101.384,24.891 101.354,24.854 101.316,24.807 101.292,24.77 101.277,24.73 101.264,24.688 101.264,24.641 
		101.264,24.482 100.936,24.482 100.936,25.324 101.225,25.324 101.225,25.111 101.292,25.165 101.369,25.217 101.451,25.255 
		101.543,25.285 101.643,25.316 101.748,25.331 101.869,25.344 101.991,25.344 102.098,25.344 102.203,25.331 102.302,25.316 
		102.395,25.292 102.477,25.264 102.553,25.225 102.621,25.178 102.688,25.133 102.742,25.072 102.795,25.012 102.833,24.943 
		102.872,24.867 102.902,24.792 102.918,24.708 102.932,24.617 	"/>
	<polygon points="105.648,25.035 105.497,24.77 105.391,24.831 105.301,24.883 105.216,24.93 105.143,24.958 105.072,24.982 
		105.004,24.997 104.938,25.004 104.867,25.004 104.792,25.004 104.708,24.982 104.633,24.951 104.557,24.913 104.48,24.859 
		104.412,24.799 104.352,24.732 104.291,24.654 104.236,24.572 104.186,24.488 104.146,24.389 104.107,24.292 104.079,24.193 
		104.055,24.086 104.041,23.973 104.041,23.867 104.041,23.77 104.048,23.669 104.062,23.578 104.079,23.494 104.107,23.412 
		104.141,23.335 104.17,23.259 104.214,23.191 104.26,23.123 104.307,23.062 104.366,23 104.43,22.947 104.496,22.902 
		104.57,22.848 104.646,22.812 104.73,22.775 104.904,22.865 105.025,22.941 105.143,23.031 105.277,23.16 105.648,22.781 
		105.543,22.712 105.443,22.66 105.338,22.607 105.23,22.57 105.118,22.545 104.997,22.523 104.859,22.516 104.715,22.507 
		104.562,22.516 104.419,22.539 104.284,22.576 104.152,22.623 104.025,22.682 103.912,22.751 103.807,22.834 103.707,22.925 
		103.615,23.031 103.532,23.146 103.464,23.266 103.402,23.389 103.357,23.525 103.327,23.669 103.305,23.814 103.297,23.973 
		103.305,24.117 103.318,24.26 103.35,24.396 103.396,24.527 103.449,24.648 103.509,24.753 103.585,24.859 103.668,24.958 
		103.76,25.042 103.857,25.125 103.965,25.188 104.086,25.248 104.207,25.287 104.337,25.324 104.475,25.339 104.617,25.346 
		104.73,25.346 104.846,25.331 104.966,25.307 105.089,25.277 105.209,25.232 105.348,25.178 105.49,25.111 	"/>
	<polygon points="108.975,25.27 108.975,25.02 108.625,25.02 108.625,23.251 108.625,23.167 108.609,23.085 108.593,23.009 
		108.57,22.934 108.549,22.865 108.511,22.805 108.473,22.751 108.427,22.699 108.374,22.66 108.312,22.621 108.252,22.583 
		108.184,22.561 108.107,22.539 108.033,22.521 107.941,22.516 107.85,22.508 107.721,22.516 107.6,22.531 107.539,22.546 
		107.484,22.568 107.426,22.583 107.373,22.615 107.268,22.682 107.145,22.766 107.021,22.873 106.886,23.009 106.886,20.898 
		106.628,20.898 105.771,21.126 105.771,21.318 106.188,21.318 106.188,25.02 105.839,25.02 105.839,25.27 107.234,25.27 
		107.234,25.02 106.886,25.02 106.886,23.32 107.021,23.199 107.13,23.1 107.221,23.023 107.305,22.971 107.38,22.934 
		107.447,22.91 107.523,22.904 107.607,22.895 107.689,22.904 107.76,22.917 107.79,22.934 107.812,22.949 107.835,22.971 
		107.857,22.994 107.873,23.023 107.889,23.062 107.902,23.1 107.911,23.145 107.926,23.244 107.926,23.365 107.926,25.02 
		107.578,25.02 107.578,25.27 	"/>
	<path d="M110.635,24.732l-0.066,0.061l-0.068,0.053l-0.062,0.045l-0.054,0.031l-0.053,0.029l-0.054,0.016l-0.053,0.008
		l-0.054,0.008l-0.06-0.008l-0.062-0.022l-0.053-0.038l-0.046-0.045l-0.03-0.053l-0.029-0.069l-0.016-0.074l-0.008-0.075v-0.343
		l0.766-0.175v0.652H110.635z M111.684,25.156V24.96h-0.356v-1.8v-0.075l-0.017-0.069l-0.016-0.067l-0.027-0.067l-0.039-0.062
		l-0.039-0.053l-0.054-0.045l-0.06-0.046l-0.061-0.039l-0.078-0.028l-0.082-0.03l-0.084-0.022l-0.1-0.017l-0.098-0.015l-0.106-0.006
		l-0.122-0.011l-0.104,0.011l-0.114,0.006l-0.098,0.015l-0.1,0.017l-0.092,0.022l-0.085,0.03l-0.073,0.028l-0.078,0.039
		l-0.061,0.037l-0.053,0.047l-0.053,0.054l-0.039,0.053l-0.028,0.053l-0.024,0.061l-0.015,0.068l-0.007,0.062v0.045l0.007,0.037
		l0.015,0.037l0.024,0.047l0.682-0.166v-0.297l0.093-0.037l0.066-0.022l0.068-0.017h0.068l0.068,0.008l0.061,0.017l0.029,0.015
		l0.023,0.016l0.021,0.016l0.016,0.022l0.031,0.054l0.021,0.075l0.008,0.083l0.007,0.105v0.631l-0.864,0.197l-0.068,0.015
		l-0.061,0.024l-0.061,0.021l-0.053,0.032l-0.053,0.027l-0.048,0.039l-0.046,0.039l-0.038,0.045l-0.038,0.045l-0.029,0.045
		l-0.023,0.055l-0.021,0.053l-0.015,0.062l-0.017,0.06l-0.008,0.062v0.061v0.084l0.016,0.066l0.018,0.068l0.021,0.068l0.03,0.061
		l0.029,0.053l0.047,0.055l0.045,0.053l0.045,0.039l0.062,0.038l0.062,0.028l0.067,0.031l0.067,0.023l0.076,0.014l0.076,0.008h0.084
		h0.121l0.098-0.015l0.099-0.03l0.092-0.031l0.076-0.053l0.083-0.061l0.076-0.066l0.068-0.093l0.016,0.076l0.021,0.069l0.03,0.06
		l0.038,0.046l0.055,0.029l0.053,0.022l0.067,0.017l0.075,0.008h0.068l0.068-0.008l0.075-0.017l0.068-0.016L111.684,25.156z"/>
	<polygon points="114.536,21.111 114.423,21.051 114.324,21.005 114.218,20.966 114.111,20.939 114.005,20.914 113.891,20.9 
		113.777,20.893 113.648,20.884 113.527,20.893 113.414,20.9 113.309,20.922 113.2,20.945 113.102,20.982 113.012,21.02 
		112.92,21.074 112.829,21.125 112.76,21.182 112.7,21.225 112.646,21.277 112.594,21.331 112.548,21.386 112.51,21.439 
		112.473,21.493 112.441,21.552 112.411,21.613 112.389,21.682 112.366,21.75 112.352,21.818 112.343,21.895 112.336,21.969 
		112.328,22.053 112.328,22.135 112.328,22.623 111.91,22.751 111.91,22.941 112.328,22.941 112.328,25.02 111.979,25.02 
		111.979,25.271 113.512,25.271 113.512,25.02 113.02,25.02 113.02,22.941 113.634,22.941 113.634,22.646 113.02,22.646 
		113.02,22.25 113.027,21.955 113.034,21.727 113.041,21.635 113.057,21.552 113.072,21.482 113.094,21.416 113.125,21.37 
		113.154,21.324 113.2,21.287 113.246,21.249 113.291,21.225 113.352,21.195 113.422,21.171 113.496,21.15 113.693,21.264 
		113.838,21.363 113.967,21.46 114.126,21.613 	"/>
	<polygon points="115.484,25.02 115.355,24.809 115.242,24.875 115.15,24.914 115.113,24.927 115.075,24.936 115.037,24.943 
		114.991,24.943 114.962,24.936 114.932,24.927 114.9,24.914 114.878,24.898 114.855,24.875 114.839,24.852 114.832,24.822 
		114.832,24.792 114.832,24.625 114.832,22.941 115.439,22.941 115.439,22.645 114.832,22.645 114.832,21.802 114.148,21.802 
		114.148,22.652 113.762,22.75 113.762,22.941 114.148,22.941 114.148,24.746 114.156,24.814 114.165,24.875 114.18,24.936 
		114.195,24.989 114.227,25.042 114.248,25.096 114.286,25.143 114.324,25.18 114.369,25.216 114.415,25.248 114.461,25.277 
		114.521,25.3 114.574,25.324 114.635,25.337 114.703,25.346 114.771,25.346 114.855,25.346 114.938,25.331 115.016,25.309 
		115.098,25.277 115.182,25.232 115.273,25.171 115.372,25.104 	"/>
	<polygon points="119.136,23.412 119.136,23.328 119.122,23.251 119.104,23.175 119.083,23.107 119.052,23.04 119.014,22.98 
		118.971,22.917 118.924,22.873 118.87,22.818 118.811,22.781 118.74,22.744 118.673,22.712 118.604,22.691 118.527,22.674 
		118.445,22.66 118.359,22.66 117.23,22.66 117.23,22.805 117.527,22.805 117.527,25.125 117.23,25.125 117.23,25.271 
		118.21,25.271 118.21,25.125 117.877,25.125 117.877,22.841 118.309,22.841 118.354,22.841 118.398,22.852 118.445,22.865 
		118.49,22.887 118.527,22.91 118.566,22.941 118.604,22.971 118.643,23.009 118.673,23.046 118.693,23.092 118.719,23.137 
		118.74,23.191 118.757,23.244 118.764,23.297 118.771,23.352 118.777,23.412 118.771,23.479 118.764,23.541 118.749,23.602 
		118.727,23.66 118.704,23.713 118.673,23.766 118.635,23.812 118.598,23.859 118.552,23.904 118.499,23.943 118.453,23.971 
		118.398,23.996 118.34,24.018 118.277,24.033 118.217,24.042 118.156,24.048 118.109,24.048 118.05,24.033 118.05,24.176 
		118.172,24.193 118.271,24.201 118.359,24.193 118.445,24.188 118.527,24.163 118.611,24.141 118.688,24.102 118.757,24.064 
		118.824,24.018 118.885,23.971 118.945,23.912 118.99,23.852 119.037,23.792 119.068,23.723 119.098,23.646 119.122,23.57 
		119.136,23.494 	"/>
	<path d="M120.782,24.375v0.084l-0.007,0.076l-0.016,0.074l-0.017,0.076l-0.021,0.067l-0.023,0.062l-0.029,0.061l-0.039,0.055
		l-0.038,0.053l-0.038,0.045l-0.046,0.039l-0.045,0.029l-0.045,0.023l-0.054,0.021l-0.055,0.008l-0.053,0.01l-0.061-0.01
		l-0.053-0.008l-0.047-0.021l-0.053-0.023l-0.046-0.029l-0.046-0.045l-0.037-0.039l-0.038-0.053l-0.03-0.055l-0.031-0.061
		l-0.028-0.068l-0.015-0.068l-0.024-0.066l-0.008-0.075l-0.007-0.076l-0.008-0.084l0.008-0.084l0.007-0.076l0.008-0.075l0.024-0.066
		l0.015-0.068l0.028-0.068l0.031-0.061l0.03-0.053l0.038-0.047l0.037-0.047l0.046-0.037l0.046-0.035l0.053-0.025l0.047-0.014
		l0.053-0.016l0.061-0.01l0.053,0.01l0.055,0.016l0.054,0.014l0.045,0.025l0.045,0.035l0.046,0.037l0.038,0.047l0.038,0.047
		l0.039,0.053l0.029,0.061l0.023,0.068l0.021,0.068l0.017,0.066l0.016,0.075l0.007,0.076V24.375z M121.125,24.375l-0.008-0.1
		l-0.018-0.09l-0.015-0.093l-0.03-0.082l-0.037-0.084l-0.045-0.084l-0.047-0.067l-0.061-0.066l-0.061-0.062l-0.07-0.054
		l-0.065-0.044l-0.077-0.045l-0.074-0.031l-0.084-0.021l-0.092-0.018h-0.084h-0.091l-0.083,0.018L120,23.473l-0.083,0.031
		l-0.076,0.045l-0.067,0.044l-0.068,0.054l-0.062,0.062l-0.06,0.066l-0.046,0.067l-0.046,0.084l-0.038,0.084l-0.021,0.082
		l-0.024,0.093l-0.015,0.09l-0.007,0.1l0.007,0.1l0.015,0.09l0.024,0.093l0.021,0.09l0.038,0.084l0.046,0.076l0.046,0.067
		l0.06,0.068l0.062,0.062l0.068,0.054l0.067,0.053l0.076,0.037L120,25.277l0.084,0.023l0.083,0.016l0.091,0.009l0.084-0.009
		l0.092-0.016l0.084-0.023l0.074-0.028l0.077-0.037l0.065-0.053l0.07-0.054l0.061-0.062l0.061-0.068l0.047-0.067l0.045-0.076
		l0.037-0.084l0.03-0.09l0.015-0.093l0.018-0.09L121.125,24.375z"/>
	<polygon points="121.632,22.963 121.632,23.501 121.292,23.593 121.292,23.699 121.632,23.699 121.632,24.921 121.639,25.004 
		121.663,25.08 121.68,25.119 121.691,25.146 121.709,25.18 121.73,25.201 121.762,25.225 121.784,25.248 121.814,25.262 
		121.852,25.279 121.921,25.3 122.004,25.307 122.057,25.3 122.104,25.3 122.148,25.285 122.191,25.27 122.248,25.24 
		122.301,25.201 122.369,25.156 122.438,25.104 122.369,24.998 122.285,25.042 122.217,25.072 122.165,25.088 122.104,25.088 
		122.057,25.088 122.02,25.08 121.99,25.064 121.961,25.042 121.943,25.02 121.928,24.98 121.921,24.936 121.921,24.882 
		121.921,23.699 122.414,23.699 122.414,23.516 121.921,23.516 121.921,22.963 	"/>
	<polygon points="123.91,24.785 123.902,24.693 123.879,24.618 123.864,24.58 123.85,24.542 123.826,24.509 123.796,24.475 
		123.727,24.413 123.637,24.359 123.529,24.298 123.393,24.245 123.234,24.177 123.111,24.125 123.027,24.085 122.961,24.041 
		122.938,24.025 122.922,24.001 122.908,23.988 122.9,23.966 122.893,23.919 122.893,23.859 122.893,23.796 122.915,23.744 
		122.945,23.7 122.984,23.654 123.027,23.624 123.091,23.602 123.158,23.584 123.227,23.578 123.311,23.584 123.378,23.602 
		123.447,23.63 123.508,23.662 123.553,23.708 123.591,23.753 123.605,23.775 123.614,23.807 123.621,23.835 123.621,23.859 
		123.614,23.927 123.598,23.995 123.766,23.995 123.864,23.425 123.689,23.425 123.667,23.562 123.628,23.532 123.582,23.501 
		123.529,23.479 123.484,23.464 123.432,23.449 123.37,23.441 123.311,23.434 123.25,23.434 123.18,23.434 123.12,23.441 
		123.061,23.449 122.999,23.473 122.945,23.486 122.893,23.509 122.848,23.539 122.809,23.57 122.77,23.609 122.732,23.645 
		122.703,23.691 122.68,23.736 122.664,23.783 122.65,23.835 122.643,23.889 122.634,23.949 122.634,23.995 122.643,24.041 
		122.65,24.079 122.664,24.118 122.68,24.154 122.703,24.191 122.727,24.225 122.749,24.261 122.823,24.322 122.908,24.382 
		123.021,24.436 123.15,24.489 123.296,24.548 123.409,24.602 123.5,24.648 123.568,24.693 123.621,24.739 123.652,24.792 
		123.674,24.837 123.674,24.898 123.667,24.951 123.652,25.003 123.614,25.05 123.568,25.096 123.516,25.125 123.447,25.148 
		123.378,25.163 123.296,25.171 123.204,25.163 123.12,25.143 123.045,25.109 122.968,25.073 122.915,25.027 122.869,24.975 
		122.854,24.943 122.84,24.913 122.832,24.884 122.832,24.852 122.832,24.747 122.65,24.747 122.65,25.309 122.809,25.309 
		122.809,25.163 122.854,25.202 122.9,25.232 122.961,25.264 123.021,25.285 123.081,25.3 123.15,25.309 123.227,25.316 
		123.311,25.324 123.37,25.316 123.438,25.309 123.492,25.3 123.553,25.285 123.605,25.264 123.652,25.232 123.697,25.202 
		123.743,25.171 123.779,25.132 123.811,25.096 123.841,25.05 123.864,24.997 123.879,24.951 123.895,24.898 123.902,24.837 	"/>
	<path d="M125.525,24.846l-0.067,0.053l-0.046,0.039l-0.092,0.06l-0.075,0.039l-0.031,0.015l-0.038,0.006l-0.035,0.008h-0.048
		l-0.06-0.008l-0.053-0.006l-0.056-0.015l-0.052-0.024l-0.046-0.021l-0.039-0.032l-0.046-0.036l-0.03-0.047l-0.028-0.044
		l-0.031-0.053l-0.022-0.062l-0.022-0.062l-0.016-0.066l-0.008-0.078l-0.007-0.074v-0.076v-0.082l0.007-0.086l0.016-0.073
		l0.023-0.069l0.021-0.068l0.03-0.061l0.037-0.061l0.038-0.053l0.045-0.046l0.046-0.047l0.054-0.03l0.062-0.029l0.053-0.023
		l0.068-0.021l0.068-0.008l0.066-0.01l0.084,0.01l0.062,0.016l0.06,0.021l0.039,0.031l0.03,0.045l0.022,0.053l0.015,0.076v0.084
		V24.846z M126.171,25.156V25.05h-0.342v-2.694h-0.075l-0.568,0.151v0.106h0.34v0.918l-0.1-0.055l-0.083-0.028l-0.083-0.017h-0.091
		h-0.091l-0.098,0.017l-0.086,0.022l-0.09,0.037l-0.082,0.039l-0.078,0.053l-0.067,0.055l-0.067,0.06l-0.062,0.075l-0.054,0.077
		l-0.045,0.075l-0.037,0.091l-0.037,0.092l-0.025,0.092l-0.014,0.099v0.099v0.097l0.014,0.092l0.018,0.084l0.021,0.084l0.031,0.082
		l0.039,0.07l0.043,0.075l0.046,0.06l0.053,0.062l0.056,0.053l0.062,0.037l0.067,0.039l0.066,0.029l0.07,0.022l0.074,0.017
		l0.076,0.008l0.067-0.008l0.067-0.008l0.067-0.023l0.069-0.029l0.062-0.039l0.065-0.045l0.076-0.068l0.075-0.066v0.271h0.078
		L126.171,25.156z"/>
	<path d="M127.333,24.875l-0.062,0.053l-0.053,0.047l-0.053,0.037l-0.057,0.03l-0.043,0.022l-0.047,0.006l-0.045,0.017h-0.045
		l-0.062-0.007l-0.054-0.016l-0.045-0.022l-0.039-0.03l-0.03-0.037l-0.022-0.047l-0.015-0.053l-0.007-0.061v-0.198l0.675-0.158
		v0.417H127.333z M127.939,25.195v-0.114h-0.312v-1.214v-0.045l-0.008-0.047l-0.017-0.045l-0.015-0.047l-0.022-0.037l-0.029-0.029
		l-0.032-0.039l-0.028-0.029l-0.045-0.023l-0.039-0.021l-0.054-0.024l-0.046-0.015l-0.061-0.014l-0.053-0.011l-0.061-0.008h-0.07
		h-0.06l-0.068,0.008l-0.062,0.011l-0.062,0.014l-0.053,0.015l-0.054,0.016l-0.045,0.023l-0.045,0.03l-0.037,0.021l-0.031,0.031
		l-0.03,0.037l-0.03,0.031l-0.016,0.038l-0.016,0.036l-0.016,0.046v0.038v0.031l0.008,0.021l0.008,0.031l0.016,0.027l0.357-0.104
		v-0.188l0.074-0.029l0.053-0.024l0.062-0.008l0.054-0.007l0.053,0.007l0.057,0.017l0.053,0.022l0.036,0.039l0.031,0.036
		l0.028,0.045l0.018,0.054v0.052v0.449l-0.675,0.16l-0.07,0.016l-0.062,0.037l-0.053,0.037l-0.045,0.053l-0.039,0.056l-0.029,0.067
		l-0.016,0.068l-0.008,0.074v0.046l0.008,0.047l0.016,0.045l0.016,0.045l0.016,0.038l0.023,0.038l0.027,0.039l0.031,0.03l0.03,0.029
		l0.038,0.022l0.038,0.022l0.046,0.015l0.038,0.016l0.054,0.017h0.045l0.053,0.008l0.076-0.008l0.066-0.01l0.068-0.021l0.062-0.03
		l0.068-0.037l0.062-0.053l0.06-0.062l0.062-0.068v0.015v0.022v0.054l0.015,0.046l0.017,0.039l0.022,0.029l0.022,0.031l0.037,0.021
		l0.039,0.008l0.036,0.007l0.068-0.007l0.076-0.022L127.939,25.195z"/>
	<polygon points="131.423,25.27 131.423,25.125 131.127,25.125 131.127,23.917 131.127,23.865 131.119,23.812 131.111,23.766 
		131.096,23.714 131.074,23.676 131.059,23.63 131.027,23.593 130.998,23.562 130.968,23.533 130.93,23.509 130.893,23.488 
		130.854,23.464 130.809,23.449 130.755,23.441 130.71,23.434 130.657,23.434 130.564,23.434 130.48,23.449 130.398,23.479 
		130.314,23.523 130.23,23.585 130.141,23.669 130.041,23.759 129.936,23.882 129.921,23.775 129.889,23.684 129.868,23.639 
		129.844,23.607 129.82,23.57 129.791,23.541 129.762,23.518 129.723,23.494 129.691,23.471 129.646,23.457 129.609,23.449 
		129.562,23.434 129.511,23.434 129.465,23.434 129.374,23.434 129.283,23.449 129.199,23.479 129.116,23.523 129.033,23.585 
		128.947,23.669 128.85,23.759 128.744,23.882 128.744,23.441 128.676,23.441 128.1,23.593 128.1,23.699 128.445,23.699 
		128.445,25.125 128.145,25.125 128.145,25.27 129.047,25.27 129.047,25.125 128.744,25.125 128.744,24.094 128.857,23.964 
		128.957,23.852 129.04,23.775 129.116,23.714 129.177,23.669 129.236,23.639 129.298,23.63 129.357,23.623 129.419,23.63 
		129.473,23.646 129.518,23.676 129.562,23.714 129.594,23.766 129.617,23.822 129.632,23.889 129.641,23.964 129.641,25.125 
		129.344,25.125 129.344,25.27 130.23,25.27 130.23,25.125 129.936,25.125 129.936,24.094 130.146,23.865 130.21,23.805 
		130.264,23.751 130.314,23.714 130.361,23.684 130.415,23.654 130.46,23.639 130.505,23.63 130.551,23.63 130.609,23.63 
		130.672,23.654 130.718,23.676 130.755,23.714 130.786,23.766 130.809,23.822 130.824,23.889 130.831,23.964 130.831,25.125 
		130.527,25.125 130.527,25.27 	"/>
	<path d="M133.875,24.102h-0.92l0.009-0.061l0.015-0.055l0.017-0.053l0.015-0.045l0.023-0.047l0.029-0.037l0.03-0.039l0.03-0.037
		l0.038-0.03l0.038-0.021l0.037-0.022l0.047-0.022l0.045-0.017l0.045-0.008l0.053-0.006l0.053-0.009l0.047,0.009h0.039l0.037,0.014
		l0.039,0.008l0.036,0.023l0.031,0.015l0.028,0.024l0.023,0.027l0.029,0.023l0.018,0.029l0.021,0.039l0.014,0.037l0.024,0.075
		l0.008,0.084L133.875,24.102L133.875,24.102z M134.201,24.253v-0.104l-0.01-0.078l-0.008-0.074l-0.014-0.069l-0.023-0.067
		l-0.028-0.067l-0.039-0.053l-0.038-0.062l-0.046-0.046l-0.045-0.045l-0.062-0.039l-0.054-0.039l-0.067-0.028l-0.067-0.017
		l-0.069-0.022l-0.074-0.006h-0.078h-0.09l-0.092,0.015l-0.083,0.022l-0.075,0.029l-0.076,0.039l-0.067,0.046l-0.067,0.052
		l-0.062,0.062l-0.054,0.067l-0.045,0.076l-0.039,0.075l-0.039,0.084l-0.028,0.093l-0.017,0.09l-0.015,0.1v0.105v0.099l0.015,0.1
		l0.017,0.091l0.028,0.084l0.039,0.084l0.039,0.074l0.045,0.076l0.054,0.061l0.062,0.062l0.067,0.053l0.067,0.045l0.076,0.038
		l0.084,0.03l0.082,0.016l0.092,0.015l0.093,0.01l0.083-0.01l0.074-0.006l0.069-0.009l0.074-0.022l0.077-0.029l0.083-0.039
		l0.098-0.045l0.099-0.061l-0.073-0.146l-0.077,0.046l-0.068,0.038l-0.06,0.037l-0.062,0.022l-0.053,0.017l-0.054,0.014h-0.054
		l-0.062,0.011l-0.066-0.011l-0.068-0.007l-0.061-0.021l-0.062-0.023l-0.056-0.037l-0.051-0.038l-0.046-0.046l-0.046-0.053
		l-0.038-0.061l-0.039-0.062l-0.028-0.068L133,24.643l-0.021-0.076l-0.016-0.082l-0.009-0.092l-0.007-0.092v-0.046h1.254V24.253z"/>
	<polygon points="134.814,24.852 134.77,24.852 134.725,24.869 134.688,24.891 134.648,24.92 134.617,24.951 134.604,24.99 
		134.588,25.035 134.58,25.082 134.588,25.126 134.604,25.17 134.617,25.208 134.648,25.248 134.688,25.27 134.725,25.292 
		134.77,25.307 134.814,25.316 134.859,25.307 134.906,25.292 134.943,25.27 134.975,25.248 135.006,25.208 135.027,25.17 
		135.043,25.126 135.052,25.082 135.043,25.035 135.027,24.99 135.006,24.951 134.975,24.92 134.943,24.891 134.906,24.869 
		134.859,24.852 	"/>
	<polygon points="137.214,22.66 137.214,22.805 137.48,22.805 136.713,24.746 135.947,22.805 136.318,22.805 136.318,22.66 
		135.339,22.66 135.339,22.805 135.575,22.805 136.57,25.337 136.704,25.337 137.691,22.805 137.891,22.805 137.891,22.66 	"/>
	<polygon points="137.98,24.852 137.934,24.852 137.889,24.869 137.852,24.891 137.82,24.92 137.79,24.951 137.768,24.99 
		137.751,25.035 137.751,25.082 137.751,25.126 137.768,25.17 137.79,25.208 137.82,25.248 137.852,25.27 137.889,25.292 
		137.934,25.307 137.98,25.316 138.025,25.307 138.072,25.292 138.109,25.27 138.146,25.248 138.178,25.208 138.201,25.17 
		138.207,25.126 138.215,25.082 138.207,25.035 138.201,24.99 138.178,24.951 138.146,24.92 138.109,24.891 138.072,24.869 
		138.025,24.852 	"/>
</g>
</svg>
