<?xml version="1.0" encoding="utf-8"?>
<!-- Generator: Adobe Illustrator 16.0.0, SVG Export Plug-In . SVG Version: 6.00 Build 0)  -->
<!DOCTYPE svg PUBLIC "-//W3C//DTD SVG 1.1//EN" "http://www.w3.org/Graphics/SVG/1.1/DTD/svg11.dtd">
<svg version="1.1" id="Ebene_1" xmlns="http://www.w3.org/2000/svg" xmlns:xlink="http://www.w3.org/1999/xlink" x="0px" y="0px"
	 width="50.529px" height="40px" viewBox="49.097 0 50.529 40" enable-background="new 49.097 0 50.529 40" xml:space="preserve">
<g>
	<path d="M49.457,30.171v0.687h0.325c0.17,0,0.263-0.035,0.325-0.101s0.085-0.147,0.085-0.243c0-0.117-0.039-0.197-0.108-0.257
		c-0.081-0.065-0.194-0.086-0.36-0.086H49.457z M50.312,31.008c-0.147,0.107-0.267,0.139-0.522,0.139h-0.333v0.767h-0.36v-2.035
		h0.592c0.364,0,0.468,0.026,0.588,0.099c0.197,0.104,0.313,0.289,0.313,0.515C50.59,30.729,50.478,30.907,50.312,31.008"/>
	<path d="M51.468,30.168v0.618h0.198c0.201,0,0.309-0.022,0.387-0.08c0.065-0.052,0.104-0.132,0.104-0.24
		c0-0.127-0.074-0.229-0.197-0.268c-0.07-0.022-0.151-0.03-0.267-0.03H51.468z M52.219,31.913c-0.058-0.101-0.124-0.2-0.193-0.312
		c-0.175-0.279-0.279-0.408-0.379-0.484c-0.059-0.051-0.109-0.065-0.179-0.072v0.869h-0.36V29.88h0.608
		c0.306,0,0.464,0.034,0.584,0.124c0.143,0.104,0.232,0.268,0.232,0.456c0,0.337-0.22,0.554-0.564,0.567
		c0.034,0.023,0.073,0.06,0.1,0.094c0.066,0.081,0.182,0.232,0.29,0.375c0.116,0.166,0.294,0.406,0.302,0.418L52.219,31.913
		L52.219,31.913z"/>
	<path d="M54.386,31.383c0.05-0.123,0.066-0.247,0.066-0.456c0-0.252-0.027-0.413-0.089-0.542c-0.093-0.183-0.247-0.255-0.464-0.255
		c-0.186,0-0.345,0.081-0.426,0.213c-0.073,0.12-0.104,0.286-0.104,0.525c0,0.271,0.046,0.473,0.128,0.61
		c0.073,0.127,0.228,0.197,0.433,0.197C54.158,31.677,54.312,31.583,54.386,31.383 M53.249,31.686
		c-0.193-0.205-0.283-0.457-0.283-0.793c0-0.65,0.357-1.045,0.941-1.045c0.328,0,0.564,0.107,0.735,0.315
		c0.147,0.172,0.22,0.411,0.22,0.735c0,0.33-0.066,0.562-0.209,0.735c-0.17,0.212-0.387,0.312-0.723,0.312
		C53.624,31.948,53.418,31.867,53.249,31.686"/>
	<polygon points="55.411,29.878 55.411,31.914 55.771,31.914 55.771,30.993 56.432,30.993 56.432,30.699 55.771,30.699 
		55.771,30.168 56.579,30.168 56.626,29.878 	"/>
	<polygon points="57.067,29.878 57.067,31.914 58.375,31.914 58.375,31.604 57.435,31.604 57.435,31 58.151,31 58.151,30.703 
		57.431,30.703 57.431,30.176 58.294,30.176 58.344,29.878 	"/>
	<path d="M60.027,31.835c-0.147,0.081-0.329,0.12-0.538,0.12c-0.259,0-0.522-0.062-0.75-0.182l0.139-0.282
		c0.213,0.112,0.406,0.166,0.631,0.166c0.135,0,0.224-0.019,0.305-0.066c0.097-0.054,0.151-0.131,0.151-0.231
		c0-0.146-0.104-0.239-0.36-0.305l-0.29-0.074c-0.186-0.049-0.329-0.14-0.41-0.264c-0.058-0.085-0.089-0.178-0.089-0.281
		c0-0.359,0.321-0.611,0.774-0.611c0.263,0,0.549,0.078,0.731,0.201l-0.166,0.26c-0.182-0.109-0.368-0.163-0.55-0.163
		c-0.236,0-0.394,0.103-0.394,0.264c0,0.128,0.089,0.196,0.321,0.263l0.279,0.069c0.158,0.044,0.317,0.112,0.409,0.21
		c0.093,0.094,0.148,0.229,0.148,0.366C60.368,31.52,60.24,31.725,60.027,31.835"/>
	<path d="M61.996,31.835c-0.147,0.081-0.329,0.12-0.538,0.12c-0.259,0-0.522-0.062-0.75-0.182l0.139-0.282
		c0.213,0.112,0.406,0.166,0.631,0.166c0.135,0,0.224-0.019,0.305-0.066c0.097-0.054,0.151-0.131,0.151-0.231
		c0-0.146-0.104-0.239-0.36-0.305l-0.29-0.074c-0.185-0.049-0.329-0.14-0.41-0.264c-0.058-0.085-0.089-0.178-0.089-0.281
		c0-0.359,0.321-0.611,0.774-0.611c0.263,0,0.549,0.078,0.731,0.201l-0.166,0.26c-0.182-0.109-0.368-0.163-0.55-0.163
		c-0.236,0-0.394,0.103-0.394,0.264c0,0.128,0.089,0.196,0.321,0.263l0.278,0.069c0.159,0.044,0.318,0.112,0.41,0.21
		c0.093,0.094,0.147,0.229,0.147,0.366C62.337,31.52,62.209,31.725,61.996,31.835"/>
	<rect x="62.879" y="29.878" width="0.367" height="2.035"/>
	<path d="M65.215,31.383c0.051-0.123,0.066-0.247,0.066-0.456c0-0.252-0.027-0.413-0.09-0.542c-0.092-0.183-0.246-0.255-0.464-0.255
		c-0.186,0-0.344,0.081-0.426,0.213c-0.073,0.12-0.104,0.286-0.104,0.525c0,0.271,0.046,0.473,0.128,0.61
		c0.072,0.127,0.228,0.197,0.433,0.197C64.987,31.677,65.142,31.583,65.215,31.383 M64.078,31.686
		c-0.193-0.205-0.282-0.457-0.282-0.793c0-0.65,0.356-1.045,0.94-1.045c0.328,0,0.563,0.107,0.734,0.315
		c0.147,0.172,0.22,0.411,0.22,0.735c0,0.33-0.064,0.562-0.209,0.735c-0.17,0.212-0.386,0.312-0.723,0.312
		C64.453,31.948,64.248,31.867,64.078,31.686"/>
	<path d="M67.421,31.913l-0.58-1.017c-0.12-0.203-0.255-0.488-0.271-0.527c0.008,0.105,0.02,0.314,0.023,0.568l0.016,0.976H66.25
		v-2.034h0.409l0.593,1.023c0.119,0.209,0.216,0.418,0.243,0.474c-0.004-0.047-0.03-0.306-0.034-0.546l-0.013-0.951h0.349v2.034
		H67.421z"/>
	<path d="M69.127,30.203c-0.012,0.055-0.278,0.837-0.295,0.891h0.584C69.394,31.023,69.139,30.257,69.127,30.203 M69.695,31.913
		l-0.192-0.529H68.74l-0.193,0.529h-0.375l0.758-2.038h0.422l0.743,2.038H69.695z"/>
	<polygon points="70.458,29.878 70.458,31.914 71.626,31.914 71.685,31.616 70.825,31.616 70.825,29.878 	"/>
	<path d="M73.263,30.171v0.687h0.325c0.17,0,0.263-0.035,0.325-0.101s0.085-0.147,0.085-0.243c0-0.117-0.039-0.197-0.109-0.257
		c-0.081-0.065-0.192-0.086-0.358-0.086H73.263z M74.118,31.008c-0.147,0.107-0.268,0.139-0.522,0.139h-0.333v0.767h-0.359v-2.035
		h0.592c0.364,0,0.468,0.026,0.588,0.099c0.197,0.104,0.312,0.289,0.312,0.515C74.396,30.729,74.284,30.907,74.118,31.008"/>
	<path d="M75.275,30.168v0.618h0.196c0.201,0,0.31-0.022,0.388-0.08c0.065-0.052,0.104-0.132,0.104-0.24
		c0-0.127-0.073-0.229-0.197-0.268c-0.069-0.022-0.15-0.03-0.267-0.03H75.275z M76.025,31.913c-0.059-0.101-0.124-0.2-0.193-0.312
		c-0.175-0.279-0.279-0.408-0.38-0.484c-0.057-0.051-0.108-0.065-0.177-0.072v0.869h-0.36V29.88h0.607
		c0.306,0,0.464,0.034,0.584,0.124c0.144,0.104,0.232,0.268,0.232,0.456c0,0.337-0.221,0.554-0.564,0.567
		c0.034,0.023,0.072,0.06,0.1,0.094c0.066,0.081,0.182,0.232,0.29,0.375c0.116,0.166,0.294,0.406,0.302,0.418L76.025,31.913
		L76.025,31.913z"/>
	<rect x="76.949" y="29.878" width="0.368" height="2.035"/>
	<path d="M79.167,31.913l-0.58-1.017c-0.12-0.203-0.256-0.488-0.271-0.527c0.007,0.105,0.019,0.314,0.021,0.568l0.016,0.976h-0.358
		v-2.034h0.409l0.593,1.023c0.12,0.209,0.216,0.418,0.244,0.474c-0.005-0.047-0.032-0.306-0.035-0.546l-0.013-0.951h0.349v2.034
		H79.167z"/>
	<polygon points="79.999,29.878 79.999,30.176 80.579,30.176 80.579,31.914 80.939,31.914 80.939,30.176 81.527,30.176 
		81.577,29.878 	"/>
	<path d="M83.918,31.835c-0.146,0.081-0.329,0.12-0.538,0.12c-0.259,0-0.521-0.062-0.75-0.182l0.14-0.282
		c0.213,0.112,0.405,0.166,0.631,0.166c0.136,0,0.225-0.019,0.306-0.066c0.097-0.054,0.151-0.131,0.151-0.231
		c0-0.146-0.104-0.239-0.36-0.305l-0.29-0.074c-0.186-0.049-0.329-0.14-0.41-0.264c-0.059-0.085-0.089-0.178-0.089-0.281
		c0-0.359,0.321-0.611,0.774-0.611c0.263,0,0.549,0.078,0.729,0.201l-0.166,0.26c-0.182-0.109-0.368-0.163-0.55-0.163
		c-0.236,0-0.395,0.103-0.395,0.264c0,0.128,0.088,0.196,0.32,0.263l0.278,0.069c0.159,0.044,0.317,0.112,0.409,0.21
		c0.094,0.094,0.146,0.229,0.146,0.366C84.258,31.52,84.131,31.725,83.918,31.835"/>
	<path d="M86.093,31.383c0.05-0.123,0.065-0.247,0.065-0.456c0-0.252-0.027-0.413-0.09-0.542c-0.094-0.183-0.248-0.255-0.465-0.255
		c-0.185,0-0.344,0.081-0.424,0.213c-0.074,0.12-0.104,0.286-0.104,0.525c0,0.271,0.046,0.473,0.128,0.61
		c0.072,0.127,0.229,0.197,0.434,0.197C85.864,31.677,86.02,31.583,86.093,31.383 M84.955,31.686
		c-0.193-0.205-0.282-0.457-0.282-0.793c0-0.65,0.354-1.045,0.938-1.045c0.33,0,0.565,0.107,0.736,0.315
		c0.146,0.172,0.219,0.411,0.219,0.735c0,0.33-0.063,0.562-0.207,0.735c-0.172,0.212-0.387,0.312-0.725,0.312
		C85.33,31.948,85.125,31.867,84.955,31.686"/>
	<polygon points="87.118,29.878 87.118,31.914 88.286,31.914 88.344,31.616 87.484,31.616 87.484,29.878 	"/>
	<path d="M89.989,31.754c-0.136,0.128-0.325,0.193-0.607,0.193c-0.391,0-0.606-0.145-0.708-0.321
		c-0.062-0.116-0.082-0.201-0.082-0.429v-1.319h0.364v1.249c0,0.146,0.008,0.255,0.03,0.311c0.055,0.131,0.201,0.209,0.397,0.209
		c0.159,0,0.279-0.047,0.341-0.127c0.06-0.078,0.077-0.147,0.077-0.346v-1.296h0.368v1.312
		C90.171,31.516,90.128,31.626,89.989,31.754"/>
	<polygon points="90.607,29.878 90.607,30.176 91.189,30.176 91.189,31.914 91.548,31.914 91.548,30.176 92.137,30.176 
		92.188,29.878 	"/>
	<rect x="92.59" y="29.878" width="0.367" height="2.035"/>
	<path d="M94.927,31.383c0.05-0.123,0.064-0.247,0.064-0.456c0-0.252-0.026-0.413-0.089-0.542c-0.094-0.183-0.248-0.255-0.465-0.255
		c-0.187,0-0.344,0.081-0.424,0.213c-0.074,0.12-0.105,0.286-0.105,0.525c0,0.271,0.046,0.473,0.128,0.61
		c0.073,0.127,0.229,0.197,0.435,0.197C94.697,31.677,94.854,31.583,94.927,31.383 M93.788,31.686
		c-0.192-0.205-0.281-0.457-0.281-0.793c0-0.65,0.354-1.045,0.938-1.045c0.33,0,0.564,0.107,0.736,0.315
		c0.146,0.172,0.219,0.411,0.219,0.735c0,0.33-0.065,0.562-0.209,0.735c-0.17,0.212-0.387,0.312-0.723,0.312
		C94.163,31.948,93.958,31.867,93.788,31.686"/>
	<path d="M97.131,31.913l-0.58-1.017c-0.119-0.203-0.256-0.488-0.271-0.527c0.009,0.105,0.02,0.314,0.022,0.568l0.017,0.976h-0.359
		v-2.034h0.41l0.592,1.023c0.12,0.209,0.216,0.418,0.244,0.474c-0.004-0.047-0.031-0.306-0.035-0.546l-0.012-0.951h0.348v2.034
		H97.131z"/>
	<path d="M99.271,31.835c-0.146,0.081-0.33,0.12-0.539,0.12c-0.258,0-0.521-0.062-0.75-0.182l0.141-0.282
		c0.213,0.112,0.404,0.166,0.63,0.166c0.136,0,0.226-0.019,0.306-0.066c0.098-0.054,0.151-0.131,0.151-0.231
		c0-0.146-0.104-0.239-0.36-0.305l-0.289-0.074c-0.187-0.049-0.33-0.14-0.41-0.264c-0.059-0.085-0.09-0.178-0.09-0.281
		c0-0.359,0.321-0.611,0.774-0.611c0.263,0,0.549,0.078,0.729,0.201l-0.166,0.26c-0.182-0.109-0.366-0.163-0.549-0.163
		c-0.236,0-0.395,0.103-0.395,0.264c0,0.128,0.089,0.196,0.32,0.263l0.277,0.069c0.159,0.044,0.318,0.112,0.41,0.21
		c0.094,0.094,0.146,0.229,0.146,0.366C99.609,31.52,99.482,31.725,99.271,31.835"/>
	<rect x="49.098" y="28.746" width="50.528" height="0.113"/>
</g>
<path d="M74.843,16.17c-0.05,0.004-3.27,0-3.27,0v-4.372h3.419C77.187,12.025,77.702,15.942,74.843,16.17 M60.743,16.202
	c-0.05,0.004-3.27,0-3.27,0V11.83h3.419C63.087,12.058,63.603,15.975,60.743,16.202 M96.338,20.941l-3.01-0.01
	c0,0,0.117-0.707-0.255-1.634c-2.087-5.191-9.669-3.384-9.591-5.849c0.088-2.76,5.543-2.468,6.638-0.279
	c0.01,0.02,2.606-2.126,2.606-2.126s-2.191-2.967-6.996-2.999c-2.326-0.015-4.295,0.973-5.127,1.806
	c-0.129,0.129-1.773-1.677-4.869-1.677h-9.254v1.741c0,0-1.911-1.741-4.417-1.741H52.23v18.895l5.161,0.011v-7.178
	c0,0,3.738,0.037,4.811,0c2.506-0.087,4.214-1.548,4.214-1.548l0.001,8.715h5.159l-0.001-7.037c0,0,3.794-0.014,4.482-0.056
	c4.191-0.258,4.345-1.865,4.675-1.483c1.871,2.16,7.738,1.031,7.64,4.133c-0.481,2.217-5.99,2.018-7.538-0.749l-3.069,2.149
	c0,0,0.487,1.201,2.324,2.238c2.45,1.385,4.55,1.365,5.976,1.375c1.634,0.01,3.762-0.797,3.762-0.797v0.709h6.555L96.338,20.941z"/>
<rect x="89.604" y="20.784" fill="#ABABAB" width="6.895" height="6.893"/>
</svg>
