<?xml version="1.0" encoding="utf-8"?>
<!-- Generator: Adobe Illustrator 16.0.0, SVG Export Plug-In . SVG Version: 6.00 Build 0)  -->
<!DOCTYPE svg PUBLIC "-//W3C//DTD SVG 1.1//EN" "http://www.w3.org/Graphics/SVG/1.1/DTD/svg11.dtd">
<svg version="1.1" id="Ebene_1" xmlns="http://www.w3.org/2000/svg" xmlns:xlink="http://www.w3.org/1999/xlink" x="0px" y="0px"
	 width="55.832px" height="40px" viewBox="49.584 0 55.832 40" enable-background="new 49.584 0 55.832 40" xml:space="preserve">
<g>
	<path d="M62.44,25.018c0.106-0.184,0.159-0.572,0.159-1.17v-1.649h-1.548v1.649c0,0.598,0.064,0.986,0.193,1.17
		c0.129,0.185,0.334,0.275,0.616,0.275C62.141,25.293,62.334,25.201,62.44,25.018 M95.312,19.469
		c0.851-0.035,1.209-0.202,1.209-0.52c0-0.203-0.146-0.31-0.369-0.31C95.727,18.64,95.434,19.009,95.312,19.469 M93.123,24.525
		c0.85-0.034,1.209-0.201,1.209-0.521c0-0.202-0.146-0.309-0.37-0.309C93.538,23.697,93.244,24.066,93.123,24.525 M93.486,18.923
		l0.039-0.217c-0.104-0.025-0.23-0.051-0.389-0.051c-0.809,0-1.117,0.813-1.117,1.477c0,0.359,0.111,0.501,0.283,0.501
		C92.824,20.633,93.365,19.556,93.486,18.923 M88.562,24.525c0.851-0.034,1.209-0.201,1.209-0.521c0-0.202-0.146-0.309-0.371-0.309
		C88.977,23.697,88.684,24.066,88.562,24.525 M85.514,25.188c0,0.36,0.11,0.502,0.282,0.502c0.521,0,1.062-1.078,1.183-1.709
		l0.041-0.219c-0.105-0.025-0.231-0.05-0.39-0.05C85.82,23.712,85.514,24.525,85.514,25.188 M67.688,20.132
		c0,0.359,0.111,0.501,0.283,0.501c0.521,0,1.062-1.077,1.183-1.71l0.041-0.217c-0.105-0.025-0.232-0.051-0.389-0.051
		C67.997,18.655,67.688,19.469,67.688,20.132 M71.819,18.64c-0.425,0-0.718,0.369-0.839,0.829c0.85-0.035,1.208-0.202,1.208-0.52
		C72.188,18.746,72.043,18.64,71.819,18.64 M72.766,13.892c0-0.202-0.146-0.308-0.369-0.308c-0.425,0-0.719,0.369-0.84,0.829
		C72.407,14.378,72.766,14.211,72.766,13.892 M75.329,23.98l0.041-0.22c-0.106-0.024-0.233-0.05-0.391-0.05
		c-0.809,0-1.117,0.812-1.117,1.477c0,0.359,0.111,0.502,0.283,0.502C74.667,25.689,75.208,24.611,75.329,23.98 M77.832,13.892
		c0-0.202-0.147-0.308-0.369-0.308c-0.425,0-0.718,0.369-0.839,0.829C77.473,14.378,77.832,14.211,77.832,13.892 M82.171,24.344
		c0-0.4-0.182-0.621-0.571-0.621c-0.592,0-0.992,0.643-0.992,1.324c0,0.415,0.168,0.637,0.576,0.637
		C81.7,25.684,82.171,25.143,82.171,24.344 M83.809,18.949c0-0.203-0.146-0.31-0.369-0.31c-0.424,0-0.717,0.369-0.84,0.829
		C83.45,19.434,83.809,19.267,83.809,18.949 M92.02,13.867l0.041-0.219c-0.105-0.024-0.231-0.05-0.39-0.05
		c-0.81,0-1.116,0.814-1.116,1.477c0,0.359,0.11,0.501,0.282,0.501C91.357,15.576,91.898,14.499,92.02,13.867 M96.971,23.402
		l-0.07,0.371c-0.502-0.133-1.018,0.97-1.133,1.612l-0.11,0.575h-0.369l0.253-1.311c0.075-0.398,0.15-0.805,0.223-1.202h0.368
		c-0.04,0.227-0.116,0.511-0.278,0.995h0.011C96.157,23.809,96.471,23.316,96.971,23.402 M96.191,13.336h0.724l-0.062,0.298h-0.719
		l-0.263,1.386c-0.081,0.42-0.024,0.536,0.243,0.536c0.146,0,0.258-0.015,0.357-0.04l-0.015,0.323
		c-0.144,0.03-0.31,0.051-0.455,0.051c-0.501,0-0.627-0.243-0.521-0.799l0.277-1.457h-0.541l0.062-0.298h0.541l0.156-0.834
		l0.395-0.091L96.191,13.336z M95.434,12.178l-0.097,0.313c-0.121-0.035-0.263-0.051-0.374-0.051c-0.395,0-0.617,0.212-0.708,0.724
		l-0.03,0.172h0.729l-0.062,0.298h-0.724l-0.45,2.357c-0.156,0.828-0.535,1.157-1.138,1.157c-0.146,0-0.298-0.015-0.437-0.046
		l0.098-0.328c0.127,0.04,0.268,0.056,0.38,0.056c0.384,0,0.606-0.207,0.724-0.829l0.454-2.367h-0.541l0.062-0.298h0.535l0.03-0.172
		c0.128-0.698,0.496-1.032,1.123-1.032C95.154,12.132,95.287,12.147,95.434,12.178 M92.484,13.371
		c-0.287,1.497-0.363,1.901-0.471,2.478h-0.379c0.045-0.227,0.152-0.591,0.313-1.106l-0.011-0.006
		c-0.172,0.39-0.565,1.163-1.219,1.163c-0.354,0-0.552-0.232-0.552-0.759c0-0.915,0.472-1.84,1.567-1.84
		C92.016,13.301,92.264,13.331,92.484,13.371 M90.094,18.342c0.461,0,0.622,0.323,0.521,0.859l-0.324,1.705h-0.374l0.313-1.619
		c0.08-0.43,0-0.622-0.248-0.622c-0.517,0-1.062,1.066-1.18,1.705l-0.101,0.536h-0.369l0.253-1.311
		c0.076-0.399,0.152-0.804,0.223-1.204h0.375c-0.031,0.172-0.105,0.481-0.3,1.072l0.011,0.005
		C89.133,18.902,89.553,18.342,90.094,18.342 M89.255,14.145l-0.323,1.704h-0.375l0.313-1.618c0.081-0.43,0-0.622-0.248-0.622
		c-0.517,0-1.062,1.067-1.179,1.704l-0.102,0.536h-0.369l0.703-3.69h0.369l-0.232,1.223c-0.035,0.193-0.092,0.43-0.289,1.027
		l0.012,0.005c0.236-0.566,0.656-1.128,1.197-1.128C89.193,13.285,89.355,13.608,89.255,14.145 M86.969,18.928l0.102-0.536h0.375
		l-0.254,1.311c-0.074,0.399-0.15,0.804-0.228,1.204H86.59c0.035-0.173,0.105-0.481,0.299-1.073l-0.011-0.004
		c-0.237,0.565-0.651,1.127-1.198,1.127c-0.455,0-0.621-0.323-0.521-0.86l0.327-1.704h0.369l-0.309,1.619
		c-0.081,0.429-0.005,0.622,0.248,0.622C86.307,20.633,86.854,19.565,86.969,18.928 M86.453,13.381l-0.086,0.329
		c-0.143-0.065-0.299-0.106-0.49-0.106c-0.678,0-0.996,0.769-0.996,1.38c0,0.279,0.08,0.572,0.551,0.572
		c0.213,0,0.43-0.056,0.592-0.127l0.016,0.314c-0.184,0.075-0.439,0.142-0.702,0.142c-0.647,0-0.86-0.354-0.86-0.813
		c0-0.956,0.531-1.771,1.433-1.771C86.119,13.301,86.291,13.331,86.453,13.381 M84.871,23.402L84.8,23.773
		c-0.501-0.133-1.016,0.97-1.133,1.612l-0.11,0.575h-0.369l0.252-1.311c0.076-0.398,0.151-0.805,0.224-1.202h0.369
		c-0.04,0.227-0.116,0.511-0.278,0.995h0.01C84.057,23.809,84.37,23.316,84.871,23.402 M84.191,18.902
		c0,0.536-0.569,0.819-1.646,0.865c-0.016,0.081-0.031,0.228-0.031,0.328c0,0.43,0.152,0.542,0.577,0.542
		c0.238,0,0.485-0.056,0.688-0.146l0.025,0.303c-0.244,0.101-0.527,0.157-0.851,0.157c-0.552,0-0.829-0.229-0.829-0.805
		c0-0.945,0.506-1.8,1.359-1.8C83.984,18.347,84.191,18.604,84.191,18.902 M83.753,13.331l-0.065,0.317
		c-0.127-0.045-0.264-0.06-0.398-0.06c-0.354,0-0.541,0.172-0.541,0.404c0,0.435,0.804,0.525,0.804,1.098
		c0,0.414-0.37,0.804-1.057,0.804c-0.167,0-0.294-0.016-0.42-0.036l0.065-0.354c0.131,0.041,0.269,0.071,0.418,0.071
		c0.354,0,0.604-0.147,0.604-0.44c0-0.425-0.805-0.49-0.805-1.102c0-0.415,0.334-0.744,0.967-0.744
		C83.5,13.29,83.627,13.306,83.753,13.331 M82.027,22.65c0-0.144,0.117-0.248,0.255-0.248c0.131,0,0.231,0.104,0.231,0.228
		c0,0.146-0.117,0.252-0.248,0.252C82.13,22.882,82.027,22.775,82.027,22.65 M81.654,23.402c0.638,0,0.914,0.375,0.914,0.906
		c0,1.037-0.707,1.698-1.449,1.698c-0.607,0-0.9-0.313-0.9-0.891C80.219,24.132,80.831,23.402,81.654,23.402 M81.331,22.402
		c0.132,0,0.231,0.104,0.231,0.228c0,0.146-0.109,0.252-0.248,0.252c-0.137,0-0.236-0.106-0.236-0.231
		C81.078,22.508,81.193,22.402,81.331,22.402 M81.645,18.347l-0.069,0.369c-0.501-0.132-1.017,0.971-1.134,1.613l-0.11,0.577h-0.369
		l0.253-1.311c0.075-0.399,0.151-0.804,0.223-1.204h0.369c-0.041,0.229-0.117,0.511-0.279,0.997h0.012
		C80.831,18.751,81.145,18.261,81.645,18.347 M81.634,12.158l-0.702,3.69h-0.369l0.703-3.69H81.634z M79.996,12.158l-0.703,3.69
		h-0.369l0.703-3.69H79.996z M78.236,17.492h1.289l-0.062,0.318h-1.289l-0.228,1.193h1.224l-0.062,0.313h-1.223l-0.299,1.588H77.21
		l0.646-3.413L78.236,17.492L78.236,17.492z M78.216,13.847c0,0.536-0.571,0.819-1.648,0.864c-0.015,0.081-0.029,0.228-0.029,0.329
		c0,0.43,0.15,0.541,0.576,0.541c0.237,0,0.485-0.056,0.688-0.146l0.025,0.304c-0.243,0.101-0.526,0.156-0.85,0.156
		c-0.552,0-0.83-0.228-0.83-0.804c0-0.946,0.506-1.801,1.36-1.801C78.009,13.29,78.216,13.548,78.216,13.847 M76.026,22.271
		l-0.53,2.78c-0.056,0.304-0.116,0.603-0.172,0.909H74.95c0.041-0.229,0.146-0.592,0.309-1.105l-0.011-0.006
		c-0.171,0.39-0.566,1.164-1.219,1.164c-0.354,0-0.551-0.234-0.551-0.761c0-0.915,0.471-1.841,1.567-1.841
		c0.137,0,0.253,0.011,0.385,0.029l0.217-1.172h0.379V22.271z M75.41,13.331l-0.066,0.317c-0.126-0.045-0.263-0.06-0.399-0.06
		c-0.354,0-0.541,0.172-0.541,0.404c0,0.435,0.805,0.525,0.805,1.098c0,0.414-0.369,0.804-1.058,0.804
		c-0.167,0-0.293-0.016-0.42-0.036l0.066-0.354c0.131,0.041,0.268,0.071,0.42,0.071c0.354,0,0.601-0.147,0.601-0.44
		c0-0.425-0.804-0.49-0.804-1.102c0-0.415,0.334-0.744,0.966-0.744C75.157,13.29,75.284,13.306,75.41,13.331 M73.641,19.596
		c0.075-0.399,0.151-0.804,0.222-1.204h0.369c-0.04,0.229-0.115,0.511-0.277,0.997h0.01c0.293-0.638,0.606-1.128,1.108-1.042
		l-0.071,0.369c-0.501-0.132-1.018,0.971-1.133,1.613l-0.111,0.577h-0.369L73.641,19.596z M73.149,13.847
		c0,0.536-0.57,0.819-1.648,0.864c-0.016,0.081-0.03,0.228-0.03,0.329c0,0.43,0.152,0.541,0.577,0.541
		c0.237,0,0.485-0.056,0.687-0.146l0.026,0.304c-0.243,0.101-0.526,0.156-0.85,0.156c-0.552,0-0.829-0.228-0.829-0.804
		c0-0.946,0.505-1.801,1.359-1.801C72.942,13.29,73.149,13.548,73.149,13.847 M71.866,18.347c0.5,0,0.708,0.258,0.708,0.556
		c0,0.536-0.572,0.819-1.649,0.865c-0.015,0.081-0.03,0.228-0.03,0.328c0,0.429,0.151,0.542,0.576,0.542
		c0.238,0,0.486-0.057,0.688-0.146l0.024,0.303c-0.243,0.102-0.525,0.157-0.849,0.157c-0.552,0-0.83-0.228-0.83-0.805
		C70.505,19.201,71.011,18.347,71.866,18.347 M70.43,12.532l-0.116,0.374c-0.269-0.121-0.577-0.188-0.845-0.188
		c-0.971,0-1.674,0.819-1.674,1.836c0,0.49,0.278,1.006,1.042,1.006c0.278,0,0.501-0.045,0.713-0.11l0.253-1.32h0.379l-0.303,1.578
		c-0.359,0.126-0.774,0.187-1.108,0.187c-0.93,0-1.38-0.546-1.38-1.305c0-1.3,0.945-2.2,2.123-2.2
		C69.843,12.39,70.151,12.436,70.43,12.532 M67.305,20.198c0-0.916,0.47-1.842,1.567-1.842c0.137,0,0.253,0.011,0.385,0.03
		l0.217-1.173h0.379l-0.53,2.781c-0.056,0.304-0.116,0.602-0.173,0.91h-0.374c0.041-0.229,0.147-0.592,0.31-1.107l-0.011-0.005
		c-0.172,0.389-0.566,1.163-1.219,1.163C67.502,20.956,67.305,20.725,67.305,20.198 M67.486,25.152l0.328-1.703h0.37l-0.309,1.617
		c-0.081,0.431-0.005,0.623,0.248,0.623c0.511,0,1.057-1.067,1.173-1.705l0.101-0.535h0.374l-0.252,1.309
		c-0.076,0.4-0.151,0.805-0.228,1.204h-0.374c0.035-0.172,0.105-0.479,0.298-1.071l-0.01-0.006
		c-0.238,0.566-0.652,1.129-1.198,1.129C67.552,26.014,67.386,25.689,67.486,25.152 M70.419,25.962l0.253-1.31
		c0.076-0.399,0.152-0.805,0.223-1.203h0.374c-0.029,0.172-0.105,0.48-0.298,1.072l0.01,0.004c0.237-0.565,0.657-1.127,1.198-1.127
		c0.46,0,0.622,0.324,0.521,0.858l-0.324,1.704h-0.374l0.313-1.618c0.081-0.43,0-0.62-0.248-0.62c-0.516,0-1.062,1.065-1.178,1.702
		l-0.101,0.536L70.419,25.962L70.419,25.962z M77.791,25.962l0.646-3.413h0.379h1.291l-0.062,0.318h-1.29l-0.229,1.193h1.226
		l-0.062,0.312h-1.225l-0.298,1.588L77.791,25.962L77.791,25.962z M85.128,25.254c0-0.915,0.472-1.841,1.567-1.841
		c0.137,0,0.254,0.011,0.385,0.03l0.218-1.172h0.379l-0.53,2.78c-0.056,0.304-0.117,0.603-0.172,0.909H86.6
		c0.041-0.229,0.146-0.592,0.31-1.105l-0.011-0.006c-0.172,0.39-0.565,1.164-1.219,1.164C85.326,26.014,85.128,25.779,85.128,25.254
		 M88.087,25.204c0-0.946,0.505-1.802,1.36-1.802c0.501,0,0.707,0.259,0.707,0.558c0,0.536-0.571,0.819-1.648,0.864
		c-0.015,0.08-0.029,0.229-0.029,0.328c0,0.431,0.151,0.541,0.576,0.541c0.237,0,0.485-0.055,0.688-0.146l0.024,0.305
		c-0.242,0.101-0.524,0.155-0.85,0.155C88.365,26.008,88.087,25.779,88.087,25.204 M90.727,25.962l0.252-1.31
		c0.076-0.399,0.151-0.805,0.224-1.203h0.368c-0.041,0.227-0.115,0.511-0.277,0.996h0.01c0.293-0.637,0.607-1.129,1.108-1.043
		l-0.071,0.371c-0.501-0.133-1.016,0.97-1.133,1.613l-0.111,0.574L90.727,25.962L90.727,25.962z M93.416,19.798l-0.01-0.005
		c-0.174,0.389-0.567,1.163-1.221,1.163c-0.354,0-0.551-0.231-0.551-0.758c0-0.916,0.471-1.842,1.568-1.842
		c0.136,0,0.253,0.011,0.384,0.03l0.218-1.173h0.379l-0.531,2.781c-0.055,0.304-0.115,0.602-0.172,0.91h-0.373
		C93.146,20.678,93.254,20.313,93.416,19.798 M92.646,25.204c0-0.946,0.506-1.802,1.36-1.802c0.501,0,0.708,0.259,0.708,0.558
		c0,0.536-0.572,0.819-1.648,0.864c-0.016,0.08-0.029,0.229-0.029,0.328c0,0.431,0.15,0.541,0.577,0.541
		c0.235,0,0.483-0.055,0.687-0.146l0.026,0.305c-0.243,0.101-0.526,0.155-0.851,0.155C92.926,26.008,92.646,25.779,92.646,25.204
		 M94.837,20.146c0-0.945,0.505-1.8,1.36-1.8c0.501,0,0.707,0.258,0.707,0.556c0,0.536-0.57,0.819-1.648,0.865
		c-0.015,0.081-0.029,0.228-0.029,0.328c0,0.43,0.151,0.542,0.576,0.542c0.237,0,0.485-0.056,0.688-0.146l0.024,0.303
		c-0.242,0.101-0.524,0.157-0.85,0.157C95.115,20.951,94.837,20.725,94.837,20.146 M64.039,24.055c0,0.946-0.156,1.713-0.467,2.301
		c-0.312,0.588-0.883,0.881-1.713,0.881c-0.876,0-1.47-0.293-1.782-0.879c-0.311-0.588-0.467-1.353-0.467-2.297v-1.862h-2.628
		v-1.981h7.057V24.055z M64.039,18.884h-7.057v-1.979h2.633V13.34h-2.633v-1.98h7.057v1.98h-2.807v3.564h2.807V18.884z
		 M105.416,27.885V3.402H64.039v6.806h-1.62V5.383H61.23v4.825h-1.62V5.383h-2.628v-1.98h-7.398v24.482h7.398v1.764h1.872v-1.764
		h3.313v1.764h1.872v-1.764H105.416z"/>
	<polygon points="60.441,35.122 56.981,34.33 56.981,35.747 60.441,36.598 64.039,35.747 64.039,34.33 	"/>
	<rect x="59.718" y="30.341" width="1.548" height="3.484"/>
	<path d="M68.325,29.475c-0.095-0.021-0.19-0.035-0.279-0.035c-0.3,0-0.499,0.182-0.499,0.634c0,0.338,0.111,0.53,0.349,0.53
		c0.283,0,0.43-0.332,0.43-0.606L68.325,29.475L68.325,29.475z M68.334,30.809c0-0.088,0.006-0.229,0.025-0.319l-0.006-0.003
		c-0.09,0.212-0.281,0.351-0.528,0.351c-0.385,0-0.578-0.28-0.578-0.737c0-0.552,0.316-0.884,0.812-0.884
		c0.086,0,0.172,0.009,0.267,0.017v-0.729h0.284v2.308h-0.276V30.809z"/>
	<path d="M69.886,29.424c-0.206,0-0.354,0.148-0.389,0.404h0.74C70.243,29.572,70.106,29.424,69.886,29.424 M70.518,30.031h-1.026
		c-0.011,0.392,0.154,0.574,0.496,0.574c0.151,0,0.31-0.031,0.448-0.092l0.041,0.225c-0.157,0.062-0.348,0.099-0.544,0.099
		c-0.477,0-0.735-0.253-0.735-0.806c0-0.469,0.262-0.822,0.708-0.822c0.438,0,0.622,0.293,0.622,0.645
		C70.527,29.893,70.523,29.968,70.518,30.031"/>
	<path d="M71.905,29.49c-0.332-0.061-0.49,0.184-0.49,0.686v0.633h-0.284v-1.57h0.275c0,0.098-0.01,0.242-0.035,0.373h0.006
		c0.067-0.219,0.229-0.434,0.541-0.401L71.905,29.49z"/>
	<polygon points="73.611,28.915 73.611,29.607 74.367,29.607 74.367,29.841 73.611,29.841 73.611,30.809 73.32,30.809 73.32,28.676 
		74.408,28.676 74.408,28.915 	"/>
	<path d="M75.688,30.072c-0.515,0-0.663,0.142-0.663,0.3c0,0.136,0.095,0.239,0.24,0.239c0.252,0,0.423-0.252,0.423-0.498V30.072z
		 M75.704,30.809c0-0.11,0-0.225,0.016-0.312h-0.007c-0.075,0.191-0.275,0.341-0.534,0.341c-0.259,0-0.436-0.17-0.436-0.423
		c0-0.338,0.345-0.54,0.944-0.54V29.8c0-0.25-0.085-0.37-0.332-0.37c-0.147,0-0.338,0.051-0.474,0.114l-0.053-0.224
		c0.15-0.064,0.359-0.114,0.564-0.114c0.44,0,0.579,0.212,0.579,0.55v0.6c0,0.149,0.003,0.316,0.009,0.453H75.704L75.704,30.809z"/>
	<path d="M77.252,30.833c-0.376,0-0.688-0.181-0.688-0.758c0-0.507,0.259-0.862,0.765-0.862c0.143,0,0.278,0.023,0.385,0.064
		l-0.053,0.244c-0.098-0.041-0.228-0.072-0.356-0.072c-0.285,0-0.44,0.242-0.44,0.588c0,0.307,0.098,0.551,0.446,0.551
		c0.133,0,0.259-0.027,0.365-0.076l0.046,0.236C77.587,30.801,77.413,30.833,77.252,30.833"/>
	<path d="M79.266,30.809v-1.012c0-0.221-0.061-0.354-0.27-0.354c-0.26,0-0.444,0.265-0.444,0.613v0.75h-0.284V28.5h0.284v0.746
		c0,0.102-0.008,0.229-0.028,0.312l0.006,0.002c0.092-0.215,0.285-0.354,0.548-0.354c0.36,0,0.474,0.225,0.474,0.502v1.098h-0.285
		V30.809z"/>
	<path d="M81.271,30.809v-1.012c0-0.221-0.061-0.354-0.269-0.354c-0.26,0-0.444,0.265-0.444,0.613v0.75h-0.285V28.5h0.285v0.746
		c0,0.102-0.009,0.229-0.029,0.312l0.007,0.002c0.091-0.215,0.284-0.354,0.547-0.354c0.36,0,0.474,0.225,0.474,0.502v1.098h-0.285
		V30.809z"/>
	<path d="M82.878,29.445c-0.229,0-0.446,0.174-0.446,0.562c0,0.379,0.158,0.588,0.446,0.588c0.233,0,0.437-0.182,0.437-0.584
		C83.312,29.654,83.168,29.445,82.878,29.445 M82.843,30.836c-0.43,0-0.704-0.246-0.704-0.8c0-0.461,0.291-0.827,0.766-0.827
		c0.4,0,0.703,0.221,0.703,0.787C83.607,30.471,83.307,30.836,82.843,30.836"/>
	<path d="M84.742,30.833c-0.376,0-0.689-0.181-0.689-0.758c0-0.507,0.26-0.862,0.766-0.862c0.143,0,0.277,0.023,0.387,0.064
		l-0.055,0.244c-0.099-0.041-0.229-0.072-0.356-0.072c-0.285,0-0.438,0.242-0.438,0.588c0,0.307,0.098,0.551,0.444,0.551
		c0.134,0,0.261-0.027,0.366-0.076l0.045,0.236C85.077,30.801,84.902,30.833,84.742,30.833"/>
	<path d="M86.756,30.809v-1.012c0-0.221-0.061-0.354-0.27-0.354c-0.26,0-0.445,0.265-0.445,0.613v0.75h-0.284V28.5h0.284v0.746
		c0,0.102-0.007,0.229-0.027,0.312l0.006,0.002c0.092-0.215,0.285-0.354,0.547-0.354c0.36,0,0.474,0.225,0.474,0.502v1.098h-0.284
		V30.809z"/>
	<path d="M88.018,30.836c-0.121,0-0.25-0.013-0.35-0.041l0.025-0.252c0.102,0.041,0.229,0.062,0.348,0.062
		c0.203,0,0.342-0.092,0.342-0.24c0-0.354-0.729-0.133-0.729-0.686c0-0.27,0.207-0.472,0.625-0.472c0.095,0,0.209,0.013,0.304,0.031
		l-0.021,0.233c-0.092-0.027-0.203-0.047-0.309-0.047c-0.208,0-0.307,0.088-0.307,0.225c0,0.349,0.734,0.146,0.734,0.683
		C88.682,30.621,88.428,30.836,88.018,30.836"/>
	<path d="M89.846,30.833c-0.375,0-0.688-0.181-0.688-0.758c0-0.507,0.259-0.862,0.765-0.862c0.144,0,0.278,0.023,0.386,0.064
		l-0.054,0.244c-0.098-0.041-0.228-0.072-0.356-0.072c-0.285,0-0.439,0.242-0.439,0.588c0,0.307,0.1,0.551,0.445,0.551
		c0.134,0,0.26-0.027,0.367-0.076l0.045,0.236C90.182,30.801,90.007,30.833,89.846,30.833"/>
	<path d="M91.859,30.809v-1.012c0-0.221-0.062-0.354-0.271-0.354c-0.259,0-0.444,0.265-0.444,0.613v0.75h-0.285V28.5h0.285v0.746
		c0,0.102-0.006,0.229-0.028,0.312l0.007,0.002c0.091-0.215,0.284-0.354,0.547-0.354c0.359,0,0.475,0.225,0.475,0.502v1.098h-0.285
		V30.809z"/>
	<path d="M93.872,30.809c0-0.096,0.007-0.238,0.024-0.332h-0.006c-0.092,0.215-0.283,0.359-0.553,0.359
		c-0.359,0-0.472-0.225-0.472-0.502v-1.098h0.28v1.013c0,0.222,0.064,0.354,0.271,0.354c0.259,0,0.444-0.267,0.444-0.612v-0.755
		h0.285v1.572H93.872z"/>
	<rect x="94.875" y="28.5" width="0.284" height="2.309"/>
	<path d="M96.436,29.424c-0.205,0-0.354,0.148-0.389,0.404h0.739C96.793,29.572,96.656,29.424,96.436,29.424 M97.066,30.031h-1.025
		c-0.012,0.392,0.154,0.574,0.495,0.574c0.151,0,0.312-0.031,0.448-0.092l0.041,0.225c-0.157,0.062-0.348,0.099-0.543,0.099
		c-0.478,0-0.736-0.253-0.736-0.806c0-0.469,0.263-0.822,0.708-0.822c0.438,0,0.622,0.293,0.622,0.645
		C97.076,29.893,97.073,29.968,97.066,30.031"/>
	<path d="M67.889,32.484c-0.114,0-0.212,0.006-0.212,0.006v0.841c0,0,0.101,0.019,0.221,0.019c0.326,0,0.484-0.177,0.484-0.445
		C68.382,32.632,68.224,32.484,67.889,32.484 M67.873,33.59c-0.104,0-0.196-0.009-0.196-0.009v0.81h-0.291v-2.135
		c0,0,0.282-0.012,0.534-0.012c0.493,0,0.762,0.242,0.762,0.622C68.682,33.29,68.379,33.59,67.873,33.59"/>
	<path d="M69.775,33.027c-0.228,0-0.446,0.174-0.446,0.562c0,0.379,0.158,0.588,0.446,0.588c0.234,0,0.436-0.183,0.436-0.585
		C70.211,33.236,70.065,33.027,69.775,33.027 M69.74,34.418c-0.43,0-0.705-0.246-0.705-0.8c0-0.461,0.291-0.827,0.766-0.827
		c0.4,0,0.705,0.221,0.705,0.787C70.506,34.052,70.205,34.418,69.74,34.418"/>
	<path d="M71.573,34.415c-0.322,0-0.42-0.133-0.42-0.472V33.04H70.83v-0.222h0.323v-0.51l0.284-0.078v0.588h0.438v0.222h-0.438
		v0.803c0,0.259,0.051,0.329,0.225,0.329c0.072,0,0.143-0.01,0.199-0.025l0.028,0.233C71.797,34.402,71.674,34.415,71.573,34.415"/>
	<path d="M72.705,34.418c-0.12,0-0.25-0.014-0.349-0.041l0.026-0.253c0.101,0.041,0.229,0.063,0.347,0.063
		c0.202,0,0.343-0.092,0.343-0.24c0-0.354-0.73-0.133-0.73-0.688c0-0.268,0.208-0.47,0.625-0.47c0.095,0,0.209,0.012,0.304,0.03
		l-0.021,0.234c-0.092-0.027-0.203-0.048-0.308-0.048c-0.209,0-0.307,0.089-0.307,0.226c0,0.348,0.734,0.146,0.734,0.683
		C73.369,34.203,73.116,34.418,72.705,34.418"/>
	<path d="M74.924,33.057c-0.095-0.022-0.19-0.035-0.279-0.035c-0.3,0-0.499,0.181-0.499,0.633c0,0.338,0.111,0.531,0.349,0.531
		c0.283,0,0.43-0.332,0.43-0.607L74.924,33.057L74.924,33.057z M74.933,34.391c0-0.089,0.006-0.229,0.025-0.32l-0.006-0.002
		c-0.09,0.211-0.281,0.351-0.528,0.351c-0.385,0-0.578-0.28-0.578-0.739c0-0.55,0.316-0.882,0.812-0.882
		c0.085,0,0.171,0.007,0.266,0.017v-0.729h0.284v2.308h-0.275V34.391z"/>
	<path d="M76.756,33.652c-0.515,0-0.663,0.144-0.663,0.301c0,0.137,0.095,0.24,0.24,0.24c0.252,0,0.423-0.254,0.423-0.5V33.652z
		 M76.772,34.391c0-0.111,0-0.225,0.016-0.313h-0.007c-0.075,0.192-0.275,0.342-0.534,0.342c-0.259,0-0.436-0.171-0.436-0.424
		c0-0.338,0.345-0.54,0.944-0.54v-0.072c0-0.25-0.085-0.369-0.332-0.369c-0.147,0-0.338,0.051-0.474,0.113l-0.053-0.225
		c0.15-0.063,0.359-0.114,0.564-0.114c0.44,0,0.579,0.213,0.579,0.551v0.601c0,0.148,0.003,0.315,0.009,0.451H76.772L76.772,34.391z
		"/>
	<path d="M79.727,34.391v-1.009c0-0.215-0.051-0.356-0.256-0.356c-0.224,0-0.438,0.236-0.438,0.619v0.746h-0.281v-1.009
		c0-0.198-0.042-0.356-0.256-0.356c-0.241,0-0.439,0.259-0.439,0.619v0.746h-0.285v-1.572h0.275c0,0.096-0.007,0.238-0.021,0.332
		l0.004,0.004c0.091-0.221,0.294-0.362,0.547-0.362c0.331,0,0.42,0.228,0.432,0.356c0.067-0.147,0.234-0.356,0.538-0.356
		c0.297,0,0.468,0.157,0.468,0.515v1.084H79.727L79.727,34.391z"/>
	<path d="M82.166,33.005c-0.204,0-0.354,0.149-0.389,0.405h0.74C82.523,33.154,82.389,33.005,82.166,33.005 M82.799,33.611h-1.027
		c-0.01,0.393,0.155,0.576,0.496,0.576c0.152,0,0.311-0.033,0.449-0.092l0.041,0.225c-0.158,0.062-0.349,0.098-0.544,0.098
		c-0.478,0-0.735-0.253-0.735-0.807c0-0.467,0.262-0.821,0.707-0.821c0.438,0,0.623,0.294,0.623,0.646
		C82.809,33.475,82.805,33.549,82.799,33.611"/>
	<path d="M83.516,34.418c-0.105,0-0.195-0.088-0.195-0.195c0-0.106,0.09-0.195,0.195-0.195c0.111,0,0.196,0.089,0.196,0.195
		C83.712,34.33,83.627,34.418,83.516,34.418"/>
	<path d="M84.913,34.391h-0.325l-0.77-2.134h0.322l0.479,1.371c0.041,0.124,0.098,0.291,0.136,0.437h0.006
		c0.038-0.146,0.093-0.307,0.149-0.459l0.488-1.349H85.7L84.913,34.391z"/>
	<path d="M86.016,34.418c-0.106,0-0.195-0.088-0.195-0.195c0-0.106,0.089-0.195,0.195-0.195c0.111,0,0.196,0.089,0.196,0.195
		C86.212,34.33,86.127,34.418,86.016,34.418"/>
</g>
</svg>
