<?xml version="1.0" encoding="utf-8"?>
<!-- Generator: Adobe Illustrator 16.0.0, SVG Export Plug-In . SVG Version: 6.00 Build 0)  -->
<!DOCTYPE svg PUBLIC "-//W3C//DTD SVG 1.1//EN" "http://www.w3.org/Graphics/SVG/1.1/DTD/svg11.dtd">
<svg version="1.1" id="Ebene_1" xmlns="http://www.w3.org/2000/svg" xmlns:xlink="http://www.w3.org/1999/xlink" x="0px" y="0px"
	 width="36.519px" height="40px" viewBox="61.227 0 36.519 40" enable-background="new 61.227 0 36.519 40" xml:space="preserve">
<g>
	<polygon points="95.038,23.799 95.038,25.809 95.05,26.031 95.081,26.234 95.132,26.43 95.202,26.619 95.29,26.798 95.395,26.968 
		95.516,27.128 95.65,27.275 95.799,27.41 95.96,27.529 96.131,27.632 96.311,27.719 96.5,27.789 96.698,27.84 96.898,27.871 
		97.121,27.882 97.746,27.882 97.746,23.799 	"/>
	<path d="M89.834,17.864h2.328v3.167h-2.328V17.864z M61.381,1.324v23.123l0.045-0.129l0.079-0.199l0.088-0.192l0.099-0.188
		l0.107-0.183l0.115-0.178l0.122-0.171l0.132-0.164l0.138-0.159l0.146-0.15l0.153-0.146l0.16-0.136l0.166-0.131l0.173-0.121
		l0.179-0.114l0.184-0.104l0.191-0.097l0.195-0.089l0.2-0.078l0.204-0.068l0.209-0.061l0.213-0.049l0.217-0.038l0.221-0.028
		l0.223-0.017l0.226-0.005l0.226,0.005l0.223,0.017l0.221,0.028l0.217,0.038l0.213,0.049l0.209,0.061l0.205,0.068l0.201,0.078
		l0.194,0.089l0.191,0.097l0.184,0.104l0.179,0.114l0.174,0.121l0.166,0.129l0.161,0.138l0.154,0.144l0.146,0.152l0.139,0.158
		l0.132,0.165l0.123,0.171l0.116,0.176l0.107,0.185l0.098,0.187l0.089,0.192l0.08,0.198l0.07,0.203l0.06,0.207l0.05,0.211
		l0.039,0.213l0.029,0.218l0.017,0.221l0.006,0.224l-0.006,0.225l-0.017,0.224l-0.029,0.218l-0.039,0.215l-0.049,0.214l-0.061,0.207
		l-0.07,0.202l-0.08,0.199l-0.089,0.194l-0.098,0.188L69.34,28.08l-0.115,0.179l-0.124,0.171l-0.132,0.164l-0.139,0.159
		l-0.146,0.151l-0.154,0.145l-0.161,0.137l-0.167,0.129l-0.173,0.123l-0.18,0.112l-0.183,0.104l-0.191,0.099L67.28,29.84l-0.2,0.078
		l-0.206,0.068l-0.209,0.059l-0.113,0.025h6.672l-0.008-0.002l-0.194-0.047l-0.189-0.06l-0.181-0.063l-0.177-0.074l-0.169-0.082
		l-0.164-0.09l-0.157-0.098l-0.15-0.103l-0.144-0.111l-0.136-0.118l-0.128-0.121l-0.122-0.131l-0.114-0.136l-0.107-0.142
		l-0.099-0.145L70.894,28.4l-0.083-0.155l-0.075-0.158l-0.068-0.162l-0.059-0.166l-0.052-0.169l-0.045-0.172l-0.035-0.174
		l-0.027-0.176l-0.02-0.18l-0.013-0.181l-0.004-0.179v-4.969h2.339v4.668l0.005,0.22l0.017,0.196l0.026,0.183l0.037,0.166
		l0.045,0.146l0.055,0.129l0.062,0.112l0.071,0.099l0.081,0.084l0.093,0.074l0.109,0.066l0.13,0.059l0.154,0.051l0.181,0.037
		l0.21,0.023l0.238,0.008l0.24-0.008l0.212-0.023l0.185-0.039l0.159-0.05l0.136-0.061l0.116-0.067l0.099-0.078l0.086-0.086
		l0.074-0.099l0.066-0.112l0.057-0.127l0.048-0.146l0.038-0.161l0.027-0.181l0.017-0.194l0.006-0.22v-4.668h2.328v4.967l-0.004,0.18
		l-0.012,0.182l-0.021,0.182l-0.026,0.178l-0.037,0.175l-0.045,0.173l-0.054,0.17L77.9,27.932l-0.07,0.162l-0.076,0.158
		l-0.087,0.155l-0.092,0.149l-0.102,0.146l-0.109,0.14l-0.115,0.137l-0.124,0.127l-0.132,0.125l-0.138,0.115l-0.146,0.109
		l-0.151,0.104l-0.159,0.094l-0.165,0.089l-0.171,0.082l-0.178,0.071l-0.183,0.066l-0.19,0.057l-0.194,0.049h-0.005h6.798
		l-0.104-0.021L81.8,29.986l-0.204-0.065l-0.197-0.075l-0.194-0.086l-0.188-0.094l-0.185-0.104l-0.177-0.11l-0.172-0.119
		l-0.166-0.128l-0.159-0.137l-0.152-0.142l-0.146-0.149l-0.139-0.156l-0.131-0.164l-0.123-0.171l-0.113-0.177l-0.106-0.185
		l-0.097-0.188l-0.09-0.193l-0.078-0.199l-0.071-0.205l-0.06-0.212l-0.051-0.214l-0.039-0.218l-0.029-0.226l-0.019-0.227
		l-0.009-0.227v-7.955h2.328v3.699h2.709v2.236h-2.709v2.01l0.013,0.223l0.031,0.203l0.052,0.194l0.069,0.189l0.087,0.18l0.105,0.17
		l0.12,0.16l0.136,0.146l0.148,0.136l0.159,0.118l0.172,0.104l0.181,0.087l0.189,0.07l0.197,0.051l0.201,0.03l0.222,0.012h0.625
		v2.187h0.528v-8.006l-0.002-0.199l0.01-0.221l0.022-0.217l0.032-0.214l0.042-0.209l0.053-0.206l0.062-0.201l0.071-0.196
		l0.082-0.192l0.092-0.187l0.099-0.183l0.108-0.176l0.115-0.171l0.123-0.164l0.133-0.159l0.139-0.152l0.146-0.145l0.151-0.138
		l0.158-0.13l0.166-0.124l0.172-0.116l0.178-0.108l0.183-0.099l0.188-0.092l0.192-0.083l0.199-0.074l0.2-0.065l0.206-0.055
		l0.21-0.047l0.214-0.035l0.217-0.027l0.221-0.016l0.218-0.006h0.634v2.298h-0.605l-0.221,0.011l-0.203,0.03l-0.197,0.048
		l-0.188,0.065l-0.183,0.082l-0.171,0.099l-0.16,0.112l-0.148,0.125l-0.135,0.141l-0.119,0.148l-0.105,0.16l-0.087,0.168
		l-0.069,0.176l-0.053,0.185l-0.01,0.06h2.656v2.236h-2.701v6.27h3.228v-8.506h2.328v8.506h3.952l-0.104-0.022l-0.208-0.058
		l-0.203-0.066l-0.199-0.076l-0.192-0.085l-0.188-0.094l-0.186-0.103l-0.176-0.111l-0.174-0.119l-0.166-0.128l-0.158-0.136
		l-0.151-0.143l-0.146-0.148l-0.139-0.157l-0.131-0.164l-0.121-0.171l-0.115-0.176l-0.106-0.186l-0.099-0.188l-0.088-0.194
		l-0.078-0.199l-0.07-0.206l-0.061-0.211l-0.049-0.214l-0.041-0.218l-0.029-0.225l-0.019-0.228l-0.008-0.228v-7.954h2.327v3.698
		h2.709V1.324H61.381z"/>
	<polygon points="61.381,30.068 64.58,30.068 64.467,30.042 64.258,29.984 64.053,29.916 63.854,29.837 63.658,29.75 63.467,29.652 
		63.283,29.547 63.104,29.436 62.933,29.312 62.766,29.184 62.605,29.045 62.453,28.9 62.307,28.75 62.168,28.591 62.037,28.425 
		61.915,28.254 61.799,28.078 61.692,27.895 61.593,27.706 61.505,27.514 61.426,27.314 61.381,27.184 	"/>
	<polygon points="65.149,27.839 65.354,27.871 65.566,27.881 65.775,27.871 65.977,27.839 66.173,27.79 66.361,27.721 
		66.541,27.632 66.711,27.529 66.871,27.41 67.019,27.277 67.153,27.128 67.273,26.971 67.377,26.799 67.464,26.62 67.534,26.432 
		67.585,26.234 67.616,26.031 67.627,25.82 67.616,25.611 67.585,25.406 67.534,25.209 67.464,25.021 67.376,24.839 67.272,24.668 
		67.152,24.507 67.018,24.361 66.87,24.227 66.711,24.105 66.54,24 66.36,23.914 66.172,23.843 65.977,23.792 65.774,23.76 
		65.566,23.75 65.355,23.76 65.15,23.792 64.953,23.843 64.763,23.914 64.583,24.001 64.414,24.105 64.255,24.227 64.109,24.359 
		63.975,24.506 63.857,24.667 63.753,24.837 63.667,25.02 63.598,25.208 63.547,25.406 63.516,25.609 63.506,25.82 63.516,26.031 
		63.547,26.236 63.598,26.434 63.667,26.622 63.753,26.801 63.856,26.971 63.974,27.13 64.108,27.277 64.254,27.411 64.413,27.529 
		64.582,27.632 64.763,27.721 64.952,27.79 	"/>
	<g>
		<path d="M63.063,36.891c0-0.656-0.352-1.006-0.89-1.006c-0.52,0-0.946,0.385-0.946,1.049c0,0.605,0.29,1.006,0.89,1.006
			C62.637,37.939,63.063,37.555,63.063,36.891 M62.773,36.922c0,0.516-0.307,0.773-0.632,0.773c-0.423,0-0.624-0.325-0.624-0.801
			c0-0.502,0.295-0.771,0.627-0.771C62.543,36.124,62.773,36.411,62.773,36.922 M64.608,37.909v-1.47h-0.263v0.707
			c0,0.326-0.177,0.57-0.419,0.57c-0.192,0-0.252-0.121-0.252-0.328v-0.949h-0.263v1.029c0,0.26,0.104,0.471,0.441,0.471
			c0.251,0,0.431-0.137,0.517-0.34l0.006,0.002c-0.015,0.086-0.024,0.222-0.024,0.308H64.608z M65.82,37.904V37.68
			c-0.059,0.014-0.133,0.024-0.201,0.024c-0.166,0-0.21-0.063-0.21-0.308v-0.75h0.411v-0.207h-0.411v-0.549l-0.266,0.074v0.475
			h-0.302v0.207h0.302v0.847c0,0.315,0.091,0.44,0.393,0.44C65.631,37.934,65.737,37.922,65.82,37.904 M67.031,35.761
			c-0.08-0.019-0.159-0.026-0.242-0.026c-0.367,0-0.565,0.191-0.565,0.597v0.108h-0.301v0.207h0.301v1.263h0.266v-1.263h0.408
			v-0.207H66.49v-0.111c0-0.26,0.092-0.378,0.302-0.378c0.071,0,0.148,0.009,0.215,0.032L67.031,35.761z M67.471,36.023
			c0-0.098-0.079-0.172-0.177-0.172s-0.177,0.078-0.177,0.172c0,0.098,0.079,0.175,0.177,0.175S67.471,36.118,67.471,36.023
			 M67.427,36.439h-0.266v1.47h0.266V36.439z M68.638,37.904V37.68c-0.059,0.014-0.133,0.024-0.2,0.024
			c-0.166,0-0.21-0.063-0.21-0.308v-0.75h0.41v-0.207h-0.41v-0.549l-0.266,0.074v0.475H67.66v0.207h0.302v0.847
			c0,0.315,0.091,0.44,0.393,0.44C68.449,37.934,68.556,37.922,68.638,37.904 M71.201,37.909l-0.733-1.994h-0.302l-0.727,1.994
			h0.278l0.166-0.468h0.848l0.165,0.468H71.201z M70.657,37.227h-0.704l0.258-0.709c0.038-0.102,0.067-0.205,0.091-0.302h0.006
			c0.024,0.103,0.05,0.197,0.089,0.298L70.657,37.227z M72.619,37.909v-1.47h-0.263v0.707c0,0.326-0.177,0.57-0.42,0.57
			c-0.192,0-0.251-0.121-0.251-0.328v-0.949h-0.263v1.029c0,0.26,0.103,0.471,0.44,0.471c0.252,0,0.432-0.137,0.518-0.34
			l0.006,0.002c-0.015,0.086-0.024,0.222-0.024,0.308H72.619z M74.476,37.469c0-0.455-0.585-0.417-0.585-0.722
			c0-0.267,0.41-0.222,0.41-0.621c0-0.231-0.194-0.397-0.538-0.397c-0.366,0-0.667,0.19-0.667,0.703v1.478h0.266v-1.492
			c0-0.337,0.147-0.481,0.387-0.481c0.165,0,0.28,0.071,0.28,0.217c0,0.273-0.407,0.271-0.407,0.625
			c0,0.465,0.582,0.408,0.582,0.726c0,0.115-0.095,0.226-0.319,0.226c-0.092,0-0.198-0.023-0.278-0.054l-0.012,0.232
			c0.074,0.02,0.177,0.032,0.293,0.032C74.247,37.939,74.476,37.741,74.476,37.469 M75.935,37.031c0-0.336-0.175-0.617-0.588-0.617
			c-0.416,0-0.656,0.328-0.656,0.77c0,0.517,0.243,0.754,0.694,0.754c0.184,0,0.354-0.033,0.496-0.092l-0.022-0.217
			c-0.119,0.057-0.278,0.092-0.429,0.092c-0.313,0-0.477-0.168-0.465-0.562h0.961C75.932,37.109,75.935,37.066,75.935,37.031
			 M75.663,36.969h-0.686c0.028-0.216,0.166-0.359,0.356-0.359C75.541,36.609,75.669,36.753,75.663,36.969 M77.495,37.909v-1.027
			c0-0.261-0.106-0.471-0.444-0.471c-0.251,0-0.431,0.137-0.517,0.34l-0.006-0.003c0.018-0.086,0.023-0.223,0.023-0.309h-0.257v1.47
			h0.267v-0.706c0-0.325,0.174-0.569,0.416-0.569c0.195,0,0.252,0.12,0.252,0.327v0.948H77.495z M79.995,36.439h-0.281l-0.235,0.793
			c-0.045,0.147-0.07,0.254-0.102,0.379h-0.003c-0.024-0.112-0.054-0.207-0.11-0.391l-0.256-0.781h-0.283l-0.25,0.789
			c-0.039,0.123-0.072,0.25-0.103,0.379h-0.003c-0.03-0.114-0.068-0.248-0.105-0.383l-0.226-0.785h-0.292l0.452,1.47h0.295
			l0.246-0.789c0.038-0.124,0.073-0.238,0.103-0.369h0.004c0.026,0.104,0.053,0.201,0.084,0.292l0.293,0.866h0.297L79.995,36.439z
			 M81.366,37.031c0-0.336-0.175-0.617-0.589-0.617c-0.416,0-0.655,0.328-0.655,0.77c0,0.517,0.242,0.754,0.694,0.754
			c0.183,0,0.354-0.033,0.496-0.092l-0.023-0.217c-0.118,0.057-0.277,0.092-0.428,0.092c-0.314,0-0.478-0.168-0.465-0.562h0.961
			C81.363,37.109,81.366,37.066,81.366,37.031 M81.096,36.969h-0.688c0.029-0.216,0.166-0.359,0.357-0.359
			C80.975,36.609,81.102,36.753,81.096,36.969 M82.462,36.414c-0.292-0.031-0.442,0.171-0.505,0.375h-0.006
			c0.023-0.121,0.031-0.257,0.031-0.35h-0.256v1.47h0.266v-0.591c0-0.471,0.148-0.697,0.458-0.645L82.462,36.414z M84.021,37.105
			c0-0.449-0.195-0.691-0.543-0.691c-0.222,0-0.403,0.121-0.483,0.328l-0.006-0.003c0.018-0.074,0.026-0.188,0.026-0.274v-0.713
			h-0.267v2.119c0.155,0.042,0.301,0.061,0.505,0.061C83.729,37.93,84.021,37.62,84.021,37.105 M83.742,37.128
			c0,0.424-0.186,0.593-0.467,0.593c-0.104,0-0.186-0.014-0.26-0.035v-0.488c0-0.254,0.135-0.563,0.399-0.563
			C83.639,36.633,83.742,36.812,83.742,37.128 M85.568,37.909v-1.47h-0.264v0.707c0,0.326-0.179,0.57-0.421,0.57
			c-0.19,0-0.251-0.121-0.251-0.328v-0.949H84.37v1.029c0,0.26,0.104,0.471,0.44,0.471c0.252,0,0.432-0.137,0.518-0.34l0.006,0.002
			c-0.016,0.086-0.021,0.222-0.021,0.308H85.568z M87.243,37.909v-1.027c0-0.261-0.104-0.471-0.443-0.471
			c-0.251,0-0.432,0.137-0.517,0.34l-0.006-0.003c0.017-0.086,0.022-0.223,0.022-0.309h-0.257v1.47h0.266v-0.706
			c0-0.325,0.176-0.569,0.418-0.569c0.193,0,0.25,0.12,0.25,0.327v0.948H87.243z M88.986,38.123c0-0.268-0.18-0.42-0.5-0.42h-0.271
			c-0.177,0-0.251-0.033-0.251-0.116c0-0.047,0.033-0.094,0.095-0.123c0.055,0.015,0.123,0.021,0.182,0.021
			c0.428,0,0.644-0.233,0.644-0.547c0-0.123-0.047-0.229-0.124-0.287h0.248v-0.209h-0.499c-0.073-0.018-0.149-0.026-0.229-0.026
			c-0.41,0-0.646,0.257-0.646,0.567c0,0.194,0.079,0.336,0.217,0.416c-0.1,0.051-0.164,0.146-0.164,0.248
			c0,0.099,0.057,0.176,0.146,0.217c-0.133,0.068-0.242,0.207-0.242,0.382c0,0.28,0.239,0.432,0.617,0.432
			C88.664,38.675,88.986,38.434,88.986,38.123 M88.62,36.955c0,0.219-0.142,0.337-0.363,0.337c-0.229,0-0.362-0.118-0.362-0.337
			c0-0.197,0.139-0.344,0.373-0.344C88.493,36.611,88.62,36.742,88.62,36.955 M88.723,38.154c0,0.181-0.176,0.308-0.478,0.308
			c-0.228,0-0.394-0.094-0.394-0.269c0-0.112,0.069-0.209,0.187-0.269h0.086h0.289C88.62,37.925,88.723,38.014,88.723,38.154
			 M91.479,35.973c-0.179-0.057-0.357-0.084-0.547-0.084c-0.672,0-1.078,0.451-1.078,1.062c0,0.617,0.387,0.984,0.988,0.984
			c0.221,0,0.463-0.041,0.66-0.115v-0.93h-0.27v0.754c-0.106,0.033-0.219,0.054-0.353,0.054c-0.448,0-0.737-0.284-0.737-0.78
			c0-0.531,0.352-0.798,0.762-0.798c0.184,0,0.367,0.039,0.531,0.106L91.479,35.973z M94.062,37.909v-1.017
			c0-0.33-0.16-0.481-0.438-0.481c-0.284,0-0.438,0.194-0.502,0.334c-0.013-0.118-0.095-0.334-0.405-0.334
			c-0.234,0-0.426,0.133-0.512,0.34L92.2,36.748c0.017-0.089,0.022-0.223,0.022-0.309h-0.258v1.47h0.268v-0.7
			c0-0.337,0.187-0.575,0.41-0.575c0.2,0,0.239,0.146,0.239,0.331v0.944h0.265v-0.7c0-0.354,0.199-0.575,0.41-0.575
			c0.19,0,0.238,0.13,0.238,0.333v0.942H94.062z M95.809,37.105c0-0.449-0.195-0.691-0.541-0.691c-0.224,0-0.406,0.121-0.484,0.328
			l-0.006-0.003c0.017-0.074,0.024-0.188,0.024-0.274v-0.713h-0.266v2.119c0.157,0.042,0.302,0.061,0.505,0.061
			C95.516,37.93,95.809,37.62,95.809,37.105 M95.529,37.128c0,0.424-0.188,0.593-0.467,0.593c-0.104,0-0.185-0.014-0.262-0.035
			v-0.488c0-0.254,0.137-0.563,0.402-0.563C95.426,36.633,95.529,36.812,95.529,37.128 M97.721,37.909v-1.994h-0.272v0.846h-1.017
			v-0.846H96.16v1.994h0.271V36.99h1.017v0.919H97.721z"/>
	</g>
</g>
</svg>
