<?xml version="1.0" encoding="utf-8"?>
<!-- Generator: Adobe Illustrator 16.0.0, SVG Export Plug-In . SVG Version: 6.00 Build 0)  -->
<!DOCTYPE svg PUBLIC "-//W3C//DTD SVG 1.1//EN" "http://www.w3.org/Graphics/SVG/1.1/DTD/svg11.dtd">
<svg version="1.1" id="Ebene_1" xmlns="http://www.w3.org/2000/svg" xmlns:xlink="http://www.w3.org/1999/xlink" x="0px" y="0px"
	 width="111.358px" height="39.184px" viewBox="0 0 111.358 39.184" enable-background="new 0 0 111.358 39.184"
	 xml:space="preserve">
<g>
	<path d="M45.672,16.731v-3.795h0.476v-0.103h-1.529l-1.071,2.744h-0.013l-1.052-2.744H40.86v0.103h0.482v3.305
		c0,0.243-0.063,0.49-0.488,0.49h-0.024v0.102h1.23v-0.102h-0.091c-0.342,0-0.475-0.081-0.475-0.541v-3.22h0.012l1.517,3.863h0.169
		l1.478-3.794h0.012v3.692h-0.544v0.102h2.01v-0.102L45.672,16.731L45.672,16.731z M43.601,19.628h0.075
		c-0.008-0.038-0.034-0.06-0.075-0.068C43.601,19.582,43.601,19.604,43.601,19.628 M40.46,25.739
		c-0.09-0.004-0.176-0.004-0.22,0.036c0.02,0.048,0.059,0.082,0.112,0.1C40.365,25.806,40.449,25.806,40.46,25.739 M39.987,26.142
		h-0.074v0.068C39.955,26.203,39.979,26.179,39.987,26.142 M39.732,26.346h-0.073c0.001,0.033,0.001,0.067,0.001,0.098
		C39.712,26.438,39.7,26.373,39.732,26.346 M39.693,26.047c0.006,0.071-0.031,0.104-0.11,0.099c0,0.033,0.001,0.066,0.001,0.101
		c0.051,0.002,0.037-0.056,0.111-0.034c0.05-0.13,0.147-0.22,0.29-0.27c-0.025-0.067,0.039-0.056,0.035-0.1
		c-0.036,0-0.072,0-0.11,0.002c0.007,0.071-0.028,0.104-0.108,0.098C39.808,26.017,39.771,26.051,39.693,26.047 M38.779,26.85
		c0.089-0.062,0.241-0.073,0.256-0.202c0.08,0.006,0.116-0.027,0.109-0.101c0.08,0.006,0.117-0.026,0.11-0.099
		c-0.17,0.008-0.221,0.123-0.311,0.201C38.775,26.616,38.843,26.792,38.779,26.85 M38.599,27.152c0.003,0.057-0.075,0.044-0.074,0.1
		c0.109-0.023,0.181-0.082,0.258-0.134C38.697,27.106,38.701,27.178,38.599,27.152 M37.723,27.79c-0.024,0-0.049,0.001-0.075,0.001
		c0,0.022,0,0.044,0.001,0.067C37.69,27.85,37.715,27.828,37.723,27.79 M36.952,27.963h-0.074c-0.014,0.056,0.011,0.079,0.074,0.066
		V27.963z M35.527,28.972c-0.241-0.027-0.366,0.047-0.477,0.138C35.221,29.073,35.44,29.082,35.527,28.972 M34.538,29.279
		c0.025,0.067-0.04,0.056-0.036,0.101c0.097,0.008,0.156-0.016,0.146-0.102C34.611,29.279,34.575,29.279,34.538,29.279
		 M33.88,29.617c0.036,0,0.073,0,0.11-0.001c-0.013-0.035,0.029-0.116-0.037-0.098C33.959,29.579,33.835,29.521,33.88,29.617
		 M33.844,29.682c-0.009-0.035-0.034-0.056-0.076-0.063c0.002,0.021,0.002,0.045,0.002,0.065
		C33.794,29.684,33.819,29.684,33.844,29.682 M33,29.888c-0.074-0.021-0.057,0.036-0.111,0.035c0.013,0.043,0.041,0.072,0.111,0.064
		C33,29.956,33,29.924,33,29.888 M31.788,30.331c-0.028,0.025-0.102,0.019-0.107,0.063h0.11
		C31.788,30.375,31.788,30.352,31.788,30.331 M29.589,30.913c-0.017,0.061,0.072,0.022,0.109,0.032
		C29.716,30.888,29.627,30.924,29.589,30.913 M29.442,30.981c-0.119-0.019-0.171,0.021-0.256,0.035
		c-0.022,0.055,0.06,0.013,0.037,0.067C29.28,31.034,29.393,31.036,29.442,30.981 M28.708,31.151
		c0.078-0.018,0.241,0.038,0.258-0.035C28.917,31.036,28.745,31.114,28.708,31.151 M27.643,31.326
		c-0.001,0.067,0.129,0.019,0.185,0.031C27.83,31.29,27.699,31.34,27.643,31.326 M27.497,31.361h-0.111c0,0.024,0,0.047,0.001,0.068
		C27.417,31.398,27.49,31.409,27.497,31.361 M26.909,31.431c0.046-0.012,0.158,0.033,0.146-0.033
		C27.01,31.411,26.897,31.367,26.909,31.431 M26.138,31.438c0.053,0.097,0.205,0.101,0.367,0.097c0-0.056-0.075-0.043-0.074-0.1
		C26.265,31.444,26.287,31.465,26.138,31.438 M25.805,31.506c0.083,0.017,0.202,0.074,0.222-0.035
		C25.916,31.483,25.84,31.389,25.805,31.506 M25.402,31.541c-0.018,0.062,0.073,0.025,0.109,0.035
		C25.53,31.517,25.439,31.553,25.402,31.541 M24.704,31.648c0.089-0.014,0.195-0.022,0.294-0.002
		c0.009-0.063-0.026-0.088-0.075-0.099c0.004,0.044-0.041,0.042-0.055,0.066C24.841,31.553,24.7,31.579,24.704,31.648 M24.19,31.586
		c0.027,0.08-0.138-0.013-0.11,0.066c0.048,0,0.099-0.02,0.147-0.001C24.223,31.621,24.244,31.569,24.19,31.586 M23.712,31.723
		c0.093,0.019,0.173-0.02,0.258-0.003c-0.001-0.017-0.001-0.033-0.001-0.049C23.922,31.656,23.675,31.607,23.712,31.723
		 M23.637,31.656c-0.155-0.001-0.257-0.053-0.44-0.026c0.034,0.065,0.187,0.025,0.22,0.095c0.074-0.001,0.126-0.017,0.216,0.015
		C23.633,31.715,23.638,31.679,23.637,31.656 M22.866,31.662c-0.036,0-0.074,0.002-0.11,0.002c-0.022,0.054,0.06,0.011,0.038,0.062
		c0.024,0,0.058,0.013,0.082,0.011C22.875,31.716,22.866,31.685,22.866,31.662 M22.351,31.632c-0.049,0-0.098,0.002-0.147,0.002
		c0.008,0.049,0.082,0.037,0.111,0.064C22.292,31.646,22.374,31.687,22.351,31.632 M21.984,31.634
		c-0.002,0.068,0.129,0.018,0.184,0.033C22.17,31.596,22.039,31.652,21.984,31.634 M21.873,31.669
		c-0.113-0.096-0.384-0.054-0.516-0.129c-0.003,0.048,0.062,0.032,0.037,0.1C21.514,31.687,21.702,31.669,21.873,31.669
		 M20.768,31.544c0.11,0.081,0.422,0.147,0.553,0.097C21.129,31.638,20.971,31.427,20.768,31.544 M20.217,31.517
		c0.035,0.056,0.115,0.073,0.221,0.062C20.481,31.468,20.252,31.445,20.217,31.517 M20.106,31.482
		c-0.024,0.002-0.049,0.002-0.073,0.002c0.008,0.038,0.032,0.057,0.074,0.066C20.106,31.527,20.106,31.505,20.106,31.482
		 M19.792,31.419c-0.014,0.025-0.058,0.023-0.054,0.065c0.125-0.025,0.143,0.048,0.257,0.031
		C19.981,31.436,19.859,31.451,19.792,31.419 M19.48,31.406c-0.147-0.028-0.285-0.062-0.478-0.048
		c0.037,0.046,0.097,0.066,0.148,0.098C19.252,31.361,19.424,31.532,19.48,31.406 M18.522,31.296c0.012,0.1,0.183,0.056,0.295,0.062
		C18.806,31.257,18.634,31.302,18.522,31.296 M18.338,31.296c-0.118-0.083-0.255-0.146-0.443-0.164c0,0.033,0,0.067,0.001,0.101
		c0.062,0,0.123,0,0.184-0.001C18.102,31.296,18.29,31.368,18.338,31.296 M16.571,31.011c0.181-0.007,0.293,0.155,0.46,0.062
		c0.156,0.074,0.329,0.132,0.571,0.129c-0.052-0.095-0.266-0.047-0.368-0.095c0-0.021,0-0.046,0-0.067
		c-0.033-0.004-0.093,0.02-0.074-0.03c-0.036,0.052-0.175,0.011-0.202,0.064C16.889,31.009,16.639,30.867,16.571,31.011
		 M16.348,30.879c-0.036,0-0.073,0-0.11,0c0.03,0.073,0.13,0.085,0.186,0.133c-0.001-0.022-0.001-0.048-0.001-0.068
		C16.361,30.959,16.334,30.936,16.348,30.879 M16.178,30.413c0,0,0.046-0.04,0.27,0.012c0.222,0.053,0.271,0.083,0.328,0.093
		c0.058,0.011,0.247,0.071,0.294,0.071c0.047,0-0.134,0.056-0.134,0.056S16.67,30.65,16.6,30.596
		c-0.07-0.051-0.271-0.112-0.271-0.112L16.178,30.413z M17.187,30.663c0,0,0.951,0.101,1.127,0.124
		c0.175,0.02,0.27,0.011,0.482,0.052c0.209,0.04,0.586,0.154,0.727,0.154s0.388,0.02,0.458,0.03c0.07,0.011,0.329,0.072,0.329,0.072
		s-0.093,0.062-0.21,0.04c-0.119-0.02-0.611-0.112-0.706-0.112c-0.094,0-0.691-0.053-0.773-0.061
		c-0.083-0.012-0.306-0.102-0.552-0.133c-0.247-0.03-0.564-0.052-0.623-0.062C17.388,30.757,17.187,30.663,17.187,30.663
		 M18.503,31.099c-0.023-0.039,0.072-0.062,0.072-0.062s0.165,0.062,0.19,0.067c0.028,0.004-0.078,0.04-0.114,0.044
		C18.615,31.149,18.526,31.14,18.503,31.099 M19.038,31.087c0,0,0.084,0,0.188,0.006c0.106,0.008,0.122,0.049,0.122,0.049
		s-0.03,0.059-0.06,0.064c-0.03,0.006-0.129-0.073-0.211-0.073C18.993,31.133,19.038,31.087,19.038,31.087 M19.479,31.189
		c0.159-0.018,0.2-0.018,0.208-0.007c0.009,0.013-0.009,0.036-0.019,0.056c-0.009,0.021-0.124,0.054-0.158,0.044
		C19.474,31.275,19.479,31.189,19.479,31.189 M19.872,31.275c0.125-0.053,0.114-0.064,0.16-0.046c0.045,0.02,0.051,0.033,0.064,0.05
		c0.012,0.018,0.012,0.043-0.042,0.043c-0.056,0-0.134-0.004-0.134-0.004L19.872,31.275z M20.49,31.073c0,0,0.023-0.013,0.204-0.018
		c0.182-0.004,0.09,0.04,0.09,0.04s-0.203,0.039-0.234,0.072C20.52,31.199,20.49,31.073,20.49,31.073 M20.599,31.337
		c0.017-0.019,0.06-0.03,0.114-0.035c0,0,0.164,0.035,0.137,0.035c-0.028,0-0.195,0.034-0.195,0.034S20.584,31.356,20.599,31.337
		 M20.875,30.868c0,0,0.004,0.002,0.01,0.007c0.049-0.002,0.152-0.008,0.36-0.02c0.552-0.031,0.681-0.04,0.794-0.025
		c0.096,0.013,0.237,0.052,0.276,0.062c-0.018-0.002-0.058-0.004-0.147,0.021c-0.129,0.04-0.087,0.064-0.087,0.064
		s-0.08,0.002,0.207,0.002h0.454c0.294,0,0.483,0.019,0.521,0.025c0.04,0.008,0.25,0.047,0.015,0.033
		c-0.234-0.015-0.504,0.009-0.679,0.009c-0.174,0-0.461,0.005-0.514,0.005c-0.054,0-0.265-0.127-0.384-0.13
		c-0.123-0.009-0.357,0.015-0.417,0.04c-0.06,0.024-0.249-0.025-0.273-0.025c-0.019,0-0.1-0.047-0.126-0.06
		C20.804,30.877,20.875,30.868,20.875,30.868 M20.995,31.166c0,0,0.68-0.065,0.976-0.033c0.294,0.033,0.136,0.049,0.491,0.066
		c0.354,0.019,0.28,0.007,0.575,0.007c0.296,0,0.362-0.016,0.484-0.007c0.121,0.007,0.227,0.047,0.28,0.064
		c0.053,0.02-0.136,0.02-0.515,0.067c-0.378,0.046-0.438-0.01-0.581-0.027c-0.145-0.019-0.302-0.031-0.596-0.008
		c-0.296,0.025-0.372,0.041-0.417,0.017c-0.047-0.027-0.017-0.066-0.22-0.074c-0.205-0.005-0.34-0.026-0.34-0.026L20.995,31.166z
		 M21.076,31.334c0.154,0.003,0.271,0.025,0.304,0.033c0.032,0.003-0.098,0.021-0.163,0.021c-0.064,0-0.109-0.019-0.141-0.019
		C21.045,31.371,21.076,31.334,21.076,31.334 M23.565,31.014l0.633-0.093c0,0-0.005-0.053-0.013-0.111
		c-0.009-0.059,0.052-0.014,0.218,0.019c0.167,0.033,0.316,0.051,0.366,0.042c0.051-0.009,0.057-0.021,0.089-0.067
		c0.029-0.047-0.009-0.074,0.263-0.064c0.273,0.007,0.476-0.011,0.516-0.02c0.037-0.013,0.052,0.047,0.052,0.047
		s-0.039,0.018-0.242,0.071c-0.205,0.054-0.13,0.072,0.029,0.072c0.161,0,0.371-0.012,0.393-0.012s0,0.054,0.106-0.008
		c0.105-0.059,0.021-0.08,0.182-0.08h0.376c0,0-0.112,0.073-0.21,0.08c-0.097,0.008-0.228,0.008-0.228,0.008
		s-0.317,0.064-0.362,0.064s-0.197,0.006-0.235,0c-0.037-0.008-0.151,0.025-0.302-0.019c-0.15-0.046-0.172-0.098-0.172-0.098
		s-0.023,0.055-0.054,0.085c-0.03,0.033-0.076,0.055-0.183,0.055c-0.104,0-0.747,0.027-0.785,0.027
		C23.966,31.006,23.565,31.014,23.565,31.014 M23.99,31.249c0,0,0.051-0.051,0.444-0.067c0.395-0.02,0.708-0.055,0.708-0.055
		s0.309-0.003,0.373-0.054c0.062-0.048,0.217-0.048,0.317-0.052c0.1-0.005,0.304,0.031,0.54,0.013
		c0.235-0.019,0.539-0.066,0.63-0.098c0.09-0.033,0.199-0.054,0.254-0.046c0.055,0.01-0.008,0.071,0.277,0.023
		s0.253,0.019,0.503-0.065c0.249-0.09,0.521-0.132,0.521-0.132s0.019,0.03-0.226,0.108C28.088,30.901,28,30.92,27.946,30.92
		c-0.054,0-0.135,0.07-0.362,0.077c-0.227,0.009-0.373-0.001-0.537,0.015c-0.164,0.017-0.276,0.029-0.585,0.099
		c-0.308,0.068-0.404,0.088-0.427,0.092c-0.021,0.005,0.006,0.02-0.258-0.008c-0.263-0.028-0.58-0.016-0.685,0.004
		s-0.228,0.048-0.294,0.051c-0.07,0.006-0.274,0.032-0.387,0.029c-0.113-0.004-0.146-0.032-0.214-0.032
		C24.133,31.246,23.99,31.249,23.99,31.249 M28.879,30.666c0,0,0.014-0.007,0.038-0.021c0.103-0.055,0.399-0.214,0.639-0.267
		c0.296-0.068,0.486-0.125,0.81-0.192c0.324-0.07,0.359,0.036,0.684-0.113c0.323-0.146,0.374-0.111,0.563-0.197
		c0.19-0.087,0.042-0.136,0.323-0.136s0.24-0.012,0.402-0.092c0.163-0.081,0.147-0.074,0.374-0.161
		c0.225-0.086,0.43-0.124,0.536-0.161c0.105-0.036,0.021,0.061,0.303-0.093c0.283-0.152,0.211-0.007,0.154,0.02
		c-0.055,0.023-0.141,0.125-0.352,0.178c-0.212,0.055-0.394,0.099-0.564,0.142c-0.169,0.044-0.337,0.111-0.401,0.155
		s-0.084,0.117-0.199,0.081c-0.111-0.037-0.12-0.023-0.132,0c-0.015,0.023,0.042,0.056-0.007,0.088
		c-0.049,0.028,0.006,0.055-0.177,0.034c-0.183-0.018-0.33,0.014-0.352,0.045c-0.021,0.029-0.05,0.066-0.078,0.086
		c-0.027,0.02-0.035,0.026-0.163,0.026c-0.126,0-0.288,0.065-0.324,0.104c-0.034,0.036-0.041,0.048-0.182,0.072
		c-0.142,0.025-0.05,0.062-0.402,0.062s-0.367,0.022-0.4,0.056c-0.036,0.029-0.009,0.073-0.079,0.092s-0.26-0.014-0.26-0.014
		s-0.035,0.041-0.063,0.051c-0.029,0.007-0.127,0.036-0.169,0.036c-0.043,0-0.19,0.044-0.24,0.056
		C29.111,30.616,28.879,30.666,28.879,30.666 M26.369,30.694c0,0-0.095,0.011-0.31,0.054c-0.212,0.045-0.275,0.048-0.275,0.048
		s0.026-0.053,0.041-0.071c0.012-0.019-0.015-0.019-0.015-0.019s-0.095-0.063,0.136-0.063
		C26.179,30.638,26.369,30.694,26.369,30.694 M24.056,30.862l-0.422,0.019l-0.295,0.008l0.092-0.059c0,0,0.121-0.014,0.354-0.006
		C24.019,30.828,24.056,30.862,24.056,30.862 M23.292,30.855c0,0,0.017,0.032-0.293,0.04c-0.311,0.007-0.416,0.02-0.439,0.02
		c-0.022,0-0.114-0.058-0.114-0.058s0.099,0.008,0.469-0.015C23.285,30.822,23.292,30.855,23.292,30.855 M20.718,30.937
		c-0.009,0.02-0.067,0.025-0.067,0.025l0.001-0.012c-0.048-0.022-0.12-0.018-0.069-0.071c0.05-0.056,0.118-0.067,0.127-0.053
		C20.718,30.846,20.726,30.917,20.718,30.937 M19.578,30.837c0,0-0.022,0.1-0.083,0c-0.058-0.097-0.072-0.12-0.031-0.133
		c0.041-0.018,0.062,0.019,0.067,0.031C19.537,30.743,19.578,30.837,19.578,30.837 M2.525,19.965
		c-0.06-0.021-0.012,0.054-0.073,0.034c0.002,0.205,0.003,0.41,0.006,0.615c0.145,0.393,0.169,0.896,0.453,1.163
		c0,0.039,0,0.079,0,0.116c0.077,0.031,0.114,0.097,0.113,0.199c0.046-0.004,0.044,0.038,0.073,0.052
		c-0.017,0.166,0.167,0.149,0.15,0.314c0.065,0.029,0.128,0.061,0.112,0.166c0.149,0.121,0.252,0.283,0.335,0.465
		c0.183,0.167,0.333,0.366,0.447,0.594c0.038,0.02,0.075,0.033,0.112,0.052c0,0.027,0,0.055,0,0.083
		c0.026,0.004,0.066-0.005,0.073,0.019c0.127,0.269,0.388,0.416,0.521,0.68c0.111-0.01,0.079,0.117,0.187,0.115
		c0,0.026,0,0.054,0,0.084c0.079-0.007,0.116,0.025,0.111,0.096c0.071-0.016,0.08,0.027,0.111,0.05
		c0.097,0.173,0.288,0.262,0.372,0.447c0.101,0.03,0.155,0.104,0.186,0.199c0.08-0.005,0.116,0.026,0.111,0.098
		c0.08-0.004,0.116,0.027,0.111,0.101c0.079-0.008,0.116,0.025,0.11,0.096c0.081-0.005,0.118,0.026,0.113,0.099
		c0.07-0.016,0.08,0.028,0.11,0.051c0.331,0.385,0.766,0.671,1.114,1.039c0.024,0,0.049,0,0.073,0
		c-0.002,0.047,0.063,0.032,0.039,0.099c0.079-0.006,0.117,0.028,0.111,0.1c0.08-0.007,0.116,0.024,0.111,0.097
		c0.127-0.018,0.093,0.116,0.221,0.097c0.075,0.202,0.37,0.197,0.446,0.396c0.037,0,0.073,0,0.11,0
		c0.042,0.164,0.266,0.158,0.333,0.297c0.036,0,0.074-0.001,0.111-0.001c-0.025,0.067,0.04,0.053,0.037,0.099
		c0.271,0.054,0.363,0.269,0.628,0.327c0,0.022,0.001,0.044,0.001,0.066c0.037,0,0.074-0.001,0.11-0.001
		c-0.027,0.16,0.237,0.051,0.223,0.197c0.037,0,0.074,0,0.111,0c0,0.024,0,0.046,0,0.067c0.152-0.011,0.193,0.092,0.259,0.13
		c0.034,0.019,0.115,0.012,0.147,0.033c0.029,0.02,0.022,0.057,0.036,0.062c0.03,0.018,0.083-0.011,0.111,0
		c0.019,0.008,0.021,0.058,0.038,0.067c0.036,0.02,0.099,0.007,0.147,0.03c0.054,0.028,0.078,0.089,0.111,0.098
		c0.038,0.014,0.079-0.015,0.11,0c0.065,0.027,0.118,0.149,0.258,0.097c0,0.021,0,0.045,0,0.065
		c0.211-0.015,0.243,0.136,0.442,0.131c0.148,0.156,0.464,0.157,0.629,0.296c0.525,0.064,0.819,0.343,1.365,0.389
		c0.158,0.146,0.497,0.126,0.665,0.264c0.044-0.018,0.066-0.052,0.147-0.035c-0.004,0.092,0.089,0.095,0.185,0.097
		c-0.033-0.083-0.131-0.104-0.186-0.166c0.086,0.013,0.138,0.053,0.257,0.032c0.008,0.158,0.128,0.216,0.297,0.23
		c0.024-0.066-0.042-0.055-0.038-0.099c0.052,0.002,0.033-0.056,0.108-0.033c0.001,0.044,0.001,0.088,0.002,0.131
		c0.115-0.005,0.125,0.087,0.257,0.062c-0.015-0.076-0.113-0.074-0.149-0.13c0.084,0.019,0.177,0.026,0.222,0.083
		c0.026,0.062-0.051,0.033-0.037,0.083c0.228,0.028,0.313,0.184,0.59,0.163c-0.059-0.046-0.129-0.083-0.148-0.166
		c-0.043-0.009-0.134,0.021-0.148-0.018c0.116-0.029,0.301,0.018,0.369,0.083c0.646,0.055,1.142,0.245,1.804,0.284
		c-0.007-0.059-0.117-0.024-0.111-0.096c0.145-0.014,0.186,0.072,0.331,0.062c0,0.032,0.001,0.065,0.001,0.1
		c1.222,0.139,2.531,0.382,3.864,0.304c0.246,0.109,0.631,0.092,0.994,0.092c0.025-0.067-0.04-0.054-0.039-0.098
		c0.062-0.001,0.125-0.001,0.185-0.001c0,0.031,0.001,0.064,0.001,0.099c0.413-0.023,0.707,0.031,0.993-0.074
		c-0.079-0.019-0.24,0.04-0.258-0.031c0.11-0.002,0.221-0.002,0.333-0.002v0.065c0.037,0,0.057-0.036,0.11,0
		c0.023-0.067-0.042-0.054-0.037-0.101c0.572-0.018,1.107-0.067,1.688-0.078c0.145-0.098,0.497-0.098,0.697-0.09
		c-0.006,0.036-0.107-0.009-0.072,0.065c0.093,0.085,0.246-0.085,0.294,0.018c0.025-0.047,0.139-0.011,0.147-0.07
		c-0.102-0.018-0.291,0.046-0.331-0.029c0.079,0,0.159,0,0.239-0.002c0.022-0.056,0.144-0.025,0.22-0.034
		c0.022-0.055,0.144-0.025,0.22-0.034c0.312-0.097,0.726-0.103,0.991-0.241c0.592,0.025,0.933-0.17,1.449-0.209
		c0.072-0.07,0.185-0.101,0.331-0.103c0.048-0.091,0.182-0.103,0.33-0.103c0.101-0.114,0.35-0.095,0.459-0.204
		c0.157,0.014,0.251-0.028,0.349-0.067c0.048,0.006,0.053,0.053,0.129,0.03c0.033-0.062,0.123-0.078,0.239-0.066
		c0.052-0.107,0.177-0.152,0.366-0.137c0.048-0.138,0.313-0.085,0.347-0.236c0.343,0.02,0.516-0.113,0.696-0.236
		c0.282,0.044,0.337-0.109,0.571-0.104c0.105-0.227,0.427-0.259,0.733-0.307c0.018-0.032,0.034-0.067,0.053-0.101
		c0.205-0.044,0.259-0.221,0.532-0.204c0.023-0.126,0.246-0.075,0.275-0.201h0.092v0.064c0.264-0.055,0.377-0.247,0.567-0.369
		c0.03,0,0.061,0,0.091-0.001c0.089-0.088,0.204-0.149,0.33-0.204c0.019,0.072-0.018,0.093-0.035,0.133
		c0.132-0.062,0.292-0.104,0.366-0.219c0.002-0.046-0.114,0.015-0.112-0.032c0.224-0.192,0.488-0.348,0.767-0.488
		c0.011-0.027-0.023-0.097,0.018-0.1c0.2-0.016,0.208-0.2,0.421-0.203c-0.012-0.088,0.051-0.11,0.146-0.103
		c0.021-0.04,0.083-0.131,0.147-0.084c-0.019,0.037-0.072,0.037-0.073,0.084c0.03,0.012,0.109-0.019,0.11,0.019
		c-0.031,0.065-0.167,0.037-0.146,0.151c0.072,0.024,0.005-0.071,0.054-0.067c0.181,0.001,0.149-0.188,0.386-0.134
		c0.012-0.046,0.039-0.077,0.11-0.067c-0.012-0.09,0.05-0.11,0.145-0.102c0-0.055-0.001-0.107-0.001-0.166
		c-0.211,0.095-0.313,0.291-0.547,0.369c-0.031-0.104,0.091-0.072,0.108-0.134c0.029-0.069-0.103,0.008-0.074-0.063
		c0.152,0.008,0.158-0.202,0.293-0.154v0.051c-0.064-0.001-0.137-0.01-0.109,0.069c0.164-0.011,0.152-0.174,0.329-0.169
		c-0.006-0.071,0.029-0.105,0.109-0.1c-0.007-0.07,0.029-0.104,0.11-0.1c-0.002-0.032-0.002-0.064-0.003-0.099
		c-0.089,0.013-0.115,0.17-0.218,0.117c0.067-0.019,0.11-0.056,0.128-0.117c0.067-0.002,0.098-0.035,0.091-0.1
		c0.081,0.007,0.117-0.027,0.109-0.099c0.157-0.025,0.162-0.188,0.331-0.203c0.005,0.072-0.031,0.105-0.11,0.102
		c-0.003,0.083-0.053,0.129-0.146,0.132c0.001,0.03,0.001,0.065,0.002,0.099c0.068-0.003,0.048-0.089,0.145-0.068
		c0.001-0.055,0.052-0.13,0.128-0.167c0.11-0.053,0.124-0.164,0.218-0.203c0.032-0.015,0.1,0.033,0.092-0.035
		c0.017-0.058-0.073-0.021-0.111-0.03c0.009,0.101-0.13,0.071-0.126,0.169c-0.027-0.01-0.094,0.018-0.092-0.017
		c0.062-0.122,0.208-0.167,0.271-0.284c0.113-0.053,0.252-0.209,0.422-0.104c0.059-0.047,0.047-0.157,0.183-0.132
		c0.002-0.024-0.007-0.061,0.018-0.066c0.173,0.017,0.126-0.167,0.313-0.137c-0.008-0.115,0.127-0.105,0.182-0.167
		c-0.051,0.206-0.338,0.206-0.401,0.401c-0.141-0.023-0.062,0.144-0.22,0.102c0,0.033,0,0.066,0.001,0.1
		c0.157-0.026,0.161-0.187,0.329-0.204c-0.006-0.069,0.03-0.104,0.111-0.101c-0.009-0.071,0.027-0.104,0.108-0.099
		c-0.016-0.064,0.028-0.072,0.055-0.102c0.215-0.125,0.372-0.305,0.508-0.5c0.108,0.002,0.079-0.117,0.202-0.102
		c-0.005-0.071,0.03-0.105,0.111-0.101c-0.008-0.071,0.028-0.104,0.108-0.1c-0.006-0.071,0.029-0.104,0.11-0.099
		c-0.008-0.072,0.028-0.105,0.11-0.102c-0.042-0.153,0.174-0.073,0.163-0.2c0.069,0.021,0.034-0.048,0.092-0.035
		c0.024,0.065,0.108,0.065,0.038,0.134c0.118,0.019,0.138-0.044,0.166-0.104c0.118,0.021,0.044-0.125,0.165-0.098
		c0.07-0.202,0.285-0.275,0.363-0.469c0.052,0.002,0.035-0.055,0.109-0.035c0.162-0.263,0.333-0.516,0.544-0.734
		c0.012-0.079,0.037-0.142,0.109-0.168c-0.008-0.202-0.053-0.28-0.004-0.465c0.029-0.033,0.122-0.014,0.107-0.085
		c-0.034-0.021-0.093-0.025-0.109-0.065c-0.046-0.116,0.046-0.143,0.071-0.183c0.079-0.122-0.004-0.335,0.182-0.3
		c-0.026-0.07,0.039-0.056,0.035-0.103c-0.053-0.133,0.093-0.35,0.068-0.566c0.096-0.057,0.112-0.186,0.181-0.268
		c-0.203,0.002-0.095-0.326-0.003-0.365c-0.001-0.067-0.002-0.132-0.003-0.201c-0.063,0.027-0.037,0.13-0.091,0.167
		c-0.055-0.021-0.063-0.087-0.056-0.167c-0.065,0.008-0.028,0.108-0.11,0.101c0-0.045-0.001-0.089-0.002-0.133
		c-0.051-0.003-0.035,0.058-0.109,0.034c-0.017-0.042-0.055-0.06-0.038-0.132c-0.053-0.003-0.035,0.055-0.109,0.034
		c0.016-0.104-0.053-0.13-0.075-0.199c-0.059-0.02-0.014,0.054-0.075,0.033c0.027-0.074-0.109,0.001-0.11-0.049
		c-0.036-0.332-0.569-0.203-0.666-0.477c-0.192,0.019-0.28-0.057-0.478-0.029c-0.123-0.14-0.379,0.019-0.625-0.029
		c-0.095,0.149-0.366,0.147-0.494,0.271c-0.104-0.011-0.131,0.048-0.165,0.1c0.001,0.049,0.055,0.049,0.073,0.083
		c-0.073,0.043-0.082,0.093-0.033,0.168c-0.027,0.036-0.066,0.062-0.147,0.05c-0.044,0.094-0.117,0.162-0.218,0.204
		c0,0.229-0.155,0.322-0.215,0.5c-0.141,0.04-0.198,0.156-0.217,0.302h-0.074c0.008,0.106-0.063,0.144-0.034,0.269
		c-0.054-0.002-0.036,0.055-0.111,0.034c0.026,0.098-0.061,0.098-0.035,0.2c-0.131,0.004-0.178,0.083-0.292,0.101
		c0,0.033,0,0.068,0.001,0.102c-0.075-0.022-0.059,0.035-0.11,0.032c-0.062,0.188-0.261,0.253-0.326,0.435
		c-0.053-0.004-0.035,0.056-0.11,0.033c0,0.034,0.001,0.066,0.001,0.1c-0.229,0.053-0.236,0.296-0.438,0.37
		c0.018,0.159-0.235,0.075-0.219,0.235c-0.134-0.032-0.059,0.122-0.183,0.099c0.028,0.136-0.173,0.066-0.144,0.202
		c-0.159,0.023-0.162,0.188-0.33,0.203c0.007,0.072-0.029,0.104-0.109,0.101c0.001,0.033,0.001,0.067,0.001,0.099
		c-0.307,0.151-0.573,0.337-0.786,0.574c-0.23,0.062-0.296,0.275-0.529,0.336c-0.003,0.023,0.007,0.061-0.018,0.066
		c-0.168,0.055-0.207,0.222-0.42,0.237c-0.034,0.172-0.304,0.134-0.347,0.302c-0.151,0.031-0.252,0.105-0.33,0.202
		c-0.129-0.019-0.114,0.087-0.202,0.103c-0.025-0.067,0.041-0.055,0.036-0.101c-0.316-0.064-0.188,0.352-0.438,0.285
		c0.02-0.019,0.053-0.029,0.035-0.084c-0.07-0.007-0.097,0.021-0.108,0.067c-0.004,0.05,0.062,0.03,0.038,0.1
		c-0.086-0.014-0.084,0.06-0.185,0.034c-0.186,0.181-0.501,0.245-0.712,0.404c-0.174,0.044-0.318,0.114-0.44,0.203
		c-0.113-0.001-0.164,0.054-0.219,0.101c-0.137-0.01-0.198,0.048-0.257,0.102c-0.21,0.044-0.409,0.098-0.55,0.203
		c-0.043,0-0.085,0.002-0.128,0.002c-0.052,0.132-0.321,0.078-0.385,0.203c-0.176,0.002-0.227,0.117-0.421,0.102
		c-0.038,0.09-0.149,0.11-0.294,0.102c-0.144,0.115-0.34,0.182-0.585,0.204c-0.056,0.046-0.164,0.128-0.257,0.085
		c0.033-0.055,0.121-0.056,0.109-0.15c-0.111,0.014-0.132,0.103-0.294,0.068c-0.014,0.067-0.072,0.092-0.109,0.132
		c0.105,0.021,0.167-0.082,0.257-0.018c-0.101,0.057-0.216,0.105-0.404,0.086c-0.082,0.077-0.212,0.108-0.386,0.103
		c-0.499,0.167-1.045,0.292-1.67,0.347c0.004,0.042-0.041,0.042-0.055,0.065c-0.682,0.086-1.262,0.21-1.965,0.247
		c-0.059,0.021-0.016-0.053-0.074-0.031c-0.216,0.055-0.506,0.132-0.771,0.09c0-0.019,0-0.033,0-0.052
		c0.093-0.022,0.098,0.033,0.167,0.032c0.05-0.116,0.322-0.033,0.385-0.137c-0.588,0.11-1.172,0.069-1.782,0.113
		c-0.324,0.049-0.817,0.122-1.159,0.045c-0.056-0.015-0.02,0.055-0.091,0.031c-0.821-0.096-1.711-0.134-2.594-0.18
		c0.021-0.054-0.06-0.013-0.038-0.065c-0.565-0.02-1.06-0.17-1.546-0.254c-0.081-0.013-0.17,0.019-0.222-0.065
		c-0.394-0.005-0.57-0.215-0.995-0.19c-0.235-0.146-0.628-0.141-0.85-0.293h-0.183c-0.048-0.169-0.432-0.027-0.482-0.197
		c-0.06,0.002-0.122,0.002-0.182,0.002c0.022-0.056-0.059-0.014-0.037-0.066c-0.239,0.007-0.32-0.13-0.553-0.127
		c-0.045-0.14-0.325-0.061-0.371-0.202c-0.049,0.002-0.097,0.002-0.148,0.002c-0.037-0.076-0.127-0.104-0.258-0.096
		c-0.044-0.128-0.286-0.07-0.333-0.199c-0.13,0.052-0.186-0.065-0.258-0.097c-0.075-0.032-0.201,0.005-0.222-0.097
		c-0.223-0.007-0.239-0.205-0.479-0.196c-0.336-0.268-0.751-0.464-1.111-0.709c-0.02-0.019-0.051-0.027-0.037-0.082
		c-0.037,0-0.075,0-0.11,0.002c0.023-0.069-0.041-0.055-0.038-0.098c-0.232-0.057-0.301-0.263-0.517-0.33
		c-0.001-0.023-0.001-0.046-0.001-0.067c-0.08,0.006-0.118-0.026-0.111-0.098c-0.129,0.019-0.094-0.117-0.223-0.097
		c0.025-0.067-0.041-0.055-0.039-0.1c-0.106-0.003-0.135-0.075-0.184-0.13c-0.17-0.022-0.194-0.18-0.297-0.263
		c-0.094-0.007-0.142-0.051-0.148-0.132c-0.217-0.135-0.426-0.279-0.557-0.496c-0.089-0.055-0.165-0.12-0.223-0.2
		c-0.023,0-0.049,0-0.073,0.002c0.005-0.035-0.025-0.035-0.037-0.051c0.016-0.066-0.064-0.043-0.038-0.118
		c-0.208-0.038-0.229-0.25-0.407-0.314c-0.003-0.058-0.038-0.089-0.111-0.082c0.028-0.129-0.159-0.056-0.112-0.199
		c-0.145-0.02-0.161-0.181-0.223-0.266c-0.088-0.115-0.254-0.183-0.263-0.329c-0.088,0.021-0.076-0.043-0.073-0.101
		c-0.027-0.001-0.067,0.007-0.074-0.018c-0.182-0.269-0.377-0.528-0.596-0.76v-0.085c-0.295-0.216-0.36-0.643-0.67-0.843
		c-0.001-0.029-0.001-0.057-0.002-0.083c-0.181-0.069-0.247-0.242-0.333-0.396c-0.027-0.002-0.068,0.006-0.074-0.017
		c-0.117-0.256-0.396-0.361-0.558-0.578c-0.085,0.023-0.061-0.055-0.147-0.032c-0.009-0.125-0.155-0.126-0.149-0.266
		c-0.137-0.052-0.245-0.131-0.479-0.095c-0.067-0.094-0.202-0.125-0.295-0.199c-0.196,0.048-0.345,0.134-0.625,0.105
		c-0.121,0.124-0.348,0.153-0.512,0.237c-0.004,0.026,0.007,0.062-0.018,0.067c-0.141,0.012-0.091,0.194-0.237,0.202
		c-0.057,0.115-0.124,0.221-0.219,0.303c0.003,0.1-0.031,0.167-0.108,0.198C2.54,19.565,2.439,19.726,2.525,19.965 M27.497,21.255
		c-0.02,0.194-0.24,0.208-0.371,0.3c-0.008-0.117,0.146-0.091,0.149-0.198C27.435,21.398,27.356,21.23,27.497,21.255 M24.784,22.116
		c0,0-0.224,0.056-0.5,0.033c-0.274-0.021-0.465-0.031-0.513-0.031c-0.048,0-0.24-0.033-0.311-0.01
		c-0.071,0.018-0.143,0.062-0.143,0.062s0.011-0.046-0.228-0.094c-0.024-0.005-0.052-0.02-0.078-0.032c-0.025,0-0.042,0-0.042,0
		l-0.036-0.04c0,0,0.036,0.019,0.078,0.04c0.107-0.005,0.393-0.02,0.556-0.02c0.203,0,0.203,0,0.394,0.013
		c0.192,0.009,0.43,0.019,0.562,0.019C24.655,22.056,24.784,22.116,24.784,22.116 M27.46,17.633v0.085
		c-0.1-0.019-0.097,0.056-0.13,0.098c-0.09,0.045-0.104,0.019-0.204,0c-0.07,0.255-0.306,0.359-0.463,0.535
		c-0.234,0.09-0.47,0.176-0.666,0.3c-0.209,0.022-0.342,0.116-0.481,0.201h-0.13c0.003,0.042-0.042,0.041-0.056,0.066
		c-0.31,0.087-0.62,0.174-1.072,0.133c-0.1,0.044-0.227,0.062-0.37,0.067c-0.304,0.097-0.626,0.002-0.908-0.033
		c-0.166-0.02-0.344-0.004-0.517-0.034c-0.104-0.017-0.194-0.088-0.296-0.099c-0.1-0.014-0.205,0.017-0.296,0
		c-0.079-0.016-0.136-0.089-0.223-0.101c-0.059-0.009-0.125,0.007-0.184,0c-0.086-0.079-0.227-0.108-0.407-0.099
		c-0.231-0.161-0.662-0.138-0.887-0.302c-0.331,0.008-0.428-0.193-0.741-0.201c0.001-0.058-0.076-0.042-0.074-0.1
		c-0.13,0.008-0.221-0.022-0.259-0.1c-0.287-0.001-0.448-0.277-0.74-0.167c-0.023-0.054,0.059-0.014,0.036-0.067
		c-0.048-0.034-0.135-0.033-0.185-0.067c-0.003,0.048,0.062,0.032,0.038,0.101c-0.168-0.019-0.276,0.002-0.481-0.034
		c-0.002,0.059,0.077,0.044,0.074,0.1c-0.09-0.04-0.18-0.083-0.295-0.1c0.019,0.083,0.088,0.121,0.146,0.167
		c-0.145-0.034-0.268-0.046-0.37,0.033c0.016,0.041,0.055,0.061,0.038,0.133c-0.167-0.01-0.129,0.165-0.297,0.066
		c-0.013,0.079,0.065,0.075,0.038,0.167c-0.033,0.003-0.093-0.018-0.074,0.034c-0.004,0.053,0.125,0.073,0.054,0.132
		c-0.083,0.016-0.06-0.068-0.129-0.068c-0.033,0.059,0,0.179-0.11,0.167c0.025,0.077,0.121,0.092,0.148,0.168h-0.111
		c0.069,0.074-0.008,0.041-0.037,0.1c0.075,0.026,0.138,0.063,0.186,0.117c-0.082,0.041,0.019,0.041,0,0.118
		c-0.034,0.002-0.093-0.019-0.075,0.033c0.007,0.071,0.092,0.071,0.186,0.066c-0.02,0.089,0.062,0.087,0.11,0.117
		c0.001,0.059,0.037,0.09,0.111,0.083c-0.026,0.067,0.04,0.054,0.037,0.101c-0.243,0.069-0.375-0.225-0.518-0.033
		c0.095,0.036,0.177,0.084,0.223,0.167c-0.116-0.035-0.033,0.104-0.149,0.067c0.007,0.038,0.032,0.06,0.075,0.066
		c0.003-0.028-0.02-0.082,0.036-0.066c0.072,0.024,0.099,0.09,0.111,0.168c0.096,0.08,0.223,0.131,0.259,0.266
		c-0.128-0.043-0.081,0.072-0.167,0.067c-0.036-0.095-0.124-0.145-0.277-0.135c0.157,0.066,0.343,0.26,0.518,0.202v0.101
		c0.075,0.004,0.121,0.037,0.185,0.049v0.119c0.052,0.002,0.036-0.057,0.11-0.034c-0.019,0.116,0.129,0.083,0.111,0.202
		c0.133,0.022,0.171,0.133,0.333,0.133v0.066h0.111c0.032,0.17,0.279,0.148,0.333,0.3c0.171,0.056,0.357,0.102,0.481,0.202
		c0.239,0.028,0.416,0.115,0.592,0.2c0.147,0.002,0.26,0.032,0.333,0.099c0.299,0.023,0.562,0.146,0.851,0.204
		c0.346,0.063,0.7,0.104,1.036,0.199c0.04-0.031,0.202-0.012,0.259,0.034c0.036,0.004,0.037-0.021,0.056-0.034
		c0.794,0.156,1.576,0.271,2.387,0.102c0.012-0.03-0.021-0.099,0.019-0.102c0.518-0.004,0.858-0.17,1.314-0.232
		c-0.002-0.042,0.042-0.041,0.056-0.068h0.167c-0.003-0.041,0.042-0.04,0.055-0.064c0.239,0.002,0.346-0.202,0.575-0.149
		c-0.181,0.14-0.497,0.164-0.666,0.315c0.14-0.07,0.346-0.08,0.463-0.168c0.029,0.006,0.017,0.053,0.073,0.032
		c0.114-0.058,0.191-0.149,0.352-0.169c-0.004-0.042,0.042-0.04,0.056-0.065c0.172-0.013,0.268-0.14,0.37-0.201
		c0.034-0.019,0.091-0.013,0.128-0.032c0.023-0.016,0.023-0.059,0.057-0.067c0.087-0.023,0.253-0.117,0.241-0.2
		c-0.071,0.002-0.052,0.087-0.148,0.064c0.019,0.111-0.164,0.131-0.223,0.117c0.16-0.095,0.252-0.249,0.444-0.315v0.1
		c0.272-0.055,0.425-0.218,0.667-0.3c-0.016-0.044-0.056-0.062-0.038-0.133c0.072-0.003,0.052-0.089,0.15-0.067
		c0.011-0.116,0.122-0.145,0.147-0.248c-0.019-0.035-0.073-0.037-0.075-0.086c0.023-0.18,0.271-0.155,0.444-0.201v-0.099
		c-0.094,0.013-0.086-0.068-0.11-0.118c0.038-0.083,0.214-0.04,0.333-0.05c-0.105-0.09-0.096-0.491,0.185-0.433
		c0.043-0.098,0.16-0.125,0.297-0.134c-0.078-0.046-0.157-0.092-0.223-0.151c0.073-0.172-0.036-0.347,0-0.583
		c-0.055-0.05-0.154-0.061-0.185-0.134c-0.045,0.015-0.068,0.051-0.146,0.033c-0.031-0.116-0.238-0.076-0.187-0.268
		c-0.106-0.074-0.314-0.059-0.368-0.182c0.021-0.031,0.105-0.004,0.073-0.084c-0.236,0.112-0.355-0.14-0.63-0.098
		c0.023-0.055-0.059-0.016-0.036-0.068c-0.216-0.017-0.391-0.07-0.592-0.099c-0.12,0.063-0.221,0.068-0.371,0.032
		C27.323,17.656,27.46,17.583,27.46,17.633 M22.922,13.573c0-0.438,0.36-0.728,0.843-0.728c0.797,0,1.152,0.658,1.313,1.261h0.114
		v-1.278h-0.114c0,0.073-0.014,0.221-0.204,0.221c-0.285,0-0.489-0.307-1.129-0.307c-0.836,0-1.396,0.471-1.396,1.222
		c0,1.708,2.53,0.816,2.53,2.056c0,0.499-0.367,0.799-0.912,0.799c-0.856,0-1.337-0.851-1.489-1.495h-0.114v1.512h0.114
		c0-0.107,0.062-0.21,0.233-0.21c0.255,0,0.773,0.296,1.325,0.296c0.894,0,1.452-0.546,1.452-1.431
		C25.49,13.804,22.922,14.668,22.922,13.573 M16.883,12.936v3.795h-0.59v0.102h2.169v-0.102h-0.59v-3.795h0.26
		c0.826,0,1.034,0.517,1.129,1.142h0.114v-1.244h-3.993v1.244h0.114c0.094-0.625,0.304-1.142,1.129-1.142H16.883z M30.189,12.936
		c1.153,0,1.262,0.79,1.262,1.874c0,1-0.101,1.92-1.344,1.92h-0.526v-3.795L30.189,12.936L30.189,12.936z M30.265,12.833h-2.187
		v0.103h0.515v3.795h-0.515v0.102h2.226c1.723,0,2.211-1.255,2.211-1.971C32.516,13.606,31.591,12.833,30.265,12.833 M32.496,19.685
		c-0.108-0.004-0.079,0.116-0.203,0.1c-0.002,0.025,0.007,0.062-0.016,0.068c-0.232,0.168-0.464,0.334-0.655,0.538h-0.09
		c0.006,0.07-0.032,0.104-0.109,0.098c0.025,0.068-0.04,0.055-0.036,0.102c-0.176,0.02-0.203,0.17-0.366,0.203
		c-0.375,0.314-0.799,0.581-1.275,0.81c-0.01,0.053-0.063,0.062-0.09,0.101c-0.03,0-0.061,0-0.092,0
		c-0.009,0.054-0.064,0.062-0.092,0.098c-0.029,0.002-0.06,0.002-0.091,0.004c-0.033,0.067-0.108,0.101-0.22,0.101
		c-0.243,0.206-0.682,0.242-0.966,0.409c-0.25-0.013-0.326,0.13-0.588,0.105c-0.335,0.082-0.683,0.155-1.044,0.211
		c-0.083,0.076-0.212,0.109-0.385,0.103c-0.022,0.056-0.145,0.028-0.221,0.035c-0.138,0.087-0.391,0.07-0.623,0.074
		c-0.131,0.062-0.278,0.105-0.477,0.104c-0.021,0.058-0.143,0.029-0.22,0.037c-0.108,0.091-0.347,0.066-0.551,0.074
		c-0.16,0.087-0.389,0.113-0.661,0.105c-0.213,0.095-0.665-0.019-0.88,0.076c-0.015-0.026-0.059-0.024-0.057-0.064
		c-0.315,0.033-0.631-0.022-0.883-0.055c-0.448-0.061-0.949-0.059-1.417-0.117c-0.105-0.015-0.202-0.073-0.314-0.094
		c-0.245-0.051-0.527-0.063-0.739-0.125c-0.118-0.035-0.29-0.029-0.405-0.061c-0.114-0.033-0.203-0.137-0.369-0.095
		c0.021-0.054-0.06-0.014-0.037-0.067c-0.168-0.022-0.356-0.028-0.444-0.126c-0.061,0.001-0.123,0.001-0.183,0.004
		c-0.184-0.147-0.541-0.132-0.704-0.291c-0.21-0.021-0.377-0.077-0.481-0.195c-0.115,0.019-0.15-0.041-0.186-0.097
		c-0.296-0.027-0.367-0.265-0.667-0.29c-0.018-0.117-0.213-0.071-0.223-0.195c-0.037,0-0.074,0-0.109,0.001
		c-0.001-0.022-0.001-0.045-0.003-0.067c-0.167,0.012-0.154-0.146-0.332-0.129c0-0.021-0.001-0.044-0.001-0.066
		c-0.348-0.127-0.558-0.379-0.89-0.52c0.023-0.068-0.042-0.053-0.039-0.098c-0.147-0.021-0.215-0.156-0.334-0.262
		c-0.13-0.115-0.282-0.173-0.299-0.295c-0.11-0.067-0.185-0.165-0.224-0.296c-0.095-0.055-0.148-0.126-0.187-0.182
		c-0.027-0.035-0.016-0.084-0.039-0.114c-0.1-0.122-0.321-0.176-0.264-0.428c-0.156,0.04-0.144-0.083-0.187-0.13
		c-0.06-0.067-0.181-0.085-0.149-0.164c-0.149-0.053-0.196-0.201-0.407-0.196c0-0.146-0.205-0.101-0.261-0.196
		c-0.239,0.014-0.556-0.04-0.643,0.106c-0.031,0-0.061,0-0.092,0.002c-0.032,0.069-0.106,0.103-0.218,0.102
		c0,0.034,0.001,0.066,0.002,0.098c-0.209,0.005-0.142,0.249-0.327,0.271c0.005,0.083-0.055,0.104-0.108,0.133
		c0.021,0.314-0.036,0.5,0.012,0.764h-0.111c-0.024,0.358,0.168,0.518,0.125,0.893c0.046-0.002,0.045,0.037,0.074,0.051
		c0.028,0.248,0.162,0.397,0.158,0.679c0.056,0.019,0.054,0.095,0.111,0.115c0.034,0.233,0.174,0.366,0.229,0.576
		c0.13,0.149,0.275,0.283,0.339,0.493c0.167,0.049,0.146,0.27,0.336,0.294c-0.019,0.091,0.064,0.087,0.112,0.116
		c0,0.026,0.001,0.056,0.001,0.084c0.08-0.008,0.116,0.024,0.111,0.096c0.038,0,0.075-0.001,0.111-0.001
		c0.029,0.105,0.104,0.172,0.224,0.197c-0.035,0.121,0.135,0.053,0.112,0.166c0.187,0.074,0.303,0.211,0.447,0.324
		c0.092-0.006,0.117,0.052,0.148,0.1c0.092-0.008,0.116,0.048,0.15,0.097c0.257,0.095,0.489,0.221,0.668,0.39
		c0.315,0.079,0.471,0.303,0.778,0.39c-0.001,0.056,0.076,0.042,0.074,0.097c0.038,0,0.074,0,0.111,0
		c-0.002,0.055,0.076,0.041,0.074,0.098c0.255,0.062,0.448,0.18,0.667,0.274c0.014,0.038-0.03,0.13,0.039,0.117
		c0.082,0.02-0.002-0.099,0.054-0.101c0.541,0.268,1.302,0.329,1.865,0.576c0.075-0.002,0.147-0.002,0.221-0.004
		c-0.021,0.054,0.061,0.014,0.038,0.064c0.303,0.066,0.649,0.094,0.886,0.222c0.126-0.006,0.256-0.013,0.294,0.063
		c0.458,0.014,0.851,0.117,1.291,0.15c0.283,0.02,0.566,0.023,0.811,0.092c0.047-0.008,0.05-0.056,0.128-0.035
		c0.336,0.023,0.916,0.206,1.177-0.015c0.056,0,0.109,0,0.166-0.002c0,0.021,0,0.045,0.001,0.065
		c0.102,0.009,0.147-0.034,0.201-0.067c0.742,0.04,1.221-0.149,1.873-0.188c0.192-0.09,0.616,0.028,0.715-0.141
		c0.066,0.057,0.173,0,0.239-0.036c0.204,0.099,0.412-0.157,0.681-0.057c-0.066,0.055-0.213,0.044-0.255,0.121
		c0.592-0.037,1.065-0.178,1.613-0.253c0.002-0.021-0.007-0.059,0.017-0.064c0.399-0.097,0.927-0.081,1.247-0.246
		c0.32-0.046,0.626-0.103,0.879-0.207c0.152,0.015,0.229-0.038,0.293-0.102c0.315-0.055,0.496-0.23,0.785-0.309
		c0.083-0.141,0.325-0.141,0.401-0.285c-0.003-0.038-0.078-0.008-0.11-0.017c-0.147,0.142-0.422,0.175-0.584,0.305
		c0.018-0.032,0.035-0.066,0.053-0.099c0.032-0.001,0.062-0.001,0.093-0.001c0.002-0.024-0.007-0.063,0.018-0.067
		c0.149-0.006,0.139-0.149,0.312-0.136c-0.011-0.085,0.075-0.087,0.145-0.101c-0.012-0.086,0.049-0.107,0.146-0.098
		c0.111-0.131,0.282-0.21,0.437-0.305c-0.016,0.102,0.08,0.13,0.003,0.199c0.211-0.076,0.311-0.249,0.546-0.306
		c0.019-0.032,0.036-0.068,0.054-0.099c0.031,0,0.061-0.003,0.092-0.003c0.085-0.188,0.345-0.218,0.436-0.401
		c-0.255,0.04-0.286,0.275-0.547,0.305c0.027,0.067-0.04,0.054-0.035,0.1c-0.205,0.055-0.32,0.276-0.51,0.288
		c0.13-0.078,0.159-0.242,0.326-0.285c0-0.108,0.103-0.13,0.219-0.135c0.039-0.135,0.218-0.145,0.235-0.301
		c0.286-0.068,0.393-0.297,0.636-0.404c-0.056,0.056-0.02,0.082,0.003,0.147c-0.029,0.021-0.039,0.065-0.11,0.053
		c-0.004,0.126-0.147,0.132-0.179,0.233c0.123,0.021,0.046-0.13,0.182-0.1c0.003-0.022-0.008-0.06,0.018-0.064
		c0.19-0.074,0.313-0.205,0.436-0.337c0.108,0.002,0.079-0.119,0.201-0.103c-0.008-0.07,0.03-0.103,0.108-0.1
		c-0.037-0.121,0.135-0.056,0.108-0.168c-0.21,0.033-0.196,0.265-0.436,0.271c-0.016,0.106-0.123,0.132-0.182,0.201
		c0.151-0.277,0.352-0.508,0.559-0.735c0.03,0.002,0.016,0.043,0.055,0.034c0.023-0.053,0.107-0.051,0.128-0.102
		c0.027,0.009,0.094-0.02,0.092,0.017c0.001,0.061-0.061,0.065-0.035,0.149c0.054-0.061,0.188-0.054,0.182-0.167
		c-0.044-0.01-0.132,0.022-0.146-0.017c0.05-0.036,0.067-0.104,0.182-0.086c0,0.033,0.002,0.066,0.002,0.101
		c0.132,0.018,0.14-0.072,0.257-0.07c-0.015-0.064-0.101-0.064-0.113-0.13c-0.072,0-0.146,0.001-0.22,0.001
		c0-0.03,0-0.062-0.001-0.096c0.098-0.023,0.229-0.02,0.292-0.07c0.025-0.079-0.137,0.017-0.112-0.064
		c0.143,0.017,0.152-0.085,0.256-0.102c0-0.055-0.002-0.111-0.002-0.167c-0.027-0.002-0.069,0.007-0.074-0.017
		c-0.004-0.093,0.043-0.137,0.09-0.185c0.068,0,0.135-0.003,0.204-0.003c-0.029-0.064,0.038-0.053,0.033-0.097
		c-0.073-0.038-0.177-0.052-0.258-0.079c-0.023-0.138,0.142-0.106,0.144-0.22c-0.175-0.051-0.341-0.109-0.59-0.092
		c0.01-0.029-0.023-0.098,0.019-0.101c0.056-0.001,0.109-0.001,0.166-0.001c0.043-0.098,0.121-0.168,0.16-0.27
		c0.108,0.016,0.143-0.037,0.129-0.133c0.117,0,0.128-0.094,0.2-0.135c0.082-0.004,0.283,0.102,0.313-0.018
		c0.001-0.047-0.113,0.015-0.112-0.033c0-0.038,0-0.076,0-0.114c0.049,0,0.097-0.001,0.146-0.001
		c-0.015-0.077-0.127-0.062-0.113-0.167c0.056-0.016,0.187,0.034,0.182-0.033c-0.055-0.107-0.282-0.054-0.333-0.165
		c0.138,0.024,0.178-0.04,0.294-0.036c0.045,0.083,0.164,0.094,0.295,0.095c0-0.056-0.075-0.042-0.075-0.098
		c-0.278,0.05-0.288-0.147-0.445-0.21c-0.027-0.062,0.051-0.033,0.037-0.084c-0.056-0.017-0.091-0.048-0.112-0.097
		c-0.371-0.005-0.602-0.137-0.851-0.256c-0.095,0.088-0.147-0.046-0.275-0.03c-0.029,0.018-0.045,0.049-0.073,0.068
		c-0.109-0.107-0.153,0.083-0.311,0.036c-0.005,0.17-0.191,0.184-0.365,0.204c0.017,0.064-0.031,0.071-0.055,0.099
		C32.708,19.437,32.611,19.567,32.496,19.685 M12.08,14.833c0,1.442-0.226,1.986-1.027,1.986c-0.802,0-1.028-0.544-1.028-1.986
		c0-1.796,0.501-1.988,1.028-1.988C11.58,12.845,12.08,13.037,12.08,14.833 M13.23,14.833c0-1.113-0.883-2.091-2.177-2.091
		c-1.295,0-2.178,0.978-2.178,2.091c-0.027,1.062,0.965,2.09,2.178,2.09C12.265,16.924,13.259,15.895,13.23,14.833 M22.135,26.501
		c0.17,0.006,0.293,0.036,0.404,0.015c0.006,0.044-0.103-0.017-0.072,0.051c0.037-0.001,0.073-0.001,0.11-0.001
		c-0.001-0.034-0.001-0.066-0.001-0.098C22.439,26.486,22.209,26.426,22.135,26.501 M22.872,26.494
		c0.001-0.069-0.13-0.017-0.185-0.032C22.686,26.531,22.815,26.478,22.872,26.494 M23.018,26.492
		c0.018-0.058-0.073-0.02-0.111-0.032C22.891,26.521,22.98,26.484,23.018,26.492 M24.009,26.348
		c-0.283-0.062-0.482,0.123-0.663,0.042c-0.047,0.046-0.158,0.034-0.256,0.035c0.209,0.082,0.781,0.06,0.974-0.077
		c0.018,0.048,0.1,0.03,0.167,0.03C24.213,26.33,24.043,26.269,24.009,26.348 M24.889,26.205c-0.157,0.004-0.256,0.059-0.441,0.038
		c0,0.032,0.001,0.065,0.001,0.099c0.121-0.003,0.184-0.057,0.332-0.038C24.729,26.195,24.899,26.279,24.889,26.205 M25.136,26.156
		l0.097-0.044c0,0-0.021,0.005-0.143,0.03c-0.121,0.024-0.127,0.037-0.127,0.037s0.01,0.009-0.018,0.034
		c-0.026,0.024-0.029,0.037-0.029,0.037s0.132-0.086,0.15-0.086C25.084,26.167,25.136,26.156,25.136,26.156 M25.233,26.144
		l-0.039,0.04c0,0,0.011,0.022,0.059,0.006c0.049-0.019,0.088-0.02,0.088-0.028c0-0.008,0.022-0.055,0.022-0.055
		s-0.039,0-0.07,0.015C25.259,26.132,25.233,26.144,25.233,26.144 M25.52,26.066c-0.055,0.005-0.08-0.006-0.08-0.006
		s-0.026,0.031-0.011,0.039c0.016,0.003,0.047-0.01,0.088,0.007c0.039,0.016,0.054,0.002,0.054,0.002s0.016-0.011,0.086-0.048
		c0.067-0.038,0.098-0.051,0.098-0.051s-0.045,0.011-0.055,0.017C25.693,26.031,25.572,26.061,25.52,26.066 M30.543,26.979
		c0.041-0.006,0.065-0.027,0.073-0.064c-0.023,0-0.049,0-0.074,0C30.543,26.934,30.543,26.956,30.543,26.979 M31.093,26.708
		c-0.07-0.008-0.095,0.023-0.109,0.066c0.037-0.002,0.072-0.002,0.11-0.002C31.094,26.753,31.093,26.733,31.093,26.708
		 M31.424,26.706c0.04-0.009,0.064-0.029,0.073-0.067c-0.024,0.001-0.05,0.001-0.073,0.001V26.706z M31.753,26.472
		c-0.096-0.012-0.123,0.048-0.11,0.132C31.74,26.613,31.764,26.558,31.753,26.472 M32.448,26.198c-0.023,0-0.048,0.002-0.073,0.002
		c0.026,0.067-0.04,0.053-0.036,0.101h0.073C32.388,26.232,32.452,26.247,32.448,26.198 M32.816,26.03
		c-0.017,0.041-0.056,0.061-0.035,0.132C32.839,26.174,32.898,26.041,32.816,26.03 M33.182,25.927
		c-0.012,0.067-0.098,0.067-0.11,0.133C33.153,26.073,33.271,25.961,33.182,25.927 M33.767,25.656
		c-0.045,0.016-0.066,0.051-0.147,0.034c0,0.044,0,0.09,0.001,0.131c0.052,0.005,0.036-0.057,0.111-0.032
		C33.712,25.719,33.751,25.697,33.767,25.656 M34.739,20.885c0,0.021,0,0.047,0.001,0.066c0.084-0.021,0.221-0.066,0.294-0.004
		c-0.003-0.047,0.061-0.033,0.034-0.1c-0.09,0.006-0.115-0.05-0.184-0.062C34.847,20.844,34.823,20.963,34.739,20.885 M35.483,15.46
		l0.566-1.437h0.013l0.55,1.437H35.483z M34.501,16.743h-0.083v0.103h1.148v-0.103h-0.176c-0.129,0-0.305-0.021-0.305-0.21
		c0-0.061,0.024-0.125,0.042-0.169l0.306-0.801h1.231l0.463,1.181h-0.509v0.103h1.889v-0.103h-0.312l-1.698-3.986h-0.095
		l-1.471,3.645C34.858,16.59,34.742,16.728,34.501,16.743 M4.229,12.935h0.514c0.684,0,0.811,0.278,0.811,1.001
		c0,0.669-0.304,0.999-1.058,0.999c-0.089,0-0.191-0.013-0.266-0.028V12.935z M3.239,12.935v3.796H2.724v0.102h2.131v-0.102H4.228
		v-1.716c0.19,0.018,0.418,0.021,0.685,0.021c0.958,0,1.705-0.449,1.705-1.135c0-0.698-0.519-1.067-1.63-1.067H2.724v0.1H3.239z
		 M18.666,9.54c-0.282-0.231-0.883-0.032-1.399-0.086c-0.009-0.159-0.277-0.08-0.441-0.097c-0.024,0.043,0.085,0.041,0.018,0.067
		c-0.104,0.011-0.129-0.049-0.204-0.065c-0.613-0.008-1.207-0.065-1.765-0.082c-0.104-0.004-0.211,0.042-0.331,0.036
		c-0.454-0.031-0.972-0.033-1.417-0.12c-0.073-0.015-0.046,0.058-0.128,0.033c-0.523-0.03-1.336,0.12-2.059,0.119
		C10.043,9.432,9.073,9.441,8.126,9.37c-1.03-0.077-2.054,0.021-3.033,0.093C4.774,9.519,4.38,9.513,4.028,9.539
		C3.77,9.625,3.26,9.547,2.889,9.583C2.52,9.618,2.238,9.715,1.805,9.691c-0.205,0.122-0.571,0.098-0.79,0.206
		C1.262,9.893,1.508,9.891,1.752,9.89c0.017,0.101,0.157,0.09,0.258,0.113c-0.106-0.007-0.111,0.077-0.126,0.15
		c-0.238,0.127-0.67,0.086-0.77,0.335c-0.141,0.001-0.186,0.087-0.348,0.07c0.009,0.092,0.249-0.027,0.258,0.063
		c-0.052,0.099-0.157,0.193-0.33,0.201c0.007,0.099-0.089,0.107-0.126,0.166C0.495,10.99,0.421,10.99,0.348,10.99
		c-0.025,0.032-0.027,0.083-0.072,0.099c-0.204-0.043-0.214,0.084-0.349,0.102c0,0.055,0.002,0.111,0.003,0.167
		c0.136,0.018,0.293,0.02,0.333,0.128c0.517,0.056,1.035,0.146,1.563,0.185c0.103,0.007,0.213-0.011,0.314-0.003
		c0.204,0.017,0.404,0.079,0.608,0.093c0.126,0.01,0.257-0.013,0.384-0.003c0.229,0.018,0.453,0.077,0.684,0.093
		c0.677,0.05,1.366,0.061,2.06,0.114c0.467,0.035,0.98,0.052,1.453-0.015c0.755,0.025,1.67,0.131,2.408,0.014
		c0.435-0.07,0.991,0.001,1.49-0.048c0.025-0.002,0.047,0.034,0.074,0.033c0.134-0.009,0.282-0.06,0.385-0.07
		c0.474-0.043,0.864,0.015,1.305-0.043c1.334-0.17,2.996-0.022,4.34-0.105c0.126-0.085,0.279-0.145,0.439-0.203
		c0.087-0.15,0.279-0.239,0.324-0.431c0.02-0.086-0.029-0.193,0.034-0.28c-0.071-0.032-0.025-0.166-0.04-0.248
		c0.08-0.048,0.17-0.089,0.146-0.232C18.548,10.221,18.693,9.956,18.666,9.54 M22.765,8.018c-0.007,0.037-0.032,0.06-0.072,0.067
		c0-0.022,0-0.044,0-0.066C22.716,8.019,22.742,8.018,22.765,8.018 M29.281,11.587c-0.07-0.341-0.132-0.689-0.342-0.903
		c-0.002-0.066-0.003-0.131-0.003-0.198c-0.036-0.078-0.132-0.099-0.112-0.23c-0.127-0.13-0.279-0.265-0.409-0.409
		c-0.019-0.019-0.021-0.065-0.038-0.083c-0.018-0.015-0.058-0.015-0.074-0.032c-0.071-0.072-0.118-0.182-0.188-0.246
		c-0.039-0.037-0.107-0.062-0.148-0.098c-0.086-0.075-0.102-0.114-0.223-0.179c-0.026-0.014-0.09-0.035-0.109-0.048
		c-0.045-0.031-0.073-0.129-0.15-0.164c-0.065-0.029-0.143-0.032-0.221-0.03c0.024-0.067-0.042-0.054-0.04-0.1
		c-0.182-0.032-0.329-0.096-0.442-0.193c-0.193-0.025-0.349-0.082-0.479-0.162c-0.414,0.011-0.602-0.184-0.74-0.423
		c-0.033-0.003-0.092,0.017-0.075-0.031c-0.171,0.012-0.164,0.033-0.276-0.031c-0.261,0.009-0.745,0.026-1.049-0.023
		c-0.004-0.208,0.018-0.439-0.081-0.56c-0.05,0-0.097,0.001-0.146,0.001c-0.034,0.167-0.057,0.439-0.03,0.562
		c-0.345,0.104-0.678-0.07-1.065,0.042c-0.004-0.048,0.061-0.033,0.035-0.099c-0.122,0.023-0.249,0.042-0.292,0.135
		c-0.072,0.026-0.007-0.071-0.056-0.067c-0.009,0.086-0.128,0.069-0.183,0.102c-0.057,0.034-0.07,0.103-0.146,0.098
		c-0.009,0.068-0.049,0.11-0.109,0.133c-0.043,0.086-0.111,0.152-0.162,0.234c-0.335-0.006-0.515,0.125-0.827,0.138
		c-0.06,0.055-0.121,0.112-0.256,0.101c-0.098,0.098-0.25,0.151-0.403,0.204c-0.037,0.093-0.168,0.101-0.201,0.197
		c-0.083-0.022-0.055,0.05-0.128,0.035c-0.051,0.075-0.126,0.13-0.219,0.168c-0.032,0.092-0.137,0.117-0.182,0.2
		c-0.066-0.012-0.062,0.068-0.09,0.1c-0.022,0.024-0.131,0.008-0.072,0.1c-0.189-0.003-0.161,0.186-0.329,0.2
		c0.023,0.104-0.05,0.12-0.09,0.167c-0.051,0.038-0.018,0.149-0.128,0.132c-0.006,0.148-0.092,0.226-0.181,0.298
		c-0.019,0.165-0.026,0.335-0.141,0.415c-0.015,0.167-0.021,0.34-0.07,0.478c0.023,0.067,0.092,0.094,0.076,0.198
		c0.124,0.098,0.352,0.099,0.518,0.159c0.472-0.019,1.045-0.032,1.58-0.08c0.208-0.018,0.421-0.078,0.625-0.005
		c0.346-0.053,0.669,0.025,1.104-0.043c0.067,0.035,0.167,0.073,0.239,0.064c0.099-0.014,0.132-0.118,0.239-0.102
		c0.044,0.097-0.087,0.044-0.11,0.084c0.115,0.072,0.176-0.041,0.257-0.052c0.015,0.051-0.064,0.02-0.036,0.082
		c0.232,0.071,0.523-0.095,0.735,0.011c0.069-0.051-0.062-0.138,0.072-0.167c0.059,0.062-0.002,0.046,0.001,0.132
		c0.125-0.004,0.179-0.067,0.24,0.031c0.029-0.066,0.139-0.062,0.201-0.101c0.004,0.048-0.062,0.033-0.036,0.1
		c0.105,0.021,0.073-0.08,0.166-0.068c0.13,0.036,0.334,0.049,0.459-0.004c0.091-0.004,0.115,0.049,0.185,0.063
		c0.078,0.026-0.004-0.092,0.074-0.066c0.607,0.104,1.177,0.043,1.782-0.048c0.087-0.014,0.079,0.062,0.112,0.097
		c0.201,0.012,0.261-0.054,0.368,0.03c0.068-0.013,0.079-0.072,0.129-0.101c0.081-0.023,0.001,0.099,0.055,0.099
		c0.442-0.024,0.838-0.028,1.25-0.011c0.09-0.015,0.062-0.115,0.11-0.001c0.125,0.028-0.021-0.183,0.127-0.132
		c0.072,0.063,0.012,0.088-0.035,0.131c0.213,0.03,0.182-0.156,0.366-0.152C29.439,11.611,29.329,11.628,29.281,11.587
		 M29.477,9.401c-0.043-0.008-0.067-0.028-0.074-0.065c0.024,0,0.048-0.001,0.074-0.001V9.401z M47.847,11.001
		c-0.204-0.01-0.352-0.069-0.479-0.144c0-0.056-0.001-0.11-0.002-0.166c-0.236,0.02-0.623,0.041-0.772-0.11
		c-0.003-0.048-0.004-0.097-0.004-0.148c-0.238-0.016-0.371-0.126-0.48-0.259c-0.732-0.184-1.38,0.277-2.038,0.149
		c-0.069-0.012-0.132-0.101-0.241-0.095c0.02-0.102-0.106-0.068-0.076-0.18c0.03-0.028,0.061-0.056,0.091-0.084
		c0.801,0.003,1.412-0.164,2.187-0.186c0.001-0.056-0.077-0.04-0.075-0.097c-0.841-0.023-1.486,0.235-2.317,0.119
		c-0.085-0.098-0.221-0.153-0.296-0.26c-0.159,0.001-0.318,0.002-0.479,0.002c-0.03-0.023-0.02-0.092-0.076-0.097
		c-0.295-0.013-0.68,0.057-0.845-0.075c-0.052-0.128,0.087-0.087,0.073-0.183c-0.172-0.021-0.344-0.055-0.498,0.038
		c-0.058-0.073-0.294-0.094-0.387-0.028c-0.098-0.088-0.226,0.002-0.332,0.003c-0.089,0-0.162-0.039-0.257-0.031
		c-0.699,0.056-1.515,0.037-2.171,0.019c-0.04-0.002-0.064,0.034-0.11,0.035c-0.116,0.001-0.257-0.076-0.35,0.003
		c-1.195-0.033-2.727,0.026-4.008-0.03c-0.166,0.051-0.431,0.027-0.699,0.006c-1.01-0.074-2.196-0.062-3.276-0.035
		c-0.162,0.092-0.387,0.127-0.642,0.137c-0.097,0.098-0.228,0.168-0.253,0.332c0.183,0.278,0.443,0.482,0.452,0.92
		c0.091,0.077,0.263,0.083,0.334,0.176c-0.019,0.057-0.195-0.028-0.184,0.053c0.049,0.032,0.135,0.03,0.185,0.064
		c-0.012,0.149,0.186,0.196,0.095,0.361c-0.057-0.008-0.03-0.093-0.092-0.097c0,0.098,0,0.199,0.003,0.296
		c0.216,0.002,0.323,0.104,0.298,0.328c0.367,0.121,0.772,0.202,1.287,0.154c0.407-0.04,0.807-0.012,1.233,0.02
		c0.718,0.054,1.451-0.042,2.207,0.015c1.035,0.076,2.105-0.086,3.107-0.03c0.957-0.083,2.071-0.027,3.088-0.059
		c0.069-0.058,0.242-0.025,0.368-0.036c0.098-0.065,0.32-0.021,0.478-0.038c1.058-0.087,2.292-0.022,3.252-0.194
		c0.018,0.028,0.051,0.042,0.11,0.032c0.304-0.055,0.601-0.116,0.974-0.107c0.38-0.074,0.759-0.149,1.156-0.208
		c0.094-0.056,0.174-0.12,0.348-0.102C47.771,11.118,47.838,11.086,47.847,11.001"/>
	<path d="M100.626,23.183h1.36v-0.092h-0.433v-1.607c0.168-0.404,0.424-0.672,0.763-0.672c0.229,0,0.371,0.108,0.371,0.392v1.886
		h-0.45v0.092h1.358v-0.09h-0.432v-1.52c0.114-0.399,0.405-0.76,0.735-0.76c0.215,0,0.396,0.093,0.396,0.5v1.778h-0.449v0.091h1.376
		v-0.09h-0.449v-1.676c0-0.357-0.192-0.687-0.772-0.692c-0.427-0.006-0.713,0.283-0.826,0.608h-0.012
		c-0.055-0.507-0.417-0.608-0.778-0.608c-0.429,0-0.669,0.277-0.822,0.558h-0.013v-0.558c-0.1,0.125-0.204,0.125-0.478,0.125h-0.45
		v0.092h0.45v2.153h-0.45v0.093h0.003v-0.003H100.626z M99.49,21.937v0.746c0,0.115-0.188,0.433-0.614,0.433
		c-0.364,0-0.417-0.241-0.417-0.559c0-0.611,0.519-0.62,0.935-0.62H99.49z M99.967,21.385c0-0.438-0.511-0.661-0.945-0.661
		c-0.57,0-0.877,0.319-0.877,0.61c0,0.194,0.093,0.318,0.251,0.318c0.147,0,0.261-0.101,0.261-0.24c0-0.257-0.188-0.194-0.188-0.331
		c0-0.204,0.39-0.268,0.553-0.268c0.218,0,0.467,0.062,0.467,0.331v0.7H99.38c-0.587,0-1.433,0.159-1.433,0.797
		c0,0.388,0.266,0.609,0.709,0.609c0.375,0,0.633-0.094,0.829-0.353h0.011c0.039,0.2,0.233,0.353,0.5,0.353
		c0.245,0,0.393-0.119,0.502-0.306l-0.062-0.048c-0.086,0.121-0.166,0.23-0.297,0.23c-0.153,0-0.168-0.143-0.168-0.252v-1.491
		H99.967z M96.78,23.183h0.872v-0.092h-0.394v-4.094c-0.111,0.13-0.293,0.143-0.476,0.143h-0.457v0.091h0.457v2.071h-0.015
		c-0.101-0.267-0.375-0.579-0.784-0.579c-0.685,0-1.132,0.707-1.132,1.265c0,0.666,0.461,1.263,1.172,1.263
		c0.392,0,0.66-0.29,0.744-0.483h0.015v0.416H96.78z M96.78,22.364c0.008,0.472-0.368,0.798-0.758,0.798
		c-0.559,0-0.628-0.323-0.628-1.172c0-0.78,0.089-1.173,0.588-1.173c0.473,0,0.798,0.467,0.798,0.884V22.364z M92.618,23.215h0.087
		c0.011-0.118-0.005-0.207,0.067-0.207c0.115,0,0.249,0.242,0.7,0.242c0.438,0,0.793-0.349,0.793-0.876
		c0-0.391-0.188-0.645-0.65-0.671l-0.194-0.014c-0.376-0.021-0.598-0.125-0.598-0.422c0-0.296,0.234-0.456,0.524-0.456
		c0.449,0,0.62,0.296,0.66,0.619h0.073l-0.022-0.677h-0.08V20.8c0,0.079-0.005,0.12-0.039,0.12c-0.056,0-0.268-0.2-0.576-0.2
		c-0.442,0-0.713,0.323-0.713,0.732c0,0.592,0.358,0.645,0.729,0.685c0.304,0.035,0.645,0.042,0.645,0.492
		c0,0.321-0.239,0.529-0.551,0.529c-0.601,0-0.749-0.512-0.794-0.801h-0.073L92.618,23.215z M90.985,22.744
		c0,0.376,0.263,0.506,0.66,0.506c0.422,0,0.586-0.296,0.626-0.431l-0.086-0.019c-0.034,0.097-0.16,0.358-0.444,0.358
		c-0.182,0-0.278-0.074-0.278-0.309V20.94h0.786v-0.092h-0.786V20.05h-0.068c-0.094,0.558-0.312,0.808-0.904,0.798v0.092h0.495
		V22.744z M89.671,22.208c0,0.496-0.022,0.95-0.66,0.95s-0.66-0.456-0.66-0.95v-0.443c0-0.497,0.022-0.95,0.66-0.95
		s0.66,0.455,0.66,0.95V22.208z M87.805,21.988c0,0.652,0.469,1.263,1.205,1.263c0.733,0,1.206-0.61,1.206-1.263
		c0-0.655-0.473-1.265-1.206-1.265C88.274,20.723,87.805,21.332,87.805,21.988 M85.35,19.267h0.349c0.678,0,1.021,0.324,1.021,1.07
		c0,0.769-0.551,0.968-0.928,0.968c-0.188,0-0.352-0.062-0.438-0.12v-1.918H85.35z M84.77,23.093h-0.563v0.092h1.725v-0.092h-0.58
		v-1.794c0.115,0.055,0.344,0.095,0.537,0.095c0.688,0,1.446-0.308,1.446-1.109c0-0.819-0.655-1.11-1.504-1.11h-1.619v0.09h0.563
		v3.828H84.77z M81.185,22.744c0,0.376,0.262,0.506,0.659,0.506c0.423,0,0.587-0.296,0.627-0.431l-0.085-0.019
		c-0.034,0.097-0.162,0.358-0.445,0.358c-0.181,0-0.278-0.074-0.278-0.309V20.94h0.784v-0.092h-0.784V20.05h-0.069
		c-0.094,0.558-0.312,0.808-0.903,0.798v0.092h0.494L81.185,22.744L81.185,22.744z M79.704,23.183h0.872v-0.092h-0.393v-4.094
		c-0.113,0.13-0.296,0.143-0.478,0.143H79.25v0.091h0.456v2.071h-0.012c-0.101-0.267-0.376-0.579-0.786-0.579
		c-0.684,0-1.133,0.707-1.133,1.265c0,0.666,0.463,1.263,1.172,1.263c0.393,0,0.66-0.29,0.747-0.483h0.011L79.704,23.183
		L79.704,23.183z M79.704,22.364c0.007,0.472-0.371,0.798-0.759,0.798c-0.559,0-0.627-0.323-0.627-1.172
		c0-0.78,0.087-1.173,0.587-1.173c0.474,0,0.798,0.467,0.798,0.884L79.704,22.364L79.704,22.364z M76.401,21.937v0.746
		c0,0.115-0.187,0.433-0.611,0.433c-0.364,0-0.415-0.241-0.415-0.559c0-0.611,0.519-0.62,0.934-0.62H76.401z M76.88,21.385
		c0-0.438-0.509-0.661-0.944-0.661c-0.571,0-0.875,0.319-0.875,0.61c0,0.194,0.092,0.318,0.25,0.318c0.146,0,0.261-0.101,0.261-0.24
		c0-0.257-0.188-0.194-0.188-0.331c0-0.204,0.389-0.268,0.552-0.268c0.217,0,0.465,0.062,0.465,0.331v0.7h-0.107
		c-0.585,0-1.433,0.159-1.433,0.797c0,0.388,0.269,0.609,0.711,0.609c0.377,0,0.633-0.094,0.827-0.353h0.014
		c0.04,0.2,0.233,0.353,0.499,0.353c0.243,0,0.392-0.119,0.501-0.306l-0.063-0.048c-0.085,0.121-0.166,0.23-0.296,0.23
		c-0.153,0-0.171-0.143-0.171-0.252L76.88,21.385L76.88,21.385z M73.28,22.744c0,0.376,0.261,0.506,0.659,0.506
		c0.42,0,0.586-0.296,0.625-0.431l-0.087-0.019c-0.031,0.097-0.16,0.358-0.442,0.358c-0.183,0-0.277-0.074-0.277-0.309V20.94h0.784
		v-0.092h-0.784V20.05h-0.069c-0.095,0.558-0.312,0.808-0.904,0.798v0.092h0.496V22.744z M69.868,23.215h0.094
		c0-0.095,0.006-0.238,0.143-0.238c0.207,0,0.511,0.295,1.081,0.295c0.826,0,1.235-0.559,1.235-1.303c0-0.74-0.341-1.01-1.173-1.157
		c-0.945-0.169-1.135-0.284-1.135-0.797c0-0.523,0.341-0.843,0.825-0.843c0.763,0,1.116,0.586,1.168,1.236h0.092v-1.196h-0.092
		c-0.019,0.074-0.033,0.215-0.166,0.215c-0.196,0-0.417-0.346-1.003-0.346c-0.638,0-1.065,0.472-1.065,1.12
		c0,0.956,0.425,1.104,1.318,1.246c0.654,0.103,0.961,0.277,0.961,0.871c0,0.514-0.391,0.86-0.938,0.86
		c-0.686,0-1.247-0.449-1.247-1.404h-0.094v1.438h-0.004V23.215z M66.319,23.093H65.84v0.092h1.471v-0.092h-0.518v-1.168
		c0-0.741,0.425-1.111,0.654-1.111c0.029,0,0.058,0,0.081,0.019c-0.061,0.034-0.126,0.12-0.126,0.244c0,0.153,0.063,0.25,0.25,0.25
		c0.169,0,0.262-0.12,0.262-0.269c0-0.2-0.167-0.335-0.376-0.335c-0.466,0-0.665,0.416-0.735,0.671h-0.012v-0.671
		c-0.113,0.114-0.294,0.125-0.477,0.125h-0.478v0.092h0.478v2.153H66.319z M64.992,21.636c0,0.021-0.015,0.04-0.041,0.04h-0.95
		v-0.161c0-0.364,0.118-0.7,0.518-0.7c0.376,0,0.474,0.336,0.474,0.7V21.636z M64.001,21.765h1.485c0.034,0,0.053-0.018,0.053-0.053
		c0-0.24-0.349-0.989-1.021-0.989c-0.62,0-1.063,0.711-1.063,1.265c0,0.752,0.465,1.263,1.132,1.263
		c0.523,0,0.909-0.353,1.001-0.876h-0.092c-0.08,0.467-0.431,0.787-0.909,0.787c-0.538,0-0.593-0.457-0.587-0.862L64.001,21.765
		L64.001,21.765z M62.312,23.183h0.87v-0.092h-0.393v-4.094c-0.113,0.13-0.296,0.143-0.476,0.143h-0.458v0.091h0.458v2.071H62.3
		c-0.102-0.267-0.375-0.579-0.785-0.579c-0.685,0-1.132,0.707-1.132,1.265c0,0.666,0.46,1.263,1.169,1.263
		c0.393,0,0.661-0.29,0.746-0.483h0.014V23.183L62.312,23.183z M62.312,22.364c0.005,0.472-0.371,0.798-0.76,0.798
		c-0.559,0-0.627-0.323-0.627-1.172c0-0.78,0.088-1.173,0.587-1.173c0.471,0,0.798,0.467,0.798,0.884L62.312,22.364L62.312,22.364z"
		/>
	<path d="M109.494,15.253c0-0.301,0-0.762,0.467-0.762s0.467,0.309,0.467,0.762c0,0.405,0,0.763-0.467,0.763
		S109.494,15.618,109.494,15.253 M110.52,17.04c0.297,0,0.537,0.086,0.537,0.383c0,0.57-0.569,0.94-1.148,0.94
		c-0.444,0-0.855-0.188-0.855-0.666c0-0.383,0.176-0.582,0.519-0.656L110.52,17.04L110.52,17.04z M109.229,16.595
		c-0.134,0-0.25-0.09-0.25-0.233c0-0.268,0.25-0.353,0.559-0.358c0.062,0.027,0.182,0.102,0.427,0.102
		c0.443,0,0.945-0.365,0.945-0.836c0-0.217-0.097-0.433-0.222-0.57c0.074-0.108,0.209-0.205,0.324-0.21
		c-0.035,0.035-0.062,0.068-0.062,0.188c0,0.086,0.075,0.177,0.183,0.177c0.118,0,0.227-0.063,0.227-0.2
		c0-0.166-0.126-0.255-0.289-0.255c-0.193,0-0.336,0.129-0.438,0.243c-0.16-0.165-0.397-0.243-0.666-0.243
		c-0.506,0-0.943,0.381-0.943,0.888c0,0.307,0.167,0.483,0.426,0.648v0.012c-0.364,0.005-0.558,0.164-0.558,0.562
		c0,0.313,0.146,0.528,0.462,0.528v0.013c-0.244,0.108-0.571,0.347-0.571,0.666c0,0.546,0.576,0.734,1.1,0.734
		c0.687,0,1.315-0.426,1.315-1.201c0-0.524-0.313-0.655-0.632-0.655H109.229z M105.968,16.768h-0.45v0.091h1.359v-0.091h-0.431
		v-1.606c0.101-0.194,0.349-0.671,0.826-0.671c0.181,0,0.337,0.102,0.337,0.416v1.862h-0.452v0.091h1.378v-0.091h-0.45v-1.725
		c0-0.336-0.171-0.644-0.78-0.644c-0.415,0-0.697,0.307-0.847,0.579h-0.012v-0.579c-0.103,0.125-0.204,0.125-0.479,0.125h-0.45
		v0.091h0.45V16.768L105.968,16.768z M102.83,16.295c0,0.33,0.203,0.631,0.773,0.631c0.507,0,0.746-0.454,0.798-0.585h0.012v0.518
		h0.935v-0.091h-0.458V14.4c-0.113,0.114-0.296,0.125-0.477,0.125h-0.45v0.091h0.45v1.348c0,0.423-0.353,0.873-0.751,0.873
		c-0.218,0-0.354-0.155-0.354-0.399v-2.037c-0.113,0.114-0.296,0.125-0.477,0.125h-0.457v0.091h0.457v1.679L102.83,16.295
		L102.83,16.295z M100.615,16.768h-0.477v0.091h1.474v-0.091h-0.519V15.6c0-0.74,0.423-1.11,0.654-1.11c0.027,0,0.056,0,0.08,0.017
		c-0.062,0.035-0.127,0.12-0.127,0.244c0,0.154,0.062,0.251,0.25,0.251c0.171,0,0.263-0.121,0.263-0.269
		c0-0.2-0.167-0.334-0.376-0.334c-0.467,0-0.666,0.415-0.735,0.671h-0.012v-0.671c-0.112,0.114-0.295,0.125-0.478,0.125h-0.478
		v0.091h0.478L100.615,16.768L100.615,16.768z M99.29,15.31c0,0.022-0.012,0.04-0.041,0.04h-0.948v-0.159
		c0-0.365,0.119-0.701,0.518-0.701c0.376,0,0.472,0.336,0.472,0.701V15.31z M98.3,15.441h1.485c0.035,0,0.051-0.018,0.051-0.051
		c0-0.24-0.347-0.99-1.019-0.99c-0.62,0-1.063,0.711-1.063,1.263c0,0.753,0.464,1.263,1.131,1.263c0.524,0,0.909-0.352,1.002-0.875
		h-0.093c-0.079,0.467-0.432,0.787-0.909,0.787c-0.537,0-0.593-0.457-0.584-0.861L98.3,15.441L98.3,15.441z M96.61,16.858h0.871
		v-0.091h-0.393v-4.093c-0.113,0.13-0.295,0.143-0.477,0.143h-0.457v0.09h0.457v2.071H96.6c-0.103-0.267-0.376-0.579-0.786-0.579
		c-0.685,0-1.132,0.706-1.132,1.264c0,0.666,0.461,1.263,1.172,1.263c0.393,0,0.66-0.289,0.746-0.483h0.012L96.61,16.858
		L96.61,16.858z M96.61,16.039c0.006,0.472-0.37,0.798-0.758,0.798c-0.558,0-0.627-0.325-0.627-1.173
		c0-0.781,0.086-1.173,0.589-1.173c0.47,0,0.796,0.467,0.796,0.882V16.039z M92.766,16.768h-0.477v0.091h1.473v-0.091h-0.518V15.6
		c0-0.74,0.423-1.11,0.654-1.11c0.027,0,0.057,0,0.081,0.017c-0.064,0.035-0.127,0.12-0.127,0.244c0,0.154,0.062,0.251,0.251,0.251
		c0.167,0,0.261-0.121,0.261-0.269c0-0.2-0.167-0.334-0.377-0.334c-0.465,0-0.665,0.415-0.733,0.671h-0.013v-0.671
		c-0.113,0.114-0.296,0.125-0.477,0.125h-0.478v0.091h0.478L92.766,16.768L92.766,16.768z M90.258,13.091
		c-0.143,0-0.257,0.12-0.257,0.256s0.114,0.255,0.257,0.255c0.135,0,0.254-0.119,0.254-0.255S90.393,13.091,90.258,13.091
		 M91.326,13.091c-0.141,0-0.256,0.12-0.256,0.256s0.115,0.255,0.256,0.255c0.136,0,0.258-0.119,0.258-0.255
		S91.463,13.091,91.326,13.091 M91.451,15.885c0,0.496-0.02,0.952-0.658,0.952c-0.64,0-0.661-0.457-0.661-0.952v-0.444
		c0-0.495,0.021-0.951,0.661-0.951c0.639,0,0.658,0.457,0.658,0.951V15.885z M89.585,15.664c0,0.654,0.47,1.262,1.206,1.262
		c0.732,0,1.205-0.608,1.205-1.262c0-0.655-0.473-1.264-1.205-1.264C90.057,14.4,89.585,15.008,89.585,15.664 M88.112,16.768H87.6
		v0.091h1.508v-0.091h-0.519v-2.152h0.648v-0.091h-0.648v-0.974c0-0.632,0.166-0.786,0.438-0.786c0.154,0,0.283,0.069,0.283,0.154
		c0,0.12-0.308,0.051-0.308,0.313c0,0.108,0.067,0.227,0.241,0.227s0.272-0.13,0.272-0.267c0-0.262-0.159-0.518-0.51-0.518
		c-0.571,0-0.896,0.745-0.896,1.457v0.393H87.6v0.091h0.512V16.768z M85.55,16.892h0.085c0.013-0.119-0.005-0.209,0.07-0.209
		c0.113,0,0.249,0.244,0.698,0.244c0.438,0,0.791-0.346,0.791-0.875c0-0.392-0.187-0.644-0.648-0.671l-0.193-0.012
		c-0.378-0.023-0.601-0.125-0.601-0.421c0-0.296,0.235-0.456,0.525-0.456c0.45,0,0.619,0.296,0.658,0.62h0.074l-0.021-0.676H86.91
		v0.045c0,0.08-0.007,0.12-0.04,0.12c-0.057,0-0.269-0.199-0.575-0.199c-0.444,0-0.711,0.324-0.711,0.734
		c0,0.592,0.356,0.643,0.727,0.683c0.304,0.035,0.646,0.041,0.646,0.49c0,0.325-0.24,0.531-0.553,0.531
		c-0.598,0-0.746-0.513-0.792-0.804h-0.073L85.55,16.892z M83.916,16.42c0,0.375,0.262,0.505,0.659,0.505
		c0.421,0,0.586-0.295,0.628-0.432l-0.087-0.017c-0.035,0.096-0.162,0.358-0.446,0.358c-0.181,0-0.276-0.074-0.276-0.308v-1.912
		h0.784v-0.091h-0.784v-0.797h-0.069c-0.094,0.558-0.313,0.808-0.903,0.797v0.091h0.495V16.42L83.916,16.42z M82.108,16.768h-0.511
		v0.091h1.506v-0.091h-0.52v-2.152h0.65v-0.091h-0.65v-0.974c0-0.632,0.169-0.786,0.439-0.786c0.153,0,0.283,0.069,0.283,0.154
		c0,0.12-0.306,0.051-0.306,0.313c0,0.108,0.065,0.227,0.239,0.227s0.271-0.13,0.271-0.267c0-0.262-0.158-0.518-0.509-0.518
		c-0.571,0-0.895,0.745-0.895,1.457v0.393h-0.511v0.091h0.511V16.768z M80.406,15.613v0.746c0,0.113-0.188,0.432-0.614,0.432
		c-0.364,0-0.415-0.24-0.415-0.558c0-0.61,0.519-0.62,0.934-0.62H80.406z M80.884,15.06c0-0.439-0.512-0.66-0.945-0.66
		c-0.569,0-0.874,0.317-0.874,0.608c0,0.194,0.092,0.319,0.248,0.319c0.148,0,0.262-0.103,0.262-0.24
		c0-0.257-0.187-0.194-0.187-0.331c0-0.205,0.388-0.268,0.551-0.268c0.217,0,0.466,0.062,0.466,0.33v0.701h-0.109
		c-0.584,0-1.432,0.159-1.432,0.797c0,0.387,0.268,0.608,0.711,0.608c0.377,0,0.633-0.096,0.827-0.352h0.013
		c0.041,0.199,0.234,0.352,0.5,0.352c0.245,0,0.393-0.118,0.502-0.306l-0.063-0.046c-0.085,0.12-0.166,0.228-0.296,0.228
		c-0.152,0-0.169-0.142-0.169-0.251L80.884,15.06L80.884,15.06z M75.982,16.768h-0.45v0.091h1.36v-0.091H76.46v-1.606
		c0.102-0.194,0.348-0.671,0.825-0.671c0.184,0,0.338,0.102,0.338,0.416v1.862h-0.45v0.091h1.377v-0.091h-0.451v-1.725
		c0-0.336-0.169-0.644-0.778-0.644c-0.416,0-0.701,0.307-0.849,0.579H76.46v-2.304c-0.114,0.13-0.296,0.143-0.479,0.143h-0.45v0.09
		h0.45V16.768z M75.22,16.056c-0.041,0.348-0.29,0.781-0.867,0.781c-0.639,0-0.661-0.457-0.661-0.952V15.39
		c0-0.542,0.131-0.9,0.686-0.9c0.166,0,0.427,0.052,0.427,0.175c0,0.086-0.143,0.075-0.143,0.302c0,0.121,0.095,0.245,0.274,0.245
		c0.143,0,0.273-0.114,0.273-0.284c0-0.353-0.422-0.529-0.819-0.529c-0.673,0-1.243,0.614-1.243,1.359
		c0,0.645,0.473,1.167,1.206,1.167c0.563,0,0.939-0.437,0.955-0.871L75.22,16.056L75.22,16.056z M71.007,16.892h0.086
		c0.013-0.119-0.005-0.209,0.067-0.209c0.115,0,0.251,0.244,0.7,0.244c0.438,0,0.792-0.346,0.792-0.875
		c0-0.392-0.188-0.644-0.648-0.671l-0.194-0.012c-0.378-0.023-0.599-0.125-0.599-0.421c0-0.296,0.235-0.456,0.525-0.456
		c0.45,0,0.619,0.296,0.659,0.62h0.072l-0.021-0.676h-0.081v0.045c0,0.08-0.007,0.12-0.041,0.12c-0.055,0-0.266-0.199-0.575-0.199
		c-0.443,0-0.71,0.324-0.71,0.734c0,0.592,0.357,0.643,0.728,0.683c0.301,0.035,0.644,0.041,0.644,0.49
		c0,0.325-0.239,0.531-0.553,0.531c-0.598,0-0.745-0.513-0.791-0.804h-0.072L71.007,16.892z M69.374,16.42
		c0,0.375,0.261,0.505,0.659,0.505c0.423,0,0.584-0.295,0.625-0.432l-0.086-0.017c-0.035,0.096-0.16,0.358-0.444,0.358
		c-0.183,0-0.277-0.074-0.277-0.308v-1.912h0.786v-0.091h-0.786v-0.797h-0.068c-0.095,0.558-0.315,0.808-0.904,0.797v0.091h0.496
		V16.42L69.374,16.42z M67.16,16.768h-0.478v0.091h1.475v-0.091h-0.521V15.6c0-0.74,0.424-1.11,0.655-1.11
		c0.026,0,0.056,0,0.08,0.017c-0.062,0.035-0.126,0.12-0.126,0.244c0,0.154,0.062,0.251,0.249,0.251c0.17,0,0.261-0.121,0.261-0.269
		c0-0.2-0.164-0.334-0.375-0.334c-0.465,0-0.666,0.415-0.734,0.671h-0.012v-0.671c-0.114,0.114-0.296,0.125-0.477,0.125H66.68v0.091
		h0.479L67.16,16.768L67.16,16.768z M65.527,13.375c0,0.159,0.13,0.289,0.29,0.289c0.158,0,0.29-0.13,0.29-0.289
		c0-0.16-0.131-0.291-0.29-0.291C65.656,13.084,65.527,13.216,65.527,13.375 M65.577,16.768h-0.455v0.091h1.389v-0.091h-0.457V14.4
		c-0.115,0.114-0.295,0.125-0.477,0.125h-0.455v0.091h0.455V16.768L65.577,16.768z M62.623,12.942h0.473
		c0.203,0,0.229,0.075,0.229,0.142c0,0.053-0.014,0.126-0.055,0.234l-0.26,0.734h-0.012L62.623,12.942z M61.985,16.995h0.075
		l0.699-1.947h0.012l0.645,1.947h0.072l1.318-3.671c0.092-0.257,0.199-0.382,0.495-0.382h0.054v-0.09H64.34v0.09h0.166
		c0.193,0,0.249,0.075,0.249,0.16c0,0.046-0.013,0.092-0.066,0.256l-0.976,2.739H63.7l-0.631-1.913l0.335-0.928
		c0.086-0.261,0.222-0.313,0.449-0.313h0.155v-0.09h-2.318v0.09h0.341l0.679,1.958l-0.426,1.196h-0.01l-1.084-3.154h0.302v-0.09
		h-1.32v0.09h0.404L61.985,16.995z"/>
	<rect x="53.696" y="9.223" width="0.528" height="21.665"/>
</g>
</svg>
