<?xml version="1.0" encoding="utf-8"?>
<!-- Generator: Adobe Illustrator 16.0.0, SVG Export Plug-In . SVG Version: 6.00 Build 0)  -->
<!DOCTYPE svg PUBLIC "-//W3C//DTD SVG 1.1//EN" "http://www.w3.org/Graphics/SVG/1.1/DTD/svg11.dtd">
<svg version="1.1" id="Ebene_1" xmlns="http://www.w3.org/2000/svg" xmlns:xlink="http://www.w3.org/1999/xlink" x="0px" y="0px"
	 width="84.781px" height="40px" viewBox="35.11 0 84.781 40" enable-background="new 35.11 0 84.781 40" xml:space="preserve">
<g>
	<path d="M85.788,13.059h0.723c0.623,0,1.757,0,1.757,1.411c0,0.877-0.457,1.389-1.545,1.389h-0.935V13.059L85.788,13.059z
		 M84.922,20.003h0.866v-3.422h0.911c1.41,0,2.435-0.578,2.435-2.122c0-2.1-1.834-2.123-2.435-2.123h-1.777V20.003z"/>
	<path d="M90.287,17.359c0-1.323,0.434-2.134,1.288-2.134c0.866,0,1.312,0.811,1.312,2.134c0,1.332-0.443,2.133-1.312,2.133
		C90.721,19.493,90.287,18.691,90.287,17.359 M91.575,20.125c1.567,0,2.179-1.211,2.179-2.756s-0.611-2.778-2.179-2.778
		c-1.556,0-2.154,1.233-2.154,2.778S90.021,20.125,91.575,20.125"/>
	<path d="M97.643,19.393c-0.168,0.055-0.269,0.1-0.513,0.1c-0.776,0-0.866-0.545-0.866-0.889v-3.257h1.422v-0.633h-1.422v-1.71
		l-0.756,0.477v1.233h-0.865v0.633h0.865v3.412c0,0.945,0.4,1.367,1.469,1.367c0.222,0,0.442-0.022,0.666-0.055V19.393z"/>
	<path d="M100.094,16.748c-0.422-0.222-0.955-0.4-0.955-0.834c0-0.378,0.422-0.689,1.066-0.689c0.533,0,1.056,0.179,1.232,0.245
		v-0.7c-0.244-0.056-0.68-0.178-1.244-0.178c-1.178,0-1.812,0.544-1.812,1.4c0,0.867,0.711,1.156,1.201,1.434l0.479,0.255
		c0.312,0.178,0.955,0.411,0.955,0.956c0,0.611-0.556,0.856-1.289,0.856c-0.601,0-1.23-0.234-1.365-0.278v0.688
		c0.211,0.067,0.756,0.223,1.443,0.223c1.232,0,1.967-0.545,1.967-1.6c0-0.911-0.676-1.223-1.231-1.511L100.094,16.748z"/>
	<path d="M103.426,17.548c0-1.123,0.221-2.323,1.122-2.323c0.8,0,1.222,0.978,1.222,2.157c0,0.91-0.377,2.111-1.244,2.111
		C103.525,19.493,103.426,18.226,103.426,17.548 M105.77,20.003h0.756v-7.667h-0.756v3.245h-0.021
		c-0.133-0.378-0.466-0.989-1.388-0.989c-1.303,0-1.803,1.389-1.803,2.811c0,1.678,0.532,2.723,1.812,2.723
		c0.845,0,1.269-0.645,1.378-1.022h0.021V20.003L105.77,20.003z"/>
	<path d="M110.914,17.603c0,0.634-0.068,0.756-0.201,1.067c-0.222,0.511-0.756,0.823-1.232,0.823c-0.391,0-0.744-0.267-0.744-0.767
		c0-0.9,1.179-1.123,1.732-1.123H110.914z M110.936,20.003h0.733v-3.711c0-0.667-0.133-1.7-1.778-1.7
		c-1.441,0-1.889,0.812-1.897,1.478h0.844c0.058-0.411,0.224-0.845,1.078-0.845c0.399,0,0.844,0.145,0.967,0.734
		c0.034,0.178,0.034,0.755,0.034,1.011c-0.18,0.033-0.334,0.033-0.523,0.033c-0.922,0-2.521,0.411-2.521,1.645
		c0,0.945,0.556,1.478,1.423,1.478c0.966,0,1.489-0.567,1.623-0.822h0.021v0.699H110.936z"/>
	<path d="M113.424,20.003h0.756v-2.177c0-0.956,0.443-2.479,1.323-2.479c0.774,0,0.774,0.812,0.774,1.723v2.933h0.758v-2.177
		c0-0.945,0.434-2.479,1.322-2.479c0.776,0,0.776,0.801,0.776,1.723v2.933h0.757v-3.777c0-0.879-0.455-1.634-1.355-1.634
		c-0.943,0-1.368,0.812-1.5,1.211h-0.021c-0.057-0.7-0.443-1.211-1.332-1.211c-1.059,0-1.356,0.911-1.479,1.345h-0.021v-1.223
		h-0.757L113.424,20.003L113.424,20.003z"/>
</g>
<path fill="#AFAFAF" d="M58.1,8.504H35.11v22.99H58.1C60.695,24.093,60.702,15.916,58.1,8.504"/>
<path d="M78.973,20.009h-1.052c-0.21,0-0.389-0.169-0.517-0.378l-1.969-3.184l-1.272,1.377l-0.001,1.807
	c0,0.209-0.169,0.378-0.379,0.378h-0.7c-0.209,0-0.379-0.169-0.379-0.378l0.001-6.91c0-0.209,0.169-0.379,0.379-0.379h0.697
	c0.209,0,0.378,0.17,0.378,0.379l0.008,3.042l2.868-3.107c0.336-0.336,0.439-0.314,0.65-0.314h1.025c0.209,0,0.229,0.17,0.04,0.379
	l-2.347,2.645l2.714,4.265C79.246,19.84,79.182,20.009,78.973,20.009 M71.117,12.721l-0.001,6.91c0,0.209-0.171,0.378-0.38,0.378
	h-0.752c-0.209,0-0.377-0.169-0.377-0.378l-0.004-2.847h-3.047v2.847c0,0.209-0.17,0.378-0.379,0.378h-0.757
	c-0.209,0-0.378-0.169-0.378-0.378v-6.91c0-0.209,0.169-0.379,0.379-0.379h0.758c0.211,0,0.381,0.17,0.381,0.379l-0.004,2.78h3.047
	l-0.002-2.78c0-0.209,0.17-0.379,0.379-0.379h0.758C70.947,12.342,71.117,12.512,71.117,12.721 M63.456,12.721l-0.004,6.91
	c0,0.209-0.169,0.378-0.378,0.378h-0.768c-0.209,0-0.379-0.169-0.379-0.378l0.004-6.91c0-0.209,0.17-0.379,0.379-0.379h0.767
	C63.286,12.342,63.456,12.512,63.456,12.721 M81.089,31.495V8.505H58.1c2.604,7.411,2.598,15.588,0,22.99H81.089z"/>
<path d="M47.05,24.664h-0.041c0,0,0,0,0-0.001L47.05,24.664L47.05,24.664 M46.214,24.661c0,0.001,0,0.003,0,0.003h-0.009
	c0-0.001,0.001-0.002,0.002-0.002L46.214,24.661z M43.473,24.665H43.21c0.001,0,0,0,0.001-0.001L43.473,24.665z M49.402,24.665
	L49.402,24.665h0.105H49.402z M54.208,13.41c-0.657-0.04-1.515-0.224-2.192-0.514c0.23-0.082,1.457,0.081,1.588-1.233
	c-1.332,0.482-2.772,0.066-3.498,0.39c-0.722,0.323-0.623,1.4,0.052,1.722c0.092,1.01-0.412,1.26-0.843,1.254
	c-0.315,0.008-0.155,0.476,0.16,0.395c0.898-0.218,0.895-0.821,0.965-1.503c0.055,0.026,0.086,0.046,0.127,0.065
	c0.138,0.923-0.654,2.414-2.443,2.334c-0.12-0.149-0.086-0.169-0.396-0.33c-0.309-0.16-0.158-0.482,0.133-0.482
	c-0.12-0.216-0.185-0.581,0.018-0.784c0.182,0.098,0.357,0.036,0.5-0.022c-0.454-0.645,0.165-0.814,0-1.326
	c0.09,0.018,0.188,0.016,0.338-0.023c-0.67-0.608-0.211-1.225-0.872-1.663c0.109-0.085,0.189-0.155,0.287-0.251
	c-0.116,0-0.272,0.098-0.379,0.175c-0.224-0.063-0.414-0.119-0.657-0.029c-0.387-0.387-0.961-0.134-0.992,0.142
	c-0.094-0.08-0.383,0.009-0.393,0.236c-0.4-0.014-0.716,0.247-0.302,0.927c-0.058-0.486,0.366-0.707,0.874-0.245
	c0.084-0.051,0.248-0.272,0.578-0.17c0.063,0.084,0.103,0.165,0.129,0.364c-0.828-0.036-1.081-0.054-1.422,0.075
	c-0.342,0.128-0.705,0.581-1.395,0.667c1.102,0.117,0.654-0.703,2.809-0.516c-0.006,0.096-0.014,0.152-0.051,0.235
	c-0.455-0.074-0.834-0.079-1.051,0.101c0.418,0.067,0.454,0.176,0.9,0.232c0.012,0.16-0.019,0.217-0.04,0.268
	c-0.159,0.343-0.925-0.002-1.19,0.942c0.316-0.462,0.678-0.334,0.753-0.294c-0.405,0.384-0.485,0.665-0.559,0.817
	c-0.142,0.05-0.246,0.075-0.548,0.155c0.166,0.022,0.348,0.042,0.468,0.05c-0.045,0.151-0.067,0.361-0.072,0.441
	c-0.202,0.02-0.479-0.026-0.677,0.306c-1.789,0.094-2.427-1.4-2.296-2.32l0.131-0.066c0.068,0.682,0.068,1.282,0.967,1.497
	c0.317,0.077,0.474-0.389,0.157-0.396c-0.428,0.009-0.93-0.238-0.846-1.25c0.677-0.325,0.769-1.402,0.041-1.722
	c-0.728-0.317-2.165,0.105-3.498-0.368c0.138,1.311,1.363,1.139,1.592,1.221c-0.674,0.293-1.531,0.482-2.189,0.528
	c0.262,0.875,1.009,0.893,1.93,0.612c-0.283,0.423-1.507,1.435-1.889,1.728c0.725,0.466,1.463,0.01,1.9-0.385
	c-0.211,0.475-0.861,1.871-1.971,3.488c1.079,0.461,2.001-1.345,2.527-2.041c-1.233,2.454,0.05,1.928-1.773,5.959
	c1.136,0.264,1.792-1.424,2.722-4.528c0.08,1.323-0.195,3.577-0.364,4.741c1.504-0.084,1.879-2.789,1.881-3.621
	c0.172,0.529-0.039,1.811,0.545,1.689c0.586-0.121,0.465-1.231,0.604-1.99c0.498,3.234-0.667,1.879-0.483,3.252
	c-0.572,0.649-0.858,1.252-1.343,1.779c-0.239-0.021-0.104-0.688-0.582-0.652c-0.332-0.015-0.306-0.164-0.474-0.127
	c-0.145-0.232-0.544-0.214-0.611,0.053c0.157-0.156,0.298,0.014,0.358,0.09c-0.145,0.072-0.084,0.3,0.035,0.328
	c0.093,0.004,0.088-0.101,0.36-0.064c0.225,0.042,0.359,0.16,0.332,0.354c-0.39-0.01-0.41-0.186-0.619-0.156
	c-0.206,0.025-0.231,0.185-0.387,0.207c-0.154,0.023-0.342-0.022-0.398,0.095c-0.423,0.021-0.281,0.353-0.262,0.383
	c0.024-0.063,0.118-0.071,0.152-0.03c-0.003,0.019-0.005,0.041-0.004,0.062l0.057-0.002c0,0.001,0,0.002,0,0.002h-0.057
	c0.002,0.102,0.053,0.218,0.237,0.197c0.149-0.016,0.181-0.107,0.209-0.194h0.001c0.015-0.043,0.028-0.083,0.057-0.108
	c0.048-0.047,0.145,0.006,0.205-0.022c0.044-0.021,0.023-0.05,0.08-0.052c0.074,0,0.018,0.072,0.146,0.062
	c0.099-0.006,0.069-0.096,0.147-0.096c0.064,0,0.072,0.059,0.152,0.069c0.109,0.015,0.235-0.039,0.368,0.047
	c-0.047,0.024-0.098,0.059-0.148,0.097H42.61c-0.106,0.073-0.207,0.17-0.263,0.278c-0.339-0.023-0.358,0.312-0.355,0.346
	c-0.389,0.107-0.199,0.426-0.107,0.49c0.007-0.166,0.073-0.17,0.147-0.168c0.073,0.209,0.189,0.232,0.303,0.105
	c0.11-0.127,0.041-0.395,0.239-0.447c0.199-0.054,0.251-0.148,0.295-0.203c0.061-0.08,0.043-0.17,0.152-0.159
	c0.123,0.009,0.179-0.16,0.246-0.234c0.213,0.036,0.318,0.05,0.484,0.045c0.121,0.007,0.102,0.099,0.245,0.052
	c0.05-0.049,0.104,0.037,0.28,0.062c0.096,0.011,0.148-0.079,0.174-0.164L44.4,24.663v-0.001l0.048-0.002
	c0.021-0.077,0.021-0.153,0.007-0.168c0.035-0.055,0.13-0.04,0.195-0.006c-0.043-0.445-0.416-0.223-0.439-0.188
	c-0.172-0.088-0.482,0.146-0.504,0.002c0.919-1.151,1.003-1.264,1.346-1.668c0.432,0.22,0.539,0.038,0.663-0.514
	c0.066-0.312,0.033-0.499,0.177-0.531c0.164-0.032,0.143,0.468,0.127,1.125c-0.018,1.179-1.594-0.067-1.435,1.394
	c0.577-0.217,0.726,0.213,1.306-0.162c-0.048,0.298-0.172,0.537-0.355,0.723c-0.212,0.214-0.503,0.355-0.846,0.434
	c-0.642,0.143-1.945,0-2.123,1.07c-0.175,1.073,0.492,1.395,1.406,1.229c-1.402-0.26-0.955-1.795-0.076-1.756
	c-0.123,0.058-0.982,0.543-0.53,1.266c1.549-1.583,1.952-0.771,2.784-2.055c-0.096,0.765-0.422,1.145-0.813,1.141
	c-0.39-0.005-0.901,0.072-0.606,0.682c-0.129,0.152-0.56,0.417-0.793,0.486c0.963,0.031,1.885-0.582,2.444-1.43
	c0.028,1.598-0.491,1.759-0.511,2.119c-0.023,0.359,0.15,0.424,0.395,0.397c-0.033,0.207,0.346,0.287,0.365,0.604
	c0.021-0.315,0.337-0.268,0.381-0.606c0.28,0.077,0.399-0.038,0.379-0.399c-0.022-0.361-0.545-0.52-0.524-2.115
	c0.563,0.846,1.489,1.455,2.45,1.416c-0.229-0.066-0.664-0.334-0.793-0.482c0.289-0.604-0.221-0.686-0.611-0.68
	c-0.391,0.01-0.719-0.37-0.819-1.135c0.841,1.278,1.238,0.465,2.796,2.043c0.448-0.729-0.414-1.209-0.537-1.267
	c0.879-0.044,1.334,1.49-0.067,1.758c0.916,0.157,1.582-0.163,1.399-1.237c-0.179-1.068-1.485-0.92-2.127-1.062
	c-0.342-0.073-0.631-0.211-0.843-0.422h-0.001c-0.188-0.185-0.314-0.427-0.365-0.726c0.584,0.371,0.73-0.061,1.31,0.152
	c0.147-1.461-1.421-0.203-1.442-1.383c-0.02-0.658-0.044-1.16,0.119-1.127c0.145,0.029,0.109,0.223,0.18,0.529
	c0.127,0.554,0.234,0.73,0.666,0.512c0.348,0.398,0.432,0.518,1.355,1.662c-0.023,0.146-0.333-0.087-0.504,0
	c-0.024-0.035-0.398-0.256-0.438,0.189c0.066-0.035,0.158-0.049,0.194,0.004c-0.016,0.017-0.014,0.101,0.012,0.185h0.002
	c0.026,0.084,0.08,0.164,0.17,0.149c0.176-0.024,0.231-0.108,0.279-0.062c0.146,0.044,0.125-0.049,0.247-0.056
	c0.139,0.006,0.235-0.006,0.385-0.032h0.015c0.024-0.005,0.053-0.009,0.082-0.015c0.004,0.004,0.008,0.008,0.011,0.013
	c0.067,0.082,0.12,0.229,0.235,0.222c0.11-0.01,0.094,0.08,0.157,0.16c0.042,0.053,0.097,0.146,0.292,0.199
	c0.201,0.055,0.135,0.32,0.245,0.447c0.112,0.127,0.229,0.102,0.302-0.104c0.074-0.006,0.139,0,0.147,0.164
	c0.092-0.062,0.278-0.384-0.109-0.487c0.002-0.031-0.021-0.369-0.356-0.349c-0.053-0.099-0.142-0.183-0.236-0.252l-0.09-0.001
	l0.09-0.001c-0.061-0.046-0.125-0.085-0.184-0.118c0.135-0.085,0.26-0.031,0.371-0.048c0.078-0.013,0.088-0.069,0.15-0.067
	c0.077-0.002,0.047,0.088,0.146,0.094c0.127,0.008,0.072-0.06,0.147-0.062c0.056,0.004,0.034,0.028,0.076,0.052
	c0.062,0.027,0.159-0.023,0.205,0.023c0.034,0.027,0.048,0.078,0.067,0.13l0.07-0.001v0.001h-0.07
	c0.028,0.078,0.065,0.157,0.205,0.174c0.168,0.017,0.226-0.084,0.232-0.174l-0.061,0.001c0-0.001,0-0.002,0-0.003l0.061-0.002
	c0.003-0.032,0.001-0.062-0.005-0.089c0.034-0.043,0.128-0.031,0.153,0.029c0.019-0.031,0.16-0.359-0.262-0.377
	c-0.059-0.121-0.248-0.072-0.4-0.094c-0.155-0.027-0.182-0.184-0.389-0.207c-0.209-0.029-0.228,0.146-0.617,0.16
	c-0.026-0.195,0.104-0.311,0.33-0.355c0.27-0.035,0.266,0.068,0.356,0.064c0.121-0.029,0.183-0.257,0.035-0.33
	c0.062-0.074,0.198-0.244,0.358-0.09c-0.067-0.266-0.47-0.283-0.613-0.051c-0.167-0.037-0.139,0.113-0.473,0.13
	c-0.479-0.033-0.338,0.636-0.576,0.655c-0.489-0.525-0.78-1.121-1.353-1.771c0.173-1.375-0.983-0.01-0.509-3.24
	c0.145,0.759,0.033,1.858,0.621,1.979c0.585,0.113,0.363-1.152,0.527-1.681c0.008,0.832,0.403,3.524,1.91,3.599
	c-0.177-1.166-0.468-3.402-0.395-4.728c0.949,3.089,1.617,4.772,2.75,4.503c-1.85-4.012-0.562-3.495-1.811-5.941
	c0.532,0.696,1.461,2.495,2.539,2.028c-1.119-1.61-1.775-3.004-1.99-3.477c0.438,0.394,1.18,0.845,1.901,0.374
	c-0.382-0.29-1.61-1.295-1.897-1.721C53.205,14.31,53.951,14.289,54.208,13.41"/>
</svg>
