<?xml version="1.0" encoding="utf-8"?>
<!-- Generator: Adobe Illustrator 16.0.0, SVG Export Plug-In . SVG Version: 6.00 Build 0)  -->
<!DOCTYPE svg PUBLIC "-//W3C//DTD SVG 1.1//EN" "http://www.w3.org/Graphics/SVG/1.1/DTD/svg11.dtd">
<svg version="1.1" id="Ebene_1" xmlns="http://www.w3.org/2000/svg" xmlns:xlink="http://www.w3.org/1999/xlink" x="0px" y="0px"
	 width="91.836px" height="40px" viewBox="31.582 0 91.836 40" enable-background="new 31.582 0 91.836 40" xml:space="preserve">
<g>
	<path d="M92.166,15.937c-0.502,0-1.003,0.036-1.504,0.036h-1.36v0.43l0.908,0.167v6.862l-0.908,0.166v0.43h1.36
		c0.501,0,1.002,0.037,1.504,0.037c2.146,0,3.008-1.241,3.008-4.32C95.174,17.035,94.312,15.937,92.166,15.937 M92.166,23.466
		c-0.395,0-0.775-0.022-1.17-0.034V16.57c0.395-0.012,0.775-0.036,1.17-0.036c1.551,0,2.173,0.932,2.173,3.21
		C94.339,22.395,93.717,23.466,92.166,23.466 M101.007,21.688l-0.44-0.059l-0.403,1.803h-2.579v-2.686h2.424v-0.598h-2.424v-3.579
		h2.361l0.406,1.803l0.441-0.061l-0.179-2.339h-4.726v0.43l0.905,0.167v6.861l-0.905,0.168v0.43h4.94L101.007,21.688z
		 M104.719,19.685c-1.121-0.442-1.765-0.705-1.765-1.862c0-1.002,0.476-1.433,1.478-1.433c0.479,0,0.92,0.108,1.254,0.263
		l0.252,1.695l0.453-0.024l-0.086-2.529h-0.354l-0.168,0.215c-0.394-0.13-0.919-0.215-1.443-0.215c-1.504,0-2.221,0.656-2.221,2.063
		c0,1.647,0.979,2.101,2.065,2.531c1.084,0.429,1.67,0.704,1.67,1.74c0,1.003-0.549,1.48-1.646,1.48
		c-0.572,0-1.086-0.131-1.469-0.297l-0.321-1.66l-0.453,0.048l0.179,2.506h0.358l0.167-0.203c0.43,0.133,1.016,0.203,1.527,0.203
		c1.695,0,2.494-0.704,2.494-2.183C106.688,20.661,106.02,20.197,104.719,19.685 M109.336,16.569l0.909-0.167v-0.43h-2.603v0.43
		l0.905,0.167v6.861l-0.905,0.168v0.43h2.603v-0.43l-0.909-0.168V16.569z M116.068,20.148h-2.055v0.431l1.266,0.167v2.648
		c-0.43,0.153-0.905,0.215-1.24,0.215c-1.491,0-2.005-0.967-2.005-3.747c0-2.578,0.514-3.474,2.005-3.474
		c0.477,0,0.871,0.108,1.18,0.263l0.252,1.695l0.454-0.024l-0.084-2.529h-0.356l-0.154,0.215c-0.382-0.13-0.909-0.215-1.387-0.215
		c-2.041,0-2.743,1.062-2.743,4.104c0,3.2,0.717,4.309,2.758,4.309c0.739,0,1.454-0.214,2.11-0.657V20.148L116.068,20.148z
		 M123.418,15.973h-2.409v0.43l0.905,0.167v4.821c0,0.311,0,0.67,0.023,1.086h-0.023c-0.18-0.465-0.333-0.824-0.501-1.156
		l-2.601-5.347h-1.791v0.43l0.905,0.167v6.862l-0.905,0.166v0.43h2.41v-0.43l-0.906-0.166v-5.49c0-0.263,0-0.525-0.014-0.812h0.025
		c0.096,0.286,0.179,0.489,0.32,0.788l2.973,6.109h0.68v-7.458l0.907-0.167L123.418,15.973L123.418,15.973z"/>
	<path d="M34.338,19.684c-1.122-0.44-1.767-0.703-1.767-1.86c0-1.003,0.477-1.433,1.481-1.433c0.477,0,0.918,0.107,1.253,0.262
		l0.25,1.694l0.453-0.023l-0.084-2.529h-0.358L35.4,16.008c-0.394-0.13-0.918-0.214-1.445-0.214c-1.502,0-2.218,0.656-2.218,2.064
		c0,1.646,0.977,2.101,2.064,2.529c1.087,0.429,1.67,0.705,1.67,1.741c0,1.003-0.548,1.481-1.647,1.481
		c-0.571,0-1.085-0.133-1.468-0.299l-0.321-1.658L31.582,21.7l0.179,2.505h0.357l0.168-0.202c0.428,0.131,1.013,0.202,1.527,0.202
		c1.694,0,2.493-0.704,2.493-2.184C36.306,20.662,35.639,20.197,34.338,19.684 M41.796,23.132c-0.513,0.334-1.312,0.479-1.825,0.479
		c-1.336,0-1.873-0.957-1.873-3.688c0-2.648,0.499-3.531,1.883-3.531c0.479,0,0.873,0.107,1.183,0.262l0.251,1.694l0.453-0.023
		l-0.083-2.529h-0.358l-0.155,0.214c-0.383-0.13-0.907-0.214-1.434-0.214c-1.872,0-2.579,1.062-2.579,4.14
		c0,3.114,0.719,4.272,2.604,4.272c0.739,0,1.432-0.179,2.147-0.657L41.796,23.132z M48.24,16.57l0.907-0.168v-0.43h-2.602v0.43
		l0.906,0.168v3.578H44.54V16.57l0.908-0.168v-0.43h-2.602v0.43l0.908,0.168v6.86l-0.908,0.166v0.432h2.602v-0.432L44.54,23.43
		v-2.685h2.912v2.685l-0.906,0.166v0.432h2.602v-0.432l-0.907-0.166L48.24,16.57L48.24,16.57z M59.218,16.402v-0.43h-2.255v0.43
		l0.884,0.143l-1.17,5.598c-0.084,0.418-0.132,0.703-0.155,0.942h-0.023c-0.036-0.239-0.12-0.537-0.239-0.956l-1.469-4.975h-0.393
		l-1.491,4.999c-0.132,0.432-0.19,0.682-0.238,0.933h-0.025c-0.022-0.251-0.071-0.501-0.166-0.956l-1.146-5.584l0.884-0.143v-0.43
		h-2.529v0.43l0.811,0.168l1.528,7.458h0.93l1.276-4.356c0.108-0.368,0.168-0.596,0.217-0.822h0.022
		c0.049,0.227,0.096,0.454,0.204,0.822l1.276,4.356h0.931l1.526-7.458L59.218,16.402z M64.874,21.688l-0.439-0.06l-0.406,1.802
		H61.45v-2.685h2.423v-0.598H61.45V16.57h2.363l0.405,1.801l0.441-0.059l-0.178-2.34h-4.727v0.43l0.906,0.168v6.86l-0.906,0.166
		v0.432h4.94L64.874,21.688z M67.523,16.57l0.907-0.168v-0.43h-2.602v0.43l0.908,0.168v6.86l-0.908,0.166v0.432h2.602v-0.432
		l-0.907-0.166V16.57z M74.253,20.148H72.2v0.431l1.268,0.167v2.648c-0.431,0.153-0.909,0.215-1.242,0.215
		c-1.493,0-2.005-0.967-2.005-3.747c0-2.578,0.512-3.473,2.005-3.473c0.477,0,0.871,0.107,1.18,0.262l0.252,1.694l0.453-0.023
		l-0.084-2.529h-0.358l-0.153,0.214c-0.383-0.13-0.907-0.214-1.385-0.214c-2.042,0-2.743,1.062-2.743,4.104
		c0,3.198,0.715,4.308,2.755,4.308c0.739,0,1.457-0.214,2.111-0.657L74.253,20.148L74.253,20.148z M80.327,21.688l-0.438-0.06
		l-0.406,1.802h-2.579v-2.685h2.421v-0.598h-2.421V16.57h2.362l0.405,1.801l0.443-0.059l-0.181-2.34h-4.726v0.43l0.905,0.168v6.86
		l-0.905,0.166v0.432h4.938L80.327,21.688z M82.979,20.746h0.883c0.131,0,0.263,0,0.383-0.012l1.836,3.293h0.954l-1.323-2.353
		c-0.263-0.464-0.523-0.821-0.764-1.039c1.051-0.261,1.49-0.977,1.49-2.303c0-1.718-0.739-2.396-2.576-2.396
		c-0.43,0-0.872,0.035-1.303,0.035h-1.275v0.43l0.906,0.168v6.86l-0.906,0.166v0.432h2.602v-0.432l-0.906-0.166V20.746
		L82.979,20.746z M85.604,18.323c0,1.301-0.502,1.825-1.742,1.825h-0.883v-3.591c0.299-0.013,0.606-0.024,0.847-0.024
		C85.102,16.533,85.604,17.023,85.604,18.323"/>
</g>
</svg>
