<?xml version="1.0" encoding="utf-8"?>
<!-- Generator: Adobe Illustrator 16.0.0, SVG Export Plug-In . SVG Version: 6.00 Build 0)  -->
<!DOCTYPE svg PUBLIC "-//W3C//DTD SVG 1.1//EN" "http://www.w3.org/Graphics/SVG/1.1/DTD/svg11.dtd">
<svg version="1.1" id="Ebene_1" xmlns="http://www.w3.org/2000/svg" xmlns:xlink="http://www.w3.org/1999/xlink" x="0px" y="0px"
	 width="44.964px" height="40px" viewBox="55.695 0 44.964 40" enable-background="new 55.695 0 44.964 40" xml:space="preserve">
<g>
	<path d="M63.467,39.158c0.064-0.001,0.088-0.004,0.14-0.004c0.048,0,0.072,0.003,0.132,0.004c0.111-0.229,0.143-0.293,0.288-0.57
		c0.129-0.007,0.184-0.007,0.276-0.007c0.11,0,0.168,0,0.328,0.007l0.09,0.57c0.078-0.001,0.107-0.004,0.169-0.004
		c0.056,0,0.086,0.003,0.158,0.004l-0.026-0.137c-0.103-0.549-0.221-1.25-0.256-1.515c-0.005-0.034-0.014-0.088-0.021-0.161
		c-0.111,0.029-0.151,0.035-0.294,0.051c-0.167,0.279-0.212,0.36-0.472,0.824C63.701,38.721,63.652,38.811,63.467,39.158
		 M64.126,38.404l0.275-0.541l0.014-0.021c0.016-0.029,0.03-0.059,0.092-0.208c0.019,0.237,0.023,0.282,0.072,0.611l0.022,0.159
		l-0.094,0.003c-0.071,0.002-0.138,0.005-0.203,0.005C64.242,38.412,64.207,38.409,64.126,38.404"/>
	<path d="M65.333,39.158c0.056-0.002,0.081-0.004,0.127-0.004c0.059,0,0.083,0.002,0.161,0.004l0.119-0.514
		c0.03-0.108,0.092-0.235,0.176-0.352c0.118-0.162,0.258-0.271,0.352-0.271c0.065,0,0.103,0.047,0.103,0.127
		c0,0.078-0.016,0.177-0.051,0.316c-0.048,0.203-0.107,0.434-0.18,0.692c0.065-0.003,0.089-0.005,0.143-0.005
		c0.057,0,0.083,0.002,0.159,0.005l0.01-0.038c0.079-0.285,0.162-0.639,0.197-0.846c0.008-0.045,0.014-0.092,0.014-0.137
		c0-0.197-0.103-0.305-0.285-0.305c-0.152,0-0.3,0.081-0.426,0.227c-0.055,0.062-0.09,0.11-0.162,0.238
		c0.035-0.179,0.043-0.225,0.068-0.432c-0.068,0.003-0.095,0.006-0.148,0.006c-0.049,0-0.07-0.003-0.124-0.006
		c-0.029,0.297-0.043,0.396-0.087,0.582l-0.143,0.619L65.333,39.158z"/>
	<path d="M66.79,39.037l0.017,0.013c0.105,0.099,0.212,0.138,0.358,0.138c0.277,0,0.474-0.164,0.474-0.394
		c0-0.114-0.033-0.194-0.143-0.336l-0.095-0.119c-0.06-0.081-0.088-0.146-0.088-0.2c0-0.082,0.067-0.137,0.171-0.137
		c0.079,0,0.162,0.027,0.24,0.081c0.041-0.081,0.052-0.099,0.087-0.149c-0.091-0.065-0.213-0.102-0.342-0.102
		c-0.274,0-0.456,0.146-0.456,0.363c0,0.104,0.027,0.171,0.1,0.268l0.076,0.1l0.029,0.037c0.084,0.108,0.117,0.176,0.117,0.24
		c0,0.098-0.076,0.162-0.188,0.162c-0.087,0-0.167-0.041-0.235-0.118C66.863,38.959,66.845,38.98,66.79,39.037"/>
	<path d="M68.314,37.879h-0.027c-0.108,0-0.129,0-0.205-0.005l-0.003,0.021c-0.013,0.063-0.019,0.086-0.037,0.141
		c0.083-0.006,0.107-0.006,0.229-0.006l-0.165,0.669c-0.029,0.124-0.038,0.18-0.038,0.247c0,0.156,0.093,0.24,0.259,0.24
		c0.129,0,0.256-0.035,0.358-0.105c-0.004-0.007-0.007-0.014-0.01-0.018c-0.029-0.056-0.032-0.061-0.042-0.096
		c-0.06,0.035-0.108,0.049-0.159,0.049c-0.07,0-0.111-0.045-0.111-0.127c0-0.029,0.007-0.062,0.027-0.147l0.142-0.613l0.024-0.099
		c0.173,0,0.208,0,0.318,0.006l0.005-0.023c0.016-0.074,0.021-0.089,0.035-0.138c-0.113,0.005-0.146,0.005-0.32,0.005l0.094-0.369
		l-0.038,0.008l-0.227,0.049l-0.034,0.004L68.314,37.879z"/>
	<path d="M69.782,39.158c0.05-0.002,0.07-0.002,0.108-0.002h0.129l0.035,0.002c0.076-0.473,0.107-0.609,0.237-1.042
		c0.043-0.138,0.051-0.164,0.086-0.25l-0.062,0.003h-0.096c-0.033,0-0.049,0-0.096-0.003l-0.01,0.032l-0.027,0.078l-0.013,0.032
		c-0.048-0.11-0.146-0.17-0.283-0.17c-0.434,0-0.832,0.454-0.832,0.946c0,0.261,0.124,0.406,0.345,0.406
		c0.1,0,0.193-0.029,0.282-0.088c0.094-0.062,0.172-0.151,0.243-0.273c0.016-0.027,0.035-0.064,0.065-0.118
		C69.835,38.916,69.822,38.979,69.782,39.158 M69.984,38.205l-0.051,0.193c-0.092,0.22-0.14,0.308-0.232,0.41
		c-0.05,0.057-0.108,0.104-0.169,0.143c-0.043,0.027-0.1,0.043-0.138,0.043c-0.089,0-0.137-0.071-0.137-0.192
		c0-0.215,0.111-0.483,0.275-0.663c0.084-0.093,0.183-0.144,0.272-0.144C69.914,37.995,69.984,38.073,69.984,38.205"/>
	<path d="M70.491,39.158c0.054-0.002,0.073-0.002,0.116-0.002c0.054,0,0.108,0,0.165,0.002h0.022l0.026-0.135l0.361-1.655
		l0.028-0.114l-0.02,0.003h-0.261l-0.022-0.003l-0.021,0.114l-0.361,1.655L70.491,39.158z"/>
	<path d="M71.65,37.879h-0.028c-0.108,0-0.129,0-0.205-0.005l-0.002,0.021c-0.015,0.063-0.02,0.086-0.038,0.141
		c0.083-0.006,0.107-0.006,0.228-0.006l-0.165,0.669c-0.028,0.124-0.038,0.18-0.038,0.247c0,0.156,0.093,0.24,0.26,0.24
		c0.129,0,0.255-0.035,0.358-0.105c-0.005-0.007-0.008-0.014-0.011-0.018c-0.029-0.056-0.031-0.061-0.043-0.096
		c-0.059,0.035-0.108,0.049-0.159,0.049c-0.069,0-0.11-0.045-0.11-0.127c0-0.029,0.008-0.062,0.027-0.147l0.143-0.613l0.024-0.099
		c0.172,0,0.208,0,0.317,0.006l0.006-0.023c0.016-0.074,0.021-0.089,0.034-0.138c-0.112,0.005-0.145,0.005-0.32,0.005l0.095-0.369
		l-0.038,0.008l-0.226,0.049l-0.035,0.004L71.65,37.879z"/>
	<path d="M73.873,39.158c0.056-0.002,0.081-0.006,0.123-0.006c0.058,0,0.082,0.004,0.154,0.006c0.029-0.229,0.04-0.274,0.113-0.596
		c0.137-0.602,0.215-0.935,0.234-1.002c0.016-0.066,0.043-0.17,0.081-0.307c-0.072,0.005-0.102,0.005-0.155,0.005
		c-0.046,0-0.07,0-0.133-0.005l-0.164,0.725c-0.057-0.094-0.145-0.146-0.262-0.146c-0.417,0-0.818,0.463-0.818,0.948
		c0,0.253,0.137,0.406,0.358,0.406c0.221,0,0.41-0.15,0.552-0.448l-0.019,0.088C73.905,38.973,73.897,39.023,73.873,39.158
		 M74.071,38.205l-0.045,0.197c-0.081,0.175-0.118,0.242-0.205,0.351c-0.055,0.07-0.117,0.132-0.184,0.187
		c-0.051,0.041-0.119,0.068-0.161,0.068c-0.084,0-0.135-0.074-0.135-0.195c0-0.308,0.185-0.648,0.42-0.778
		c0.038-0.021,0.083-0.035,0.121-0.035C73.999,37.997,74.071,38.079,74.071,38.205"/>
	<path d="M75.56,39.011l-0.07-0.108c-0.089,0.068-0.194,0.1-0.305,0.1c-0.19,0-0.303-0.118-0.303-0.322
		c0-0.022,0.002-0.058,0.005-0.101c0.045,0.005,0.059,0.005,0.105,0.005c0.436,0,0.779-0.199,0.779-0.458
		c0-0.178-0.165-0.294-0.419-0.294c-0.444,0-0.785,0.363-0.785,0.835c0,0.329,0.194,0.522,0.522,0.522
		C75.268,39.189,75.427,39.129,75.56,39.011 M74.899,38.458c0.021-0.132,0.1-0.278,0.208-0.386c0.073-0.072,0.159-0.113,0.234-0.113
		c0.071,0,0.118,0.057,0.118,0.139c0,0.09-0.047,0.18-0.133,0.241C75.215,38.417,75.101,38.451,74.899,38.458"/>
	<path d="M75.802,39.037l0.017,0.013c0.104,0.099,0.212,0.138,0.358,0.138c0.277,0,0.474-0.164,0.474-0.394
		c0-0.114-0.032-0.194-0.143-0.336l-0.094-0.119c-0.06-0.081-0.089-0.146-0.089-0.2c0-0.082,0.067-0.137,0.173-0.137
		c0.079,0,0.162,0.027,0.239,0.081c0.041-0.081,0.051-0.099,0.086-0.149c-0.092-0.065-0.213-0.102-0.342-0.102
		c-0.276,0-0.456,0.146-0.456,0.363c0,0.104,0.028,0.171,0.1,0.268l0.076,0.1L76.23,38.6c0.084,0.108,0.117,0.176,0.117,0.24
		c0,0.098-0.076,0.162-0.189,0.162c-0.085,0-0.167-0.041-0.234-0.118C75.875,38.959,75.857,38.98,75.802,39.037"/>
	<path d="M78.463,37.41c0-0.066-0.041-0.115-0.102-0.115c-0.088,0-0.162,0.094-0.162,0.208c0,0.078,0.035,0.122,0.098,0.122
		C78.391,37.624,78.463,37.529,78.463,37.41 M78.916,37.41c0-0.066-0.041-0.115-0.102-0.115c-0.088,0-0.162,0.094-0.162,0.208
		c0,0.078,0.035,0.122,0.099,0.122C78.842,37.624,78.916,37.529,78.916,37.41 M78.928,38.361c0-0.312-0.205-0.528-0.506-0.528
		c-0.425,0-0.764,0.36-0.764,0.808c0,0.332,0.202,0.549,0.502,0.549C78.602,39.189,78.928,38.838,78.928,38.361 M78.619,38.283
		c0,0.382-0.227,0.754-0.461,0.754c-0.121,0-0.194-0.121-0.194-0.314c0-0.191,0.071-0.406,0.188-0.57
		c0.082-0.114,0.17-0.168,0.268-0.168C78.539,37.984,78.619,38.105,78.619,38.283"/>
	<path d="M78.992,39.743c0.08,0.014,0.1,0.016,0.221,0.051l0.053,0.017l0.08-0.312c0.057-0.227,0.135-0.561,0.166-0.708l0.159-0.753
		h0.06c0.146,0,0.174,0,0.291,0.004c0.011-0.07,0.016-0.091,0.035-0.161c-0.111,0.002-0.142,0.002-0.271,0.002H79.7
		c0.044-0.221,0.071-0.307,0.12-0.382c0.041-0.062,0.125-0.102,0.205-0.102c0.062,0,0.121,0.018,0.184,0.053
		c0.027-0.059,0.037-0.078,0.072-0.133c-0.08-0.051-0.172-0.072-0.291-0.072c-0.26,0-0.42,0.113-0.5,0.357
		c-0.029,0.09-0.037,0.133-0.064,0.277h-0.039c-0.099,0-0.121,0-0.197-0.002c-0.008,0.059-0.014,0.078-0.035,0.158
		c0.08-0.001,0.104-0.001,0.209-0.001h0.027l-0.16,0.745l-0.03,0.132l-0.144,0.582L78.992,39.743z"/>
	<path d="M79.979,39.743c0.08,0.014,0.101,0.016,0.222,0.051l0.055,0.017l0.078-0.312c0.056-0.227,0.133-0.561,0.166-0.708
		l0.16-0.753h0.059c0.146,0,0.175,0,0.291,0.004c0.011-0.07,0.017-0.091,0.035-0.161c-0.11,0.002-0.142,0.002-0.271,0.002h-0.088
		c0.045-0.221,0.07-0.307,0.123-0.382c0.039-0.062,0.125-0.102,0.205-0.102c0.062,0,0.121,0.018,0.182,0.053
		c0.027-0.059,0.039-0.078,0.074-0.133c-0.082-0.051-0.174-0.072-0.291-0.072c-0.262,0-0.422,0.113-0.502,0.357
		c-0.028,0.09-0.037,0.133-0.063,0.277h-0.037c-0.101,0-0.121,0-0.199-0.002c-0.009,0.059-0.015,0.078-0.034,0.158
		c0.08-0.001,0.104-0.001,0.209-0.001h0.026l-0.157,0.745l-0.033,0.132l-0.143,0.582L79.979,39.743z"/>
	<path d="M82.031,39.011l-0.07-0.108c-0.088,0.068-0.193,0.1-0.304,0.1c-0.191,0-0.304-0.118-0.304-0.322
		c0-0.022,0.002-0.058,0.004-0.101c0.047,0.005,0.061,0.005,0.104,0.005c0.437,0,0.779-0.199,0.779-0.458
		c0-0.178-0.166-0.294-0.418-0.294c-0.445,0-0.785,0.363-0.785,0.835c0,0.329,0.192,0.522,0.521,0.522
		C81.74,39.189,81.898,39.129,82.031,39.011 M81.372,38.458c0.021-0.132,0.099-0.278,0.208-0.386
		c0.072-0.072,0.158-0.113,0.232-0.113c0.069,0,0.119,0.057,0.119,0.139c0,0.09-0.05,0.18-0.136,0.241
		C81.688,38.417,81.574,38.451,81.372,38.458"/>
	<path d="M82.361,39.158c0.056-0.002,0.08-0.004,0.125-0.004c0.061,0,0.084,0.002,0.162,0.004l0.119-0.514
		c0.028-0.108,0.092-0.235,0.174-0.352c0.119-0.162,0.26-0.271,0.354-0.271c0.064,0,0.104,0.047,0.104,0.127
		c0,0.078-0.018,0.177-0.053,0.316c-0.048,0.203-0.105,0.434-0.18,0.692c0.064-0.003,0.089-0.005,0.143-0.005
		c0.058,0,0.084,0.002,0.158,0.005l0.012-0.038c0.078-0.285,0.162-0.639,0.196-0.846c0.009-0.045,0.015-0.092,0.015-0.137
		c0-0.197-0.104-0.305-0.287-0.305c-0.149,0-0.299,0.081-0.424,0.227c-0.055,0.062-0.09,0.11-0.162,0.238
		c0.035-0.179,0.043-0.225,0.067-0.432c-0.067,0.003-0.095,0.006-0.149,0.006c-0.047,0-0.067-0.003-0.123-0.006
		c-0.028,0.297-0.043,0.396-0.086,0.582l-0.144,0.619L82.361,39.158z"/>
	<path d="M84.281,37.879h-0.027c-0.107,0-0.129,0-0.205-0.005l-0.003,0.021c-0.013,0.063-0.019,0.086-0.036,0.141
		c0.082-0.006,0.107-0.006,0.229-0.006l-0.163,0.669c-0.029,0.124-0.039,0.18-0.039,0.247c0,0.156,0.092,0.24,0.26,0.24
		c0.129,0,0.255-0.035,0.356-0.105c-0.004-0.007-0.008-0.014-0.01-0.018c-0.029-0.056-0.033-0.061-0.043-0.096
		c-0.061,0.035-0.107,0.049-0.16,0.049c-0.068,0-0.109-0.045-0.109-0.127c0-0.029,0.008-0.062,0.027-0.147l0.143-0.613l0.023-0.099
		c0.172,0,0.207,0,0.317,0.006l0.007-0.023c0.016-0.074,0.021-0.089,0.033-0.138c-0.111,0.005-0.145,0.005-0.318,0.005l0.094-0.369
		l-0.038,0.008l-0.226,0.049l-0.035,0.004L84.281,37.879z"/>
	<path d="M84.93,39.158c0.055-0.002,0.073-0.002,0.115-0.002c0.057,0,0.107,0,0.166,0.002h0.021l0.026-0.135l0.359-1.655
		l0.026-0.114l-0.019,0.003h-0.261l-0.021-0.003l-0.021,0.114l-0.361,1.655L84.93,39.158z"/>
	<path d="M85.977,37.874l-0.021,0.115l-0.23,1.054l-0.026,0.115c0.073-0.001,0.103-0.001,0.157-0.001c0.053,0,0.082,0,0.151,0.001
		l0.021-0.115l0.229-1.054l0.03-0.115c-0.073,0.003-0.102,0.005-0.154,0.005C86.075,37.879,86.049,37.877,85.977,37.874
		 M86.354,37.404c0-0.075-0.043-0.125-0.104-0.125c-0.099,0-0.179,0.104-0.179,0.226c0,0.083,0.037,0.132,0.105,0.132
		C86.275,37.637,86.354,37.534,86.354,37.404"/>
	<path d="M87.383,38.261l0.025-0.007c0.119-0.035,0.158-0.043,0.266-0.062c-0.041-0.242-0.181-0.357-0.439-0.357
		c-0.435,0-0.764,0.348-0.764,0.8c0,0.343,0.205,0.558,0.537,0.558c0.176,0,0.334-0.058,0.445-0.159l-0.078-0.117
		c-0.084,0.051-0.156,0.071-0.242,0.071c-0.219,0-0.341-0.129-0.341-0.36c0-0.332,0.212-0.653,0.435-0.653
		C87.328,37.971,87.379,38.07,87.383,38.261"/>
	<path d="M87.742,39.158c0.057-0.004,0.078-0.004,0.124-0.004c0.044,0,0.089,0.002,0.133,0.002l0.035,0.002l0.114-0.514
		c0.031-0.111,0.096-0.235,0.178-0.352c0.119-0.165,0.26-0.271,0.357-0.271c0.064,0,0.099,0.047,0.099,0.154
		s-0.052,0.331-0.194,0.833l-0.041,0.148c0.061-0.003,0.084-0.005,0.137-0.005c0.062,0,0.088,0.002,0.166,0.005l0.023-0.089
		c0.146-0.539,0.193-0.781,0.193-0.935c0-0.2-0.096-0.302-0.282-0.302c-0.144,0-0.288,0.076-0.409,0.212
		c-0.043,0.049-0.078,0.095-0.146,0.205l-0.035,0.052c0.021-0.062,0.023-0.07,0.043-0.14c0.003-0.017,0.007-0.027,0.009-0.033
		l0.196-0.875c-0.08,0.006-0.102,0.006-0.159,0.006c-0.05,0-0.067,0-0.121-0.006l-0.021,0.119l-0.338,1.535L87.742,39.158z"/>
	<path d="M90.297,39.011l-0.07-0.108c-0.09,0.068-0.192,0.1-0.305,0.1c-0.191,0-0.303-0.118-0.303-0.322
		c0-0.022,0.002-0.058,0.004-0.101c0.046,0.005,0.059,0.005,0.105,0.005c0.436,0,0.778-0.199,0.778-0.458
		c0-0.178-0.165-0.294-0.418-0.294c-0.444,0-0.787,0.363-0.787,0.835c0,0.329,0.195,0.522,0.523,0.522
		C90.006,39.189,90.164,39.129,90.297,39.011 M89.637,38.458c0.021-0.132,0.102-0.278,0.207-0.386
		c0.074-0.072,0.16-0.113,0.234-0.113c0.07,0,0.119,0.057,0.119,0.139c0,0.09-0.049,0.18-0.135,0.241
		C89.952,38.417,89.838,38.451,89.637,38.458"/>
	<path d="M90.626,39.158c0.058-0.002,0.081-0.004,0.127-0.004c0.06,0,0.083,0.002,0.161,0.004l0.118-0.514
		c0.03-0.108,0.093-0.235,0.177-0.352c0.117-0.162,0.257-0.271,0.352-0.271c0.064,0,0.104,0.047,0.104,0.127
		c0,0.078-0.018,0.177-0.053,0.316c-0.049,0.203-0.106,0.434-0.18,0.692c0.064-0.003,0.088-0.005,0.144-0.005
		c0.057,0,0.084,0.002,0.157,0.005l0.013-0.038c0.078-0.285,0.162-0.639,0.196-0.846c0.008-0.045,0.014-0.092,0.014-0.137
		c0-0.197-0.104-0.305-0.285-0.305c-0.15,0-0.3,0.081-0.425,0.227c-0.056,0.062-0.091,0.11-0.162,0.238
		c0.033-0.179,0.043-0.225,0.065-0.432c-0.065,0.003-0.094,0.006-0.146,0.006c-0.05,0-0.07-0.003-0.125-0.006
		c-0.027,0.297-0.043,0.396-0.087,0.582l-0.142,0.619L90.626,39.158z"/>
	<path d="M93.785,38.248c0.332-0.045,0.543-0.237,0.543-0.484c0-0.205-0.143-0.345-0.393-0.389
		c-0.072-0.014-0.162-0.021-0.254-0.021c-0.142,0-0.261,0.011-0.38,0.035l-0.024,0.129c-0.07,0.377-0.16,0.784-0.327,1.498
		l-0.033,0.143c0.067-0.002,0.093-0.002,0.149-0.002h0.137l0.047,0.002c0.048-0.307,0.064-0.396,0.166-0.875h0.021
		c0.082,0,0.135,0.042,0.176,0.152l0.271,0.723c0.099-0.002,0.136-0.004,0.201-0.004s0.101,0.002,0.188,0.004l-0.359-0.751
		c-0.005-0.017-0.033-0.058-0.051-0.087C93.836,38.279,93.822,38.268,93.785,38.248 M93.596,37.51
		c0.043-0.005,0.062-0.008,0.098-0.008c0.188,0,0.296,0.094,0.296,0.262c0,0.234-0.181,0.383-0.462,0.383
		c-0.034,0-0.047-0.002-0.082-0.006c0.035-0.158,0.041-0.184,0.113-0.478L93.596,37.51z"/>
	<path d="M95.514,39.011l-0.07-0.108c-0.088,0.068-0.192,0.1-0.305,0.1c-0.189,0-0.303-0.118-0.303-0.322
		c0-0.022,0.002-0.058,0.004-0.101c0.046,0.005,0.059,0.005,0.105,0.005c0.436,0,0.779-0.199,0.779-0.458
		c0-0.178-0.166-0.294-0.42-0.294c-0.443,0-0.785,0.363-0.785,0.835c0,0.329,0.194,0.522,0.521,0.522
		C95.223,39.189,95.381,39.129,95.514,39.011 M94.854,38.458c0.021-0.132,0.101-0.278,0.207-0.386
		c0.073-0.072,0.16-0.113,0.234-0.113c0.07,0,0.119,0.057,0.119,0.139c0,0.09-0.049,0.18-0.135,0.241
		C95.169,38.417,95.055,38.451,94.854,38.458"/>
	<path d="M96.762,38.261l0.027-0.007c0.118-0.035,0.158-0.043,0.264-0.062c-0.041-0.242-0.181-0.357-0.439-0.357
		c-0.434,0-0.762,0.348-0.762,0.8c0,0.343,0.205,0.558,0.535,0.558c0.176,0,0.334-0.058,0.445-0.159l-0.078-0.117
		c-0.084,0.051-0.156,0.071-0.242,0.071c-0.219,0-0.341-0.129-0.341-0.36c0-0.332,0.214-0.653,0.435-0.653
		C96.707,37.971,96.758,38.07,96.762,38.261"/>
	<path d="M97.122,39.158c0.056-0.004,0.077-0.004,0.124-0.004c0.043,0,0.088,0.002,0.132,0.002l0.035,0.002l0.114-0.514
		c0.031-0.111,0.095-0.235,0.178-0.352c0.12-0.165,0.26-0.271,0.357-0.271c0.065,0,0.099,0.047,0.099,0.154
		s-0.052,0.331-0.192,0.833l-0.041,0.148c0.059-0.003,0.084-0.005,0.135-0.005c0.062,0,0.088,0.002,0.166,0.005l0.025-0.089
		c0.145-0.539,0.191-0.781,0.191-0.935c0-0.2-0.096-0.302-0.282-0.302c-0.144,0-0.288,0.076-0.408,0.212
		c-0.044,0.049-0.079,0.095-0.147,0.205l-0.034,0.052c0.021-0.062,0.022-0.07,0.043-0.14c0.002-0.017,0.006-0.027,0.007-0.033
		l0.197-0.875c-0.079,0.006-0.102,0.006-0.159,0.006c-0.05,0-0.067,0-0.121-0.006l-0.021,0.119l-0.338,1.535L97.122,39.158z"/>
	<path d="M99.068,37.879h-0.027c-0.109,0-0.129,0-0.205-0.005l-0.003,0.021c-0.015,0.063-0.019,0.086-0.037,0.141
		c0.083-0.006,0.106-0.006,0.228-0.006l-0.164,0.669c-0.027,0.124-0.036,0.18-0.036,0.247c0,0.156,0.092,0.24,0.259,0.24
		c0.129,0,0.256-0.035,0.357-0.105c-0.004-0.007-0.008-0.014-0.012-0.018c-0.029-0.056-0.031-0.061-0.043-0.096
		c-0.059,0.035-0.107,0.049-0.158,0.049c-0.069,0-0.109-0.045-0.109-0.127c0-0.029,0.007-0.062,0.025-0.147l0.144-0.613l0.024-0.099
		c0.172,0,0.207,0,0.316,0.006l0.006-0.023c0.018-0.074,0.021-0.089,0.035-0.138c-0.111,0.005-0.146,0.005-0.32,0.005l0.094-0.369
		l-0.037,0.008l-0.227,0.049l-0.035,0.004L99.068,37.879z"/>
	<path d="M99.639,39.037l0.018,0.013c0.104,0.099,0.212,0.138,0.357,0.138c0.277,0,0.476-0.164,0.476-0.394
		c0-0.114-0.033-0.194-0.144-0.336l-0.096-0.119c-0.061-0.081-0.089-0.146-0.089-0.2c0-0.082,0.067-0.137,0.173-0.137
		c0.078,0,0.161,0.027,0.239,0.081c0.04-0.081,0.051-0.099,0.086-0.149c-0.091-0.065-0.212-0.102-0.343-0.102
		c-0.273,0-0.455,0.146-0.455,0.363c0,0.104,0.027,0.171,0.101,0.268l0.075,0.1l0.029,0.037c0.084,0.108,0.115,0.176,0.115,0.24
		c0,0.098-0.074,0.162-0.188,0.162c-0.085,0-0.165-0.041-0.233-0.118C99.711,38.959,99.693,38.98,99.639,39.037"/>
	<path d="M55.939,35.859c-0.076,0.135-0.105,0.182-0.223,0.336l-0.021,0.033c0.232,0.207,0.518,0.312,0.842,0.312
		c0.585,0,0.963-0.32,0.963-0.816c0-0.219-0.11-0.449-0.315-0.682c-0.021-0.021-0.059-0.062-0.114-0.117
		c-0.025-0.025-0.046-0.046-0.059-0.059l-0.126-0.113c-0.016-0.014-0.068-0.066-0.186-0.189c-0.038-0.037-0.07-0.075-0.101-0.109
		c-0.063-0.071-0.097-0.146-0.097-0.206c0-0.159,0.144-0.256,0.4-0.256c0.144,0,0.278,0.042,0.467,0.142
		c0.009-0.025,0.013-0.031,0.013-0.035c0.017-0.043,0.063-0.141,0.139-0.301c0.004-0.007,0.009-0.017,0.018-0.027
		c-0.097-0.051-0.127-0.068-0.186-0.09c-0.138-0.05-0.316-0.078-0.505-0.078c-0.61,0-1.01,0.297-1.01,0.752
		c0,0.203,0.058,0.354,0.214,0.547c0.056,0.062,0.106,0.121,0.157,0.173c0.003,0.004,0.038,0.034,0.092,0.083l0.135,0.121
		c0.202,0.186,0.337,0.406,0.337,0.539c0,0.164-0.131,0.277-0.316,0.277c-0.118,0-0.247-0.041-0.357-0.113
		C56.044,35.943,56.028,35.932,55.939,35.859"/>
	<path d="M58.658,34.816h0.202c0.144,0,0.198,0.004,0.379,0.009c-0.009-0.077-0.013-0.106-0.013-0.165c0-0.062,0-0.094,0.008-0.171
		c-0.206,0.008-0.261,0.008-0.488,0.008h-0.089c0.004-0.366,0.004-0.438,0.018-0.669c-0.316,0.171-0.404,0.214-0.644,0.307v0.362
		h-0.077c-0.163,0-0.197,0-0.328-0.008c0.009,0.092,0.009,0.122,0.009,0.192c0,0.051,0,0.079-0.009,0.144
		c0.11-0.009,0.144-0.009,0.232-0.009h0.143l-0.008,0.861v0.021c0,0.594,0.168,0.812,0.623,0.812c0.151,0,0.312-0.024,0.421-0.071
		c0.071-0.025,0.109-0.056,0.193-0.131c-0.067-0.094-0.084-0.131-0.118-0.224c-0.088,0.06-0.172,0.093-0.244,0.093
		c-0.16,0-0.228-0.109-0.228-0.357v-0.025l0.017-0.893L58.658,34.816L58.658,34.816z"/>
	<path d="M61.413,34.445c-0.122,0.009-0.172,0.009-0.282,0.009c-0.105,0-0.21,0-0.319-0.004l-0.063-0.005
		c0.009,0.193,0.009,0.231,0.009,0.64l0.003,0.472v0.084c0,0.229-0.042,0.354-0.152,0.446c-0.063,0.05-0.155,0.088-0.218,0.088
		c-0.131,0-0.228-0.079-0.253-0.21c-0.021-0.084-0.021-0.135-0.029-0.361v-0.358c0-0.226,0.003-0.462,0.012-0.702l0.004-0.098
		c-0.156,0.009-0.21,0.009-0.341,0.009c-0.122,0-0.177,0-0.324-0.009v0.089l-0.004,1.077v0.029c0,0.422,0.042,0.563,0.209,0.711
		c0.13,0.108,0.296,0.164,0.505,0.164c0.345,0,0.509-0.105,0.623-0.404c0.009,0.13,0.012,0.176,0.025,0.295l0.008,0.059h0.038
		c0.11-0.008,0.219-0.013,0.32-0.013c0.118,0,0.147,0.005,0.252,0.013c-0.034-0.337-0.043-0.477-0.043-0.708v-0.08l0.014-0.979
		L61.413,34.445z"/>
	<path d="M63.256,36.465h0.038c0.08-0.008,0.16-0.008,0.241-0.008c0.101,0,0.146,0,0.272,0.008c-0.017-0.203-0.017-0.26-0.017-0.501
		c-0.003-0.136-0.003-0.315-0.003-0.547c0-0.892,0.003-1.364,0.017-1.726l0.003-0.202c-0.134,0.014-0.189,0.014-0.29,0.014
		c-0.13,0-0.193,0-0.366-0.014v0.215v0.606v0.209c-0.11-0.08-0.232-0.117-0.425-0.117c-0.599,0-1.015,0.445-1.015,1.078
		c0,0.636,0.345,1.043,0.879,1.043c0.307,0,0.535-0.113,0.652-0.334c-0.004,0.033-0.004,0.06-0.004,0.08
		C63.24,36.348,63.244,36.381,63.256,36.465 M63.156,35.089v0.632c-0.009,0.192-0.029,0.278-0.08,0.35
		c-0.056,0.08-0.165,0.131-0.27,0.131c-0.261,0-0.404-0.281-0.404-0.801c0-0.487,0.118-0.719,0.375-0.719
		c0.125,0,0.227,0.049,0.299,0.144C63.13,34.895,63.143,34.947,63.156,35.089"/>
	<path d="M65.898,36.271l-0.017-0.021c-0.059-0.105-0.076-0.135-0.114-0.218c-0.147,0.088-0.248,0.116-0.387,0.116
		c-0.362,0-0.624-0.272-0.624-0.654c0-0.018,0-0.043,0.005-0.072c0.164-0.008,0.23-0.008,0.324-0.008
		c0.147,0,0.396,0.003,0.749,0.018l0.189,0.004v-0.099c0-0.606-0.324-0.95-0.896-0.95c-0.636,0-1.044,0.42-1.044,1.081
		c0,0.64,0.417,1.054,1.056,1.054C65.452,36.521,65.679,36.448,65.898,36.271 M64.774,35.127c0.029-0.298,0.156-0.477,0.354-0.477
		c0.192,0,0.299,0.14,0.299,0.404c0,0.014-0.004,0.033-0.004,0.059L64.774,35.127z"/>
	<path d="M66.316,36.465c0.123-0.008,0.169-0.008,0.278-0.008c0.11,0,0.215,0,0.32,0.004l0.066,0.004
		c-0.007-0.193-0.007-0.232-0.012-0.639v-0.473V35.27c0-0.34,0.144-0.533,0.392-0.533c0.139,0,0.227,0.076,0.257,0.209
		c0.021,0.084,0.025,0.137,0.029,0.363c0,0.117,0.004,0.239,0.004,0.357c0,0.227-0.004,0.463-0.016,0.702v0.098
		c0.151-0.008,0.21-0.008,0.336-0.008c0.122,0,0.18,0,0.328,0.008l-0.004-0.088l0.004-1.078v-0.03c0-0.42-0.042-0.563-0.209-0.709
		c-0.131-0.11-0.291-0.164-0.505-0.164c-0.34,0-0.551,0.129-0.652,0.403c-0.004-0.131-0.009-0.177-0.025-0.296l-0.01-0.059h-0.038
		c-0.108,0.008-0.214,0.013-0.315,0.013c-0.122,0-0.151-0.005-0.256-0.013c0.033,0.337,0.042,0.477,0.042,0.707v0.08l-0.009,0.98
		L66.316,36.465z"/>
	<path d="M69.522,34.816h0.202c0.143,0,0.198,0.004,0.379,0.009c-0.009-0.077-0.013-0.106-0.013-0.165c0-0.062,0-0.094,0.009-0.171
		c-0.207,0.008-0.262,0.008-0.489,0.008h-0.088c0.005-0.366,0.005-0.438,0.017-0.669c-0.316,0.171-0.404,0.214-0.644,0.307v0.362
		H68.82c-0.165,0-0.198,0-0.329-0.008C68.5,34.58,68.5,34.611,68.5,34.682c0,0.051,0,0.079-0.008,0.144
		c0.11-0.009,0.144-0.009,0.232-0.009h0.143l-0.009,0.861v0.021c0,0.594,0.168,0.812,0.623,0.812c0.151,0,0.312-0.024,0.421-0.071
		c0.071-0.025,0.109-0.056,0.193-0.131c-0.067-0.094-0.084-0.131-0.118-0.224c-0.088,0.06-0.172,0.093-0.244,0.093
		c-0.16,0-0.228-0.109-0.228-0.357v-0.025l0.017-0.893V34.816z"/>
	<path d="M72.011,36.271l-0.016-0.021c-0.06-0.105-0.076-0.135-0.114-0.218c-0.148,0.088-0.248,0.116-0.388,0.116
		c-0.362,0-0.623-0.272-0.623-0.654c0-0.018,0-0.043,0.005-0.072c0.164-0.008,0.231-0.008,0.324-0.008
		c0.148,0,0.396,0.003,0.75,0.018l0.188,0.004v-0.099c0-0.606-0.324-0.95-0.896-0.95c-0.635,0-1.043,0.42-1.043,1.081
		c0,0.64,0.417,1.054,1.056,1.054C71.565,36.521,71.792,36.448,72.011,36.271 M70.888,35.127c0.029-0.298,0.156-0.477,0.353-0.477
		c0.194,0,0.299,0.14,0.299,0.404c0,0.014-0.004,0.033-0.004,0.059L70.888,35.127z"/>
	<path d="M72.431,36.465c0.122-0.008,0.168-0.008,0.278-0.008c0.109,0,0.215,0,0.32,0.004l0.066,0.004
		c-0.007-0.193-0.007-0.232-0.012-0.639v-0.473V35.27c0-0.34,0.143-0.533,0.392-0.533c0.138,0,0.227,0.076,0.257,0.209
		c0.02,0.084,0.024,0.137,0.029,0.363c0,0.117,0.004,0.239,0.004,0.357c0,0.227-0.004,0.463-0.017,0.702v0.098
		c0.151-0.008,0.211-0.008,0.337-0.008c0.123,0,0.181,0,0.328,0.008l-0.004-0.088l0.004-1.078v-0.03c0-0.42-0.042-0.563-0.21-0.709
		c-0.131-0.11-0.291-0.164-0.505-0.164c-0.34,0-0.551,0.129-0.652,0.403c-0.005-0.131-0.008-0.177-0.025-0.296l-0.009-0.059h-0.039
		c-0.109,0.008-0.214,0.013-0.315,0.013c-0.123,0-0.151-0.005-0.257-0.013c0.034,0.337,0.042,0.477,0.042,0.707v0.08l-0.008,0.98
		L72.431,36.465z"/>
	<path d="M74.571,34.445l0.067,0.211l0.257,0.789l0.274,0.914l0.028,0.105c0.122-0.013,0.169-0.017,0.282-0.017
		c0.114,0,0.16,0.004,0.287,0.017l0.29-1.023l0.105-0.403l0.025-0.113c0.008,0.067,0.016,0.11,0.021,0.13
		c0.008,0.038,0.042,0.147,0.097,0.328c0.008,0.024,0.012,0.038,0.017,0.047l0.349,1.034c0.096-0.008,0.139-0.013,0.223-0.013
		c0.085,0,0.169,0.005,0.253,0.008l0.042,0.005l0.034-0.098l0.512-1.665l0.072-0.258l-0.042,0.005
		c-0.081,0.004-0.165,0.008-0.248,0.008c-0.106,0-0.136-0.004-0.224-0.013c-0.092,0.494-0.127,0.64-0.303,1.402
		c-0.021-0.076-0.033-0.132-0.042-0.169c-0.013-0.05-0.022-0.084-0.025-0.097l-0.387-1.137c-0.106,0.013-0.148,0.013-0.24,0.013
		c-0.118,0-0.16,0-0.292-0.013l-0.328,1c-0.042,0.127-0.059,0.211-0.084,0.41c-0.025-0.178-0.034-0.215-0.08-0.393l-0.269-1.018
		L75.2,34.447h-0.585L74.571,34.445z"/>
	<path d="M79.688,36.271l-0.017-0.021c-0.06-0.105-0.075-0.135-0.112-0.218c-0.147,0.088-0.25,0.116-0.388,0.116
		c-0.362,0-0.623-0.272-0.623-0.654c0-0.018,0-0.043,0.004-0.072c0.164-0.008,0.23-0.008,0.324-0.008
		c0.146,0,0.396,0.003,0.748,0.018l0.188,0.004v-0.099c0-0.606-0.323-0.95-0.896-0.95c-0.635,0-1.043,0.42-1.043,1.081
		c0,0.64,0.417,1.054,1.056,1.054C79.242,36.521,79.471,36.448,79.688,36.271 M78.564,35.127c0.029-0.298,0.156-0.477,0.354-0.477
		c0.193,0,0.299,0.14,0.299,0.404c0,0.014-0.004,0.033-0.004,0.059L78.564,35.127z"/>
	<path d="M81.471,34.98c0.01-0.029,0.014-0.043,0.014-0.047c0.013-0.029,0.07-0.158,0.185-0.395c0.004-0.014,0.015-0.03,0.024-0.05
		c-0.108-0.064-0.219-0.091-0.36-0.091c-0.155,0-0.282,0.035-0.374,0.103c-0.113,0.084-0.202,0.203-0.261,0.345l-0.011-0.15
		l-0.004-0.189l-0.002-0.061h-0.039c-0.108,0.01-0.215,0.014-0.315,0.014c-0.122,0-0.151-0.004-0.257-0.014
		c0.033,0.262,0.043,0.352,0.043,0.527v0.182v0.08c0.003,0.518,0,0.896-0.01,1.132L80.1,36.467c0.121-0.007,0.172-0.012,0.281-0.012
		c0.11,0,0.219,0.005,0.328,0.008l0.066,0.004c-0.008-0.195-0.012-0.238-0.012-0.638v-0.544c0.012-0.202,0.037-0.281,0.112-0.354
		c0.06-0.055,0.147-0.089,0.248-0.089c0.089,0,0.183,0.025,0.249,0.068c0.013,0.007,0.038,0.024,0.07,0.049L81.471,34.98z"/>
	<path d="M82.424,36.465c-0.016-0.299-0.021-0.4-0.021-0.824v-0.228l0.035-0.004c0.328,0.455,0.408,0.571,0.723,1.056
		c0.123-0.008,0.174-0.008,0.266-0.008c0.126,0,0.262,0,0.404,0.004l0.097,0.004c-0.437-0.551-0.546-0.682-0.976-1.199
		c0.445-0.425,0.529-0.514,0.811-0.82l-0.066,0.005c-0.102,0.003-0.196,0.003-0.288,0.003c-0.11,0-0.134,0-0.222-0.008
		c-0.326,0.379-0.412,0.467-0.758,0.797l-0.023,0.003v-0.272c0-0.695,0.005-1.15,0.017-1.358c0-0.027,0-0.068,0.004-0.124
		c-0.143,0.01-0.2,0.014-0.313,0.014c-0.103,0-0.207-0.004-0.307-0.01L81.76,33.49c0.004,0.055,0.004,0.097,0.004,0.124
		c0.01,0.176,0.014,0.584,0.014,1.228c0,0.631-0.004,1.334-0.014,1.49c0,0.029,0,0.075-0.004,0.134
		c0.131-0.008,0.182-0.012,0.291-0.012c0.1,0,0.205,0.004,0.307,0.008L82.424,36.465z"/>
	<path d="M84.967,36.465c0.145-0.008,0.201-0.008,0.324-0.008c0.109,0,0.22,0,0.33,0.004l0.057,0.004
		c-0.008-0.314-0.012-0.562-0.012-0.736c0-0.109,0-0.186,0.004-0.367c0.061,0,0.076,0.006,0.122,0.006
		c0.244,0,0.333-0.006,0.446-0.026c0.467-0.071,0.772-0.413,0.772-0.854c0-0.504-0.317-0.799-0.92-0.84
		c-0.071-0.006-0.216-0.01-0.304-0.01c-0.219,0-0.501,0.025-0.708,0.071c-0.024,0.004-0.062,0.013-0.113,0.024
		c0.007,0.06,0.011,0.105,0.011,0.135c0.004,0.169,0.008,0.513,0.008,1.031v0.147c0,0.669,0,1.095-0.008,1.284
		C84.977,36.359,84.973,36.407,84.967,36.465 M85.67,35.047V34.85v-0.084c0-0.367,0.004-0.488,0.021-0.816
		c0.063-0.012,0.102-0.012,0.16-0.012c0.303,0,0.486,0.209,0.486,0.549c0,0.359-0.188,0.561-0.52,0.561H85.67z"/>
	<path d="M88.227,34.391c-0.311,0-0.537,0.067-0.731,0.229c-0.248,0.197-0.399,0.514-0.399,0.842s0.151,0.645,0.399,0.84
		c0.196,0.157,0.422,0.229,0.731,0.229c0.308,0,0.535-0.071,0.732-0.229c0.248-0.195,0.395-0.512,0.395-0.84
		c0-0.329-0.146-0.645-0.395-0.842C88.762,34.458,88.538,34.391,88.227,34.391 M87.793,35.291c0.021-0.395,0.16-0.622,0.393-0.622
		c0.273,0,0.457,0.351,0.457,0.868c0,0.439-0.139,0.702-0.379,0.702c-0.298,0-0.475-0.312-0.475-0.829
		C87.789,35.37,87.789,35.329,87.793,35.291"/>
	<path d="M90.473,34.816h0.203c0.143,0,0.197,0.004,0.379,0.009c-0.008-0.077-0.014-0.106-0.014-0.165c0-0.062,0-0.094,0.01-0.171
		c-0.205,0.008-0.262,0.008-0.488,0.008h-0.09c0.006-0.366,0.006-0.438,0.019-0.669c-0.315,0.171-0.403,0.214-0.646,0.307v0.362
		h-0.074c-0.164,0-0.197,0-0.328-0.008c0.009,0.092,0.009,0.122,0.009,0.192c0,0.051,0,0.079-0.009,0.144
		c0.109-0.009,0.144-0.009,0.231-0.009h0.142l-0.008,0.861v0.021c0,0.594,0.168,0.812,0.623,0.812c0.151,0,0.312-0.024,0.42-0.071
		c0.072-0.025,0.109-0.056,0.195-0.131c-0.068-0.094-0.086-0.131-0.119-0.224c-0.088,0.06-0.172,0.093-0.242,0.093
		c-0.16,0-0.229-0.109-0.229-0.357v-0.025l0.016-0.893V34.816L90.473,34.816z"/>
	<path d="M91.119,36.339c0.164,0.122,0.404,0.188,0.674,0.188c0.449,0,0.773-0.256,0.773-0.618c0-0.224-0.158-0.472-0.463-0.703
		l-0.164-0.127c-0.097-0.071-0.144-0.144-0.144-0.202c0-0.088,0.093-0.146,0.231-0.146c0.135,0,0.299,0.045,0.408,0.113
		c0.008-0.017,0.013-0.025,0.017-0.033c0.063-0.137,0.108-0.221,0.126-0.248c0.006-0.004,0.013-0.018,0.025-0.039
		c-0.139-0.092-0.323-0.135-0.563-0.135c-0.479,0-0.799,0.24-0.799,0.611c0,0.227,0.116,0.395,0.444,0.65
		c0.172,0.136,0.215,0.181,0.244,0.252c0.01,0.021,0.014,0.043,0.014,0.068c0,0.127-0.09,0.196-0.243,0.196
		c-0.136,0-0.279-0.058-0.388-0.151c-0.047,0.098-0.062,0.127-0.166,0.279L91.119,36.339z"/>
	<path d="M94.279,36.465h0.039c0.08-0.008,0.16-0.008,0.24-0.008c0.102,0,0.146,0,0.272,0.008c-0.017-0.203-0.017-0.26-0.017-0.501
		c-0.006-0.136-0.006-0.315-0.006-0.547c0-0.892,0.006-1.364,0.019-1.726l0.004-0.202c-0.136,0.014-0.188,0.014-0.29,0.014
		c-0.13,0-0.193,0-0.366-0.014v0.215v0.606v0.209c-0.108-0.08-0.231-0.117-0.425-0.117c-0.598,0-1.016,0.445-1.016,1.078
		c0,0.636,0.347,1.043,0.881,1.043c0.308,0,0.533-0.113,0.65-0.334c-0.004,0.033-0.004,0.06-0.004,0.08
		C94.264,36.348,94.268,36.381,94.279,36.465 M94.18,35.089v0.632c-0.008,0.192-0.029,0.278-0.08,0.35
		c-0.055,0.08-0.164,0.131-0.27,0.131c-0.26,0-0.404-0.281-0.404-0.801c0-0.487,0.119-0.719,0.375-0.719
		c0.127,0,0.227,0.049,0.299,0.144C94.154,34.895,94.168,34.947,94.18,35.089"/>
	<path d="M96.4,36.09c0.029,0.229,0.037,0.258,0.088,0.374h0.043h0.496h0.059c-0.051-0.159-0.062-0.206-0.08-0.302
		c-0.021-0.109-0.029-0.253-0.029-0.387c0-0.033,0-0.062,0.004-0.098l0.025-0.303c0.01-0.088,0.01-0.172,0.01-0.248
		c0-0.236-0.039-0.35-0.166-0.484c-0.045-0.05-0.101-0.092-0.158-0.121c-0.141-0.076-0.305-0.104-0.561-0.104
		c-0.316,0-0.533,0.062-0.719,0.206c-0.17,0.131-0.236,0.273-0.245,0.534c0.261-0.072,0.358-0.089,0.647-0.125
		c-0.004-0.03-0.004-0.042-0.004-0.062c0-0.197,0.102-0.302,0.295-0.302c0.178,0,0.256,0.118,0.256,0.396
		c0,0.06-0.002,0.084-0.016,0.207c0,0.017,0,0.037-0.005,0.07c-0.135,0.006-0.182,0.01-0.329,0.03
		c-0.222,0.032-0.353,0.067-0.482,0.126c-0.283,0.126-0.426,0.324-0.426,0.572c0,0.287,0.22,0.467,0.563,0.467
		C95.988,36.537,96.283,36.359,96.4,36.09 M96.337,35.548l-0.008,0.109c-0.026,0.198-0.052,0.278-0.11,0.375
		c-0.066,0.108-0.193,0.184-0.303,0.184c-0.121,0-0.21-0.092-0.21-0.222C95.706,35.732,95.95,35.561,96.337,35.548"/>
	<path d="M100.48,36.465v-0.088c-0.008-0.225-0.004-0.582,0.004-1.078v-0.171c0-0.278-0.041-0.43-0.16-0.563
		c-0.117-0.127-0.246-0.178-0.487-0.178c-0.286,0-0.458,0.072-0.593,0.243c-0.025,0.034-0.047,0.068-0.102,0.156
		c-0.045-0.248-0.271-0.396-0.599-0.396c-0.286,0-0.463,0.104-0.604,0.354c-0.004-0.093-0.008-0.109-0.025-0.228l-0.012-0.072
		h-0.039c-0.102,0.008-0.197,0.008-0.29,0.008c-0.076,0-0.114,0-0.206-0.008c0.029,0.215,0.033,0.299,0.037,0.529
		c0.005,0.068,0.005,0.127,0.005,0.178v0.08v0.336c0,0.434,0,0.529-0.013,0.896c0.123-0.008,0.172-0.012,0.276-0.012
		c0.109,0,0.216,0.004,0.324,0.008l0.062,0.004c-0.008-0.193-0.008-0.232-0.008-0.639l-0.004-0.473
		c0.012-0.15,0.018-0.188,0.023-0.238c0.022-0.114,0.072-0.231,0.133-0.312c0.043-0.059,0.109-0.097,0.176-0.097
		c0.119,0,0.189,0.084,0.211,0.248c0.008,0.098,0.012,0.151,0.012,0.315v0.051c-0.004,0.535-0.008,0.884-0.012,1.047l-0.004,0.098
		c0.154-0.008,0.21-0.008,0.34-0.008c0.122,0,0.182,0,0.33,0.008v-0.088l0.004-1.023l0.004-0.111
		c0.021-0.333,0.144-0.536,0.336-0.536c0.135,0,0.215,0.084,0.229,0.248c0.012,0.098,0.012,0.144,0.012,0.409
		c0,0.457-0.005,0.791-0.012,1.005l-0.006,0.098c0.149-0.008,0.211-0.008,0.337-0.008C100.279,36.457,100.338,36.457,100.48,36.465"
		/>
	<path d="M76.715,20.192c-3.376,5.848-11.313,6.216-15.421,1.46l3.072-5.254c0.671,0.741,1.48,1.381,2.338,1.89l3,1.739l3.38-5.853
		l-5.577-3.226l3.05-5.316l2.689,1.546C77.79,9.801,79.34,15.648,76.715,20.192 M79.229,3.562l-0.071-0.087
		c-4.215-5-12.5-4.672-16.019,1.422c-2.128,3.686-1.593,8.178,1.004,11.251l-3.238,5.538l-3.243,5.619l5.856,3.383l3.234-5.598
		c3.824,0.686,8.001-0.855,10.242-4.738c2.126-3.684,1.606-8.192-0.984-11.277L79.229,3.562z"/>
</g>
</svg>
