<?xml version="1.0" encoding="utf-8"?>
<!-- Generator: Adobe Illustrator 16.0.0, SVG Export Plug-In . SVG Version: 6.00 Build 0)  -->
<!DOCTYPE svg PUBLIC "-//W3C//DTD SVG 1.1//EN" "http://www.w3.org/Graphics/SVG/1.1/DTD/svg11.dtd">
<svg version="1.1" id="Ebene_1" xmlns="http://www.w3.org/2000/svg" xmlns:xlink="http://www.w3.org/1999/xlink" x="0px" y="0px"
	 width="46.636px" height="40px" viewBox="0 0 46.636 40" enable-background="new 0 0 46.636 40" xml:space="preserve">
<g>
	<g>
		<path fill="#040407" d="M9.45,24.632H8.446l-0.602,3.163H7.369l0.602-3.163H6.962l0.073-0.402h2.489L9.45,24.632z"/>
		<path fill="#040407" d="M10.724,25.583c-0.123-0.036-0.244-0.005-0.362,0.092c-0.12,0.098-0.231,0.229-0.335,0.394
			c-0.103,0.166-0.194,0.351-0.272,0.556c-0.078,0.204-0.135,0.397-0.17,0.58l-0.112,0.592H9.006l0.266-1.368
			c0.04-0.211,0.079-0.421,0.119-0.628c0.04-0.208,0.078-0.417,0.117-0.629h0.455c-0.021,0.113-0.053,0.245-0.094,0.396
			s-0.101,0.342-0.179,0.57l0.011,0.006c0.074-0.158,0.15-0.306,0.227-0.441c0.077-0.135,0.16-0.248,0.25-0.341
			c0.09-0.091,0.188-0.159,0.293-0.203c0.104-0.044,0.221-0.056,0.347-0.035L10.724,25.583z"/>
		<path fill="#040407" d="M13.228,25.208c-0.07,0.366-0.131,0.678-0.181,0.935c-0.049,0.257-0.091,0.481-0.126,0.674
			s-0.067,0.363-0.096,0.514c-0.027,0.153-0.056,0.307-0.084,0.465h-0.476c0.046-0.221,0.151-0.577,0.311-1.066l-0.011-0.005
			c-0.049,0.103-0.11,0.217-0.182,0.348c-0.071,0.13-0.159,0.253-0.261,0.367c-0.103,0.115-0.219,0.211-0.349,0.291
			c-0.129,0.079-0.274,0.118-0.433,0.118c-0.189,0-0.335-0.062-0.435-0.188c-0.1-0.127-0.15-0.33-0.15-0.607
			c0-0.243,0.031-0.48,0.095-0.711c0.063-0.23,0.162-0.436,0.298-0.615s0.308-0.324,0.515-0.434c0.208-0.109,0.455-0.164,0.74-0.164
			c0.151,0,0.295,0.008,0.433,0.021S13.104,25.183,13.228,25.208z M12.527,25.517c-0.062-0.008-0.13-0.014-0.205-0.014
			c-0.198,0-0.366,0.047-0.503,0.139c-0.138,0.092-0.25,0.208-0.337,0.349c-0.087,0.141-0.15,0.299-0.191,0.472
			c-0.04,0.174-0.061,0.341-0.061,0.504c0,0.173,0.025,0.295,0.074,0.37c0.049,0.074,0.115,0.111,0.196,0.111
			c0.124,0,0.247-0.059,0.373-0.176c0.125-0.116,0.24-0.26,0.346-0.431s0.199-0.354,0.276-0.548c0.079-0.194,0.134-0.371,0.167-0.53
			l0.038-0.211C12.646,25.537,12.589,25.524,12.527,25.517z"/>
		<path fill="#040407" d="M15.736,27.796h-0.464l0.321-1.684c0.039-0.208,0.04-0.358,0.003-0.452s-0.115-0.141-0.235-0.141
			c-0.124,0-0.245,0.058-0.367,0.172c-0.121,0.115-0.235,0.258-0.341,0.427c-0.105,0.17-0.196,0.352-0.274,0.549
			c-0.077,0.195-0.131,0.375-0.163,0.537l-0.112,0.593H13.64l0.266-1.369c0.004-0.02,0.013-0.062,0.024-0.126
			c0.013-0.062,0.026-0.139,0.042-0.227s0.033-0.181,0.051-0.276c0.018-0.099,0.035-0.189,0.051-0.275s0.03-0.161,0.043-0.226
			c0.012-0.063,0.02-0.105,0.023-0.126h0.459c-0.018,0.088-0.048,0.212-0.091,0.372c-0.042,0.16-0.11,0.382-0.203,0.664h0.011
			c0.063-0.139,0.137-0.272,0.219-0.404c0.083-0.132,0.176-0.248,0.277-0.349c0.102-0.1,0.213-0.181,0.332-0.242
			s0.249-0.093,0.385-0.093c0.243,0,0.408,0.08,0.494,0.24c0.086,0.159,0.104,0.377,0.056,0.652L15.736,27.796z"/>
		<path fill="#040407" d="M18.219,25.546c-0.126-0.042-0.259-0.063-0.396-0.063c-0.173,0-0.303,0.036-0.391,0.108
			S17.3,25.755,17.3,25.868c0,0.069,0.019,0.133,0.059,0.188c0.038,0.055,0.088,0.106,0.148,0.156
			c0.06,0.048,0.123,0.099,0.191,0.15c0.069,0.05,0.133,0.106,0.193,0.166s0.109,0.126,0.148,0.201
			c0.039,0.073,0.058,0.159,0.058,0.259c0,0.108-0.023,0.215-0.07,0.32c-0.048,0.103-0.119,0.195-0.214,0.273
			c-0.096,0.079-0.213,0.144-0.354,0.19c-0.142,0.048-0.305,0.071-0.491,0.071c-0.177,0-0.325-0.013-0.449-0.037l0.084-0.429
			c0.141,0.05,0.284,0.074,0.429,0.074c0.172,0,0.312-0.034,0.418-0.103c0.105-0.069,0.157-0.173,0.157-0.31
			c0-0.07-0.02-0.132-0.058-0.185c-0.039-0.053-0.088-0.103-0.148-0.151c-0.06-0.048-0.124-0.095-0.19-0.142
			c-0.067-0.048-0.13-0.102-0.19-0.162c-0.06-0.059-0.108-0.127-0.147-0.206c-0.039-0.077-0.059-0.169-0.059-0.274
			c0-0.112,0.022-0.218,0.066-0.314s0.11-0.182,0.198-0.253c0.088-0.072,0.197-0.129,0.327-0.17c0.131-0.04,0.28-0.061,0.449-0.061
			c0.093,0,0.173,0.004,0.243,0.01c0.069,0.009,0.139,0.017,0.206,0.027L18.219,25.546z"/>
		<path fill="#040407" d="M20.834,24.348c-0.061-0.019-0.123-0.031-0.188-0.041c-0.065-0.009-0.126-0.013-0.182-0.013
			c-0.19,0-0.341,0.055-0.449,0.163c-0.109,0.108-0.186,0.286-0.228,0.534l-0.032,0.18h0.714l-0.079,0.375h-0.708l-0.449,2.384
			c-0.082,0.43-0.223,0.737-0.426,0.926c-0.201,0.189-0.461,0.283-0.783,0.283c-0.163,0-0.314-0.017-0.456-0.048l0.116-0.406
			c0.06,0.018,0.123,0.03,0.19,0.039c0.067,0.01,0.126,0.014,0.18,0.014c0.096,0,0.18-0.014,0.254-0.039
			c0.073-0.026,0.139-0.07,0.196-0.131c0.056-0.062,0.105-0.144,0.146-0.245c0.042-0.103,0.077-0.23,0.105-0.385l0.459-2.391h-0.533
			l0.08-0.375h0.522l0.037-0.185c0.063-0.362,0.192-0.634,0.386-0.812c0.193-0.177,0.461-0.266,0.803-0.266
			c0.145,0,0.29,0.015,0.438,0.048L20.834,24.348z"/>
		<path fill="#040407" d="M22.593,25.72c0,0.57-0.568,0.877-1.706,0.92c-0.007,0.038-0.014,0.087-0.019,0.146
			c-0.004,0.058-0.008,0.111-0.008,0.16c0,0.103,0.011,0.186,0.03,0.251c0.019,0.065,0.051,0.118,0.095,0.156
			c0.045,0.039,0.104,0.065,0.176,0.081s0.161,0.023,0.268,0.023c0.124,0,0.249-0.014,0.375-0.039
			c0.128-0.027,0.248-0.062,0.361-0.108l0.016,0.369c-0.133,0.054-0.276,0.094-0.428,0.122c-0.152,0.029-0.313,0.043-0.486,0.043
			c-0.303,0-0.525-0.067-0.668-0.202c-0.144-0.133-0.214-0.35-0.214-0.648c0-0.255,0.035-0.494,0.103-0.723
			c0.069-0.227,0.166-0.426,0.291-0.597s0.275-0.306,0.451-0.403c0.177-0.099,0.374-0.148,0.592-0.148
			c0.142,0,0.26,0.017,0.357,0.05c0.096,0.033,0.176,0.077,0.237,0.133c0.061,0.055,0.106,0.117,0.134,0.188
			C22.579,25.567,22.593,25.643,22.593,25.72z M22.118,25.778c0-0.096-0.032-0.169-0.098-0.22c-0.065-0.05-0.151-0.076-0.256-0.076
			c-0.105,0-0.201,0.021-0.289,0.063c-0.086,0.043-0.163,0.1-0.232,0.174c-0.068,0.075-0.127,0.161-0.177,0.26
			c-0.049,0.098-0.09,0.203-0.121,0.312c0.407-0.017,0.706-0.067,0.892-0.15C22.024,26.058,22.118,25.937,22.118,25.778z"/>
		<path fill="#040407" d="M24.647,25.583c-0.122-0.036-0.243-0.005-0.362,0.092c-0.119,0.098-0.23,0.229-0.334,0.394
			c-0.103,0.166-0.194,0.351-0.272,0.556c-0.078,0.204-0.135,0.397-0.17,0.58l-0.112,0.592h-0.465l0.267-1.368
			c0.039-0.211,0.078-0.421,0.117-0.628c0.039-0.208,0.078-0.417,0.118-0.629h0.454c-0.021,0.113-0.053,0.245-0.094,0.396
			s-0.101,0.342-0.179,0.57l0.011,0.006c0.072-0.158,0.148-0.306,0.227-0.441c0.077-0.135,0.16-0.248,0.25-0.341
			c0.09-0.091,0.187-0.159,0.292-0.203s0.222-0.056,0.349-0.035L24.647,25.583z"/>
		<path fill="#040407" d="M26.38,25.546c-0.127-0.042-0.259-0.063-0.396-0.063c-0.174,0-0.304,0.036-0.392,0.108
			c-0.089,0.072-0.132,0.164-0.132,0.277c0,0.069,0.019,0.133,0.059,0.188c0.038,0.055,0.088,0.106,0.147,0.156
			c0.061,0.048,0.124,0.099,0.193,0.15c0.069,0.05,0.133,0.106,0.192,0.166s0.109,0.126,0.147,0.201
			c0.04,0.073,0.059,0.159,0.059,0.259c0,0.108-0.023,0.215-0.07,0.32c-0.048,0.103-0.119,0.195-0.214,0.273
			c-0.096,0.079-0.214,0.144-0.354,0.19c-0.141,0.048-0.304,0.071-0.49,0.071c-0.177,0-0.326-0.013-0.449-0.037l0.084-0.429
			c0.142,0.05,0.284,0.074,0.429,0.074c0.172,0,0.312-0.034,0.417-0.103c0.105-0.069,0.158-0.173,0.158-0.31
			c0-0.07-0.02-0.132-0.058-0.185c-0.04-0.053-0.088-0.103-0.147-0.151c-0.062-0.048-0.124-0.095-0.191-0.142
			c-0.067-0.048-0.13-0.102-0.189-0.162c-0.061-0.059-0.109-0.127-0.148-0.206c-0.039-0.077-0.059-0.169-0.059-0.274
			c0-0.112,0.022-0.218,0.067-0.314c0.043-0.097,0.109-0.182,0.198-0.253c0.087-0.072,0.196-0.129,0.327-0.17
			c0.13-0.04,0.278-0.061,0.449-0.061c0.091,0,0.172,0.004,0.241,0.01c0.07,0.009,0.14,0.017,0.207,0.027L26.38,25.546z"/>
		<path fill="#040407" d="M29.049,25.72c0,0.57-0.569,0.877-1.706,0.92c-0.008,0.038-0.015,0.087-0.02,0.146
			c-0.004,0.058-0.008,0.111-0.008,0.16c0,0.103,0.01,0.186,0.029,0.251s0.051,0.118,0.096,0.156
			c0.044,0.039,0.104,0.065,0.176,0.081s0.161,0.023,0.268,0.023c0.124,0,0.249-0.014,0.375-0.039
			c0.128-0.027,0.248-0.062,0.361-0.108l0.016,0.369c-0.134,0.054-0.276,0.094-0.428,0.122c-0.152,0.029-0.314,0.043-0.486,0.043
			c-0.303,0-0.525-0.067-0.668-0.202c-0.144-0.133-0.215-0.35-0.215-0.648c0-0.255,0.035-0.494,0.104-0.723
			c0.069-0.227,0.166-0.426,0.291-0.597s0.274-0.306,0.451-0.403c0.177-0.099,0.374-0.148,0.592-0.148
			c0.141,0,0.26,0.017,0.357,0.05c0.096,0.033,0.176,0.077,0.236,0.133c0.062,0.055,0.106,0.117,0.135,0.188
			C29.033,25.567,29.049,25.643,29.049,25.72z M28.573,25.778c0-0.096-0.032-0.169-0.098-0.22c-0.065-0.05-0.151-0.076-0.256-0.076
			c-0.105,0-0.202,0.021-0.289,0.063c-0.086,0.043-0.163,0.1-0.232,0.174c-0.068,0.075-0.127,0.161-0.177,0.26
			c-0.049,0.098-0.09,0.203-0.122,0.312c0.408-0.017,0.707-0.067,0.893-0.15C28.479,26.058,28.573,25.937,28.573,25.778z"/>
		<path fill="#040407" d="M31.103,25.583c-0.122-0.036-0.243-0.005-0.362,0.092c-0.119,0.098-0.23,0.229-0.334,0.394
			c-0.103,0.166-0.194,0.351-0.272,0.556c-0.078,0.204-0.135,0.397-0.171,0.58l-0.112,0.592h-0.465l0.268-1.368
			c0.039-0.211,0.078-0.421,0.117-0.628c0.039-0.208,0.078-0.417,0.117-0.629h0.455c-0.021,0.113-0.053,0.245-0.094,0.396
			s-0.101,0.342-0.179,0.57l0.011,0.006c0.072-0.158,0.148-0.306,0.227-0.441c0.076-0.135,0.16-0.248,0.25-0.341
			c0.09-0.091,0.187-0.159,0.292-0.203s0.222-0.056,0.349-0.035L31.103,25.583z"/>
		<path fill="#040407" d="M32.37,27.796h-0.486l-0.465-2.625h0.502l0.244,1.543c0.027,0.172,0.047,0.342,0.058,0.507h0.005
			l1.109-2.16l0.438,0.152L32.37,27.796z"/>
		<path fill="#040407" d="M34.293,27.796h-0.464l0.502-2.625h0.464L34.293,27.796z M35.032,24.321c0,0.095-0.032,0.172-0.098,0.234
			c-0.065,0.062-0.141,0.093-0.225,0.093c-0.092,0-0.164-0.028-0.219-0.085c-0.055-0.056-0.082-0.125-0.082-0.206
			c0-0.095,0.032-0.173,0.097-0.235c0.065-0.062,0.143-0.092,0.23-0.092c0.089,0,0.159,0.029,0.214,0.087
			C35.006,24.175,35.032,24.243,35.032,24.321z"/>
		<path fill="#040407" d="M37.141,25.62c-0.069-0.031-0.145-0.057-0.224-0.074c-0.078-0.018-0.163-0.026-0.255-0.026
			c-0.166,0-0.31,0.042-0.432,0.126c-0.122,0.085-0.225,0.192-0.306,0.322c-0.08,0.13-0.14,0.275-0.18,0.436
			c-0.038,0.16-0.057,0.315-0.057,0.462c0,0.07,0.006,0.14,0.021,0.204c0.015,0.065,0.042,0.124,0.081,0.178
			c0.04,0.052,0.096,0.095,0.166,0.126c0.069,0.031,0.163,0.047,0.278,0.047c0.102,0,0.203-0.01,0.303-0.032
			c0.099-0.021,0.19-0.05,0.27-0.089V27.7c-0.095,0.039-0.203,0.07-0.324,0.097c-0.122,0.027-0.249,0.041-0.382,0.041
			c-0.17,0-0.313-0.021-0.432-0.067c-0.118-0.044-0.212-0.104-0.282-0.182c-0.071-0.077-0.122-0.169-0.153-0.274
			s-0.047-0.22-0.047-0.344c0-0.249,0.033-0.486,0.103-0.71s0.167-0.419,0.296-0.586c0.128-0.167,0.285-0.3,0.473-0.399
			c0.186-0.099,0.397-0.148,0.633-0.148c0.109,0,0.209,0.008,0.299,0.021s0.176,0.033,0.257,0.058L37.141,25.62z"/>
		<path fill="#040407" d="M39.607,25.72c0,0.57-0.568,0.877-1.706,0.92c-0.008,0.038-0.014,0.087-0.02,0.146
			c-0.004,0.058-0.008,0.111-0.008,0.16c0,0.103,0.011,0.186,0.029,0.251c0.02,0.065,0.052,0.118,0.096,0.156
			c0.044,0.039,0.103,0.065,0.176,0.081c0.072,0.016,0.161,0.023,0.268,0.023c0.124,0,0.25-0.014,0.376-0.039
			c0.128-0.027,0.248-0.062,0.361-0.108l0.016,0.369c-0.134,0.054-0.276,0.094-0.429,0.122c-0.151,0.029-0.313,0.043-0.486,0.043
			c-0.303,0-0.525-0.067-0.668-0.202c-0.144-0.133-0.214-0.35-0.214-0.648c0-0.255,0.034-0.494,0.104-0.723
			c0.068-0.227,0.165-0.426,0.29-0.597s0.275-0.306,0.451-0.403c0.178-0.099,0.375-0.148,0.592-0.148
			c0.141,0,0.261,0.017,0.357,0.05s0.176,0.077,0.237,0.133c0.062,0.055,0.106,0.117,0.135,0.188
			C39.593,25.567,39.607,25.643,39.607,25.72z M39.132,25.778c0-0.096-0.032-0.169-0.097-0.22c-0.065-0.05-0.151-0.076-0.257-0.076
			s-0.202,0.021-0.289,0.063c-0.086,0.043-0.163,0.1-0.231,0.174c-0.069,0.075-0.128,0.161-0.178,0.26
			c-0.049,0.098-0.09,0.203-0.122,0.312c0.409-0.017,0.707-0.067,0.893-0.15C39.039,26.058,39.132,25.937,39.132,25.778z"/>
	</g>
	<g>
		<path fill="#040407" d="M6.952,20.877v-1.475l4.234-6.787H7.07V10.92h6.433v1.533l-4.249,6.683h4.308v1.741H6.952z"/>
		<path fill="#040407" d="M15.243,20.877V10.92h5.413v1.608H17.16v2.434h3.319v1.578H17.16v2.699h3.496v1.638H15.243z"/>
		<path fill="#040407" d="M26.204,12.558v8.319h-1.918v-8.319h-2.582V10.92h7.081v1.638H26.204z"/>
		<path fill="#040407" d="M36.811,20.052c-0.718,0.658-1.736,0.988-3.054,0.988c-0.787,0-1.429-0.099-1.926-0.295
			c-0.496-0.197-0.887-0.463-1.173-0.797c-0.284-0.335-0.481-0.721-0.589-1.158c-0.108-0.438-0.164-0.892-0.164-1.364V10.92h1.918
			v6.398c0,0.315,0.03,0.604,0.089,0.864c0.059,0.262,0.167,0.487,0.323,0.681c0.156,0.192,0.368,0.339,0.632,0.443
			c0.265,0.104,0.602,0.154,1.015,0.154c0.735,0,1.267-0.175,1.596-0.524c0.328-0.349,0.492-0.948,0.492-1.795V10.92h1.918v6.093
			C37.888,18.38,37.529,19.393,36.811,20.052z"/>
		<path fill="#040407" d="M46.636,13.937c0,0.481-0.089,0.933-0.265,1.354c-0.178,0.422-0.436,0.788-0.774,1.097
			c-0.34,0.31-0.751,0.553-1.232,0.729c-0.482,0.176-1.023,0.265-1.623,0.265c-0.088,0-0.191,0-0.31,0
			c-0.108,0-0.222-0.011-0.34-0.029v3.525h-1.917V10.92c0.413-0.02,0.838-0.034,1.275-0.044c0.438-0.011,0.902-0.015,1.395-0.015
			c1.229,0,2.168,0.267,2.817,0.802S46.636,12.956,46.636,13.937z M44.645,14.07c0-0.5-0.15-0.896-0.45-1.19
			c-0.299-0.293-0.773-0.44-1.424-0.44c-0.117,0-0.236,0-0.354,0c-0.108,0-0.217,0.005-0.325,0.015v3.306
			c0.187,0.029,0.374,0.044,0.562,0.044c0.59-0.01,1.07-0.167,1.438-0.471C44.46,15.03,44.645,14.608,44.645,14.07z"/>
	</g>
	<path fill="#040407" d="M3.355,22.82c0.161-0.305,0.241-0.704,0.241-1.191v-1.991H-0.06v1.025h1.362v0.969
		c0,0.487,0.082,0.887,0.242,1.188c0.16,0.306,0.47,0.458,0.92,0.458C2.898,23.277,3.195,23.126,3.355,22.82z M2.149,22.127
		C2.08,22.03,2.048,21.829,2.048,21.52v-0.856H2.85v0.856c0,0.31-0.027,0.512-0.082,0.607c-0.056,0.097-0.154,0.144-0.302,0.144
		C2.321,22.271,2.215,22.223,2.149,22.127z"/>
	<polygon fill="#040407" points="2.142,17.919 2.142,16.069 3.597,16.069 3.597,15.043 -0.059,15.043 -0.059,16.069 1.306,16.069 
		1.306,17.919 -0.059,17.919 -0.059,18.945 3.597,18.945 3.597,17.919 	"/>
	<polygon fill="#040407" points="-0.06,10.915 -0.061,11.941 1.302,11.941 1.302,14.443 2.141,14.443 2.141,11.941 2.756,11.941 
		2.756,14.443 3.596,14.443 3.596,10.915 	"/>
	<rect x="1.36" y="24.887" fill="#040407" width="0.799" height="1.809"/>
	<polygon fill="#040407" points="3.597,27.691 3.597,26.956 1.733,27.367 -0.059,26.956 -0.059,27.691 1.733,28.134 	"/>
	<rect x="2.627" y="23.612" fill="#040407" width="0.97" height="0.918"/>
	<rect x="-0.059" y="23.612" fill="#040407" width="0.969" height="0.918"/>
</g>
</svg>
