<?xml version="1.0" encoding="utf-8"?>
<!-- Generator: Adobe Illustrator 16.0.0, SVG Export Plug-In . SVG Version: 6.00 Build 0)  -->
<!DOCTYPE svg PUBLIC "-//W3C//DTD SVG 1.1//EN" "http://www.w3.org/Graphics/SVG/1.1/DTD/svg11.dtd">
<svg version="1.1" id="Ebene_1" xmlns="http://www.w3.org/2000/svg" xmlns:xlink="http://www.w3.org/1999/xlink" x="0px" y="0px"
	 width="88.766px" height="40px" viewBox="34 0 88.766 40" enable-background="new 34 0 88.766 40" xml:space="preserve">
<g>
	<g>
		<path d="M41.397,13.334c0,0.553-0.478,1.001-1.069,1.001c-0.59,0-1.069-0.448-1.069-1.001c0-0.553,0.479-1.001,1.069-1.001
			C40.919,12.333,41.397,12.781,41.397,13.334"/>
		<path d="M41.042,10.684c0,0.37-0.32,0.669-0.713,0.669c-0.395,0-0.714-0.299-0.714-0.669s0.319-0.669,0.714-0.669
			C40.722,10.015,41.042,10.314,41.042,10.684"/>
		<path d="M40.786,8.082c0,0.236-0.205,0.429-0.457,0.429c-0.253,0-0.458-0.193-0.458-0.429c0-0.237,0.205-0.429,0.458-0.429
			C40.581,7.653,40.786,7.845,40.786,8.082"/>
		<path d="M37.753,8.082c0,0.151-0.13,0.273-0.291,0.273s-0.291-0.122-0.291-0.273s0.13-0.273,0.291-0.273
			S37.753,7.931,37.753,8.082"/>
		<path d="M38.485,18.618c0,0.51-0.441,0.924-0.986,0.924s-0.986-0.414-0.986-0.924c0-0.51,0.441-0.923,0.986-0.923
			S38.485,18.108,38.485,18.618"/>
		<path d="M38.465,15.937c0,0.499-0.432,0.905-0.966,0.905s-0.967-0.406-0.967-0.905c0-0.5,0.433-0.905,0.967-0.905
			C38.033,15.031,38.465,15.437,38.465,15.937"/>
		<path d="M38.213,13.319c0,0.369-0.32,0.668-0.714,0.668s-0.713-0.299-0.713-0.668c0-0.37,0.319-0.669,0.713-0.669
			S38.213,12.95,38.213,13.319"/>
		<path d="M37.957,10.716c0,0.238-0.205,0.429-0.458,0.429c-0.252,0-0.457-0.191-0.457-0.429c0-0.236,0.205-0.428,0.457-0.428
			S37.957,10.48,37.957,10.716"/>
		<path d="M35.236,18.699c0,0.32-0.277,0.58-0.618,0.58c-0.342,0-0.618-0.26-0.618-0.58c0-0.32,0.276-0.58,0.618-0.58
			C34.959,18.12,35.236,18.379,35.236,18.699"/>
		<path d="M35.126,16.131c0,0.237-0.204,0.428-0.456,0.428c-0.253,0-0.457-0.191-0.457-0.428c0-0.236,0.204-0.428,0.457-0.428
			C34.922,15.703,35.126,15.895,35.126,16.131"/>
		<path d="M34.98,13.366c0,0.151-0.131,0.274-0.293,0.274s-0.293-0.123-0.293-0.274c0-0.152,0.131-0.275,0.293-0.275
			S34.98,13.214,34.98,13.366"/>
		<path d="M43.158,11.685c0.59,0,1.069-0.448,1.069-1.001c0-0.553-0.479-1.001-1.069-1.001c-0.591,0-1.069,0.448-1.069,1.001
			C42.089,11.237,42.566,11.685,43.158,11.685"/>
		<path d="M43.142,8.703c0.394,0,0.714-0.299,0.714-0.669c0-0.369-0.32-0.669-0.714-0.669s-0.714,0.3-0.714,0.669
			C42.428,8.404,42.748,8.703,43.142,8.703"/>
		<path d="M43.071,5.675c0.162,0,0.293-0.123,0.293-0.275c0-0.151-0.131-0.274-0.293-0.274c-0.162,0-0.293,0.123-0.293,0.274
			C42.778,5.552,42.909,5.675,43.071,5.675"/>
		<path d="M48.896,8.934c0.544,0,0.986-0.414,0.986-0.923c0-0.51-0.442-0.924-0.986-0.924S47.91,7.501,47.91,8.011
			C47.91,8.52,48.353,8.934,48.896,8.934"/>
		<path d="M46.033,8.916c0.534,0,0.966-0.405,0.966-0.904c0-0.501-0.432-0.905-0.966-0.905c-0.533,0-0.966,0.404-0.966,0.905
			C45.067,8.511,45.5,8.916,46.033,8.916"/>
		<path d="M48.862,5.892c0.341,0,0.619-0.259,0.619-0.58c0-0.319-0.278-0.578-0.619-0.578c-0.342,0-0.618,0.259-0.618,0.578
			C48.244,5.633,48.521,5.892,48.862,5.892"/>
		<path d="M46.121,5.788c0.252,0,0.456-0.191,0.456-0.428c0-0.235-0.204-0.428-0.456-0.428c-0.253,0-0.457,0.193-0.457,0.428
			C45.664,5.597,45.868,5.788,46.121,5.788"/>
		<path d="M59.372,13.334c0,0.553,0.478,1.001,1.068,1.001s1.069-0.448,1.069-1.001c0-0.553-0.479-1.001-1.069-1.001
			S59.372,12.781,59.372,13.334"/>
		<path d="M59.727,10.684c0,0.37,0.32,0.669,0.714,0.669c0.395,0,0.715-0.299,0.715-0.669s-0.32-0.669-0.715-0.669
			C60.047,10.015,59.727,10.314,59.727,10.684"/>
		<path d="M59.983,8.082c0,0.236,0.205,0.429,0.458,0.429c0.252,0,0.457-0.193,0.457-0.429c0-0.237-0.205-0.429-0.457-0.429
			C60.188,7.653,59.983,7.845,59.983,8.082"/>
		<path d="M63.016,8.082c0,0.151,0.13,0.273,0.291,0.273c0.161,0,0.291-0.122,0.291-0.273s-0.13-0.273-0.291-0.273
			C63.146,7.809,63.016,7.931,63.016,8.082"/>
		<path d="M62.284,18.618c0,0.51,0.441,0.924,0.985,0.924c0.545,0,0.986-0.414,0.986-0.924c0-0.51-0.441-0.923-0.986-0.923
			C62.726,17.695,62.284,18.108,62.284,18.618"/>
		<path d="M62.304,15.937c0,0.499,0.433,0.905,0.966,0.905c0.534,0,0.967-0.406,0.967-0.905c0-0.5-0.433-0.905-0.967-0.905
			C62.736,15.031,62.304,15.437,62.304,15.937"/>
		<path d="M62.557,13.319c0,0.369,0.319,0.668,0.713,0.668c0.396,0,0.714-0.299,0.714-0.668c0-0.37-0.318-0.669-0.714-0.669
			C62.876,12.65,62.557,12.95,62.557,13.319"/>
		<path d="M62.812,10.716c0,0.238,0.205,0.429,0.458,0.429s0.457-0.191,0.457-0.429c0-0.236-0.204-0.428-0.457-0.428
			S62.812,10.48,62.812,10.716"/>
		<path d="M65.532,18.699c0,0.32,0.277,0.58,0.618,0.58c0.342,0,0.619-0.26,0.619-0.58c0-0.32-0.277-0.58-0.619-0.58
			C65.81,18.12,65.532,18.379,65.532,18.699"/>
		<path d="M65.643,16.131c0,0.237,0.205,0.428,0.457,0.428s0.456-0.191,0.456-0.428c0-0.236-0.204-0.428-0.456-0.428
			S65.643,15.895,65.643,16.131"/>
		<path d="M65.789,13.366c0,0.151,0.131,0.274,0.293,0.274c0.161,0,0.293-0.123,0.293-0.274c0-0.152-0.132-0.275-0.293-0.275
			C65.92,13.091,65.789,13.214,65.789,13.366"/>
		<path d="M57.611,11.685c-0.591,0-1.068-0.448-1.068-1.001c0-0.553,0.478-1.001,1.068-1.001c0.59,0,1.069,0.448,1.069,1.001
			C58.68,11.237,58.202,11.685,57.611,11.685"/>
		<path d="M57.628,8.703c-0.395,0-0.714-0.299-0.714-0.669c0-0.369,0.319-0.669,0.714-0.669c0.394,0,0.714,0.3,0.714,0.669
			C58.342,8.404,58.021,8.703,57.628,8.703"/>
		<path d="M57.698,5.675c-0.161,0-0.293-0.123-0.293-0.275c0-0.151,0.132-0.274,0.293-0.274c0.162,0,0.294,0.123,0.294,0.274
			C57.992,5.552,57.86,5.675,57.698,5.675"/>
		<path d="M51.873,8.934c-0.544,0-0.986-0.414-0.986-0.923c0-0.51,0.442-0.924,0.986-0.924s0.986,0.414,0.986,0.924
			C52.859,8.52,52.417,8.934,51.873,8.934"/>
		<path d="M54.736,8.916c-0.534,0-0.966-0.405-0.966-0.904c0-0.501,0.432-0.905,0.966-0.905c0.533,0,0.966,0.404,0.966,0.905
			C55.702,8.511,55.27,8.916,54.736,8.916"/>
		<path d="M51.906,5.892c-0.341,0-0.619-0.259-0.619-0.58c0-0.319,0.278-0.578,0.619-0.578c0.342,0,0.619,0.259,0.619,0.578
			C52.525,5.633,52.248,5.892,51.906,5.892"/>
		<path d="M54.648,5.788c-0.253,0-0.457-0.191-0.457-0.428c0-0.235,0.204-0.428,0.457-0.428c0.252,0,0.456,0.193,0.456,0.428
			C55.104,5.597,54.9,5.788,54.648,5.788"/>
		<path d="M41.397,26.667c0-0.554-0.478-1.002-1.069-1.002c-0.59,0-1.069,0.448-1.069,1.002s0.479,1,1.069,1
			C40.919,27.667,41.397,27.221,41.397,26.667"/>
		<path d="M41.042,29.316c0-0.371-0.32-0.67-0.713-0.67c-0.395,0-0.714,0.299-0.714,0.67c0,0.369,0.319,0.668,0.714,0.668
			C40.722,29.984,41.042,29.686,41.042,29.316"/>
		<path d="M40.786,31.918c0-0.234-0.205-0.428-0.457-0.428c-0.253,0-0.458,0.191-0.458,0.428s0.205,0.43,0.458,0.43
			C40.581,32.348,40.786,32.154,40.786,31.918"/>
		<path d="M37.753,31.918c0-0.15-0.13-0.271-0.291-0.271s-0.291,0.121-0.291,0.271s0.13,0.273,0.291,0.273
			S37.753,32.068,37.753,31.918"/>
		<path d="M38.485,21.382c0-0.51-0.441-0.924-0.986-0.924s-0.986,0.414-0.986,0.924c0,0.511,0.441,0.925,0.986,0.925
			S38.485,21.893,38.485,21.382"/>
		<path d="M38.465,24.062c0-0.498-0.432-0.903-0.966-0.903s-0.967,0.405-0.967,0.903c0,0.5,0.433,0.905,0.967,0.905
			C38.033,24.969,38.465,24.562,38.465,24.062"/>
		<path d="M38.213,26.682c0-0.369-0.32-0.668-0.714-0.668s-0.713,0.299-0.713,0.668s0.319,0.668,0.713,0.668
			S38.213,27.051,38.213,26.682"/>
		<path d="M37.957,29.283c0-0.237-0.205-0.43-0.458-0.43c-0.252,0-0.457,0.191-0.457,0.43s0.205,0.429,0.457,0.429
			S37.957,29.521,37.957,29.283"/>
		<path d="M35.236,21.301c0-0.32-0.277-0.578-0.618-0.578c-0.342,0-0.618,0.258-0.618,0.578c0,0.319,0.276,0.58,0.618,0.58
			C34.959,21.881,35.236,21.62,35.236,21.301"/>
		<path d="M35.126,23.869c0-0.237-0.204-0.43-0.456-0.43c-0.253,0-0.457,0.191-0.457,0.43c0,0.234,0.204,0.428,0.457,0.428
			C34.922,24.297,35.126,24.104,35.126,23.869"/>
		<path d="M34.98,26.634c0-0.149-0.131-0.272-0.293-0.272s-0.293,0.123-0.293,0.272c0,0.152,0.131,0.275,0.293,0.275
			S34.98,26.786,34.98,26.634"/>
		<path d="M43.158,28.314c0.59,0,1.069,0.447,1.069,1.002c0,0.553-0.479,1-1.069,1c-0.591,0-1.069-0.447-1.069-1
			C42.088,28.764,42.566,28.314,43.158,28.314"/>
		<path d="M43.142,31.297c0.394,0,0.714,0.299,0.714,0.669c0,0.369-0.32,0.669-0.714,0.669s-0.714-0.3-0.714-0.669
			C42.428,31.596,42.748,31.297,43.142,31.297"/>
		<path d="M43.071,34.325c0.162,0,0.293,0.123,0.293,0.274c0,0.15-0.131,0.273-0.293,0.273c-0.162,0-0.293-0.123-0.293-0.273
			C42.778,34.448,42.909,34.325,43.071,34.325"/>
		<path d="M48.896,31.066c0.544,0,0.986,0.414,0.986,0.923c0,0.51-0.442,0.924-0.986,0.924s-0.986-0.414-0.986-0.924
			C47.91,31.48,48.353,31.066,48.896,31.066"/>
		<path d="M46.033,31.084c0.534,0,0.966,0.405,0.966,0.904c0,0.501-0.432,0.906-0.966,0.906c-0.533,0-0.966-0.405-0.966-0.906
			C45.067,31.489,45.5,31.084,46.033,31.084"/>
		<path d="M48.862,34.107c0.341,0,0.619,0.26,0.619,0.58c0,0.319-0.278,0.578-0.619,0.578c-0.342,0-0.618-0.259-0.618-0.578
			C48.244,34.367,48.521,34.107,48.862,34.107"/>
		<path d="M46.121,34.212c0.252,0,0.456,0.19,0.456,0.427c0,0.237-0.204,0.43-0.456,0.43c-0.253,0-0.457-0.192-0.457-0.43
			C45.664,34.402,45.868,34.212,46.121,34.212"/>
		<path d="M59.372,26.667c0-0.554,0.478-1.002,1.068-1.002s1.069,0.448,1.069,1.002s-0.479,1-1.069,1S59.372,27.221,59.372,26.667"
			/>
		<path d="M59.727,29.316c0-0.371,0.32-0.67,0.714-0.67c0.395,0,0.715,0.299,0.715,0.67c0,0.369-0.32,0.668-0.715,0.668
			C60.047,29.984,59.727,29.686,59.727,29.316"/>
		<path d="M59.983,31.918c0-0.234,0.205-0.428,0.458-0.428c0.252,0,0.457,0.191,0.457,0.428s-0.205,0.43-0.457,0.43
			C60.188,32.348,59.983,32.154,59.983,31.918"/>
		<path d="M63.016,31.918c0-0.15,0.13-0.271,0.291-0.271c0.161,0,0.291,0.121,0.291,0.271s-0.13,0.273-0.291,0.273
			C63.146,32.191,63.016,32.068,63.016,31.918"/>
		<path d="M62.284,21.382c0-0.51,0.441-0.924,0.985-0.924c0.545,0,0.986,0.414,0.986,0.924c0,0.511-0.441,0.925-0.986,0.925
			C62.726,22.307,62.284,21.893,62.284,21.382"/>
		<path d="M62.304,24.062c0-0.498,0.433-0.903,0.966-0.903c0.534,0,0.967,0.405,0.967,0.903c0,0.5-0.433,0.905-0.967,0.905
			C62.736,24.969,62.304,24.562,62.304,24.062"/>
		<path d="M62.557,26.682c0-0.369,0.319-0.668,0.713-0.668c0.396,0,0.714,0.299,0.714,0.668s-0.318,0.668-0.714,0.668
			C62.876,27.35,62.557,27.051,62.557,26.682"/>
		<path d="M62.812,29.283c0-0.237,0.205-0.43,0.458-0.43s0.457,0.191,0.457,0.43s-0.204,0.429-0.457,0.429
			S62.812,29.521,62.812,29.283"/>
		<path d="M65.532,21.301c0-0.32,0.277-0.578,0.618-0.578c0.342,0,0.619,0.258,0.619,0.578c0,0.319-0.277,0.58-0.619,0.58
			C65.81,21.881,65.532,21.62,65.532,21.301"/>
		<path d="M65.643,23.869c0-0.237,0.205-0.43,0.457-0.43s0.456,0.191,0.456,0.43c0,0.234-0.204,0.428-0.456,0.428
			S65.643,24.104,65.643,23.869"/>
		<path d="M65.789,26.634c0-0.149,0.131-0.272,0.293-0.272c0.161,0,0.293,0.123,0.293,0.272c0,0.152-0.132,0.275-0.293,0.275
			C65.92,26.909,65.789,26.786,65.789,26.634"/>
		<path d="M57.611,28.314c-0.591,0-1.068,0.447-1.068,1.002c0,0.553,0.478,1,1.068,1c0.59,0,1.069-0.447,1.069-1
			C58.681,28.764,58.202,28.314,57.611,28.314"/>
		<path d="M57.628,31.297c-0.395,0-0.714,0.299-0.714,0.669c0,0.369,0.319,0.669,0.714,0.669c0.394,0,0.714-0.3,0.714-0.669
			C58.342,31.596,58.021,31.297,57.628,31.297"/>
		<path d="M57.698,34.325c-0.161,0-0.293,0.123-0.293,0.274c0,0.15,0.132,0.273,0.293,0.273c0.162,0,0.294-0.123,0.294-0.273
			C57.992,34.448,57.86,34.325,57.698,34.325"/>
		<path d="M51.873,31.066c-0.544,0-0.986,0.414-0.986,0.923c0,0.51,0.442,0.924,0.986,0.924s0.986-0.414,0.986-0.924
			C52.859,31.48,52.417,31.066,51.873,31.066"/>
		<path d="M54.736,31.084c-0.534,0-0.966,0.405-0.966,0.904c0,0.501,0.432,0.906,0.966,0.906c0.533,0,0.966-0.405,0.966-0.906
			C55.702,31.489,55.27,31.084,54.736,31.084"/>
		<path d="M51.906,34.107c-0.341,0-0.619,0.26-0.619,0.58c0,0.319,0.278,0.578,0.619,0.578c0.342,0,0.619-0.259,0.619-0.578
			C52.525,34.367,52.248,34.107,51.906,34.107"/>
		<path d="M54.648,34.212c-0.253,0-0.457,0.19-0.457,0.427c0,0.237,0.204,0.43,0.457,0.43c0.252,0,0.456-0.192,0.456-0.43
			C55.104,34.402,54.9,34.212,54.648,34.212"/>
		<path d="M54.551,13.987c-0.767,0-1.209,2.363-1.209,2.37c0,0.214,0.199,0.214,0.236,0.214c0.833,0,1.312-1.527,1.312-2.114
			C54.891,14.34,54.891,13.987,54.551,13.987"/>
		<path d="M51.201,19.104c-1.352,0-2.224,1.552-3.03,4.001c-0.501,1.531-0.938,2.939-0.938,3.572c0,0.389,0.545,0.551,1.155,0.551
			c2.572,0,4.098-4.92,4.098-6.572C52.486,19.655,52.073,19.104,51.201,19.104"/>
		<path d="M53.459,16.799c-0.627,0-1.024-0.277-1.024-0.414c0-0.201,1.129-3.62,1.129-3.883c0-0.234-0.214-0.234-0.465-0.228v-0.187
			c0.546-0.055,0.995-0.11,1.533-0.207l-0.648,2.218l0.015,0.014c0.251-0.318,0.539-0.595,1.003-0.595
			c0.458,0,0.812,0.332,0.812,0.871C55.813,15.556,54.691,16.799,53.459,16.799 M48.302,28.005c-1.81,0-3.467-0.754-3.467-1.244
			c0-0.286,0.153-0.733,0.24-1.061l2.289-8.842c0.24-0.98,0.479-1.817,0.479-2.063c0-0.51-0.37-0.673-1.286-0.653l0.087-0.449
			c0.893-0.081,3.51-0.388,3.837-0.388c0.108,0,0.174,0.041,0.174,0.143c0,0.102-0.109,0.429-0.174,0.715l-1.31,5.206l0.044,0.041
			c0.829-0.797,1.854-1.491,3.053-1.491c1.481,0,2.703,0.858,2.703,2.757C54.973,23.941,52.139,28.005,48.302,28.005 M60.411,22.882
			c0.863,0,1.563-0.655,1.563-1.465c0-0.683-0.501-1.255-1.179-1.417c0.678-0.161,1.179-0.733,1.179-1.417
			c0-0.808-0.7-1.465-1.563-1.465c-0.043,0-0.086,0.003-0.128,0.007c-0.008-0.024-0.017-0.049-0.025-0.073
			c0.061,0.01,0.121,0.016,0.184,0.016c0.309,0,0.599-0.114,0.816-0.318c0.22-0.205,0.341-0.477,0.341-0.766
			c0-0.598-0.52-1.084-1.157-1.084c-0.261,0-0.508,0.081-0.71,0.23c-0.183-0.429-0.509-0.789-0.924-1.027
			c0.174-0.223,0.276-0.497,0.276-0.795c0-0.749-0.647-1.357-1.449-1.357c-0.355,0-0.681,0.121-0.933,0.32
			c-0.25-0.415-0.646-0.743-1.122-0.922c0.17-0.193,0.263-0.434,0.263-0.687c0-0.599-0.519-1.085-1.156-1.085
			c-0.31,0-0.601,0.113-0.819,0.318c-0.218,0.205-0.338,0.476-0.338,0.767c0,0.031,0.002,0.063,0.005,0.094
			c-0.018-0.005-0.036-0.011-0.054-0.015c0.004-0.036,0.006-0.072,0.006-0.108c0-0.808-0.7-1.464-1.563-1.464
			c-0.74,0-1.359,0.484-1.521,1.132h-0.014h-0.021c-0.161-0.648-0.781-1.132-1.521-1.132c-0.864,0-1.564,0.656-1.564,1.464
			c0,0.037,0.003,0.074,0.006,0.109c-0.017,0.005-0.035,0.011-0.053,0.016c0.003-0.031,0.005-0.065,0.005-0.096
			c0-0.291-0.121-0.562-0.339-0.767c-0.218-0.205-0.509-0.318-0.818-0.318c-0.638,0-1.157,0.486-1.157,1.085
			c0,0.253,0.093,0.494,0.263,0.687c-0.476,0.179-0.872,0.507-1.123,0.922c-0.252-0.199-0.577-0.32-0.932-0.32
			c-0.8,0-1.449,0.608-1.449,1.357c0,0.298,0.103,0.572,0.276,0.795c-0.415,0.238-0.742,0.598-0.923,1.027
			c-0.202-0.149-0.449-0.23-0.71-0.23c-0.638,0-1.157,0.486-1.157,1.084c0,0.289,0.121,0.561,0.339,0.766
			c0.218,0.204,0.509,0.318,0.818,0.318c0.064,0,0.127-0.007,0.19-0.017c-0.009,0.025-0.018,0.05-0.026,0.074
			c-0.044-0.004-0.089-0.007-0.134-0.007c-0.863,0-1.563,0.657-1.563,1.465c0,0.684,0.501,1.256,1.178,1.417
			c-0.677,0.162-1.178,0.734-1.178,1.417c0,0.81,0.7,1.465,1.563,1.465c0.045,0,0.089-0.002,0.134-0.006
			c0.007,0.024,0.016,0.049,0.024,0.072c-0.061-0.009-0.124-0.015-0.188-0.015c-0.309,0-0.6,0.111-0.818,0.316
			c-0.218,0.205-0.339,0.477-0.339,0.766c0,0.599,0.519,1.086,1.157,1.086c0.261,0,0.507-0.082,0.71-0.229
			c0.181,0.428,0.508,0.787,0.923,1.024c-0.173,0.224-0.276,0.498-0.276,0.795c0,0.75,0.649,1.357,1.449,1.357
			c0.355,0,0.68-0.119,0.932-0.32c0.251,0.416,0.647,0.744,1.123,0.922c-0.17,0.195-0.263,0.435-0.263,0.688
			c0,0.599,0.519,1.083,1.157,1.083c0.309,0,0.6-0.111,0.818-0.316c0.218-0.205,0.339-0.478,0.339-0.767
			c0-0.03-0.002-0.063-0.005-0.095c0.018,0.006,0.036,0.012,0.053,0.018c-0.003,0.034-0.006,0.068-0.006,0.104
			c0,0.81,0.7,1.464,1.564,1.464c0.738,0,1.357-0.48,1.52-1.128h0.022h0.015c0.162,0.646,0.781,1.128,1.52,1.128
			c0.863,0,1.563-0.654,1.563-1.464c0-0.035-0.002-0.068-0.005-0.104c0.017-0.007,0.035-0.011,0.053-0.017
			c-0.003,0.03-0.005,0.062-0.005,0.093c0,0.289,0.12,0.562,0.338,0.766c0.219,0.205,0.51,0.317,0.819,0.317
			c0.638,0,1.156-0.485,1.156-1.083c0-0.255-0.093-0.494-0.263-0.688c0.477-0.18,0.872-0.508,1.122-0.922
			c0.252,0.199,0.577,0.319,0.933,0.319c0.802,0,1.449-0.608,1.449-1.356c0-0.299-0.103-0.572-0.276-0.797
			c0.415-0.236,0.741-0.597,0.924-1.023c0.202,0.146,0.449,0.229,0.71,0.229c0.638,0,1.157-0.486,1.157-1.084
			c0-0.289-0.121-0.562-0.341-0.767c-0.218-0.205-0.508-0.317-0.816-0.317c-0.062,0-0.122,0.006-0.183,0.016
			c0.009-0.023,0.018-0.049,0.025-0.072C60.326,22.88,60.368,22.882,60.411,22.882"/>
	</g>
	<g>
		<polygon points="75.159,13.727 75.159,8.62 73.22,8.62 73.22,8.052 77.946,8.052 77.946,8.62 75.998,8.62 75.998,13.727 		"/>
		<path d="M80.029,11.262c0-0.631-0.284-1.167-0.969-1.167c-0.83,0-1.16,0.649-1.187,1.167H80.029z M77.823,11.748
			c-0.008,0.811,0.606,1.556,1.463,1.556c0.397,0,0.883-0.137,1.187-0.348l0.226,0.398c-0.451,0.299-0.987,0.47-1.438,0.47
			c-1.349,0-2.24-0.778-2.24-2.205c0-1.402,1.072-2.042,2.05-2.042c1.315,0,1.758,1.11,1.671,2.171H77.823z"/>
		<path d="M85.021,13.402c-0.424,0.284-0.935,0.421-1.308,0.421c-2.051,0-2.312-1.573-2.312-2.131c0-1.013,0.72-2.116,2.347-2.116
			c0.44,0,0.84,0.105,1.16,0.333l-0.261,0.413c-0.252-0.114-0.57-0.211-0.892-0.211c-0.71,0-1.515,0.438-1.515,1.54
			c0,0.843,0.459,1.638,1.506,1.638c0.372,0,0.719-0.091,1.057-0.293L85.021,13.402z"/>
		<path d="M86.631,10.176c0.407-0.406,1.03-0.599,1.48-0.599c0.994,0,1.531,0.518,1.531,1.539v2.611h-0.778V11.27
			c0-0.762-0.347-1.159-1.048-1.159c-0.614,0-1.178,0.397-1.178,1.176v2.44h-0.777V7.768h0.77V10.176z"/>
		<path d="M91.693,10.176c0.406-0.406,1.029-0.599,1.479-0.599c0.995,0,1.532,0.518,1.532,1.539v2.611h-0.779V11.27
			c0-0.762-0.347-1.159-1.047-1.159c-0.614,0-1.178,0.397-1.178,1.176v2.44h-0.779V9.673h0.771v0.503H91.693z"/>
		<path d="M96.529,11.651c0,0.762,0.277,1.653,1.289,1.653c1.021,0,1.299-0.891,1.299-1.653c0-0.729-0.319-1.556-1.299-1.556
			C96.852,10.095,96.529,10.922,96.529,11.651 M95.689,11.651c0-1.313,1.039-2.074,2.129-2.074c1.092,0,2.139,0.761,2.139,2.074
			c0,1.256-0.855,2.172-2.139,2.172C96.548,13.823,95.689,12.907,95.689,11.651"/>
		<rect x="100.943" y="7.768" width="0.779" height="5.957"/>
		<path d="M103.546,11.651c0,0.762,0.277,1.653,1.29,1.653c1.021,0,1.298-0.891,1.298-1.653c0-0.729-0.319-1.556-1.298-1.556
			C103.867,10.095,103.546,10.922,103.546,11.651 M102.707,11.651c0-1.313,1.038-2.074,2.129-2.074c1.09,0,2.139,0.761,2.139,2.074
			c0,1.256-0.856,2.172-2.139,2.172C103.562,13.823,102.707,12.907,102.707,11.651"/>
		<path d="M111.066,11.569c0-0.761-0.441-1.475-1.289-1.475c-0.9,0-1.272,0.666-1.272,1.525c0,0.867,0.397,1.685,1.222,1.685
			C110.668,13.304,111.066,12.469,111.066,11.569 M111.846,13.58c0,1.548-1.029,2.172-2.197,2.172c-0.642,0-1.281-0.113-1.783-0.405
			l0.216-0.478c0.528,0.284,1.013,0.364,1.55,0.364c0.893,0,1.438-0.534,1.438-1.597v-0.551h-0.019
			c-0.303,0.397-0.762,0.738-1.444,0.738c-1.194,0-1.938-0.875-1.938-2.172c0-1.054,0.831-2.075,2.069-2.075
			c0.519,0,1.072,0.243,1.313,0.656h0.019V9.673h0.777V13.58L111.846,13.58z"/>
		<path d="M113.005,8.335c0-0.202,0.181-0.429,0.493-0.429s0.493,0.227,0.493,0.429c0,0.219-0.113,0.495-0.493,0.495
			C113.117,8.831,113.005,8.555,113.005,8.335 M113.887,13.727h-0.777V9.674h0.777V13.727z"/>
		<path d="M117.884,11.262c0-0.631-0.286-1.167-0.97-1.167c-0.831,0-1.159,0.649-1.186,1.167H117.884z M115.677,11.748
			c-0.009,0.811,0.606,1.556,1.462,1.556c0.398,0,0.885-0.137,1.188-0.348l0.225,0.398c-0.449,0.299-0.986,0.47-1.436,0.47
			c-1.352,0-2.242-0.778-2.242-2.205c0-1.402,1.072-2.042,2.051-2.042c1.316,0,1.758,1.11,1.67,2.171H115.677z"/>
	</g>
	<g>
		<path d="M76.742,17.344c-0.294-0.202-0.684-0.405-1.047-0.405c-0.605,0-0.943,0.332-0.943,0.77c0,0.405,0.372,0.705,1.151,1.232
			c0.831,0.568,1.315,1.086,1.315,1.815c0,0.9-0.909,1.483-1.878,1.483c-0.58,0-1.272-0.194-1.705-0.593l0.372-0.47
			c0.354,0.234,0.744,0.494,1.315,0.494c0.597,0,1.055-0.299,1.055-0.932c0-0.714-0.907-1.176-1.4-1.516
			c-0.503-0.365-1.065-0.714-1.065-1.516c0-0.762,0.787-1.337,1.731-1.337c0.631,0,1.16,0.211,1.497,0.567L76.742,17.344z"/>
		<path d="M79.018,18.09h1.133v0.421h-1.133v2.294c0,0.567,0.121,0.907,0.597,0.907c0.286,0,0.45-0.065,0.598-0.137l0.188,0.403
			c-0.268,0.164-0.588,0.261-0.881,0.261c-0.865,0-1.281-0.47-1.281-1.298V18.51h-0.605v-0.42h0.605v-0.972l0.779-0.243V18.09z"/>
		<path d="M80.938,16.752c0-0.202,0.183-0.429,0.492-0.429c0.312,0,0.494,0.227,0.494,0.429c0,0.219-0.111,0.495-0.494,0.495
			C81.05,17.248,80.938,16.972,80.938,16.752 M81.82,22.145h-0.779v-4.054h0.779V22.145z"/>
		<path d="M83.143,22.145v-3.632H82.45V18.09h0.69v-0.494c0-1.087,0.779-1.41,1.266-1.41c0.225,0,0.492,0.039,0.683,0.169
			l-0.173,0.373c-0.13-0.032-0.251-0.056-0.423-0.056c-0.132,0-0.572,0.032-0.572,0.688v0.73h1.039v0.421h-1.039v3.632h-0.778
			V22.145z"/>
		<path d="M86.62,18.09h1.134v0.421H86.62v2.294c0,0.567,0.122,0.907,0.597,0.907c0.286,0,0.45-0.065,0.598-0.137l0.19,0.403
			c-0.271,0.164-0.589,0.261-0.883,0.261c-0.865,0-1.281-0.47-1.281-1.298V18.51h-0.604v-0.42h0.604v-0.972l0.779-0.243V18.09z"/>
		<path d="M91.535,21.673c-0.441,0.356-0.831,0.568-1.395,0.568c-0.994,0-1.531-0.521-1.531-1.541v-2.61h0.779v2.448
			c0,0.762,0.346,1.168,1.047,1.168c0.598,0,1.09-0.463,1.09-1.248V18.09h0.779v4.055h-0.771L91.535,21.673L91.535,21.673z"/>
		<path d="M94.354,18.593c0.406-0.405,1.03-0.599,1.48-0.599c0.995,0,1.531,0.518,1.531,1.54v2.61h-0.779v-2.458
			c0-0.762-0.347-1.159-1.046-1.159c-0.615,0-1.179,0.397-1.179,1.176v2.44h-0.778V18.09h0.771V18.593z"/>
		<path d="M101.753,19.987c0-0.762-0.44-1.476-1.289-1.476c-0.899,0-1.272,0.666-1.272,1.525c0,0.866,0.398,1.687,1.221,1.687
			C101.355,21.723,101.753,20.889,101.753,19.987 M102.532,21.997c0,1.549-1.03,2.172-2.198,2.172c-0.641,0-1.281-0.112-1.783-0.405
			l0.217-0.478c0.527,0.284,1.014,0.362,1.551,0.362c0.891,0,1.436-0.532,1.436-1.596v-0.552h-0.018
			c-0.303,0.397-0.762,0.738-1.445,0.738c-1.193,0-1.938-0.876-1.938-2.172c0-1.054,0.83-2.075,2.066-2.075
			c0.52,0,1.073,0.243,1.316,0.657h0.017v-0.56h0.779V21.997L102.532,21.997z"/>
	</g>
	<g>
		<path d="M74.743,27.316h0.416c0.726,0,1.358-0.469,1.358-1.076c0-0.504-0.372-0.787-1.064-0.787h-0.71V27.316z M74.743,29.992
			h0.813c0.684,0,1.272-0.35,1.272-1.029c0-0.794-0.727-1.078-1.41-1.078h-0.676L74.743,29.992L74.743,29.992z M73.904,30.561
			v-5.672h1.878c0.899,0,1.575,0.42,1.575,1.156c0,0.926-0.771,1.359-1.238,1.441v0.018c0.797,0.023,1.61,0.487,1.61,1.411
			c0,0.948-0.866,1.646-2.12,1.646H73.904z"/>
		<path d="M79.546,27.009l0.312-0.308c0.183-0.17,0.469-0.291,0.649-0.291c0.19,0,0.478,0.129,0.718,0.396l-0.354,0.469
			c-0.189-0.088-0.381-0.168-0.58-0.168c-0.396,0-0.727,0.373-0.727,1.271v2.182h-0.779v-4.055h0.762L79.546,27.009L79.546,27.009z"
			/>
		<path d="M83.346,28.389c-0.686,0.193-1.039,0.502-1.039,1.012c0,0.423,0.312,0.688,0.623,0.688c0.553,0,1.264-0.64,1.159-1.903
			L83.346,28.389z M83.812,30.122c-0.304,0.284-0.685,0.535-1.082,0.535c-0.728,0-1.229-0.487-1.229-1.249
			c0-0.705,0.642-1.149,1.541-1.401l1.047-0.308c-0.034-0.495-0.442-0.812-0.864-0.812c-0.504,0-0.824,0.195-1.135,0.438
			l-0.304-0.364c0.433-0.391,0.874-0.552,1.479-0.552c0.648,0,1.601,0.194,1.601,1.378v1.783c0,0.308,0.044,0.697,0.19,0.988H84.21
			c-0.104-0.17-0.121-0.431-0.121-0.688L83.812,30.122z"/>
		<path d="M86.893,27.009c0.406-0.403,1.029-0.599,1.479-0.599c0.995,0,1.532,0.52,1.532,1.54v2.61h-0.779v-2.457
			c0-0.764-0.348-1.16-1.047-1.16c-0.615,0-1.178,0.396-1.178,1.177v2.44h-0.779v-4.055h0.771V27.009L86.893,27.009z"/>
		<path d="M94.291,28.402c0-0.762-0.441-1.475-1.29-1.475c-0.899,0-1.272,0.665-1.272,1.523c0,0.869,0.398,1.688,1.223,1.688
			C93.893,30.139,94.291,29.305,94.291,28.402 M94.291,29.92h-0.02c-0.301,0.396-0.761,0.737-1.471,0.737
			c-1.168,0-1.912-0.876-1.912-2.173c0-1.055,0.813-2.075,2-2.075c0.588,0,1.115,0.211,1.383,0.601h0.02v-2.406h0.777v5.957h-0.777
			V29.92z"/>
		<path d="M99.05,28.098c0-0.634-0.284-1.168-0.97-1.168c-0.831,0-1.159,0.647-1.186,1.168H99.05z M96.843,28.583
			c-0.009,0.812,0.606,1.556,1.464,1.556c0.396,0,0.883-0.139,1.186-0.349l0.225,0.397c-0.449,0.299-0.984,0.469-1.436,0.469
			c-1.352,0-2.242-0.777-2.242-2.204c0-1.402,1.072-2.042,2.051-2.042c1.316,0,1.758,1.109,1.67,2.173H96.843z"/>
		<path d="M101.489,27.009c0.405-0.403,1.028-0.599,1.479-0.599c0.995,0,1.532,0.52,1.532,1.54v2.61h-0.779v-2.457
			c0-0.764-0.347-1.16-1.047-1.16c-0.615,0-1.177,0.396-1.177,1.177v2.44h-0.779v-4.055h0.771V27.009z"/>
		<path d="M109.104,28.42c0-0.736-0.397-1.49-1.201-1.49c-0.883,0-1.359,0.641-1.359,1.686c0,0.777,0.381,1.523,1.352,1.523
			C108.826,30.139,109.104,29.157,109.104,28.42 M105.764,24.604h0.778v2.537h0.019c0.318-0.486,0.935-0.73,1.418-0.73
			c1.688,0,1.965,1.42,1.965,2.002c0,1.232-0.777,2.245-2.051,2.245c-0.545,0-1.014-0.242-1.332-0.632h-0.019v0.535h-0.778V24.604z"
			/>
		<path d="M113.818,30.089c-0.439,0.358-0.829,0.568-1.393,0.568c-0.996,0-1.531-0.519-1.531-1.54v-2.61h0.778v2.448
			c0,0.762,0.347,1.167,1.048,1.167c0.596,0,1.09-0.462,1.09-1.248v-2.367h0.779v4.054h-0.771V30.089z"/>
		<path d="M116.631,27.009l0.311-0.308c0.183-0.17,0.469-0.291,0.65-0.291c0.189,0,0.477,0.129,0.719,0.396l-0.355,0.469
			c-0.189-0.088-0.381-0.168-0.58-0.168c-0.396,0-0.727,0.373-0.727,1.271v2.182h-0.779v-4.055h0.763L116.631,27.009L116.631,27.009
			z"/>
		<path d="M121.986,28.402c0-0.762-0.441-1.475-1.289-1.475c-0.9,0-1.272,0.665-1.272,1.523c0,0.867,0.398,1.688,1.22,1.688
			C121.588,30.139,121.986,29.305,121.986,28.402 M122.766,30.414c0,1.549-1.029,2.172-2.199,2.172c-0.64,0-1.278-0.113-1.781-0.404
			l0.217-0.479c0.527,0.283,1.014,0.363,1.549,0.363c0.891,0,1.438-0.534,1.438-1.596V29.92h-0.018
			c-0.304,0.396-0.763,0.736-1.445,0.736c-1.194,0-1.938-0.875-1.938-2.172c0-1.055,0.831-2.075,2.067-2.075
			c0.521,0,1.074,0.243,1.316,0.657h0.018v-0.561h0.777V30.414L122.766,30.414z"/>
	</g>
</g>
</svg>
