<?xml version="1.0" encoding="utf-8"?>
<!-- Generator: Adobe Illustrator 16.0.0, SVG Export Plug-In . SVG Version: 6.00 Build 0)  -->
<!DOCTYPE svg PUBLIC "-//W3C//DTD SVG 1.1//EN" "http://www.w3.org/Graphics/SVG/1.1/DTD/svg11.dtd">
<svg version="1.1" id="Ebene_1" xmlns="http://www.w3.org/2000/svg" xmlns:xlink="http://www.w3.org/1999/xlink" x="0px" y="0px"
	 width="53.29px" height="40px" viewBox="50.857 0 53.29 40" enable-background="new 50.857 0 53.29 40" xml:space="preserve">
<g>
	<path d="M95.402,21.414c-0.213-0.213-0.467-0.385-0.76-0.512c-0.297-0.125-0.609-0.189-0.943-0.189
		c-0.335,0-0.647,0.064-0.936,0.189c-0.289,0.127-0.543,0.299-0.763,0.512c-0.219,0.214-0.39,0.467-0.51,0.762
		c-0.122,0.295-0.183,0.608-0.183,0.942s0.061,0.647,0.183,0.937c0.12,0.287,0.291,0.541,0.51,0.76
		c0.22,0.221,0.474,0.391,0.763,0.512c0.287,0.121,0.601,0.183,0.936,0.183c0.334,0,0.646-0.062,0.943-0.183
		c0.293-0.121,0.547-0.291,0.76-0.512c0.215-0.219,0.385-0.473,0.512-0.76c0.126-0.289,0.189-0.603,0.189-0.937
		s-0.063-0.647-0.189-0.942C95.787,21.881,95.617,21.628,95.402,21.414 M58.032,8.014h-2.317v0.935h2.317
		c0.258,0,0.467-0.209,0.467-0.467C58.499,8.224,58.29,8.014,58.032,8.014 M99.939,8.949c0.485,0,0.865,0.152,1.141,0.458
		c0.273,0.305,0.411,0.67,0.411,1.093c0,0.424-0.138,0.789-0.411,1.094c-0.273,0.305-0.654,0.458-1.141,0.458h-2.953v0.935h3.701
		c0.485,0,0.865,0.152,1.141,0.458c0.273,0.305,0.411,0.67,0.411,1.093c0,0.424-0.138,0.789-0.411,1.093
		c-0.273,0.306-0.654,0.459-1.141,0.459h-5.233c-1.022,0-1.533-0.517-1.533-1.552V6.463c0-1.035,0.511-1.552,1.533-1.552h5.233
		c0.485,0,0.865,0.153,1.141,0.458c0.275,0.305,0.411,0.67,0.411,1.094c0,0.424-0.138,0.788-0.411,1.093
		c-0.273,0.306-0.654,0.458-1.141,0.458h-3.701v0.935H99.939z M98.979,23.083c0,0.728-0.14,1.414-0.416,2.062
		c-0.276,0.646-0.654,1.205-1.133,1.68c-0.479,0.473-1.043,0.848-1.688,1.125c-0.646,0.275-1.333,0.416-2.062,0.416
		c-0.727,0-1.412-0.141-2.059-0.416c-0.646-0.277-1.207-0.652-1.68-1.125c-0.475-0.475-0.85-1.033-1.125-1.68
		c-0.277-0.646-0.416-1.334-0.416-2.062c0-0.726,0.139-1.412,0.416-2.058c0.275-0.646,0.65-1.209,1.125-1.688
		c0.473-0.479,1.033-0.857,1.68-1.134c0.646-0.276,1.332-0.415,2.059-0.415c0.729,0,1.414,0.139,2.062,0.415
		c0.646,0.277,1.208,0.655,1.688,1.134c0.479,0.479,0.855,1.042,1.133,1.688C98.839,21.671,98.979,22.359,98.979,23.083
		 M87.609,11.641c-0.274,0.386-0.67,0.579-1.008,0.579h-0.006c-0.336,0-0.731-0.193-1.007-0.579l-1.327-1.814v4.711
		c0,0.499-0.152,0.879-0.457,1.14c-0.307,0.262-0.671,0.393-1.095,0.393c-0.411,0-0.771-0.131-1.075-0.393
		c-0.305-0.261-0.458-0.641-0.458-1.14l0.003-8.079c0-0.499,0.148-0.879,0.453-1.14c0.287-0.246,0.682-0.387,1.02-0.387
		c0.52,0,0.949,0.106,1.172,0.241c0.268,0.162,0.514,0.386,0.738,0.673L86.6,8.444l2.036-2.598c0.226-0.287,0.472-0.511,0.738-0.673
		c0.226-0.135,0.651-0.241,1.171-0.241c0.339,0,0.732,0.141,1.02,0.387c0.306,0.261,0.453,0.641,0.453,1.14l0.004,8.079
		c0,0.499-0.153,0.879-0.459,1.14c-0.306,0.262-0.664,0.393-1.074,0.393c-0.424,0-0.788-0.131-1.094-0.393
		c-0.307-0.261-0.459-0.641-0.459-1.14V9.827L87.609,11.641z M87.036,25.814c-0.224,0.369-0.481,0.709-0.785,1.01
		c-0.479,0.473-1.042,0.848-1.687,1.125c-0.647,0.275-1.334,0.416-2.062,0.416s-1.414-0.141-2.06-0.416
		c-0.646-0.277-1.207-0.652-1.68-1.125c-0.474-0.475-0.849-1.033-1.125-1.68c-0.276-0.647-0.415-1.334-0.415-2.062
		c0-0.726,0.139-1.412,0.415-2.058c0.276-0.646,0.651-1.209,1.125-1.688c0.473-0.479,1.032-0.857,1.68-1.134
		c0.646-0.276,1.332-0.415,2.06-0.415s1.413,0.139,2.062,0.415c0.645,0.277,1.207,0.655,1.687,1.134
		c0.304,0.304,0.562,0.645,0.785,1.016c-0.356,0.86-0.538,1.778-0.538,2.73C86.498,24.039,86.68,24.957,87.036,25.814 M74.788,16.09
		c-3.04,0-4.561-1.639-4.561-4.916V6.463c0-0.499,0.151-0.879,0.458-1.141C70.99,5.06,71.349,4.93,71.76,4.93
		c0.424,0,0.788,0.13,1.094,0.392c0.306,0.262,0.459,0.642,0.459,1.141v5.178c0,0.922,0.479,1.382,1.438,1.382
		s1.439-0.46,1.439-1.382V6.463c0-0.499,0.152-0.879,0.458-1.141c0.305-0.262,0.664-0.392,1.075-0.392
		c0.423,0,0.787,0.13,1.093,0.392c0.306,0.262,0.459,0.642,0.459,1.141v4.711C79.275,14.451,77.779,16.09,74.788,16.09
		 M75.859,25.814c-0.223,0.369-0.481,0.709-0.784,1.01c-0.479,0.473-1.042,0.848-1.688,1.125c-0.646,0.275-1.333,0.416-2.06,0.416
		c-0.726,0-1.413-0.141-2.059-0.416c-0.647-0.277-1.207-0.652-1.68-1.125c-0.474-0.475-0.849-1.033-1.125-1.68
		c-0.276-0.647-0.416-1.334-0.416-2.062c0-0.726,0.14-1.412,0.416-2.058c0.276-0.646,0.651-1.209,1.125-1.688
		c0.473-0.479,1.032-0.857,1.68-1.134c0.646-0.276,1.333-0.415,2.059-0.415c0.727,0,1.414,0.139,2.06,0.415
		c0.646,0.277,1.209,0.655,1.688,1.134c0.304,0.304,0.562,0.645,0.785,1.016c-0.357,0.86-0.539,1.778-0.539,2.73
		C75.321,24.039,75.503,24.957,75.859,25.814 M63.769,28.294h-6.561c-0.23,0-0.352-0.146-0.362-0.433v-2.875
		c0-1.061,0.253-1.877,0.761-2.448c0.508-0.57,1.269-0.856,2.285-0.856H61.9c0.381,0,0.572-0.144,0.572-0.433
		c0-0.287-0.191-0.433-0.572-0.433h-3.331c-1.027,0-1.567-0.479-1.567-1.437s0.541-1.436,1.557-1.436h3.479
		c1.552,0,2.544,0.566,2.986,1.692c-0.112,0.206-0.215,0.419-0.31,0.639c-0.378,0.881-0.569,1.827-0.569,2.808
		c0,0.31,0.021,0.612,0.059,0.912c-0.488,0.371-1.14,0.562-1.958,0.562h-2.01c-0.381,0-0.571,0.145-0.571,0.432l0.004,0.434h4.083
		c1.026,0,1.54,0.479,1.54,1.438C65.291,27.816,64.783,28.294,63.769,28.294 M54.237,16.09c-0.985,0-1.477-0.517-1.477-1.552V6.463
		c0-1.035,0.468-1.552,1.401-1.552h4.954c0.424,0,0.797,0.087,1.121,0.262c0.324,0.174,0.59,0.405,0.795,0.691
		c0.206,0.287,0.361,0.611,0.468,0.973c0.105,0.361,0.158,0.729,0.158,1.102c0,0.324-0.04,0.636-0.121,0.935s-0.2,0.567-0.354,0.804
		c-0.156,0.237-0.355,0.43-0.6,0.579c-0.242,0.15-0.52,0.231-0.831,0.243c0.623,0.1,1.156,0.402,1.455,0.907
		c0.3,0.505,0.448,1.069,0.448,1.692c0,0.361-0.049,0.722-0.148,1.084c-0.101,0.361-0.254,0.682-0.458,0.963
		c-0.206,0.28-0.462,0.507-0.767,0.682c-0.306,0.175-0.729,0.262-1.129,0.262H54.237z M63.354,6.463
		c0-0.499,0.153-0.879,0.459-1.141c0.305-0.262,0.663-0.392,1.074-0.392c0.411,0,0.77,0.13,1.074,0.392
		c0.307,0.262,0.458,0.642,0.458,1.141v6.524h1.939c0.474,0,0.835,0.152,1.085,0.458c0.249,0.305,0.373,0.67,0.373,1.093
		c0,0.424-0.124,0.789-0.373,1.093c-0.25,0.306-0.611,0.459-1.085,0.459h-3.472c-1.021,0-1.533-0.517-1.533-1.552L63.354,6.463
		L63.354,6.463z M103.073,11.995c0.212-0.459,0.321-0.964,0.321-1.495s-0.109-1.035-0.321-1.494c0.062-0.06,0.118-0.12,0.171-0.178
		c0.588-0.655,0.898-1.473,0.898-2.365c0-0.893-0.311-1.71-0.897-2.365c-0.448-0.499-1.254-1.091-2.558-1.091h-5.233
		c-1.062,0-1.933,0.353-2.532,0.974c-0.039-0.038-0.079-0.074-0.117-0.108c-0.628-0.537-1.449-0.845-2.259-0.845
		c-0.485,0-1.412,0.067-2.153,0.514c-0.468,0.284-0.889,0.663-1.254,1.13l-0.537,0.687l-0.539-0.688
		c-0.365-0.466-0.787-0.845-1.252-1.127c-0.744-0.449-1.672-0.516-2.156-0.516c-0.809,0-1.631,0.308-2.258,0.845
		c-0.058,0.048-0.114,0.102-0.172,0.159c-0.058-0.056-0.113-0.108-0.168-0.155c-0.65-0.557-1.457-0.851-2.333-0.851
		c-0.865,0-1.665,0.294-2.315,0.851c-0.219,0.188-0.457,0.444-0.657,0.782c-0.2-0.338-0.438-0.593-0.658-0.782
		c-0.649-0.557-1.457-0.851-2.333-0.851c-0.864,0-1.665,0.294-2.314,0.851c-0.51,0.438-1.12,1.242-1.122,2.582
		c-0.001-1.339-0.611-2.143-1.122-2.582c-0.653-0.557-1.46-0.737-2.316-0.851c-1.098-0.147-1.763,0.233-2.314,0.851
		c-0.113,0.127-0.265,0.245-0.395,0.406c-0.302-0.309-0.646-0.575-1.036-0.786c-0.605-0.326-1.286-0.49-2.025-0.49h-4.954
		c-1.977,0-3.306,1.389-3.306,3.456v8.075c0,2.099,1.327,3.456,3.381,3.456h1.121c-0.169,0.412-0.26,0.878-0.26,1.386
		c0,0.909,0.288,1.681,0.797,2.253c-0.634,0.883-0.954,2.01-0.954,3.354V27.9l0.001,0.037c0.052,1.311,1.005,2.262,2.266,2.262
		h6.561c1.357,0,2.418-0.592,2.979-1.57c0.527,0.434,1.12,0.792,1.771,1.07c0.881,0.377,1.825,0.568,2.809,0.568
		s1.929-0.191,2.81-0.568c0.864-0.371,1.63-0.883,2.276-1.521c0.181-0.179,0.349-0.367,0.509-0.562
		c0.156,0.193,0.322,0.379,0.498,0.556c0.643,0.642,1.407,1.155,2.273,1.528c0.882,0.377,1.826,0.568,2.811,0.568
		s1.93-0.191,2.811-0.568c0.863-0.371,1.629-0.883,2.275-1.521c0.182-0.179,0.35-0.367,0.51-0.562
		c0.155,0.193,0.32,0.379,0.496,0.556c0.644,0.642,1.408,1.155,2.276,1.528c0.88,0.377,1.826,0.568,2.81,0.568
		c0.982,0,1.928-0.191,2.811-0.568c0.863-0.371,1.629-0.883,2.275-1.521c0.652-0.646,1.174-1.414,1.545-2.283
		c0.379-0.881,0.569-1.826,0.569-2.812c0-0.981-0.19-1.927-0.569-2.808c-0.371-0.865-0.888-1.633-1.533-2.281h1.91
		c1.304,0,2.108-0.593,2.556-1.09c0.588-0.655,0.899-1.473,0.899-2.366c0-0.892-0.312-1.71-0.898-2.365
		C103.191,12.114,103.135,12.055,103.073,11.995 M73.05,21.414c-0.214-0.213-0.468-0.385-0.762-0.512
		c-0.294-0.125-0.609-0.189-0.943-0.189c-0.335,0-0.646,0.064-0.935,0.189c-0.288,0.127-0.542,0.299-0.761,0.512
		c-0.221,0.214-0.391,0.467-0.512,0.762c-0.12,0.295-0.182,0.608-0.182,0.942s0.062,0.647,0.182,0.937
		c0.121,0.287,0.291,0.541,0.512,0.76c0.219,0.221,0.473,0.391,0.761,0.512s0.6,0.183,0.935,0.183c0.334,0,0.649-0.062,0.943-0.183
		s0.548-0.291,0.762-0.512c0.213-0.219,0.384-0.473,0.511-0.76c0.127-0.289,0.189-0.603,0.189-0.937s-0.062-0.647-0.189-0.942
		S73.263,21.628,73.05,21.414 M58.032,12.052h-2.317v0.935h2.317c0.258,0,0.467-0.21,0.467-0.468
		C58.499,12.261,58.29,12.052,58.032,12.052 M84.227,21.414c-0.215-0.213-0.469-0.385-0.762-0.512
		c-0.295-0.125-0.609-0.189-0.943-0.189s-0.646,0.064-0.936,0.189c-0.288,0.127-0.542,0.299-0.761,0.512
		c-0.22,0.214-0.39,0.467-0.511,0.762s-0.183,0.608-0.183,0.942s0.062,0.647,0.183,0.937c0.121,0.287,0.291,0.541,0.511,0.76
		c0.219,0.221,0.473,0.391,0.761,0.512c0.289,0.121,0.602,0.183,0.936,0.183s0.648-0.062,0.943-0.183
		c0.293-0.121,0.547-0.291,0.762-0.512c0.215-0.219,0.385-0.473,0.512-0.76c0.126-0.289,0.188-0.603,0.188-0.937
		s-0.062-0.647-0.188-0.942C84.609,21.881,84.439,21.628,84.227,21.414"/>
	<g>
		<path d="M55.956,36.215h0.115c0.068,0,0.145-0.002,0.229-0.005s0.163-0.015,0.237-0.037c0.073-0.021,0.136-0.058,0.186-0.108
			c0.05-0.051,0.074-0.125,0.074-0.222c0-0.104-0.024-0.184-0.074-0.235c-0.05-0.055-0.112-0.092-0.188-0.112
			c-0.076-0.021-0.158-0.032-0.244-0.032h-0.242h-0.093V36.215z M55.956,34.784h0.102c0.062,0,0.123-0.005,0.182-0.013
			c0.059-0.008,0.111-0.022,0.158-0.047c0.046-0.021,0.083-0.057,0.111-0.102c0.028-0.045,0.042-0.105,0.042-0.18
			c0-0.08-0.016-0.145-0.049-0.188c-0.032-0.044-0.074-0.079-0.125-0.103c-0.051-0.022-0.108-0.036-0.17-0.041
			c-0.062-0.004-0.124-0.008-0.187-0.008h-0.064V34.784z M55.045,36.913v-3.505h1.302c0.154,0,0.296,0.016,0.425,0.049
			c0.128,0.032,0.238,0.084,0.33,0.156c0.091,0.07,0.162,0.164,0.211,0.279c0.05,0.116,0.075,0.26,0.075,0.426
			c0,0.158-0.029,0.3-0.086,0.424c-0.058,0.124-0.157,0.222-0.3,0.293v0.009c0.251,0.034,0.433,0.131,0.546,0.289
			c0.113,0.158,0.17,0.358,0.17,0.604c0,0.184-0.036,0.338-0.107,0.463c-0.07,0.125-0.167,0.227-0.286,0.303
			c-0.118,0.074-0.255,0.13-0.406,0.162c-0.152,0.031-0.309,0.049-0.47,0.049L55.045,36.913L55.045,36.913z"/>
		<polygon points="58.257,33.407 58.257,36.914 60.26,36.914 60.26,36.141 59.169,36.141 59.169,33.407 		"/>
		<path d="M63.663,33.408v1.971c0,0.111-0.003,0.223-0.01,0.335c-0.007,0.111-0.021,0.22-0.044,0.325
			c-0.023,0.104-0.06,0.207-0.109,0.304c-0.049,0.099-0.118,0.189-0.204,0.272c-0.075,0.07-0.158,0.132-0.249,0.182
			c-0.091,0.049-0.188,0.09-0.288,0.121c-0.101,0.03-0.205,0.053-0.312,0.066c-0.106,0.015-0.212,0.021-0.313,0.021
			c-0.103,0-0.207-0.007-0.314-0.021c-0.106-0.014-0.211-0.036-0.312-0.066c-0.1-0.031-0.196-0.072-0.288-0.121
			c-0.091-0.05-0.174-0.109-0.248-0.182c-0.087-0.083-0.155-0.174-0.205-0.272c-0.05-0.097-0.086-0.198-0.108-0.304
			c-0.023-0.105-0.038-0.214-0.044-0.325c-0.008-0.112-0.011-0.224-0.011-0.335v-1.971h0.911v1.845c0,0.115,0.005,0.229,0.014,0.343
			c0.011,0.112,0.034,0.215,0.075,0.305c0.04,0.09,0.103,0.162,0.187,0.221c0.083,0.059,0.197,0.086,0.344,0.086
			c0.145,0,0.26-0.027,0.344-0.086c0.083-0.059,0.146-0.131,0.187-0.221c0.04-0.09,0.064-0.191,0.073-0.305
			c0.01-0.113,0.015-0.228,0.015-0.343v-1.845H63.663z"/>
		<polygon points="67.047,33.407 66.294,35.281 65.583,33.407 64.685,33.407 64.091,36.914 64.996,36.914 65.289,34.895 
			65.299,34.895 66.104,36.914 66.466,36.914 67.307,34.895 67.316,34.895 67.572,36.914 68.482,36.914 67.952,33.407 		"/>
		<polygon points="68.934,33.407 68.934,36.914 70.928,36.914 70.928,36.141 69.845,36.141 69.845,35.537 70.873,35.537 
			70.873,34.766 69.845,34.766 69.845,34.18 70.928,34.18 70.928,33.407 		"/>
		<polygon points="74.145,33.407 74.145,35.55 74.135,35.55 72.466,33.407 71.556,33.407 71.556,36.914 72.466,36.914 
			72.466,34.766 72.476,34.766 74.145,36.914 75.056,36.914 75.056,33.407 		"/>
		<rect x="75.633" y="35.072" width="1.329" height="0.695"/>
		<polygon points="79.857,33.407 79.007,35.537 78.161,33.407 77.171,33.407 78.646,36.914 79.352,36.914 80.848,33.407 		"/>
		<polygon points="81.141,33.407 81.141,36.914 83.135,36.914 83.135,36.141 82.052,36.141 82.052,35.537 83.079,35.537 
			83.079,34.766 82.052,34.766 82.052,34.18 83.135,34.18 83.135,33.407 		"/>
		<path d="M84.673,34.979h0.089c0.074,0,0.149-0.004,0.227-0.015c0.074-0.009,0.144-0.028,0.205-0.06
			c0.06-0.031,0.107-0.075,0.146-0.135c0.037-0.057,0.056-0.134,0.056-0.229c0-0.096-0.019-0.172-0.056-0.23
			c-0.037-0.057-0.086-0.101-0.146-0.131c-0.062-0.031-0.131-0.052-0.205-0.062c-0.076-0.009-0.151-0.015-0.227-0.015h-0.089V34.979
			z M86.677,36.913h-1.134l-0.859-1.349h-0.011v1.349h-0.911v-3.505h1.362c0.174,0,0.335,0.021,0.483,0.062s0.276,0.106,0.387,0.194
			c0.107,0.088,0.191,0.201,0.255,0.337c0.062,0.137,0.093,0.298,0.093,0.482c0,0.121-0.016,0.236-0.049,0.348
			c-0.032,0.109-0.081,0.209-0.146,0.297c-0.063,0.089-0.146,0.163-0.24,0.223c-0.098,0.062-0.206,0.104-0.33,0.125L86.677,36.913z"
			/>
		<path d="M88.908,34.309c-0.084-0.07-0.178-0.127-0.281-0.17c-0.104-0.041-0.212-0.062-0.322-0.062
			c-0.041,0-0.084,0.006-0.131,0.019c-0.047,0.012-0.09,0.03-0.128,0.055c-0.039,0.025-0.069,0.057-0.096,0.093
			c-0.024,0.034-0.037,0.077-0.037,0.127s0.014,0.093,0.042,0.131c0.027,0.037,0.062,0.067,0.104,0.095
			c0.041,0.026,0.084,0.049,0.131,0.065c0.045,0.017,0.088,0.03,0.129,0.044l0.231,0.068c0.121,0.037,0.234,0.082,0.339,0.134
			c0.106,0.051,0.197,0.112,0.275,0.188c0.077,0.073,0.138,0.162,0.184,0.266c0.045,0.104,0.067,0.229,0.067,0.369
			c0,0.174-0.026,0.347-0.077,0.516s-0.146,0.312-0.286,0.43c-0.139,0.118-0.296,0.202-0.469,0.254
			c-0.174,0.051-0.349,0.076-0.524,0.076c-0.225,0-0.439-0.035-0.648-0.104c-0.209-0.069-0.404-0.168-0.583-0.297l0.39-0.732
			c0.115,0.1,0.239,0.184,0.372,0.256c0.134,0.071,0.279,0.105,0.438,0.105c0.052,0,0.104-0.006,0.158-0.021
			c0.053-0.014,0.1-0.034,0.142-0.063c0.041-0.026,0.075-0.062,0.103-0.107c0.025-0.045,0.038-0.1,0.038-0.161
			c0-0.065-0.019-0.118-0.058-0.161c-0.039-0.045-0.086-0.082-0.145-0.113c-0.058-0.029-0.117-0.057-0.182-0.076
			c-0.062-0.021-0.12-0.035-0.17-0.049c-0.143-0.041-0.271-0.082-0.389-0.127c-0.116-0.045-0.215-0.104-0.299-0.176
			c-0.084-0.07-0.148-0.16-0.193-0.269c-0.045-0.109-0.067-0.248-0.067-0.419c0-0.178,0.03-0.338,0.091-0.483
			c0.062-0.146,0.146-0.271,0.252-0.372s0.233-0.181,0.381-0.236c0.146-0.057,0.31-0.084,0.485-0.084
			c0.089,0,0.183,0.007,0.278,0.021c0.097,0.015,0.191,0.034,0.285,0.058c0.096,0.025,0.188,0.057,0.279,0.092
			c0.092,0.035,0.176,0.074,0.254,0.117L88.908,34.309z"/>
		<path d="M91.428,34.491h0.01l0.371,1.114h-0.757L91.428,34.491z M90.939,33.407l-1.349,3.507h0.966l0.243-0.609h1.255l0.229,0.609
			h0.972l-1.319-3.507H90.939z"/>
		<polygon points="96.191,33.407 96.191,35.55 96.184,35.55 94.514,33.407 93.604,33.407 93.604,36.914 94.514,36.914 
			94.514,34.766 94.523,34.766 96.191,36.914 97.104,36.914 97.104,33.407 		"/>
		<path d="M98.675,36.141h0.204c0.137,0,0.266-0.02,0.389-0.059s0.229-0.098,0.319-0.176c0.093-0.079,0.165-0.182,0.22-0.307
			c0.055-0.123,0.082-0.271,0.082-0.44c0-0.158-0.025-0.298-0.074-0.418c-0.051-0.121-0.119-0.224-0.207-0.308
			s-0.194-0.146-0.316-0.189c-0.122-0.044-0.257-0.064-0.4-0.064h-0.215L98.675,36.141L98.675,36.141z M97.764,33.408h1.293
			c0.244,0,0.475,0.045,0.688,0.135c0.216,0.09,0.403,0.214,0.565,0.372c0.16,0.158,0.289,0.343,0.383,0.556
			c0.095,0.211,0.143,0.442,0.143,0.689c0,0.244-0.048,0.475-0.143,0.688c-0.094,0.215-0.223,0.4-0.383,0.56
			c-0.162,0.157-0.352,0.28-0.567,0.372c-0.218,0.09-0.446,0.135-0.688,0.135h-1.291V33.408L97.764,33.408z"/>
	</g>
</g>
</svg>
