<?xml version="1.0" encoding="utf-8"?>
<!-- Generator: Adobe Illustrator 16.0.0, SVG Export Plug-In . SVG Version: 6.00 Build 0)  -->
<!DOCTYPE svg PUBLIC "-//W3C//DTD SVG 1.1//EN" "http://www.w3.org/Graphics/SVG/1.1/DTD/svg11.dtd">
<svg version="1.1" id="Ebene_1" xmlns="http://www.w3.org/2000/svg" xmlns:xlink="http://www.w3.org/1999/xlink" x="0px" y="0px"
	 width="155px" height="40px" viewBox="0 0 155 40" enable-background="new 0 0 155 40" xml:space="preserve">
<g>
	<path d="M5.629,22.755H4.01L1.48,15.45h1.639l1.304,4.122c0.073,0.23,0.143,0.47,0.21,0.714c0.068,0.245,0.133,0.498,0.195,0.759
		c0.108-0.449,0.239-0.923,0.396-1.423l1.352-4.171h1.619L5.629,22.755z"/>
	<path d="M11.334,20.502c0-0.326-0.099-0.597-0.299-0.812c-0.197-0.222-0.437-0.334-0.718-0.334c-0.304,0-0.551,0.118-0.741,0.354
		c-0.087,0.113-0.154,0.237-0.199,0.373c-0.046,0.136-0.068,0.282-0.068,0.442c0,0.324,0.101,0.594,0.304,0.813
		c0.201,0.214,0.438,0.322,0.713,0.322c0.294,0,0.536-0.117,0.727-0.353C11.241,21.076,11.334,20.807,11.334,20.502 M12.73,20.502
		c0,0.655-0.217,1.213-0.651,1.668c-0.457,0.492-1.066,0.738-1.821,0.738c-0.663,0-1.219-0.225-1.668-0.675
		c-0.443-0.454-0.663-1.036-0.663-1.743c0-0.669,0.22-1.238,0.663-1.708c0.455-0.465,1.035-0.699,1.738-0.699
		c0.7,0,1.274,0.23,1.723,0.689C12.504,19.226,12.73,19.801,12.73,20.502"/>
	<rect x="13.632" y="15.043" width="1.373" height="7.712"/>
	<polygon points="16.101,15.043 16.101,22.755 17.473,22.755 17.473,20.645 18.8,22.755 20.595,22.755 18.848,20.327 20.481,18.246 
		18.8,18.246 17.473,20.1 17.473,15.043 	"/>
	<path d="M24.32,21.431c0,0.45-0.164,0.809-0.494,1.073c-0.169,0.128-0.358,0.223-0.565,0.285c-0.208,0.062-0.439,0.094-0.696,0.094
		c-0.904,0-1.479-0.354-1.728-1.061l1.158-0.488c0.125,0.345,0.327,0.518,0.607,0.518c0.287,0,0.433-0.104,0.433-0.312
		c0-0.158-0.167-0.309-0.499-0.453c-0.119-0.047-0.239-0.088-0.357-0.123c-0.12-0.036-0.238-0.081-0.357-0.134
		c-0.286-0.124-0.498-0.29-0.634-0.498c-0.137-0.209-0.204-0.455-0.204-0.741c0-0.426,0.146-0.781,0.441-1.062
		c0.313-0.296,0.733-0.444,1.257-0.444c0.823,0,1.365,0.355,1.63,1.065l-1.103,0.451c-0.123-0.314-0.319-0.473-0.589-0.473
		c-0.241,0-0.362,0.108-0.362,0.322c0,0.179,0.166,0.34,0.5,0.483c0.118,0.048,0.239,0.093,0.363,0.133
		c0.125,0.04,0.249,0.085,0.37,0.135c0.286,0.125,0.496,0.289,0.629,0.494C24.254,20.901,24.32,21.146,24.32,21.431"/>
	<path d="M30.813,22.755h-1.29l-0.726-2.209c-0.044-0.131-0.079-0.252-0.108-0.364c-0.028-0.113-0.05-0.218-0.066-0.313
		c-0.023,0.134-0.051,0.258-0.077,0.373c-0.027,0.115-0.058,0.221-0.092,0.313l-0.725,2.2h-1.352l-1.821-4.505h1.425l0.801,2.17
		c0.026,0.067,0.059,0.166,0.102,0.296c0.043,0.131,0.091,0.297,0.144,0.497c0.025-0.093,0.052-0.205,0.08-0.337
		c0.028-0.13,0.069-0.276,0.123-0.437l0.71-2.189h1.408l0.664,2.05c0.06,0.183,0.109,0.35,0.15,0.499
		c0.04,0.149,0.072,0.281,0.095,0.394c0.047-0.171,0.095-0.328,0.144-0.475c0.048-0.145,0.096-0.284,0.144-0.418l0.754-2.05h1.397
		L30.813,22.755z"/>
	<path d="M36.253,20.573c0-0.337-0.094-0.618-0.287-0.842c-0.207-0.24-0.464-0.361-0.771-0.361c-0.296,0-0.533,0.108-0.717,0.321
		c-0.19,0.214-0.287,0.491-0.287,0.832c0,0.348,0.094,0.635,0.279,0.861c0.191,0.245,0.449,0.366,0.771,0.366
		c0.312,0,0.56-0.118,0.744-0.355C36.165,21.174,36.253,20.9,36.253,20.573 M36.206,22.754v-0.462
		c-0.387,0.401-0.867,0.603-1.444,0.603c-0.612,0-1.095-0.214-1.45-0.643c-0.352-0.427-0.526-0.99-0.526-1.69
		c0-0.365,0.046-0.693,0.138-0.981c0.093-0.287,0.234-0.548,0.423-0.778c0.382-0.469,0.896-0.704,1.537-0.704
		c0.616,0,1.056,0.222,1.323,0.669v-0.523h1.358v4.51H36.206z"/>
	<path d="M41.873,20.45c0-0.281-0.082-0.524-0.245-0.729c-0.195-0.241-0.452-0.363-0.77-0.363c-0.282,0-0.516,0.108-0.699,0.323
		c-0.184,0.218-0.276,0.478-0.276,0.779c0,0.171,0.022,0.324,0.07,0.461c0.047,0.137,0.115,0.259,0.206,0.365
		c0.188,0.208,0.436,0.312,0.746,0.312c0.296,0,0.533-0.113,0.712-0.343C41.787,21.034,41.873,20.765,41.873,20.45 M43.195,22.336
		c0,0.252-0.01,0.474-0.027,0.667c-0.02,0.192-0.051,0.365-0.096,0.517c-0.078,0.284-0.224,0.537-0.438,0.759
		c-0.435,0.452-1.045,0.679-1.835,0.679c-0.642,0-1.152-0.168-1.531-0.503c-0.369-0.331-0.553-0.749-0.553-1.254h1.362
		c0,0.192,0.084,0.348,0.251,0.468c0.077,0.066,0.164,0.115,0.26,0.146c0.093,0.032,0.193,0.048,0.301,0.048
		c0.629,0,0.943-0.368,0.943-1.103v-0.639c-0.342,0.406-0.799,0.608-1.367,0.608c-0.334,0-0.623-0.054-0.87-0.161
		s-0.46-0.276-0.639-0.508c-0.321-0.405-0.482-0.93-0.482-1.569c0-0.677,0.194-1.242,0.581-1.694
		c0.198-0.225,0.415-0.393,0.651-0.507c0.235-0.111,0.501-0.167,0.797-0.167c0.641,0,1.085,0.212,1.329,0.638v-0.513h1.362V22.336z"
		/>
	<path d="M47.12,19.981c0-0.228-0.072-0.426-0.214-0.591c-0.162-0.183-0.364-0.274-0.606-0.274c-0.245,0-0.444,0.082-0.598,0.243
		c-0.171,0.16-0.265,0.367-0.283,0.622H47.12z M48.479,20.435v0.226c0,0.033-0.001,0.066-0.002,0.099
		c-0.002,0.031-0.004,0.06-0.008,0.087h-3.051c0.009,0.293,0.117,0.531,0.319,0.713c0.192,0.195,0.437,0.292,0.735,0.292
		c0.486,0,0.855-0.185,1.107-0.557l0.837,0.657c-0.135,0.184-0.274,0.334-0.416,0.455c-0.144,0.121-0.29,0.219-0.441,0.292
		c-0.169,0.067-0.354,0.121-0.554,0.161c-0.202,0.04-0.425,0.062-0.67,0.062c-0.627,0-1.152-0.194-1.572-0.583
		c-0.444-0.434-0.664-1.032-0.664-1.8c0-0.7,0.206-1.286,0.617-1.754c0.207-0.242,0.443-0.419,0.708-0.531
		c0.265-0.111,0.56-0.169,0.883-0.169c0.65,0,1.175,0.204,1.572,0.608C48.279,19.116,48.479,19.696,48.479,20.435"/>
	<path d="M52.244,22.755v-2.498c0-0.591-0.217-0.887-0.647-0.887c-0.195,0-0.371,0.062-0.525,0.186
		c-0.212,0.174-0.317,0.449-0.317,0.824v2.368h-1.37v-4.507h1.37v0.598c0.321-0.469,0.777-0.704,1.37-0.704
		c0.462,0,0.833,0.15,1.113,0.448c0.252,0.269,0.378,0.708,0.378,1.318v2.854H52.244z"/>
	<path d="M61.516,19.062c0-0.747-0.192-1.326-0.577-1.738c-0.366-0.392-0.907-0.588-1.624-0.588h-0.338v4.734h0.411
		c0.651,0,1.152-0.182,1.504-0.549c0.207-0.22,0.361-0.484,0.467-0.79C61.463,19.825,61.516,19.469,61.516,19.062 M63.076,19
		c0,1.094-0.341,2.006-1.024,2.736c-0.637,0.68-1.534,1.02-2.693,1.02H57.51v-7.292h1.933c1.173,0,2.053,0.314,2.642,0.944
		C62.745,17.111,63.076,17.976,63.076,19"/>
	<path d="M66.727,19.981c0-0.228-0.069-0.426-0.211-0.591c-0.163-0.183-0.366-0.274-0.606-0.274c-0.245,0-0.444,0.082-0.6,0.243
		c-0.169,0.16-0.263,0.367-0.281,0.622H66.727z M68.089,20.435v0.226c0,0.033-0.001,0.066-0.002,0.099
		c-0.003,0.031-0.005,0.06-0.008,0.087h-3.051c0.01,0.293,0.114,0.531,0.319,0.713c0.192,0.195,0.438,0.292,0.735,0.292
		c0.486,0,0.854-0.185,1.105-0.557l0.839,0.657c-0.136,0.184-0.274,0.334-0.416,0.455c-0.143,0.121-0.29,0.219-0.441,0.292
		c-0.169,0.067-0.355,0.121-0.556,0.161s-0.424,0.062-0.668,0.062c-0.627,0-1.152-0.194-1.573-0.583
		c-0.443-0.434-0.663-1.032-0.663-1.8c0-0.7,0.206-1.286,0.616-1.754c0.208-0.242,0.443-0.419,0.709-0.531
		c0.265-0.111,0.56-0.169,0.883-0.169c0.649,0,1.175,0.204,1.572,0.608C67.889,19.116,68.089,19.696,68.089,20.435"/>
	<path d="M72.224,21.431c0,0.45-0.165,0.809-0.495,1.073c-0.169,0.128-0.358,0.223-0.565,0.285
		c-0.207,0.062-0.438,0.094-0.697,0.094c-0.902,0-1.479-0.354-1.728-1.061l1.159-0.488c0.125,0.345,0.328,0.518,0.606,0.518
		c0.288,0,0.434-0.104,0.434-0.312c0-0.158-0.167-0.309-0.499-0.453c-0.119-0.047-0.238-0.088-0.358-0.123
		c-0.119-0.036-0.238-0.081-0.356-0.134c-0.286-0.124-0.497-0.29-0.634-0.498c-0.137-0.209-0.206-0.455-0.206-0.741
		c0-0.426,0.149-0.781,0.443-1.062c0.314-0.296,0.733-0.444,1.257-0.444c0.823,0,1.365,0.355,1.629,1.065l-1.102,0.451
		c-0.122-0.314-0.318-0.473-0.588-0.473c-0.242,0-0.362,0.108-0.362,0.322c0,0.179,0.165,0.34,0.499,0.483
		c0.119,0.048,0.241,0.093,0.365,0.133s0.247,0.085,0.369,0.135c0.284,0.125,0.496,0.289,0.628,0.494
		C72.156,20.901,72.224,21.146,72.224,21.431"/>
	<path d="M73.179,18.247h1.371v4.509h-1.371V18.247z M74.68,16.551c0,0.241-0.083,0.45-0.248,0.628
		c-0.171,0.171-0.364,0.257-0.579,0.257c-0.224,0-0.42-0.086-0.589-0.257c-0.161-0.174-0.24-0.383-0.24-0.628
		c0-0.241,0.079-0.45,0.24-0.628c0.159-0.171,0.356-0.256,0.589-0.256c0.226,0,0.418,0.085,0.579,0.256
		C74.597,16.102,74.68,16.311,74.68,16.551"/>
	<path d="M78.878,20.45c0-0.281-0.081-0.524-0.244-0.729c-0.195-0.241-0.451-0.363-0.769-0.363c-0.284,0-0.516,0.108-0.699,0.323
		c-0.186,0.218-0.278,0.478-0.278,0.779c0,0.171,0.023,0.324,0.07,0.461c0.048,0.137,0.117,0.259,0.208,0.365
		c0.186,0.208,0.436,0.312,0.745,0.312c0.296,0,0.534-0.113,0.713-0.343C78.793,21.034,78.878,20.765,78.878,20.45 M80.202,22.336
		c0,0.252-0.01,0.474-0.029,0.667c-0.018,0.192-0.05,0.365-0.094,0.517c-0.079,0.284-0.225,0.537-0.438,0.759
		c-0.435,0.452-1.047,0.679-1.835,0.679c-0.642,0-1.152-0.168-1.533-0.503c-0.367-0.331-0.551-0.749-0.551-1.254h1.362
		c0,0.192,0.083,0.348,0.249,0.468c0.079,0.066,0.166,0.115,0.259,0.146c0.096,0.032,0.196,0.048,0.304,0.048
		c0.628,0,0.942-0.368,0.942-1.103v-0.639c-0.343,0.406-0.799,0.608-1.366,0.608c-0.335,0-0.624-0.054-0.87-0.161
		c-0.247-0.107-0.46-0.276-0.64-0.508c-0.32-0.405-0.481-0.93-0.481-1.569c0-0.677,0.193-1.242,0.581-1.694
		c0.197-0.225,0.414-0.393,0.65-0.507c0.234-0.111,0.501-0.167,0.796-0.167c0.643,0,1.085,0.212,1.33,0.638v-0.513h1.363V22.336z"/>
	<path d="M84.052,22.755v-2.498c0-0.591-0.217-0.887-0.647-0.887c-0.195,0-0.371,0.062-0.525,0.186
		c-0.212,0.174-0.317,0.449-0.317,0.824v2.368h-1.372v-4.507h1.372v0.598c0.321-0.469,0.777-0.704,1.368-0.704
		c0.463,0,0.835,0.15,1.115,0.448c0.252,0.269,0.377,0.708,0.377,1.318v2.854H84.052z"/>
	<path d="M93.681,22.498c-0.492,0.265-1.116,0.397-1.869,0.397c-1.027,0-1.866-0.36-2.517-1.084
		c-0.619-0.707-0.931-1.587-0.931-2.638c0-1.095,0.324-2.003,0.973-2.722c0.661-0.743,1.508-1.115,2.541-1.115
		c0.36,0,0.689,0.031,0.988,0.092c0.299,0.062,0.569,0.151,0.814,0.269v1.695c-0.471-0.413-1.054-0.618-1.751-0.618
		c-0.59,0-1.074,0.205-1.45,0.618c-0.393,0.428-0.589,1.007-0.589,1.737c0,0.646,0.174,1.185,0.522,1.617
		c0.389,0.466,0.91,0.699,1.562,0.699c0.697,0,1.266-0.19,1.705-0.569V22.498z"/>
	<path d="M97.48,19.981c0-0.228-0.072-0.426-0.213-0.591c-0.163-0.183-0.365-0.274-0.607-0.274c-0.245,0-0.443,0.082-0.598,0.243
		c-0.17,0.16-0.264,0.367-0.282,0.622H97.48z M98.841,20.435v0.226c0,0.033-0.001,0.066-0.003,0.099
		c-0.002,0.031-0.004,0.06-0.006,0.087H95.78c0.009,0.293,0.116,0.531,0.32,0.713c0.19,0.195,0.436,0.292,0.734,0.292
		c0.485,0,0.855-0.185,1.106-0.557l0.838,0.657c-0.135,0.184-0.275,0.334-0.417,0.455s-0.29,0.219-0.441,0.292
		c-0.169,0.067-0.354,0.121-0.554,0.161c-0.201,0.04-0.424,0.062-0.67,0.062c-0.627,0-1.152-0.194-1.571-0.583
		c-0.442-0.434-0.665-1.032-0.665-1.8c0-0.7,0.206-1.286,0.617-1.754c0.207-0.242,0.443-0.419,0.709-0.531
		c0.265-0.111,0.56-0.169,0.882-0.169c0.65,0,1.176,0.204,1.574,0.608C98.642,19.116,98.841,19.696,98.841,20.435"/>
	<path d="M102.604,22.755v-2.498c0-0.591-0.215-0.887-0.646-0.887c-0.196,0-0.371,0.062-0.526,0.186
		c-0.212,0.174-0.316,0.449-0.316,0.824v2.368h-1.37v-4.507h1.37v0.598c0.32-0.469,0.776-0.704,1.368-0.704
		c0.464,0,0.834,0.15,1.114,0.448c0.252,0.269,0.378,0.708,0.378,1.318v2.854H102.604z"/>
	<polygon points="106.616,19.345 106.616,22.755 105.245,22.755 105.245,19.345 104.666,19.345 104.666,18.25 105.245,18.25 
		105.245,16.634 106.616,16.634 106.616,18.25 107.393,18.25 107.393,19.345 	"/>
	<path d="M110.77,19.981c0-0.228-0.071-0.426-0.212-0.591c-0.163-0.183-0.365-0.274-0.607-0.274c-0.245,0-0.444,0.082-0.599,0.243
		c-0.169,0.16-0.264,0.367-0.282,0.622H110.77z M112.13,20.435v0.226c0,0.033-0.001,0.066-0.004,0.099
		c-0.001,0.031-0.003,0.06-0.006,0.087h-3.051c0.01,0.293,0.117,0.531,0.32,0.713c0.191,0.195,0.437,0.292,0.734,0.292
		c0.486,0,0.855-0.185,1.106-0.557l0.838,0.657c-0.135,0.184-0.274,0.334-0.416,0.455c-0.145,0.121-0.29,0.219-0.441,0.292
		c-0.169,0.067-0.354,0.121-0.556,0.161c-0.2,0.04-0.423,0.062-0.668,0.062c-0.627,0-1.152-0.194-1.573-0.583
		c-0.442-0.434-0.664-1.032-0.664-1.8c0-0.7,0.207-1.286,0.618-1.754c0.207-0.242,0.443-0.419,0.708-0.531
		c0.265-0.111,0.561-0.169,0.883-0.169c0.649,0,1.173,0.204,1.572,0.608C111.93,19.116,112.13,19.696,112.13,20.435"/>
	<path d="M115.707,19.61c-0.147-0.101-0.336-0.15-0.561-0.15c-0.487,0-0.73,0.444-0.73,1.335v1.961h-1.383V18.25h1.365v0.709
		c0.279-0.58,0.715-0.854,1.309-0.824V19.61z"/>
	<path d="M121.763,17.75c0-0.149-0.02-0.278-0.059-0.385c-0.039-0.109-0.095-0.202-0.167-0.282
		c-0.174-0.181-0.444-0.272-0.812-0.272h-0.632v1.884h0.585c0.39,0,0.669-0.092,0.841-0.275
		C121.682,18.245,121.763,18.022,121.763,17.75 M123.288,17.704c0,0.674-0.189,1.214-0.567,1.619
		c-0.443,0.474-1.116,0.71-2.021,0.71h-0.605v2.723h-1.479v-7.305h1.957c1.026,0,1.745,0.22,2.156,0.659
		C123.102,16.509,123.288,17.04,123.288,17.704"/>
	<path d="M126.815,20.502c0-0.326-0.1-0.597-0.3-0.812c-0.197-0.222-0.437-0.334-0.718-0.334c-0.304,0-0.551,0.118-0.741,0.354
		c-0.087,0.113-0.153,0.237-0.199,0.373s-0.067,0.282-0.067,0.442c0,0.324,0.102,0.594,0.304,0.813
		c0.201,0.214,0.438,0.322,0.714,0.322c0.294,0,0.535-0.117,0.727-0.353C126.722,21.076,126.815,20.807,126.815,20.502
		 M128.211,20.502c0,0.655-0.218,1.213-0.65,1.668c-0.459,0.492-1.066,0.738-1.823,0.738c-0.661,0-1.217-0.225-1.666-0.675
		c-0.443-0.454-0.665-1.036-0.665-1.743c0-0.669,0.222-1.238,0.665-1.708c0.455-0.465,1.034-0.699,1.737-0.699
		c0.7,0,1.274,0.23,1.724,0.689C127.983,19.226,128.211,19.801,128.211,20.502"/>
	<polygon points="130.571,19.345 130.571,22.755 129.201,22.755 129.201,19.345 128.622,19.345 128.622,18.25 129.201,18.25 
		129.201,16.634 130.571,16.634 130.571,18.25 131.349,18.25 131.349,19.345 	"/>
	<path d="M135.128,21.431c0,0.45-0.164,0.809-0.494,1.073c-0.169,0.128-0.357,0.223-0.565,0.285
		c-0.207,0.062-0.439,0.094-0.696,0.094c-0.904,0-1.479-0.354-1.728-1.061l1.158-0.488c0.125,0.345,0.327,0.518,0.607,0.518
		c0.288,0,0.433-0.104,0.433-0.312c0-0.158-0.166-0.309-0.499-0.453c-0.119-0.047-0.237-0.088-0.358-0.123
		c-0.117-0.036-0.238-0.081-0.356-0.134c-0.286-0.124-0.498-0.29-0.634-0.498c-0.136-0.209-0.204-0.455-0.204-0.741
		c0-0.426,0.146-0.781,0.443-1.062c0.312-0.296,0.731-0.444,1.256-0.444c0.822,0,1.366,0.355,1.628,1.065l-1.102,0.451
		c-0.123-0.314-0.318-0.473-0.589-0.473c-0.242,0-0.361,0.108-0.361,0.322c0,0.179,0.166,0.34,0.5,0.483
		c0.118,0.048,0.238,0.093,0.363,0.133c0.124,0.04,0.247,0.085,0.37,0.135c0.285,0.125,0.495,0.289,0.629,0.494
		C135.061,20.901,135.128,21.146,135.128,21.431"/>
	<path d="M139.314,20.461c0-0.331-0.104-0.606-0.312-0.828c-0.187-0.192-0.419-0.288-0.69-0.288c-0.306,0-0.55,0.113-0.734,0.343
		c-0.186,0.24-0.278,0.52-0.278,0.838c0,0.177,0.024,0.336,0.073,0.48c0.048,0.146,0.122,0.271,0.225,0.379
		c0.091,0.099,0.192,0.171,0.307,0.218c0.115,0.048,0.239,0.07,0.37,0.07c0.295,0,0.546-0.12,0.753-0.363
		C139.218,21.074,139.314,20.792,139.314,20.461 M139.279,22.759v-0.578c-0.415,0.442-0.903,0.663-1.464,0.663
		c-0.609,0-1.092-0.222-1.45-0.664c-0.338-0.438-0.507-0.993-0.507-1.668c0-0.662,0.189-1.218,0.568-1.664
		c0.398-0.466,0.914-0.7,1.549-0.7c0.549,0,0.983,0.17,1.304,0.512v-3.605h1.37v7.704H139.279z"/>
	<path d="M145.027,20.573c0-0.337-0.097-0.618-0.287-0.842c-0.209-0.24-0.465-0.361-0.773-0.361c-0.296,0-0.532,0.108-0.716,0.321
		c-0.191,0.214-0.287,0.491-0.287,0.832c0,0.348,0.094,0.635,0.278,0.861c0.192,0.245,0.449,0.366,0.772,0.366
		c0.31,0,0.559-0.118,0.743-0.355C144.938,21.174,145.027,20.9,145.027,20.573 M144.979,22.754v-0.462
		c-0.387,0.401-0.867,0.603-1.444,0.603c-0.612,0-1.095-0.214-1.449-0.643c-0.352-0.427-0.527-0.99-0.527-1.69
		c0-0.365,0.047-0.693,0.14-0.981c0.092-0.287,0.232-0.548,0.421-0.778c0.382-0.469,0.896-0.704,1.537-0.704
		c0.616,0,1.056,0.222,1.323,0.669v-0.523h1.358v4.51H144.979z"/>
	<path d="M153.077,22.755v-2.498c0-0.591-0.216-0.887-0.649-0.887c-0.198,0-0.371,0.062-0.517,0.186
		c-0.191,0.174-0.287,0.449-0.287,0.824v2.368h-1.371v-2.493c0-0.59-0.216-0.885-0.645-0.885c-0.198,0-0.367,0.062-0.512,0.186
		c-0.191,0.174-0.287,0.449-0.287,0.824v2.368h-1.371v-4.509h1.371v0.668c0.324-0.522,0.766-0.784,1.33-0.784
		c0.587,0,1.032,0.282,1.334,0.847c0.38-0.556,0.868-0.835,1.465-0.835c1.007,0,1.509,0.593,1.509,1.777v2.843H153.077z"/>
</g>
</svg>
